<?xml version="1.0" encoding="UTF-8" standalone="no"?>
<!DOCTYPE svg PUBLIC "-//W3C//DTD SVG 1.1//EN"
 "http://www.w3.org/Graphics/SVG/1.1/DTD/svg11.dtd">
<!-- Generated by graphviz version 12.2.0 (20241103.1931)
 -->
<!-- Pages: 1 -->
<svg width="1551pt" height="1406pt"
 viewBox="0.00 0.00 1551.45 1406.20" xmlns="http://www.w3.org/2000/svg" xmlns:xlink="http://www.w3.org/1999/xlink">
<g id="graph0" class="graph" transform="scale(1 1) rotate(0) translate(21.6 1384.6)">
<polygon fill="white" stroke="none" points="-21.6,21.6 -21.6,-1384.6 1529.85,-1384.6 1529.85,21.6 -21.6,21.6"/>
<g id="clust1" class="cluster">
<title>cluster~</title>
<path fill="none" stroke="black" stroke-width="2.6" d="M20,-8C20,-8 1488.25,-8 1488.25,-8 1494.25,-8 1500.25,-14 1500.25,-20 1500.25,-20 1500.25,-1155 1500.25,-1155 1500.25,-1161 1494.25,-1167 1488.25,-1167 1488.25,-1167 20,-1167 20,-1167 14,-1167 8,-1161 8,-1155 8,-1155 8,-20 8,-20 8,-14 14,-8 20,-8"/>
<text text-anchor="middle" x="754.12" y="-1150.65" font-family="Arial Black" font-size="13.00">settings</text>
</g>
<g id="clust2" class="cluster">
<title>cluster~/data</title>
<path fill="none" stroke="black" stroke-width="2.6" d="M560.25,-722C560.25,-722 1326.25,-722 1326.25,-722 1332.25,-722 1338.25,-728 1338.25,-734 1338.25,-734 1338.25,-929 1338.25,-929 1338.25,-935 1332.25,-941 1326.25,-941 1326.25,-941 560.25,-941 560.25,-941 554.25,-941 548.25,-935 548.25,-929 548.25,-929 548.25,-734 548.25,-734 548.25,-728 554.25,-722 560.25,-722"/>
<text text-anchor="middle" x="943.25" y="-924.65" font-family="Arial Black" font-size="13.00">data</text>
</g>
<g id="clust3" class="cluster">
<title>cluster~/pages</title>
<path fill="none" stroke="black" stroke-width="2.6" d="M28,-118C28,-118 444.25,-118 444.25,-118 450.25,-118 456.25,-124 456.25,-130 456.25,-130 456.25,-1045 456.25,-1045 456.25,-1051 450.25,-1057 444.25,-1057 444.25,-1057 28,-1057 28,-1057 22,-1057 16,-1051 16,-1045 16,-1045 16,-130 16,-130 16,-124 22,-118 28,-118"/>
<text text-anchor="middle" x="236.12" y="-1040.65" font-family="Arial Black" font-size="13.00">pages</text>
</g>
<g id="clust4" class="cluster">
<title>cluster~/widgets</title>
<path fill="none" stroke="black" stroke-width="2.6" d="M595.12,-17C595.12,-17 788.38,-17 788.38,-17 794.38,-17 800.38,-23 800.38,-29 800.38,-29 800.38,-368 800.38,-368 800.38,-374 794.38,-380 788.38,-380 788.38,-380 595.12,-380 595.12,-380 589.12,-380 583.12,-374 583.12,-368 583.12,-368 583.12,-29 583.12,-29 583.12,-23 589.12,-17 595.12,-17"/>
<text text-anchor="middle" x="691.75" y="-363.65" font-family="Arial Black" font-size="13.00">widgets</text>
</g>
<!-- /types_l10n.dart -->
<g id="node1" class="node">
<title>/types_l10n.dart</title>
<path fill="Lavender" stroke="black" stroke-width="1.3" d="M723.75,-462C723.75,-462 659.75,-462 659.75,-462 653.75,-462 647.75,-456 647.75,-450 647.75,-450 647.75,-438 647.75,-438 647.75,-432 653.75,-426 659.75,-426 659.75,-426 723.75,-426 723.75,-426 729.75,-426 735.75,-432 735.75,-438 735.75,-438 735.75,-450 735.75,-450 735.75,-456 729.75,-462 723.75,-462"/>
<text text-anchor="middle" x="691.75" y="-438.75" font-family="Arial" font-size="15.00">types_l10n</text>
</g>
<!-- /types.dart -->
<g id="node5" class="node">
<title>/types.dart</title>
<path fill="Lavender" stroke="black" stroke-width="1.3" d="M1480.25,-574C1480.25,-574 1450.25,-574 1450.25,-574 1444.25,-574 1438.25,-568 1438.25,-562 1438.25,-562 1438.25,-550 1438.25,-550 1438.25,-544 1444.25,-538 1450.25,-538 1450.25,-538 1480.25,-538 1480.25,-538 1486.25,-538 1492.25,-544 1492.25,-550 1492.25,-550 1492.25,-562 1492.25,-562 1492.25,-568 1486.25,-574 1480.25,-574"/>
<text text-anchor="middle" x="1465.25" y="-550.75" font-family="Arial" font-size="15.00">types</text>
</g>
<!-- /types_l10n.dart&#45;&gt;/types.dart -->
<g id="edge1" class="edge">
<title>/types_l10n.dart&#45;&gt;/types.dart</title>
<path fill="none" stroke="black" stroke-width="1.3" d="M736.03,-448.08C840.22,-458.22 1113.02,-486.7 1338.25,-527 1368.06,-532.33 1401.45,-540.1 1426.36,-546.25"/>
<polygon fill="black" stroke="black" stroke-width="1.3" points="1425.4,-549.62 1435.95,-548.65 1427.1,-542.83 1425.4,-549.62"/>
</g>
<!-- /widgets.dart -->
<g id="node2" class="node">
<title>/widgets.dart</title>
<path fill="Lavender" stroke="black" stroke-width="1.3" d="M372.5,-52C372.5,-52 330.25,-52 330.25,-52 324.25,-52 318.25,-46 318.25,-40 318.25,-40 318.25,-28 318.25,-28 318.25,-22 324.25,-16 330.25,-16 330.25,-16 372.5,-16 372.5,-16 378.5,-16 384.5,-22 384.5,-28 384.5,-28 384.5,-40 384.5,-40 384.5,-46 378.5,-52 372.5,-52"/>
<text text-anchor="middle" x="351.38" y="-28.75" font-family="Arial" font-size="15.00">widgets</text>
</g>
<!-- /widgets/settings_slider_tile.dart -->
<g id="node26" class="node">
<title>/widgets/settings_slider_tile.dart</title>
<path fill="Lavender" stroke="black" stroke-width="1.3" d="M748.88,-61C748.88,-61 634.62,-61 634.62,-61 628.62,-61 622.62,-55 622.62,-49 622.62,-49 622.62,-37 622.62,-37 622.62,-31 628.62,-25 634.62,-25 634.62,-25 748.88,-25 748.88,-25 754.88,-25 760.88,-31 760.88,-37 760.88,-37 760.88,-49 760.88,-49 760.88,-55 754.88,-61 748.88,-61"/>
<text text-anchor="middle" x="691.75" y="-37.75" font-family="Arial" font-size="15.00">settings_slider_tile</text>
</g>
<!-- /widgets.dart&#45;&gt;/widgets/settings_slider_tile.dart -->
<g id="edge5" class="edge">
<title>/widgets.dart&#45;&gt;/widgets/settings_slider_tile.dart</title>
<path fill="none" stroke="black" stroke-width="1.3" stroke-dasharray="5,2" d="M384.82,-34.86C436.37,-36.23 538.51,-38.95 610.56,-40.87"/>
<polygon fill="black" stroke="black" stroke-width="1.3" points="610.24,-44.36 620.33,-41.13 610.43,-37.36 610.24,-44.36"/>
</g>
<!-- /widgets/settings_interaction_blocker.dart -->
<g id="node27" class="node">
<title>/widgets/settings_interaction_blocker.dart</title>
<path fill="Lavender" stroke="black" stroke-width="1.3" d="M780.38,-133C780.38,-133 603.12,-133 603.12,-133 597.12,-133 591.12,-127 591.12,-121 591.12,-121 591.12,-109 591.12,-109 591.12,-103 597.12,-97 603.12,-97 603.12,-97 780.38,-97 780.38,-97 786.38,-97 792.38,-103 792.38,-109 792.38,-109 792.38,-121 792.38,-121 792.38,-127 786.38,-133 780.38,-133"/>
<text text-anchor="middle" x="691.75" y="-109.75" font-family="Arial" font-size="15.00">settings_interaction_blocker</text>
</g>
<!-- /widgets.dart&#45;&gt;/widgets/settings_interaction_blocker.dart -->
<g id="edge3" class="edge">
<title>/widgets.dart&#45;&gt;/widgets/settings_interaction_blocker.dart</title>
<path fill="none" stroke="black" stroke-width="1.3" stroke-dasharray="5,2" d="M384.82,-41.77C434.44,-53.64 530.92,-76.74 602.32,-93.83"/>
<polygon fill="black" stroke="black" stroke-width="1.3" points="601.1,-97.14 611.64,-96.06 602.73,-90.33 601.1,-97.14"/>
</g>
<!-- /widgets/settings_header.dart -->
<g id="node28" class="node">
<title>/widgets/settings_header.dart</title>
<path fill="Lavender" stroke="black" stroke-width="1.3" d="M741,-205C741,-205 642.5,-205 642.5,-205 636.5,-205 630.5,-199 630.5,-193 630.5,-193 630.5,-181 630.5,-181 630.5,-175 636.5,-169 642.5,-169 642.5,-169 741,-169 741,-169 747,-169 753,-175 753,-181 753,-181 753,-193 753,-193 753,-199 747,-205 741,-205"/>
<text text-anchor="middle" x="691.75" y="-181.75" font-family="Arial" font-size="15.00">settings_header</text>
</g>
<!-- /widgets.dart&#45;&gt;/widgets/settings_header.dart -->
<g id="edge2" class="edge">
<title>/widgets.dart&#45;&gt;/widgets/settings_header.dart</title>
<path fill="none" stroke="black" stroke-width="1.3" stroke-dasharray="5,2" d="M384.77,-45.57C405.81,-53.67 433.44,-65.44 456.25,-79 500.88,-105.54 501.63,-128.15 548.25,-151 570.1,-161.71 595.46,-169.44 618.67,-174.92"/>
<polygon fill="black" stroke="black" stroke-width="1.3" points="617.77,-178.31 628.3,-177.08 619.31,-171.48 617.77,-178.31"/>
</g>
<!-- /widgets/settings_page_scaffold.dart -->
<g id="node29" class="node">
<title>/widgets/settings_page_scaffold.dart</title>
<path fill="Lavender" stroke="black" stroke-width="1.3" d="M763.88,-349C763.88,-349 619.62,-349 619.62,-349 613.62,-349 607.62,-343 607.62,-337 607.62,-337 607.62,-325 607.62,-325 607.62,-319 613.62,-313 619.62,-313 619.62,-313 763.88,-313 763.88,-313 769.88,-313 775.88,-319 775.88,-325 775.88,-325 775.88,-337 775.88,-337 775.88,-343 769.88,-349 763.88,-349"/>
<text text-anchor="middle" x="691.75" y="-325.75" font-family="Arial" font-size="15.00">settings_page_scaffold</text>
</g>
<!-- /widgets.dart&#45;&gt;/widgets/settings_page_scaffold.dart -->
<g id="edge4" class="edge">
<title>/widgets.dart&#45;&gt;/widgets/settings_page_scaffold.dart</title>
<path fill="none" stroke="black" stroke-width="1.3" stroke-dasharray="5,2" d="M384.6,-41.19C407.19,-47.69 436.72,-59.35 456.25,-79 529.81,-153.01 468.97,-227.16 548.25,-295 561.85,-306.64 578.69,-314.6 595.98,-320.03"/>
<polygon fill="black" stroke="black" stroke-width="1.3" points="594.91,-323.36 605.48,-322.71 596.81,-316.62 594.91,-323.36"/>
</g>
<!-- /widgets/settings_tile.dart -->
<g id="node30" class="node">
<title>/widgets/settings_tile.dart</title>
<path fill="Lavender" stroke="black" stroke-width="1.3" d="M727.12,-277C727.12,-277 656.38,-277 656.38,-277 650.38,-277 644.38,-271 644.38,-265 644.38,-265 644.38,-253 644.38,-253 644.38,-247 650.38,-241 656.38,-241 656.38,-241 727.12,-241 727.12,-241 733.12,-241 739.12,-247 739.12,-253 739.12,-253 739.12,-265 739.12,-265 739.12,-271 733.12,-277 727.12,-277"/>
<text text-anchor="middle" x="691.75" y="-253.75" font-family="Arial" font-size="15.00">settings_tile</text>
</g>
<!-- /widgets.dart&#45;&gt;/widgets/settings_tile.dart -->
<g id="edge6" class="edge">
<title>/widgets.dart&#45;&gt;/widgets/settings_tile.dart</title>
<path fill="none" stroke="black" stroke-width="1.3" stroke-dasharray="5,2" d="M384.6,-42.51C406.62,-49.54 435.45,-61.29 456.25,-79 514.07,-128.25 486.65,-178.57 548.25,-223 572.7,-240.63 604.92,-249.66 632.54,-254.26"/>
<polygon fill="black" stroke="black" stroke-width="1.3" points="631.71,-257.68 642.12,-255.69 632.74,-250.76 631.71,-257.68"/>
</g>
<!-- /pages.dart -->
<g id="node3" class="node">
<title>/pages.dart</title>
<path fill="Lavender" stroke="black" stroke-width="1.3" d="M94.75,-1101C94.75,-1101 62.25,-1101 62.25,-1101 56.25,-1101 50.25,-1095 50.25,-1089 50.25,-1089 50.25,-1077 50.25,-1077 50.25,-1071 56.25,-1065 62.25,-1065 62.25,-1065 94.75,-1065 94.75,-1065 100.75,-1065 106.75,-1071 106.75,-1077 106.75,-1077 106.75,-1089 106.75,-1089 106.75,-1095 100.75,-1101 94.75,-1101"/>
<text text-anchor="middle" x="78.5" y="-1077.75" font-family="Arial" font-size="15.00">pages</text>
</g>
<!-- /pages/language_page.dart -->
<g id="node12" class="node">
<title>/pages/language_page.dart</title>
<path fill="Lavender" stroke="black" stroke-width="1.3" d="M398.38,-666C398.38,-666 304.38,-666 304.38,-666 298.38,-666 292.38,-660 292.38,-654 292.38,-654 292.38,-642 292.38,-642 292.38,-636 298.38,-630 304.38,-630 304.38,-630 398.38,-630 398.38,-630 404.38,-630 410.38,-636 410.38,-642 410.38,-642 410.38,-654 410.38,-654 410.38,-660 404.38,-666 398.38,-666"/>
<text text-anchor="middle" x="351.38" y="-642.75" font-family="Arial" font-size="15.00">language_page</text>
</g>
<!-- /pages.dart&#45;&gt;/pages/language_page.dart -->
<g id="edge17" class="edge">
<title>/pages.dart&#45;&gt;/pages/language_page.dart</title>
<path fill="none" stroke="black" stroke-width="1.3" stroke-dasharray="5,2" d="M107.18,-1080C120.7,-1077.17 136.23,-1071.67 146.5,-1061 267.36,-935.42 136.29,-812.09 254.5,-684 261.85,-676.04 271.13,-669.82 281.02,-664.98"/>
<polygon fill="black" stroke="black" stroke-width="1.3" points="282.33,-668.22 290.11,-661.03 279.54,-661.81 282.33,-668.22"/>
</g>
<!-- /pages/download_page.dart -->
<g id="node13" class="node">
<title>/pages/download_page.dart</title>
<path fill="Lavender" stroke="black" stroke-width="1.3" d="M399.5,-522C399.5,-522 303.25,-522 303.25,-522 297.25,-522 291.25,-516 291.25,-510 291.25,-510 291.25,-498 291.25,-498 291.25,-492 297.25,-486 303.25,-486 303.25,-486 399.5,-486 399.5,-486 405.5,-486 411.5,-492 411.5,-498 411.5,-498 411.5,-510 411.5,-510 411.5,-516 405.5,-522 399.5,-522"/>
<text text-anchor="middle" x="351.38" y="-498.75" font-family="Arial" font-size="15.00">download_page</text>
</g>
<!-- /pages.dart&#45;&gt;/pages/download_page.dart -->
<g id="edge14" class="edge">
<title>/pages.dart&#45;&gt;/pages/download_page.dart</title>
<path fill="none" stroke="black" stroke-width="1.3" stroke-dasharray="5,2" d="M107.18,-1080.38C120.87,-1077.66 136.55,-1072.14 146.5,-1061 304.02,-884.62 100.71,-719.64 254.5,-540 261.46,-531.87 270.45,-525.57 280.14,-520.69"/>
<polygon fill="black" stroke="black" stroke-width="1.3" points="281.33,-523.99 289.05,-516.73 278.49,-517.59 281.33,-523.99"/>
</g>
<!-- /pages/changelog_page.dart -->
<g id="node14" class="node">
<title>/pages/changelog_page.dart</title>
<path fill="Lavender" stroke="black" stroke-width="1.3" d="M402.12,-450C402.12,-450 300.62,-450 300.62,-450 294.62,-450 288.62,-444 288.62,-438 288.62,-438 288.62,-426 288.62,-426 288.62,-420 294.62,-414 300.62,-414 300.62,-414 402.12,-414 402.12,-414 408.12,-414 414.12,-420 414.12,-426 414.12,-426 414.12,-438 414.12,-438 414.12,-444 408.12,-450 402.12,-450"/>
<text text-anchor="middle" x="351.38" y="-426.75" font-family="Arial" font-size="15.00">changelog_page</text>
</g>
<!-- /pages.dart&#45;&gt;/pages/changelog_page.dart -->
<g id="edge11" class="edge">
<title>/pages.dart&#45;&gt;/pages/changelog_page.dart</title>
<path fill="none" stroke="black" stroke-width="1.3" stroke-dasharray="5,2" d="M106.95,-1080.55C120.75,-1077.87 136.61,-1072.35 146.5,-1061 322.51,-859.04 82.77,-673.6 254.5,-468 260.81,-460.45 268.87,-454.48 277.63,-449.76"/>
<polygon fill="black" stroke="black" stroke-width="1.3" points="278.85,-453.06 286.4,-445.62 275.86,-446.73 278.85,-453.06"/>
</g>
<!-- /pages/image_viewer_page.dart -->
<g id="node15" class="node">
<title>/pages/image_viewer_page.dart</title>
<path fill="Lavender" stroke="black" stroke-width="1.3" d="M413.75,-306C413.75,-306 289,-306 289,-306 283,-306 277,-300 277,-294 277,-294 277,-282 277,-282 277,-276 283,-270 289,-270 289,-270 413.75,-270 413.75,-270 419.75,-270 425.75,-276 425.75,-282 425.75,-282 425.75,-294 425.75,-294 425.75,-300 419.75,-306 413.75,-306"/>
<text text-anchor="middle" x="351.38" y="-282.75" font-family="Arial" font-size="15.00">image_viewer_page</text>
</g>
<!-- /pages.dart&#45;&gt;/pages/image_viewer_page.dart -->
<g id="edge16" class="edge">
<title>/pages.dart&#45;&gt;/pages/image_viewer_page.dart</title>
<path fill="none" stroke="black" stroke-width="1.3" stroke-dasharray="5,2" d="M107.11,-1080.69C120.96,-1078.05 136.8,-1072.52 146.5,-1061 359.65,-807.69 46.71,-581.72 254.5,-324 258.08,-319.56 262.26,-315.67 266.85,-312.26"/>
<polygon fill="black" stroke="black" stroke-width="1.3" points="268.57,-315.32 275.1,-306.97 264.79,-309.42 268.57,-315.32"/>
</g>
<!-- /pages/search_settings_page.dart -->
<g id="node16" class="node">
<title>/pages/search_settings_page.dart</title>
<path fill="Lavender" stroke="black" stroke-width="1.3" d="M420.5,-594C420.5,-594 282.25,-594 282.25,-594 276.25,-594 270.25,-588 270.25,-582 270.25,-582 270.25,-570 270.25,-570 270.25,-564 276.25,-558 282.25,-558 282.25,-558 420.5,-558 420.5,-558 426.5,-558 432.5,-564 432.5,-570 432.5,-570 432.5,-582 432.5,-582 432.5,-588 426.5,-594 420.5,-594"/>
<text text-anchor="middle" x="351.38" y="-570.75" font-family="Arial" font-size="15.00">search_settings_page</text>
</g>
<!-- /pages.dart&#45;&gt;/pages/search_settings_page.dart -->
<g id="edge19" class="edge">
<title>/pages.dart&#45;&gt;/pages/search_settings_page.dart</title>
<path fill="none" stroke="black" stroke-width="1.3" stroke-dasharray="5,2" d="M107.03,-1080.25C120.68,-1077.49 136.38,-1071.98 146.5,-1061 285.62,-910.1 118.57,-765.79 254.5,-612 258.28,-607.73 262.61,-603.96 267.3,-600.64"/>
<polygon fill="black" stroke="black" stroke-width="1.3" points="269.02,-603.69 275.7,-595.47 265.35,-597.73 269.02,-603.69"/>
</g>
<!-- /pages/data_and_storage_page.dart -->
<g id="node17" class="node">
<title>/pages/data_and_storage_page.dart</title>
<path fill="Lavender" stroke="black" stroke-width="1.3" d="M428.38,-234C428.38,-234 274.38,-234 274.38,-234 268.38,-234 262.38,-228 262.38,-222 262.38,-222 262.38,-210 262.38,-210 262.38,-204 268.38,-198 274.38,-198 274.38,-198 428.38,-198 428.38,-198 434.38,-198 440.38,-204 440.38,-210 440.38,-210 440.38,-222 440.38,-222 440.38,-228 434.38,-234 428.38,-234"/>
<text text-anchor="middle" x="351.38" y="-210.75" font-family="Arial" font-size="15.00">data_and_storage_page</text>
</g>
<!-- /pages.dart&#45;&gt;/pages/data_and_storage_page.dart -->
<g id="edge12" class="edge">
<title>/pages.dart&#45;&gt;/pages/data_and_storage_page.dart</title>
<path fill="none" stroke="black" stroke-width="1.3" stroke-dasharray="5,2" d="M107.17,-1080.74C121.04,-1078.12 136.88,-1072.58 146.5,-1061 378.27,-781.96 28.63,-535.84 254.5,-252 257.83,-247.82 261.7,-244.12 265.93,-240.85"/>
<polygon fill="black" stroke="black" stroke-width="1.3" points="267.68,-243.89 274.09,-235.45 263.82,-238.06 267.68,-243.89"/>
</g>
<!-- /pages/accessibility_page.dart -->
<g id="node18" class="node">
<title>/pages/accessibility_page.dart</title>
<path fill="Lavender" stroke="black" stroke-width="1.3" d="M407.38,-378C407.38,-378 295.38,-378 295.38,-378 289.38,-378 283.38,-372 283.38,-366 283.38,-366 283.38,-354 283.38,-354 283.38,-348 289.38,-342 295.38,-342 295.38,-342 407.38,-342 407.38,-342 413.38,-342 419.38,-348 419.38,-354 419.38,-354 419.38,-366 419.38,-366 419.38,-372 413.38,-378 407.38,-378"/>
<text text-anchor="middle" x="351.38" y="-354.75" font-family="Arial" font-size="15.00">accessibility_page</text>
</g>
<!-- /pages.dart&#45;&gt;/pages/accessibility_page.dart -->
<g id="edge8" class="edge">
<title>/pages.dart&#45;&gt;/pages/accessibility_page.dart</title>
<path fill="none" stroke="black" stroke-width="1.3" stroke-dasharray="5,2" d="M107.04,-1080.62C120.87,-1077.97 136.72,-1072.45 146.5,-1061 341.06,-833.39 64.76,-627.64 254.5,-396 259.57,-389.81 265.82,-384.68 272.69,-380.44"/>
<polygon fill="black" stroke="black" stroke-width="1.3" points="274.23,-383.58 281.37,-375.76 270.91,-377.42 274.23,-383.58"/>
</g>
<!-- /pages/debug_logs_page.dart -->
<g id="node19" class="node">
<title>/pages/debug_logs_page.dart</title>
<path fill="Lavender" stroke="black" stroke-width="1.3" d="M406.25,-954C406.25,-954 296.5,-954 296.5,-954 290.5,-954 284.5,-948 284.5,-942 284.5,-942 284.5,-930 284.5,-930 284.5,-924 290.5,-918 296.5,-918 296.5,-918 406.25,-918 406.25,-918 412.25,-918 418.25,-924 418.25,-930 418.25,-930 418.25,-942 418.25,-942 418.25,-948 412.25,-954 406.25,-954"/>
<text text-anchor="middle" x="351.38" y="-930.75" font-family="Arial" font-size="15.00">debug_logs_page</text>
</g>
<!-- /pages.dart&#45;&gt;/pages/debug_logs_page.dart -->
<g id="edge13" class="edge">
<title>/pages.dart&#45;&gt;/pages/debug_logs_page.dart</title>
<path fill="none" stroke="black" stroke-width="1.3" stroke-dasharray="5,2" d="M107.19,-1076.42C119.65,-1072.83 134.27,-1067.73 146.5,-1061 200.99,-1031 200.65,-1003.13 254.5,-972 262.76,-967.22 271.77,-962.87 280.86,-958.96"/>
<polygon fill="black" stroke="black" stroke-width="1.3" points="282.18,-962.21 290.11,-955.18 279.53,-955.73 282.18,-962.21"/>
</g>
<!-- /pages/help_us_translate_page.dart -->
<g id="node20" class="node">
<title>/pages/help_us_translate_page.dart</title>
<path fill="Lavender" stroke="black" stroke-width="1.3" d="M426.88,-882C426.88,-882 275.88,-882 275.88,-882 269.88,-882 263.88,-876 263.88,-870 263.88,-870 263.88,-858 263.88,-858 263.88,-852 269.88,-846 275.88,-846 275.88,-846 426.88,-846 426.88,-846 432.88,-846 438.88,-852 438.88,-858 438.88,-858 438.88,-870 438.88,-870 438.88,-876 432.88,-882 426.88,-882"/>
<text text-anchor="middle" x="351.38" y="-858.75" font-family="Arial" font-size="15.00">help_us_translate_page</text>
</g>
<!-- /pages.dart&#45;&gt;/pages/help_us_translate_page.dart -->
<g id="edge15" class="edge">
<title>/pages.dart&#45;&gt;/pages/help_us_translate_page.dart</title>
<path fill="none" stroke="black" stroke-width="1.3" stroke-dasharray="5,2" d="M107.21,-1078.24C120.11,-1074.99 135.08,-1069.65 146.5,-1061 215.17,-1008.95 186.94,-953.48 254.5,-900 260.49,-895.25 267.18,-891.09 274.16,-887.44"/>
<polygon fill="black" stroke="black" stroke-width="1.3" points="275.26,-890.79 282.76,-883.31 272.23,-884.48 275.26,-890.79"/>
</g>
<!-- /pages/backup_and_restore_page.dart -->
<g id="node21" class="node">
<title>/pages/backup_and_restore_page.dart</title>
<path fill="Lavender" stroke="black" stroke-width="1.3" d="M436.25,-810C436.25,-810 266.5,-810 266.5,-810 260.5,-810 254.5,-804 254.5,-798 254.5,-798 254.5,-786 254.5,-786 254.5,-780 260.5,-774 266.5,-774 266.5,-774 436.25,-774 436.25,-774 442.25,-774 448.25,-780 448.25,-786 448.25,-786 448.25,-798 448.25,-798 448.25,-804 442.25,-810 436.25,-810"/>
<text text-anchor="middle" x="351.38" y="-786.75" font-family="Arial" font-size="15.00">backup_and_restore_page</text>
</g>
<!-- /pages.dart&#45;&gt;/pages/backup_and_restore_page.dart -->
<g id="edge10" class="edge">
<title>/pages.dart&#45;&gt;/pages/backup_and_restore_page.dart</title>
<path fill="none" stroke="black" stroke-width="1.3" stroke-dasharray="5,2" d="M107.17,-1079.16C120.37,-1076.12 135.61,-1070.68 146.5,-1061 231.78,-985.14 170.83,-905.63 254.5,-828 259.43,-823.43 264.99,-819.42 270.89,-815.92"/>
<polygon fill="black" stroke="black" stroke-width="1.3" points="272.18,-819.19 279.36,-811.4 268.89,-813.02 272.18,-819.19"/>
</g>
<!-- /pages/about_page.dart -->
<g id="node22" class="node">
<title>/pages/about_page.dart</title>
<path fill="Lavender" stroke="black" stroke-width="1.3" d="M386.75,-1026C386.75,-1026 316,-1026 316,-1026 310,-1026 304,-1020 304,-1014 304,-1014 304,-1002 304,-1002 304,-996 310,-990 316,-990 316,-990 386.75,-990 386.75,-990 392.75,-990 398.75,-996 398.75,-1002 398.75,-1002 398.75,-1014 398.75,-1014 398.75,-1020 392.75,-1026 386.75,-1026"/>
<text text-anchor="middle" x="351.38" y="-1002.75" font-family="Arial" font-size="15.00">about_page</text>
</g>
<!-- /pages.dart&#45;&gt;/pages/about_page.dart -->
<g id="edge7" class="edge">
<title>/pages.dart&#45;&gt;/pages/about_page.dart</title>
<path fill="none" stroke="black" stroke-width="1.3" stroke-dasharray="5,2" d="M107.22,-1073.96C141.58,-1062.91 202.04,-1043.95 254.5,-1030 266.76,-1026.74 279.97,-1023.52 292.56,-1020.59"/>
<polygon fill="black" stroke="black" stroke-width="1.3" points="293.01,-1024.08 301.97,-1018.43 291.44,-1017.26 293.01,-1024.08"/>
</g>
<!-- /pages/settings_page.dart -->
<g id="node23" class="node">
<title>/pages/settings_page.dart</title>
<path fill="Lavender" stroke="black" stroke-width="1.3" d="M121,-630C121,-630 36,-630 36,-630 30,-630 24,-624 24,-618 24,-618 24,-606 24,-606 24,-600 30,-594 36,-594 36,-594 121,-594 121,-594 127,-594 133,-600 133,-606 133,-606 133,-618 133,-618 133,-624 127,-630 121,-630"/>
<text text-anchor="middle" x="78.5" y="-606.75" font-family="Arial" font-size="15.00">settings_page</text>
</g>
<!-- /pages.dart&#45;&gt;/pages/settings_page.dart -->
<g id="edge20" class="edge">
<title>/pages.dart&#45;&gt;/pages/settings_page.dart</title>
<path fill="none" stroke="black" stroke-width="1.3" stroke-dasharray="5,2" d="M78.5,-1064.88C78.5,-924.01 78.5,-783.15 78.5,-642.28"/>
<polygon fill="black" stroke="black" stroke-width="1.3" points="82,-642.37 78.5,-632.37 75,-642.37 82,-642.37"/>
</g>
<!-- /pages/appearance_page.dart -->
<g id="node24" class="node">
<title>/pages/appearance_page.dart</title>
<path fill="Lavender" stroke="black" stroke-width="1.3" d="M407.38,-162C407.38,-162 295.38,-162 295.38,-162 289.38,-162 283.38,-156 283.38,-150 283.38,-150 283.38,-138 283.38,-138 283.38,-132 289.38,-126 295.38,-126 295.38,-126 407.38,-126 407.38,-126 413.38,-126 419.38,-132 419.38,-138 419.38,-138 419.38,-150 419.38,-150 419.38,-156 413.38,-162 407.38,-162"/>
<text text-anchor="middle" x="351.38" y="-138.75" font-family="Arial" font-size="15.00">appearance_page</text>
</g>
<!-- /pages.dart&#45;&gt;/pages/appearance_page.dart -->
<g id="edge9" class="edge">
<title>/pages.dart&#45;&gt;/pages/appearance_page.dart</title>
<path fill="none" stroke="black" stroke-width="1.3" stroke-dasharray="5,2" d="M107.22,-1080.78C121.1,-1078.17 136.94,-1072.64 146.5,-1061 396.92,-756.19 10.52,-489.99 254.5,-180 259.64,-173.47 266.1,-168.12 273.23,-163.75"/>
<polygon fill="black" stroke="black" stroke-width="1.3" points="274.4,-167.09 281.56,-159.29 271.09,-160.92 274.4,-167.09"/>
</g>
<!-- /pages/privacy_page.dart -->
<g id="node25" class="node">
<title>/pages/privacy_page.dart</title>
<path fill="Lavender" stroke="black" stroke-width="1.3" d="M391.62,-738C391.62,-738 311.12,-738 311.12,-738 305.12,-738 299.12,-732 299.12,-726 299.12,-726 299.12,-714 299.12,-714 299.12,-708 305.12,-702 311.12,-702 311.12,-702 391.62,-702 391.62,-702 397.62,-702 403.62,-708 403.62,-714 403.62,-714 403.62,-726 403.62,-726 403.62,-732 397.62,-738 391.62,-738"/>
<text text-anchor="middle" x="351.38" y="-714.75" font-family="Arial" font-size="15.00">privacy_page</text>
</g>
<!-- /pages.dart&#45;&gt;/pages/privacy_page.dart -->
<g id="edge18" class="edge">
<title>/pages.dart&#45;&gt;/pages/privacy_page.dart</title>
<path fill="none" stroke="black" stroke-width="1.3" stroke-dasharray="5,2" d="M107.24,-1079.66C120.61,-1076.74 135.99,-1071.27 146.5,-1061 249.35,-960.49 153.78,-858.64 254.5,-756 263.75,-746.58 275.69,-739.59 288,-734.42"/>
<polygon fill="black" stroke="black" stroke-width="1.3" points="288.88,-737.83 297,-731.03 286.41,-731.28 288.88,-737.83"/>
</g>
<!-- /data.dart -->
<g id="node4" class="node">
<title>/data.dart</title>
<path fill="Lavender" stroke="black" stroke-width="1.3" d="M366.38,-1136C366.38,-1136 336.38,-1136 336.38,-1136 330.38,-1136 324.38,-1130 324.38,-1124 324.38,-1124 324.38,-1112 324.38,-1112 324.38,-1106 330.38,-1100 336.38,-1100 336.38,-1100 366.38,-1100 366.38,-1100 372.38,-1100 378.38,-1106 378.38,-1112 378.38,-1112 378.38,-1124 378.38,-1124 378.38,-1130 372.38,-1136 366.38,-1136"/>
<text text-anchor="middle" x="351.38" y="-1112.75" font-family="Arial" font-size="15.00">data</text>
</g>
<!-- /data/settings_io_handler.dart -->
<g id="node6" class="node">
<title>/data/settings_io_handler.dart</title>
<path fill="Lavender" stroke="black" stroke-width="1.3" d="M1318.25,-910C1318.25,-910 1197.25,-910 1197.25,-910 1191.25,-910 1185.25,-904 1185.25,-898 1185.25,-898 1185.25,-886 1185.25,-886 1185.25,-880 1191.25,-874 1197.25,-874 1197.25,-874 1318.25,-874 1318.25,-874 1324.25,-874 1330.25,-880 1330.25,-886 1330.25,-886 1330.25,-898 1330.25,-898 1330.25,-904 1324.25,-910 1318.25,-910"/>
<text text-anchor="middle" x="1257.75" y="-886.75" font-family="Arial" font-size="15.00">settings_io_handler</text>
</g>
<!-- /data.dart&#45;&gt;/data/settings_io_handler.dart -->
<g id="edge22" class="edge">
<title>/data.dart&#45;&gt;/data/settings_io_handler.dart</title>
<path fill="none" stroke="black" stroke-width="1.3" stroke-dasharray="5,2" d="M378.79,-1116.91C451.41,-1113.44 659.86,-1100.25 827.25,-1058 969.94,-1021.98 1129.51,-951.93 1207.9,-915.41"/>
<polygon fill="black" stroke="black" stroke-width="1.3" points="1209.06,-918.73 1216.63,-911.32 1206.09,-912.39 1209.06,-918.73"/>
</g>
<!-- /data/settings_notifier.dart -->
<g id="node7" class="node">
<title>/data/settings_notifier.dart</title>
<path fill="Lavender" stroke="black" stroke-width="1.3" d="M1054.75,-910C1054.75,-910 957.75,-910 957.75,-910 951.75,-910 945.75,-904 945.75,-898 945.75,-898 945.75,-886 945.75,-886 945.75,-880 951.75,-874 957.75,-874 957.75,-874 1054.75,-874 1054.75,-874 1060.75,-874 1066.75,-880 1066.75,-886 1066.75,-886 1066.75,-898 1066.75,-898 1066.75,-904 1060.75,-910 1054.75,-910"/>
<text text-anchor="middle" x="1006.25" y="-886.75" font-family="Arial" font-size="15.00">settings_notifier</text>
</g>
<!-- /data.dart&#45;&gt;/data/settings_notifier.dart -->
<g id="edge23" class="edge">
<title>/data.dart&#45;&gt;/data/settings_notifier.dart</title>
<path fill="none" stroke="black" stroke-width="1.3" stroke-dasharray="5,2" d="M378.77,-1115.9C453.1,-1109.11 669.07,-1083.39 827.25,-1004 880.04,-977.5 880.52,-947.43 935.32,-914.74"/>
<polygon fill="black" stroke="black" stroke-width="1.3" points="936.7,-917.98 943.68,-910.01 933.25,-911.89 936.7,-917.98"/>
</g>
<!-- /data/settings_repository_logger_interceptor.dart -->
<g id="node8" class="node">
<title>/data/settings_repository_logger_interceptor.dart</title>
<path fill="Lavender" stroke="black" stroke-width="1.3" d="M815.25,-838C815.25,-838 568.25,-838 568.25,-838 562.25,-838 556.25,-832 556.25,-826 556.25,-826 556.25,-814 556.25,-814 556.25,-808 562.25,-802 568.25,-802 568.25,-802 815.25,-802 815.25,-802 821.25,-802 827.25,-808 827.25,-814 827.25,-814 827.25,-826 827.25,-826 827.25,-832 821.25,-838 815.25,-838"/>
<text text-anchor="middle" x="691.75" y="-814.75" font-family="Arial" font-size="15.00">settings_repository_logger_interceptor</text>
</g>
<!-- /data.dart&#45;&gt;/data/settings_repository_logger_interceptor.dart -->
<g id="edge26" class="edge">
<title>/data.dart&#45;&gt;/data/settings_repository_logger_interceptor.dart</title>
<path fill="none" stroke="black" stroke-width="1.3" stroke-dasharray="5,2" d="M378.55,-1112.49C401.67,-1106.41 434.93,-1094.48 456.25,-1073 530.03,-998.64 468.71,-924.17 548.25,-856 553.72,-851.31 559.71,-847.22 566.05,-843.65"/>
<polygon fill="black" stroke="black" stroke-width="1.3" points="567.18,-847.01 574.51,-839.36 564.01,-840.77 567.18,-847.01"/>
</g>
<!-- /data/settings_repository.dart -->
<g id="node9" class="node">
<title>/data/settings_repository.dart</title>
<path fill="Lavender" stroke="black" stroke-width="1.3" d="M1065.25,-838C1065.25,-838 947.25,-838 947.25,-838 941.25,-838 935.25,-832 935.25,-826 935.25,-826 935.25,-814 935.25,-814 935.25,-808 941.25,-802 947.25,-802 947.25,-802 1065.25,-802 1065.25,-802 1071.25,-802 1077.25,-808 1077.25,-814 1077.25,-814 1077.25,-826 1077.25,-826 1077.25,-832 1071.25,-838 1065.25,-838"/>
<text text-anchor="middle" x="1006.25" y="-814.75" font-family="Arial" font-size="15.00">settings_repository</text>
</g>
<!-- /data.dart&#45;&gt;/data/settings_repository.dart -->
<g id="edge25" class="edge">
<title>/data.dart&#45;&gt;/data/settings_repository.dart</title>
<path fill="none" stroke="black" stroke-width="1.3" stroke-dasharray="5,2" d="M378.63,-1106.33C400.02,-1096.47 430.75,-1081.52 456.25,-1066 499.46,-1039.7 502.47,-1020.51 548.25,-999 664.05,-944.58 710.35,-980.01 827.25,-928 879.96,-904.55 885.52,-885.24 935.25,-856 942.14,-851.95 949.53,-847.87 956.83,-843.99"/>
<polygon fill="black" stroke="black" stroke-width="1.3" points="958.42,-847.11 965.66,-839.38 955.18,-840.91 958.42,-847.11"/>
</g>
<!-- /data/settings_providers.dart -->
<g id="node10" class="node">
<title>/data/settings_providers.dart</title>
<path fill="Lavender" stroke="black" stroke-width="1.3" d="M748.5,-766C748.5,-766 635,-766 635,-766 629,-766 623,-760 623,-754 623,-754 623,-742 623,-742 623,-736 629,-730 635,-730 635,-730 748.5,-730 748.5,-730 754.5,-730 760.5,-736 760.5,-742 760.5,-742 760.5,-754 760.5,-754 760.5,-760 754.5,-766 748.5,-766"/>
<text text-anchor="middle" x="691.75" y="-742.75" font-family="Arial" font-size="15.00">settings_providers</text>
</g>
<!-- /data.dart&#45;&gt;/data/settings_providers.dart -->
<g id="edge24" class="edge">
<title>/data.dart&#45;&gt;/data/settings_providers.dart</title>
<path fill="none" stroke="black" stroke-width="1.3" stroke-dasharray="5,2" d="M378.58,-1113.07C402.05,-1107.33 435.82,-1095.6 456.25,-1073 546.65,-973.01 450.08,-876.38 548.25,-784 565.34,-767.92 588.54,-758.75 611.26,-753.59"/>
<polygon fill="black" stroke="black" stroke-width="1.3" points="611.64,-757.08 620.77,-751.7 610.27,-750.22 611.64,-757.08"/>
</g>
<!-- /data/setting_repository_hive.dart -->
<g id="node11" class="node">
<title>/data/setting_repository_hive.dart</title>
<path fill="Lavender" stroke="black" stroke-width="1.3" d="M764.62,-910C764.62,-910 618.88,-910 618.88,-910 612.88,-910 606.88,-904 606.88,-898 606.88,-898 606.88,-886 606.88,-886 606.88,-880 612.88,-874 618.88,-874 618.88,-874 764.62,-874 764.62,-874 770.62,-874 776.62,-880 776.62,-886 776.62,-886 776.62,-898 776.62,-898 776.62,-904 770.62,-910 764.62,-910"/>
<text text-anchor="middle" x="691.75" y="-886.75" font-family="Arial" font-size="15.00">setting_repository_hive</text>
</g>
<!-- /data.dart&#45;&gt;/data/setting_repository_hive.dart -->
<g id="edge21" class="edge">
<title>/data.dart&#45;&gt;/data/setting_repository_hive.dart</title>
<path fill="none" stroke="black" stroke-width="1.3" stroke-dasharray="5,2" d="M378.83,-1111.59C401.5,-1105.01 433.94,-1092.87 456.25,-1073 517.22,-1018.7 480.85,-960.08 548.25,-914 562.1,-904.53 578.47,-898.51 595.09,-894.78"/>
<polygon fill="black" stroke="black" stroke-width="1.3" points="595.52,-898.27 604.67,-892.93 594.19,-891.39 595.52,-898.27"/>
</g>
<!-- /settings.dart -->
<g id="node31" class="node">
<title>/settings.dart</title>
<path fill="Lavender" stroke="black" stroke-width="1.3" d="M1279.62,-714C1279.62,-714 1235.88,-714 1235.88,-714 1229.88,-714 1223.88,-708 1223.88,-702 1223.88,-702 1223.88,-690 1223.88,-690 1223.88,-684 1229.88,-678 1235.88,-678 1235.88,-678 1279.62,-678 1279.62,-678 1285.62,-678 1291.62,-684 1291.62,-690 1291.62,-690 1291.62,-702 1291.62,-702 1291.62,-708 1285.62,-714 1279.62,-714"/>
<text text-anchor="middle" x="1257.75" y="-690.75" font-family="Arial" font-size="15.00">settings</text>
</g>
<!-- /data/settings_io_handler.dart&#45;&gt;/settings.dart -->
<g id="edge27" class="edge">
<title>/data/settings_io_handler.dart&#45;&gt;/settings.dart</title>
<path fill="none" stroke="black" stroke-width="1.3" d="M1257.75,-873.61C1257.75,-824.47 1257.75,-775.33 1257.75,-726.19"/>
<polygon fill="black" stroke="black" stroke-width="1.3" points="1261.25,-726.34 1257.75,-716.34 1254.25,-726.34 1261.25,-726.34"/>
</g>
<!-- /data/settings_notifier.dart&#45;&gt;/data/settings_io_handler.dart -->
<g id="edge29" class="edge">
<title>/data/settings_notifier.dart&#45;&gt;/data/settings_io_handler.dart</title>
<path fill="none" stroke="black" stroke-width="1.3" d="M1067.01,-892C1098.87,-892 1138.58,-892 1173.43,-892"/>
<polygon fill="black" stroke="black" stroke-width="1.3" points="1173.07,-895.5 1183.07,-892 1173.07,-888.5 1173.07,-895.5"/>
</g>
<!-- /data/settings_notifier.dart&#45;&gt;/settings.dart -->
<g id="edge28" class="edge">
<title>/data/settings_notifier.dart&#45;&gt;/settings.dart</title>
<path fill="none" stroke="black" stroke-width="1.3" d="M1050.17,-873.65C1059.58,-868.63 1069.14,-862.71 1077.25,-856 1137.27,-806.37 1121.09,-762.14 1185.25,-718 1193.31,-712.45 1202.83,-708.26 1212.23,-705.12"/>
<polygon fill="black" stroke="black" stroke-width="1.3" points="1213.07,-708.52 1221.67,-702.33 1211.09,-701.81 1213.07,-708.52"/>
</g>
<!-- /data/settings_repository_logger_interceptor.dart&#45;&gt;/data/settings_repository.dart -->
<g id="edge31" class="edge">
<title>/data/settings_repository_logger_interceptor.dart&#45;&gt;/data/settings_repository.dart</title>
<path fill="none" stroke="black" stroke-width="1.3" d="M827.55,-820C860.07,-820 893.85,-820 923.12,-820"/>
<polygon fill="black" stroke="black" stroke-width="1.3" points="922.98,-823.5 932.98,-820 922.98,-816.5 922.98,-823.5"/>
</g>
<!-- /data/settings_repository_logger_interceptor.dart&#45;&gt;/settings.dart -->
<g id="edge30" class="edge">
<title>/data/settings_repository_logger_interceptor.dart&#45;&gt;/settings.dart</title>
<path fill="none" stroke="black" stroke-width="1.3" d="M761.87,-801.51C782.87,-795.89 806,-789.7 827.25,-784 875.26,-771.13 886.77,-765.94 935.25,-755 1033.33,-732.87 1149.66,-713.11 1211.99,-703.04"/>
<polygon fill="black" stroke="black" stroke-width="1.3" points="1212.45,-706.51 1221.77,-701.47 1211.34,-699.6 1212.45,-706.51"/>
</g>
<!-- /data/settings_repository.dart&#45;&gt;/settings.dart -->
<g id="edge32" class="edge">
<title>/data/settings_repository.dart&#45;&gt;/settings.dart</title>
<path fill="none" stroke="black" stroke-width="1.3" d="M1069.53,-801.65C1072.17,-800.49 1074.75,-799.27 1077.25,-798 1130.48,-770.89 1131.94,-744.95 1185.25,-718 1193.64,-713.76 1203.01,-710.15 1212.13,-707.17"/>
<polygon fill="black" stroke="black" stroke-width="1.3" points="1213.03,-710.55 1221.57,-704.29 1210.98,-703.86 1213.03,-710.55"/>
</g>
<!-- /data/settings_providers.dart&#45;&gt;/data/settings_notifier.dart -->
<g id="edge34" class="edge">
<title>/data/settings_providers.dart&#45;&gt;/data/settings_notifier.dart</title>
<path fill="none" stroke="black" stroke-width="1.3" d="M760.95,-761.67C782.66,-767.22 806.44,-774.59 827.25,-784 879.81,-807.77 885.52,-826.76 935.25,-856 942.14,-860.05 949.53,-864.13 956.83,-868.01"/>
<polygon fill="black" stroke="black" stroke-width="1.3" points="955.18,-871.09 965.66,-872.62 958.42,-864.89 955.18,-871.09"/>
</g>
<!-- /data/settings_providers.dart&#45;&gt;/settings.dart -->
<g id="edge33" class="edge">
<title>/data/settings_providers.dart&#45;&gt;/settings.dart</title>
<path fill="none" stroke="black" stroke-width="1.3" d="M760.83,-738.15C809.36,-731.41 876.21,-722.7 935.25,-717 1033.9,-707.48 1150.01,-701.08 1212.15,-698.04"/>
<polygon fill="black" stroke="black" stroke-width="1.3" points="1212.05,-701.55 1221.87,-697.57 1211.71,-694.56 1212.05,-701.55"/>
</g>
<!-- /data/setting_repository_hive.dart&#45;&gt;/data/settings_repository.dart -->
<g id="edge36" class="edge">
<title>/data/setting_repository_hive.dart&#45;&gt;/data/settings_repository.dart</title>
<path fill="none" stroke="black" stroke-width="1.3" d="M772.82,-873.55C819,-862.91 876.93,-849.56 923.41,-838.86"/>
<polygon fill="black" stroke="black" stroke-width="1.3" points="924.09,-842.29 933.04,-836.64 922.51,-835.47 924.09,-842.29"/>
</g>
<!-- /data/setting_repository_hive.dart&#45;&gt;/settings.dart -->
<g id="edge35" class="edge">
<title>/data/setting_repository_hive.dart&#45;&gt;/settings.dart</title>
<path fill="none" stroke="black" stroke-width="1.3" d="M777.1,-873.95C794.06,-869.07 811.5,-863.12 827.25,-856 879.81,-832.23 882.3,-806.9 935.25,-784 994.72,-758.28 1014.68,-767.83 1077.25,-751 1080.62,-750.09 1160.06,-725.71 1212.12,-709.72"/>
<polygon fill="black" stroke="black" stroke-width="1.3" points="1213,-713.11 1221.53,-706.82 1210.95,-706.42 1213,-713.11"/>
</g>
<!-- /pages/language_page.dart&#45;&gt;/data/settings_providers.dart -->
<g id="edge37" class="edge">
<title>/pages/language_page.dart&#45;&gt;/data/settings_providers.dart</title>
<path fill="none" stroke="black" stroke-width="1.3" d="M408.8,-666.47C424.29,-671.83 441.01,-677.9 456.25,-684 497.98,-700.71 505.19,-713.12 548.25,-726 568.29,-732 590.43,-736.42 611.17,-739.66"/>
<polygon fill="black" stroke="black" stroke-width="1.3" points="610.5,-743.1 620.9,-741.1 611.52,-736.18 610.5,-743.1"/>
</g>
<!-- /pages/language_page.dart&#45;&gt;/widgets/settings_page_scaffold.dart -->
<g id="edge38" class="edge">
<title>/pages/language_page.dart&#45;&gt;/widgets/settings_page_scaffold.dart</title>
<path fill="none" stroke="black" stroke-width="1.3" d="M410.84,-637.66C427.23,-632.32 443.92,-624.23 456.25,-612 542.96,-525.95 454.14,-430.88 548.25,-353 561.78,-341.81 578.59,-335.09 595.87,-331.25"/>
<polygon fill="black" stroke="black" stroke-width="1.3" points="596.14,-334.76 605.33,-329.48 594.85,-327.88 596.14,-334.76"/>
</g>
<!-- /pages/download_page.dart&#45;&gt;/data/settings_providers.dart -->
<g id="edge39" class="edge">
<title>/pages/download_page.dart&#45;&gt;/data/settings_providers.dart</title>
<path fill="none" stroke="black" stroke-width="1.3" d="M411.86,-515.9C427.62,-521.26 443.72,-528.96 456.25,-540 525.43,-600.99 473.85,-671.49 548.25,-726 566.22,-739.17 588.92,-745.84 610.89,-748.94"/>
<polygon fill="black" stroke="black" stroke-width="1.3" points="610.34,-752.4 620.68,-750.06 611.14,-745.44 610.34,-752.4"/>
</g>
<!-- /pages/download_page.dart&#45;&gt;/widgets/settings_page_scaffold.dart -->
<g id="edge40" class="edge">
<title>/pages/download_page.dart&#45;&gt;/widgets/settings_page_scaffold.dart</title>
<path fill="none" stroke="black" stroke-width="1.3" d="M411.76,-489.8C427.09,-484.47 443,-477.36 456.25,-468 509.72,-430.24 491.6,-385.78 548.25,-353 562.69,-344.65 579.26,-339.15 595.88,-335.59"/>
<polygon fill="black" stroke="black" stroke-width="1.3" points="596.26,-339.08 605.43,-333.79 594.96,-332.2 596.26,-339.08"/>
</g>
<!-- /pages/download_page.dart&#45;&gt;/widgets/settings_tile.dart -->
<g id="edge41" class="edge">
<title>/pages/download_page.dart&#45;&gt;/widgets/settings_tile.dart</title>
<path fill="none" stroke="black" stroke-width="1.3" d="M411.92,-491.76C427.6,-486.41 443.63,-478.8 456.25,-468 522.42,-411.38 479.71,-348.72 548.25,-295 572.15,-276.27 604.62,-267.17 632.53,-262.8"/>
<polygon fill="black" stroke="black" stroke-width="1.3" points="632.8,-266.3 642.23,-261.47 631.84,-259.36 632.8,-266.3"/>
</g>
<!-- /pages/image_viewer_page.dart&#45;&gt;/types_l10n.dart -->
<g id="edge44" class="edge">
<title>/pages/image_viewer_page.dart&#45;&gt;/types_l10n.dart</title>
<path fill="none" stroke="black" stroke-width="1.3" d="M417.07,-306.48C430.41,-311.37 444.08,-317.21 456.25,-324 502.32,-349.7 501.83,-373.94 548.25,-399 575.62,-413.77 608.6,-424.58 635.94,-431.89"/>
<polygon fill="black" stroke="black" stroke-width="1.3" points="634.82,-435.21 645.37,-434.32 636.56,-428.44 634.82,-435.21"/>
</g>
<!-- /pages/image_viewer_page.dart&#45;&gt;/types.dart -->
<g id="edge43" class="edge">
<title>/pages/image_viewer_page.dart&#45;&gt;/types.dart</title>
<path fill="none" stroke="black" stroke-width="1.3" d="M426.22,-306.24C436.97,-310.92 447.39,-316.75 456.25,-324 518.54,-374.97 480.07,-437.22 548.25,-480 586.06,-503.72 1257.73,-544.05 1426.18,-553.82"/>
<polygon fill="black" stroke="black" stroke-width="1.3" points="1425.93,-557.31 1436.12,-554.39 1426.34,-550.32 1425.93,-557.31"/>
</g>
<!-- /pages/image_viewer_page.dart&#45;&gt;/data/settings_providers.dart -->
<g id="edge42" class="edge">
<title>/pages/image_viewer_page.dart&#45;&gt;/data/settings_providers.dart</title>
<path fill="none" stroke="black" stroke-width="1.3" d="M425.99,-302.91C437.36,-308 448.03,-314.84 456.25,-324 578.63,-460.45 414.08,-601.13 548.25,-726 565.1,-741.68 588.24,-748.94 610.97,-751.8"/>
<polygon fill="black" stroke="black" stroke-width="1.3" points="610.54,-755.27 620.82,-752.73 611.19,-748.3 610.54,-755.27"/>
</g>
<!-- /pages/image_viewer_page.dart&#45;&gt;/widgets/settings_header.dart -->
<g id="edge45" class="edge">
<title>/pages/image_viewer_page.dart&#45;&gt;/widgets/settings_header.dart</title>
<path fill="none" stroke="black" stroke-width="1.3" d="M406.41,-269.58C454.55,-253.25 521.42,-230.83 548.25,-223 570.99,-216.37 595.97,-209.81 618.58,-204.15"/>
<polygon fill="black" stroke="black" stroke-width="1.3" points="619.39,-207.55 628.25,-201.75 617.7,-200.76 619.39,-207.55"/>
</g>
<!-- /pages/image_viewer_page.dart&#45;&gt;/widgets/settings_page_scaffold.dart -->
<g id="edge46" class="edge">
<title>/pages/image_viewer_page.dart&#45;&gt;/widgets/settings_page_scaffold.dart</title>
<path fill="none" stroke="black" stroke-width="1.3" d="M426.21,-297.38C475.94,-303.7 541.99,-312.1 595.65,-318.92"/>
<polygon fill="black" stroke="black" stroke-width="1.3" points="594.94,-322.35 605.3,-320.14 595.82,-315.41 594.94,-322.35"/>
</g>
<!-- /pages/image_viewer_page.dart&#45;&gt;/widgets/settings_tile.dart -->
<g id="edge47" class="edge">
<title>/pages/image_viewer_page.dart&#45;&gt;/widgets/settings_tile.dart</title>
<path fill="none" stroke="black" stroke-width="1.3" d="M426.21,-281.67C488.12,-276.37 575.32,-268.89 632.42,-264"/>
<polygon fill="black" stroke="black" stroke-width="1.3" points="632.5,-267.5 642.17,-263.16 631.9,-260.53 632.5,-267.5"/>
</g>
<!-- /pages/search_settings_page.dart&#45;&gt;/types.dart -->
<g id="edge49" class="edge">
<title>/pages/search_settings_page.dart&#45;&gt;/types.dart</title>
<path fill="none" stroke="black" stroke-width="1.3" d="M432.79,-574.55C654.26,-570.57 1267.23,-559.54 1426.2,-556.68"/>
<polygon fill="black" stroke="black" stroke-width="1.3" points="1426.19,-560.19 1436.13,-556.51 1426.07,-553.19 1426.19,-560.19"/>
</g>
<!-- /pages/search_settings_page.dart&#45;&gt;/data/settings_providers.dart -->
<g id="edge48" class="edge">
<title>/pages/search_settings_page.dart&#45;&gt;/data/settings_providers.dart</title>
<path fill="none" stroke="black" stroke-width="1.3" d="M422.88,-594.41C434.59,-599.12 446.18,-604.92 456.25,-612 509.51,-649.44 491.83,-693.51 548.25,-726 567.1,-736.86 589.58,-742.88 611.04,-746.09"/>
<polygon fill="black" stroke="black" stroke-width="1.3" points="610.52,-749.56 620.88,-747.36 611.41,-742.61 610.52,-749.56"/>
</g>
<!-- /pages/search_settings_page.dart&#45;&gt;/widgets/settings_page_scaffold.dart -->
<g id="edge50" class="edge">
<title>/pages/search_settings_page.dart&#45;&gt;/widgets/settings_page_scaffold.dart</title>
<path fill="none" stroke="black" stroke-width="1.3" d="M428.31,-557.62C438.42,-552.98 448.1,-547.2 456.25,-540 525.67,-478.67 473.59,-407.82 548.25,-353 562.02,-342.89 578.58,-336.6 595.46,-332.83"/>
<polygon fill="black" stroke="black" stroke-width="1.3" points="596.06,-336.27 605.23,-330.96 594.75,-329.4 596.06,-336.27"/>
</g>
<!-- /pages/data_and_storage_page.dart&#45;&gt;/data/settings_providers.dart -->
<g id="edge51" class="edge">
<title>/pages/data_and_storage_page.dart&#45;&gt;/data/settings_providers.dart</title>
<path fill="none" stroke="black" stroke-width="1.3" d="M433.76,-234.41C442.22,-239.02 450,-244.79 456.25,-252 596.85,-414.12 393.61,-577.21 548.25,-726 564.92,-742.04 588.11,-749.36 610.96,-752.18"/>
<polygon fill="black" stroke="black" stroke-width="1.3" points="610.6,-755.66 620.88,-753.08 611.24,-748.69 610.6,-755.66"/>
</g>
<!-- /pages/data_and_storage_page.dart&#45;&gt;/widgets/settings_header.dart -->
<g id="edge52" class="edge">
<title>/pages/data_and_storage_page.dart&#45;&gt;/widgets/settings_header.dart</title>
<path fill="none" stroke="black" stroke-width="1.3" d="M440.84,-208.42C496.15,-203.68 566.51,-197.65 618.47,-193.19"/>
<polygon fill="black" stroke="black" stroke-width="1.3" points="618.63,-196.69 628.3,-192.35 618.04,-189.72 618.63,-196.69"/>
</g>
<!-- /pages/data_and_storage_page.dart&#45;&gt;/widgets/settings_page_scaffold.dart -->
<g id="edge53" class="edge">
<title>/pages/data_and_storage_page.dart&#45;&gt;/widgets/settings_page_scaffold.dart</title>
<path fill="none" stroke="black" stroke-width="1.3" d="M409.11,-234.47C424.52,-239.81 441.13,-245.87 456.25,-252 498.07,-268.97 505.73,-279.85 548.25,-295 563.58,-300.46 580.12,-305.44 596.31,-309.83"/>
<polygon fill="black" stroke="black" stroke-width="1.3" points="594.98,-313.1 605.54,-312.27 596.77,-306.33 594.98,-313.1"/>
</g>
<!-- /pages/accessibility_page.dart&#45;&gt;/data/settings_providers.dart -->
<g id="edge55" class="edge">
<title>/pages/accessibility_page.dart&#45;&gt;/data/settings_providers.dart</title>
<path fill="none" stroke="black" stroke-width="1.3" d="M419.75,-372.79C433.3,-378.06 446.38,-385.5 456.25,-396 560.54,-506.94 434.39,-624.91 548.25,-726 565.39,-741.21 588.49,-748.36 611.1,-751.26"/>
<polygon fill="black" stroke="black" stroke-width="1.3" points="610.59,-754.73 620.89,-752.22 611.27,-747.76 610.59,-754.73"/>
</g>
<!-- /pages/accessibility_page.dart&#45;&gt;/widgets/settings_page_scaffold.dart -->
<g id="edge56" class="edge">
<title>/pages/accessibility_page.dart&#45;&gt;/widgets/settings_page_scaffold.dart</title>
<path fill="none" stroke="black" stroke-width="1.3" d="M419.63,-354.24C469.92,-349.93 539.37,-343.97 595.39,-339.17"/>
<polygon fill="black" stroke="black" stroke-width="1.3" points="595.5,-342.68 605.17,-338.33 594.91,-335.7 595.5,-342.68"/>
</g>
<!-- /pages/accessibility_page.dart&#45;&gt;/widgets/settings_tile.dart -->
<g id="edge54" class="edge">
<title>/pages/accessibility_page.dart&#45;&gt;/widgets/settings_tile.dart</title>
<path fill="none" stroke="black" stroke-width="1.3" d="M406.41,-341.58C454.55,-325.25 521.42,-302.83 548.25,-295 575.76,-286.97 606.55,-279.06 632.46,-272.71"/>
<polygon fill="black" stroke="black" stroke-width="1.3" points="633.19,-276.13 642.08,-270.37 631.53,-269.33 633.19,-276.13"/>
</g>
<!-- /pages/debug_logs_page.dart&#45;&gt;/data/settings_providers.dart -->
<g id="edge57" class="edge">
<title>/pages/debug_logs_page.dart&#45;&gt;/data/settings_providers.dart</title>
<path fill="none" stroke="black" stroke-width="1.3" d="M418.58,-919.37C431.74,-914.36 444.96,-908.01 456.25,-900 509.92,-861.93 492.99,-819.72 548.25,-784 566.96,-771.91 589.48,-763.87 611.04,-758.54"/>
<polygon fill="black" stroke="black" stroke-width="1.3" points="611.65,-761.99 620.63,-756.35 610.1,-755.16 611.65,-761.99"/>
</g>
<!-- /pages/backup_and_restore_page.dart&#45;&gt;/data/settings_providers.dart -->
<g id="edge58" class="edge">
<title>/pages/backup_and_restore_page.dart&#45;&gt;/data/settings_providers.dart</title>
<path fill="none" stroke="black" stroke-width="1.3" d="M448.43,-779.51C499.79,-772.83 562.27,-764.71 610.93,-758.38"/>
<polygon fill="black" stroke="black" stroke-width="1.3" points="611.25,-761.87 620.71,-757.11 610.35,-754.93 611.25,-761.87"/>
</g>
<!-- /pages/backup_and_restore_page.dart&#45;&gt;/widgets/settings_page_scaffold.dart -->
<g id="edge59" class="edge">
<title>/pages/backup_and_restore_page.dart&#45;&gt;/widgets/settings_page_scaffold.dart</title>
<path fill="none" stroke="black" stroke-width="1.3" d="M433.28,-773.52C441.88,-768.92 449.82,-763.18 456.25,-756 578.88,-619.2 413.8,-478.2 548.25,-353 561.32,-340.83 578.18,-333.73 595.7,-329.83"/>
<polygon fill="black" stroke="black" stroke-width="1.3" points="596.14,-333.3 605.34,-328.06 594.87,-326.42 596.14,-333.3"/>
</g>
<!-- /pages/settings_page.dart&#45;&gt;/data/settings_providers.dart -->
<g id="edge60" class="edge">
<title>/pages/settings_page.dart&#45;&gt;/data/settings_providers.dart</title>
<path fill="none" stroke="black" stroke-width="1.3" d="M133.32,-624.03C138.2,-626.71 142.72,-629.99 146.5,-634 275.71,-771.16 105.25,-928.97 254.5,-1044 290.01,-1071.37 419.64,-1069.88 456.25,-1044 556.34,-973.24 457.65,-866.57 548.25,-784 565.43,-768.34 588.44,-759.27 610.94,-754.07"/>
<polygon fill="black" stroke="black" stroke-width="1.3" points="611.6,-757.51 620.7,-752.09 610.21,-750.65 611.6,-757.51"/>
</g>
<!-- /pages/settings_page.dart&#45;&gt;/pages/language_page.dart -->
<g id="edge72" class="edge">
<title>/pages/settings_page.dart&#45;&gt;/pages/language_page.dart</title>
<path fill="none" stroke="black" stroke-width="1.3" d="M133.34,-619.16C175.49,-624.76 234.46,-632.59 280.29,-638.69"/>
<polygon fill="black" stroke="black" stroke-width="1.3" points="279.62,-642.13 289.99,-639.98 280.54,-635.19 279.62,-642.13"/>
</g>
<!-- /pages/settings_page.dart&#45;&gt;/pages/download_page.dart -->
<g id="edge69" class="edge">
<title>/pages/settings_page.dart&#45;&gt;/pages/download_page.dart</title>
<path fill="none" stroke="black" stroke-width="1.3" d="M123.22,-593.57C158.53,-578.79 209.56,-557.68 254.5,-540 265.78,-535.56 277.86,-530.93 289.51,-526.53"/>
<polygon fill="black" stroke="black" stroke-width="1.3" points="290.53,-529.88 298.66,-523.08 288.07,-523.33 290.53,-529.88"/>
</g>
<!-- /pages/settings_page.dart&#45;&gt;/pages/changelog_page.dart -->
<g id="edge66" class="edge">
<title>/pages/settings_page.dart&#45;&gt;/pages/changelog_page.dart</title>
<path fill="none" stroke="black" stroke-width="1.3" d="M97.38,-593.8C127.46,-564.04 191.13,-504.61 254.5,-468 262.76,-463.23 271.78,-458.87 280.86,-454.97"/>
<polygon fill="black" stroke="black" stroke-width="1.3" points="282.18,-458.21 290.11,-451.18 279.53,-451.73 282.18,-458.21"/>
</g>
<!-- /pages/settings_page.dart&#45;&gt;/pages/image_viewer_page.dart -->
<g id="edge71" class="edge">
<title>/pages/settings_page.dart&#45;&gt;/pages/image_viewer_page.dart</title>
<path fill="none" stroke="black" stroke-width="1.3" d="M85.77,-593.61C103.83,-543.24 160.8,-401.65 254.5,-324 260.16,-319.31 266.49,-315.2 273.13,-311.59"/>
<polygon fill="black" stroke="black" stroke-width="1.3" points="274.58,-314.78 282,-307.22 271.49,-308.5 274.58,-314.78"/>
</g>
<!-- /pages/settings_page.dart&#45;&gt;/pages/search_settings_page.dart -->
<g id="edge74" class="edge">
<title>/pages/settings_page.dart&#45;&gt;/pages/search_settings_page.dart</title>
<path fill="none" stroke="black" stroke-width="1.3" d="M133.34,-604.84C168.94,-600.11 216.54,-593.79 258.09,-588.26"/>
<polygon fill="black" stroke="black" stroke-width="1.3" points="258.51,-591.74 267.97,-586.95 257.59,-584.8 258.51,-591.74"/>
</g>
<!-- /pages/settings_page.dart&#45;&gt;/pages/data_and_storage_page.dart -->
<g id="edge67" class="edge">
<title>/pages/settings_page.dart&#45;&gt;/pages/data_and_storage_page.dart</title>
<path fill="none" stroke="black" stroke-width="1.3" d="M83.3,-593.79C96.36,-535.56 144.81,-351.91 254.5,-252 259.55,-247.4 265.25,-243.37 271.28,-239.84"/>
<polygon fill="black" stroke="black" stroke-width="1.3" points="272.74,-243.03 279.96,-235.28 269.48,-236.83 272.74,-243.03"/>
</g>
<!-- /pages/settings_page.dart&#45;&gt;/pages/accessibility_page.dart -->
<g id="edge63" class="edge">
<title>/pages/settings_page.dart&#45;&gt;/pages/accessibility_page.dart</title>
<path fill="none" stroke="black" stroke-width="1.3" d="M89.72,-593.62C113.43,-552.53 176.19,-452.44 254.5,-396 261.12,-391.23 268.44,-387.01 276.01,-383.31"/>
<polygon fill="black" stroke="black" stroke-width="1.3" points="277.37,-386.53 285.03,-379.21 274.47,-380.16 277.37,-386.53"/>
</g>
<!-- /pages/settings_page.dart&#45;&gt;/pages/debug_logs_page.dart -->
<g id="edge68" class="edge">
<title>/pages/settings_page.dart&#45;&gt;/pages/debug_logs_page.dart</title>
<path fill="none" stroke="black" stroke-width="1.3" d="M133.47,-624.88C138.21,-627.4 142.65,-630.41 146.5,-634 239.76,-721.08 163.09,-810.98 254.5,-900 260.15,-905.5 266.72,-910.18 273.72,-914.15"/>
<polygon fill="black" stroke="black" stroke-width="1.3" points="271.97,-917.18 282.47,-918.58 275.13,-910.94 271.97,-917.18"/>
</g>
<!-- /pages/settings_page.dart&#45;&gt;/pages/help_us_translate_page.dart -->
<g id="edge70" class="edge">
<title>/pages/settings_page.dart&#45;&gt;/pages/help_us_translate_page.dart</title>
<path fill="none" stroke="black" stroke-width="1.3" d="M133.37,-625.56C138.07,-627.94 142.53,-630.73 146.5,-634 222.61,-696.82 179.73,-763.6 254.5,-828 259.98,-832.72 266.14,-836.85 272.63,-840.46"/>
<polygon fill="black" stroke="black" stroke-width="1.3" points="270.77,-843.44 281.28,-844.82 273.93,-837.19 270.77,-843.44"/>
</g>
<!-- /pages/settings_page.dart&#45;&gt;/pages/backup_and_restore_page.dart -->
<g id="edge65" class="edge">
<title>/pages/settings_page.dart&#45;&gt;/pages/backup_and_restore_page.dart</title>
<path fill="none" stroke="black" stroke-width="1.3" d="M133.37,-626.81C137.96,-628.92 142.41,-631.31 146.5,-634 207,-673.79 194.84,-714.95 254.5,-756 261.45,-760.78 269.11,-765.03 276.99,-768.77"/>
<polygon fill="black" stroke="black" stroke-width="1.3" points="275.46,-771.92 286.02,-772.77 278.3,-765.52 275.46,-771.92"/>
</g>
<!-- /pages/settings_page.dart&#45;&gt;/pages/about_page.dart -->
<g id="edge62" class="edge">
<title>/pages/settings_page.dart&#45;&gt;/pages/about_page.dart</title>
<path fill="none" stroke="black" stroke-width="1.3" d="M133.44,-624.41C138.24,-627.02 142.71,-630.18 146.5,-634 257.57,-745.96 145.8,-857.74 254.5,-972 264.75,-982.77 278.54,-990.35 292.45,-995.67"/>
<polygon fill="black" stroke="black" stroke-width="1.3" points="291.12,-998.91 301.72,-998.83 293.38,-992.29 291.12,-998.91"/>
</g>
<!-- /pages/settings_page.dart&#45;&gt;/pages/appearance_page.dart -->
<g id="edge64" class="edge">
<title>/pages/settings_page.dart&#45;&gt;/pages/appearance_page.dart</title>
<path fill="none" stroke="black" stroke-width="1.3" d="M81.69,-593.51C90.44,-527.74 128.75,-302.56 254.5,-180 259.98,-174.66 266.32,-170.1 273.08,-166.21"/>
<polygon fill="black" stroke="black" stroke-width="1.3" points="274.2,-169.57 281.48,-161.87 270.99,-163.35 274.2,-169.57"/>
</g>
<!-- /pages/settings_page.dart&#45;&gt;/pages/privacy_page.dart -->
<g id="edge73" class="edge">
<title>/pages/settings_page.dart&#45;&gt;/pages/privacy_page.dart</title>
<path fill="none" stroke="black" stroke-width="1.3" d="M133.45,-629.11C137.89,-630.7 142.29,-632.34 146.5,-634 195.71,-653.39 205.71,-663.58 254.5,-684 265.32,-688.53 276.94,-693.12 288.22,-697.43"/>
<polygon fill="black" stroke="black" stroke-width="1.3" points="286.91,-700.68 297.51,-700.95 289.39,-694.13 286.91,-700.68"/>
</g>
<!-- /pages/settings_page.dart&#45;&gt;/widgets/settings_page_scaffold.dart -->
<g id="edge61" class="edge">
<title>/pages/settings_page.dart&#45;&gt;/widgets/settings_page_scaffold.dart</title>
<path fill="none" stroke="black" stroke-width="1.3" d="M79.07,-593.74C78.41,-518.02 87.13,-227.06 254.5,-108 291.03,-82.01 418.19,-84.31 456.25,-108 534.88,-156.95 476.26,-236.72 548.25,-295 562,-306.13 578.75,-313.87 595.87,-319.24"/>
<polygon fill="black" stroke="black" stroke-width="1.3" points="594.67,-322.54 605.25,-321.91 596.58,-315.81 594.67,-322.54"/>
</g>
<!-- /pages/appearance_page.dart&#45;&gt;/types_l10n.dart -->
<g id="edge78" class="edge">
<title>/pages/appearance_page.dart&#45;&gt;/types_l10n.dart</title>
<path fill="none" stroke="black" stroke-width="1.3" d="M419.61,-158.06C432.92,-163.25 445.95,-170.34 456.25,-180 533.25,-252.22 470.25,-327.85 548.25,-399 572.17,-420.82 606.64,-432.06 635.68,-437.85"/>
<polygon fill="black" stroke="black" stroke-width="1.3" points="634.94,-441.27 645.4,-439.6 636.18,-434.38 634.94,-441.27"/>
</g>
<!-- /pages/appearance_page.dart&#45;&gt;/types.dart -->
<g id="edge77" class="edge">
<title>/pages/appearance_page.dart&#45;&gt;/types.dart</title>
<path fill="none" stroke="black" stroke-width="1.3" d="M419.69,-158.37C432.92,-163.54 445.89,-170.54 456.25,-180 529.67,-247.09 467.1,-326.5 548.25,-384 599.02,-419.98 765.52,-400.16 827.25,-408 1055.72,-437 1119.06,-423.3 1338.25,-494 1369.78,-504.17 1403.34,-521.01 1427.89,-534.58"/>
<polygon fill="black" stroke="black" stroke-width="1.3" points="1426.01,-537.54 1436.45,-539.39 1429.45,-531.44 1426.01,-537.54"/>
</g>
<!-- /pages/appearance_page.dart&#45;&gt;/data/settings_providers.dart -->
<g id="edge75" class="edge">
<title>/pages/appearance_page.dart&#45;&gt;/data/settings_providers.dart</title>
<path fill="none" stroke="black" stroke-width="1.3" d="M419.79,-155.73C433.58,-161.05 446.76,-168.78 456.25,-180 615.17,-367.89 373.05,-553.19 548.25,-726 564.72,-742.24 587.86,-749.63 610.71,-752.43"/>
<polygon fill="black" stroke="black" stroke-width="1.3" points="610.37,-755.91 620.64,-753.32 611,-748.94 610.37,-755.91"/>
</g>
<!-- /pages/appearance_page.dart&#45;&gt;/widgets/settings_slider_tile.dart -->
<g id="edge82" class="edge">
<title>/pages/appearance_page.dart&#45;&gt;/widgets/settings_slider_tile.dart</title>
<path fill="none" stroke="black" stroke-width="1.3" d="M419.75,-132.08C432.03,-129.24 444.63,-125.89 456.25,-122 499.05,-107.68 505.73,-94.15 548.25,-79 568.13,-71.91 590.05,-65.65 610.6,-60.41"/>
<polygon fill="black" stroke="black" stroke-width="1.3" points="611.42,-63.82 620.28,-58.01 609.73,-57.02 611.42,-63.82"/>
</g>
<!-- /pages/appearance_page.dart&#45;&gt;/widgets/settings_interaction_blocker.dart -->
<g id="edge80" class="edge">
<title>/pages/appearance_page.dart&#45;&gt;/widgets/settings_interaction_blocker.dart</title>
<path fill="none" stroke="black" stroke-width="1.3" d="M419.63,-138.24C465.14,-134.34 526.35,-129.09 579.08,-124.57"/>
<polygon fill="black" stroke="black" stroke-width="1.3" points="579.27,-128.07 588.93,-123.73 578.67,-121.09 579.27,-128.07"/>
</g>
<!-- /pages/appearance_page.dart&#45;&gt;/widgets/settings_header.dart -->
<g id="edge79" class="edge">
<title>/pages/appearance_page.dart&#45;&gt;/widgets/settings_header.dart</title>
<path fill="none" stroke="black" stroke-width="1.3" d="M419.63,-152.55C477.06,-159.84 559.47,-170.32 618.34,-177.8"/>
<polygon fill="black" stroke="black" stroke-width="1.3" points="617.84,-181.26 628.2,-179.05 618.72,-174.32 617.84,-181.26"/>
</g>
<!-- /pages/appearance_page.dart&#45;&gt;/widgets/settings_page_scaffold.dart -->
<g id="edge81" class="edge">
<title>/pages/appearance_page.dart&#45;&gt;/widgets/settings_page_scaffold.dart</title>
<path fill="none" stroke="black" stroke-width="1.3" d="M419.64,-161.09C432.44,-166.02 445.26,-172.24 456.25,-180 509.72,-217.76 493.21,-259.58 548.25,-295 562.55,-304.2 579.05,-311.05 595.65,-316.15"/>
<polygon fill="black" stroke="black" stroke-width="1.3" points="594.66,-319.51 605.24,-318.87 596.57,-312.77 594.66,-319.51"/>
</g>
<!-- /pages/appearance_page.dart&#45;&gt;/widgets/settings_tile.dart -->
<g id="edge83" class="edge">
<title>/pages/appearance_page.dart&#45;&gt;/widgets/settings_tile.dart</title>
<path fill="none" stroke="black" stroke-width="1.3" d="M409.11,-162.47C424.52,-167.81 441.13,-173.87 456.25,-180 498.07,-196.97 505.73,-207.85 548.25,-223 575.35,-232.66 606.21,-240.79 632.27,-246.87"/>
<polygon fill="black" stroke="black" stroke-width="1.3" points="631.43,-250.27 641.96,-249.08 632.99,-243.44 631.43,-250.27"/>
</g>
<!-- /pages/appearance_page.dart&#45;&gt;/settings.dart -->
<g id="edge76" class="edge">
<title>/pages/appearance_page.dart&#45;&gt;/settings.dart</title>
<path fill="none" stroke="black" stroke-width="1.3" d="M419.82,-157.09C433.28,-162.34 446.31,-169.7 456.25,-180 553.07,-280.38 449.55,-381.47 548.25,-480 737.82,-669.26 1088.01,-693.53 1211.89,-696.01"/>
<polygon fill="black" stroke="black" stroke-width="1.3" points="1211.48,-699.5 1221.53,-696.16 1211.59,-692.5 1211.48,-699.5"/>
</g>
<!-- /pages/privacy_page.dart&#45;&gt;/types.dart -->
<g id="edge85" class="edge">
<title>/pages/privacy_page.dart&#45;&gt;/types.dart</title>
<path fill="none" stroke="black" stroke-width="1.3" d="M403.77,-712.42C594.51,-684.29 1259.35,-586.22 1426.09,-561.63"/>
<polygon fill="black" stroke="black" stroke-width="1.3" points="1426.55,-565.1 1435.93,-560.18 1425.53,-558.17 1426.55,-565.1"/>
</g>
<!-- /pages/privacy_page.dart&#45;&gt;/data/settings_providers.dart -->
<g id="edge84" class="edge">
<title>/pages/privacy_page.dart&#45;&gt;/data/settings_providers.dart</title>
<path fill="none" stroke="black" stroke-width="1.3" d="M403.77,-724.25C458.85,-728.81 547.01,-736.11 611.1,-741.41"/>
<polygon fill="black" stroke="black" stroke-width="1.3" points="610.56,-744.88 620.81,-742.21 611.13,-737.9 610.56,-744.88"/>
</g>
<!-- /pages/privacy_page.dart&#45;&gt;/widgets/settings_page_scaffold.dart -->
<g id="edge86" class="edge">
<title>/pages/privacy_page.dart&#45;&gt;/widgets/settings_page_scaffold.dart</title>
<path fill="none" stroke="black" stroke-width="1.3" d="M404.11,-712.37C422.78,-707.2 442.59,-698.54 456.25,-684 560.79,-572.71 434.11,-454.42 548.25,-353 561.53,-341.2 578.39,-334.25 595.84,-330.37"/>
<polygon fill="black" stroke="black" stroke-width="1.3" points="596.22,-333.86 605.42,-328.6 594.95,-326.98 596.22,-333.86"/>
</g>
<!-- /widgets/settings_interaction_blocker.dart&#45;&gt;/data/settings_providers.dart -->
<g id="edge87" class="edge">
<title>/widgets/settings_interaction_blocker.dart&#45;&gt;/data/settings_providers.dart</title>
<path fill="none" stroke="black" stroke-width="1.3" d="M590.88,-118.62C556.67,-125.47 522.11,-139.9 502.25,-169 468.49,-218.47 468.49,-658.53 502.25,-708 525.71,-742.38 570.79,-752.86 611.09,-754.52"/>
<polygon fill="black" stroke="black" stroke-width="1.3" points="610.83,-758.02 620.9,-754.73 610.97,-751.02 610.83,-758.02"/>
</g>
<!-- /settings.dart&#45;&gt;/types.dart -->
<g id="edge88" class="edge">
<title>/settings.dart&#45;&gt;/types.dart</title>
<path fill="none" stroke="black" stroke-width="1.3" d="M1285.62,-677.7C1322.12,-652.83 1387.51,-608.28 1428.24,-580.53"/>
<polygon fill="black" stroke="black" stroke-width="1.3" points="1430.11,-583.5 1436.4,-574.97 1426.17,-577.71 1430.11,-583.5"/>
</g>
<!-- metrics -->
<g id="node32" class="node">
<title>metrics</title>
<path fill="Lavender" stroke="black" stroke-width="1.3" d="M134.5,-1363C134.5,-1363 22.5,-1363 22.5,-1363 16.5,-1363 10.5,-1357 10.5,-1351 10.5,-1351 10.5,-1187 10.5,-1187 10.5,-1181 16.5,-1175 22.5,-1175 22.5,-1175 134.5,-1175 134.5,-1175 140.5,-1175 146.5,-1181 146.5,-1187 146.5,-1187 146.5,-1351 146.5,-1351 146.5,-1357 140.5,-1363 134.5,-1363"/>
<text text-anchor="start" x="18.5" y="-1344.75" font-family="Arial" font-size="15.00"> isAcyclic: true </text>
<text text-anchor="start" x="18.5" y="-1326.75" font-family="Arial" font-size="15.00"> numNodes: 31 &#160;</text>
<text text-anchor="start" x="18.5" y="-1308.75" font-family="Arial" font-size="15.00"> numEdges: 88 &#160;</text>
<text text-anchor="start" x="18.5" y="-1290.75" font-family="Arial" font-size="15.00"> avgDegree: 2.84 </text>
<text text-anchor="start" x="18.5" y="-1272.75" font-family="Arial" font-size="15.00"> numOrphans: 0 </text>
<text text-anchor="start" x="18.5" y="-1254.75" font-family="Arial" font-size="15.00"> ccd: 192 </text>
<text text-anchor="start" x="18.5" y="-1236.75" font-family="Arial" font-size="15.00"> acd: 6.19 </text>
<text text-anchor="start" x="18.5" y="-1218.75" font-family="Arial" font-size="15.00"> nccd: 1.49 </text>
<text text-anchor="start" x="18.5" y="-1200.75" font-family="Arial" font-size="15.00"> totalSloc: 3653 </text>
<text text-anchor="start" x="18.5" y="-1182.75" font-family="Arial" font-size="15.00"> avgSloc: 117.84 </text>
</g>
</g>
</svg>
