<?xml version="1.0" encoding="UTF-8" standalone="no"?>
<!DOCTYPE svg PUBLIC "-//W3C//DTD SVG 1.1//EN"
 "http://www.w3.org/Graphics/SVG/1.1/DTD/svg11.dtd">
<!-- Generated by graphviz version 12.2.0 (20241103.1931)
 -->
<!-- Pages: 1 -->
<svg width="1528pt" height="1383pt"
 viewBox="0.00 0.00 1528.46 1383.20" xmlns="http://www.w3.org/2000/svg" xmlns:xlink="http://www.w3.org/1999/xlink">
<g id="graph0" class="graph" transform="scale(1 1) rotate(0) translate(21.6 1361.6)">
<polygon fill="white" stroke="none" points="-21.6,21.6 -21.6,-1361.6 1506.86,-1361.6 1506.86,21.6 -21.6,21.6"/>
<g id="clust1" class="cluster">
<title>cluster~</title>
<path fill="none" stroke="black" stroke-width="2.6" d="M89.19,-8C89.19,-8 1465.26,-8 1465.26,-8 1471.26,-8 1477.26,-14 1477.26,-20 1477.26,-20 1477.26,-1132 1477.26,-1132 1477.26,-1138 1471.26,-1144 1465.26,-1144 1465.26,-1144 89.19,-1144 89.19,-1144 83.19,-1144 77.19,-1138 77.19,-1132 77.19,-1132 77.19,-20 77.19,-20 77.19,-14 83.19,-8 89.19,-8"/>
<text text-anchor="middle" x="777.23" y="-1127.65" font-family="Arial Black" font-size="13.00">tags</text>
</g>
<g id="clust2" class="cluster">
<title>cluster~/details</title>
<path fill="none" stroke="black" stroke-width="2.6" d="M97.19,-269C97.19,-269 649.73,-269 649.73,-269 655.73,-269 661.73,-275 661.73,-281 661.73,-281 661.73,-587 661.73,-587 661.73,-593 655.73,-599 649.73,-599 649.73,-599 97.19,-599 97.19,-599 91.19,-599 85.19,-593 85.19,-587 85.19,-587 85.19,-281 85.19,-281 85.19,-275 91.19,-269 97.19,-269"/>
<text text-anchor="middle" x="373.46" y="-582.65" font-family="Arial Black" font-size="13.00">details</text>
</g>
<g id="clust3" class="cluster">
<title>cluster~/details/internal_widgets</title>
<path fill="none" stroke="black" stroke-width="2.6" d="M455.98,-277C455.98,-277 641.73,-277 641.73,-277 647.73,-277 653.73,-283 653.73,-289 653.73,-289 653.73,-556 653.73,-556 653.73,-562 647.73,-568 641.73,-568 641.73,-568 455.98,-568 455.98,-568 449.98,-568 443.98,-562 443.98,-556 443.98,-556 443.98,-289 443.98,-289 443.98,-283 449.98,-277 455.98,-277"/>
<text text-anchor="middle" x="548.85" y="-551.65" font-family="Arial Black" font-size="13.00">internal_widgets</text>
</g>
<g id="clust4" class="cluster">
<title>cluster~/details/widgets</title>
<path fill="none" stroke="black" stroke-width="2.6" d="M105.19,-277C105.19,-277 285.69,-277 285.69,-277 291.69,-277 297.69,-283 297.69,-289 297.69,-289 297.69,-412 297.69,-412 297.69,-418 291.69,-424 285.69,-424 285.69,-424 105.19,-424 105.19,-424 99.19,-424 93.19,-418 93.19,-412 93.19,-412 93.19,-289 93.19,-289 93.19,-283 99.19,-277 105.19,-277"/>
<text text-anchor="middle" x="195.44" y="-407.65" font-family="Arial Black" font-size="13.00">widgets</text>
</g>
<g id="clust5" class="cluster">
<title>cluster~/groups</title>
<path fill="none" stroke="black" stroke-width="2.6" d="M160.69,-607C160.69,-607 886.26,-607 886.26,-607 892.26,-607 898.26,-613 898.26,-619 898.26,-619 898.26,-708 898.26,-708 898.26,-714 892.26,-720 886.26,-720 886.26,-720 160.69,-720 160.69,-720 154.69,-720 148.69,-714 148.69,-708 148.69,-708 148.69,-619 148.69,-619 148.69,-613 154.69,-607 160.69,-607"/>
<text text-anchor="middle" x="523.48" y="-703.65" font-family="Arial Black" font-size="13.00">groups</text>
</g>
<g id="clust6" class="cluster">
<title>cluster~/metatag</title>
<path fill="none" stroke="black" stroke-width="2.6" d="M160.69,-728C160.69,-728 580.23,-728 580.23,-728 586.23,-728 592.23,-734 592.23,-740 592.23,-740 592.23,-863 592.23,-863 592.23,-869 586.23,-875 580.23,-875 580.23,-875 160.69,-875 160.69,-875 154.69,-875 148.69,-869 148.69,-863 148.69,-863 148.69,-740 148.69,-740 148.69,-734 154.69,-728 160.69,-728"/>
<text text-anchor="middle" x="370.46" y="-858.65" font-family="Arial Black" font-size="13.00">metatag</text>
</g>
<g id="clust7" class="cluster">
<title>cluster~/configs</title>
<path fill="none" stroke="black" stroke-width="2.6" d="M137.07,-883C137.07,-883 579.48,-883 579.48,-883 585.48,-883 591.48,-889 591.48,-895 591.48,-895 591.48,-1018 591.48,-1018 591.48,-1024 585.48,-1030 579.48,-1030 579.48,-1030 137.07,-1030 137.07,-1030 131.07,-1030 125.07,-1024 125.07,-1018 125.07,-1018 125.07,-895 125.07,-895 125.07,-889 131.07,-883 137.07,-883"/>
<text text-anchor="middle" x="358.27" y="-1013.65" font-family="Arial Black" font-size="13.00">configs</text>
</g>
<g id="clust8" class="cluster">
<title>cluster~/pages</title>
<path fill="none" stroke="black" stroke-width="2.6" d="M479.23,-1038C479.23,-1038 618.48,-1038 618.48,-1038 624.48,-1038 630.48,-1044 630.48,-1050 630.48,-1050 630.48,-1101 630.48,-1101 630.48,-1107 624.48,-1113 618.48,-1113 618.48,-1113 479.23,-1113 479.23,-1113 473.23,-1113 467.23,-1107 467.23,-1101 467.23,-1101 467.23,-1050 467.23,-1050 467.23,-1044 473.23,-1038 479.23,-1038"/>
<text text-anchor="middle" x="548.85" y="-1096.65" font-family="Arial Black" font-size="13.00">pages</text>
</g>
<g id="clust9" class="cluster">
<title>cluster~/categories</title>
<path fill="none" stroke="black" stroke-width="2.6" d="M1030.51,-643C1030.51,-643 1291.39,-643 1291.39,-643 1297.39,-643 1303.39,-649 1303.39,-655 1303.39,-655 1303.39,-778 1303.39,-778 1303.39,-784 1297.39,-790 1291.39,-790 1291.39,-790 1030.51,-790 1030.51,-790 1024.51,-790 1018.51,-784 1018.51,-778 1018.51,-778 1018.51,-655 1018.51,-655 1018.51,-649 1024.51,-643 1030.51,-643"/>
<text text-anchor="middle" x="1160.95" y="-773.65" font-family="Arial Black" font-size="13.00">categories</text>
</g>
<g id="clust10" class="cluster">
<title>cluster~/tag</title>
<path fill="none" stroke="black" stroke-width="2.6" d="M812.01,-347C812.01,-347 1457.26,-347 1457.26,-347 1463.26,-347 1469.26,-353 1469.26,-359 1469.26,-359 1469.26,-558 1469.26,-558 1469.26,-564 1463.26,-570 1457.26,-570 1457.26,-570 812.01,-570 812.01,-570 806.01,-570 800.01,-564 800.01,-558 800.01,-558 800.01,-359 800.01,-359 800.01,-353 806.01,-347 812.01,-347"/>
<text text-anchor="middle" x="1134.64" y="-553.65" font-family="Arial Black" font-size="13.00">tag</text>
</g>
<g id="clust11" class="cluster">
<title>cluster~/widgets</title>
<path fill="none" stroke="black" stroke-width="2.6" d="M401.69,-16C401.69,-16 696.01,-16 696.01,-16 702.01,-16 708.01,-22 708.01,-28 708.01,-28 708.01,-227 708.01,-227 708.01,-233 702.01,-239 696.01,-239 696.01,-239 401.69,-239 401.69,-239 395.69,-239 389.69,-233 389.69,-227 389.69,-227 389.69,-28 389.69,-28 389.69,-22 395.69,-16 401.69,-16"/>
<text text-anchor="middle" x="548.85" y="-222.65" font-family="Arial Black" font-size="13.00">widgets</text>
</g>
<!-- /details/internal_widgets/category_toggle_switch.dart -->
<g id="node1" class="node">
<title>/details/internal_widgets/category_toggle_switch.dart</title>
<path fill="Lavender" stroke="black" stroke-width="1.3" d="M622.85,-465C622.85,-465 474.85,-465 474.85,-465 468.85,-465 462.85,-459 462.85,-453 462.85,-453 462.85,-441 462.85,-441 462.85,-435 468.85,-429 474.85,-429 474.85,-429 622.85,-429 622.85,-429 628.85,-429 634.85,-435 634.85,-441 634.85,-441 634.85,-453 634.85,-453 634.85,-459 628.85,-465 622.85,-465"/>
<text text-anchor="middle" x="548.85" y="-441.75" font-family="Arial" font-size="15.00">category_toggle_switch</text>
</g>
<!-- /tag/filter_category.dart -->
<g id="node21" class="node">
<title>/tag/filter_category.dart</title>
<path fill="Lavender" stroke="black" stroke-width="1.3" d="M906.51,-467C906.51,-467 820.01,-467 820.01,-467 814.01,-467 808.01,-461 808.01,-455 808.01,-455 808.01,-443 808.01,-443 808.01,-437 814.01,-431 820.01,-431 820.01,-431 906.51,-431 906.51,-431 912.51,-431 918.51,-437 918.51,-443 918.51,-443 918.51,-455 918.51,-455 918.51,-461 912.51,-467 906.51,-467"/>
<text text-anchor="middle" x="863.26" y="-443.75" font-family="Arial" font-size="15.00">filter_category</text>
</g>
<!-- /details/internal_widgets/category_toggle_switch.dart&#45;&gt;/tag/filter_category.dart -->
<g id="edge1" class="edge">
<title>/details/internal_widgets/category_toggle_switch.dart&#45;&gt;/tag/filter_category.dart</title>
<path fill="none" stroke="black" stroke-width="1.3" d="M635.22,-447.55C685.91,-447.87 749.23,-448.28 796.11,-448.58"/>
<polygon fill="black" stroke="black" stroke-width="1.3" points="795.97,-452.08 805.99,-448.64 796.01,-445.08 795.97,-452.08"/>
</g>
<!-- /details/internal_widgets/tag_title_name.dart -->
<g id="node2" class="node">
<title>/details/internal_widgets/tag_title_name.dart</title>
<path fill="Lavender" stroke="black" stroke-width="1.3" d="M593.98,-537C593.98,-537 503.73,-537 503.73,-537 497.73,-537 491.73,-531 491.73,-525 491.73,-525 491.73,-513 491.73,-513 491.73,-507 497.73,-501 503.73,-501 503.73,-501 593.98,-501 593.98,-501 599.98,-501 605.98,-507 605.98,-513 605.98,-513 605.98,-525 605.98,-525 605.98,-531 599.98,-537 593.98,-537"/>
<text text-anchor="middle" x="548.85" y="-513.75" font-family="Arial" font-size="15.00">tag_title_name</text>
</g>
<!-- /details/internal_widgets/tag_details_sliver_app_bar.dart -->
<g id="node3" class="node">
<title>/details/internal_widgets/tag_details_sliver_app_bar.dart</title>
<path fill="Lavender" stroke="black" stroke-width="1.3" d="M633.73,-321C633.73,-321 463.98,-321 463.98,-321 457.98,-321 451.98,-315 451.98,-309 451.98,-309 451.98,-297 451.98,-297 451.98,-291 457.98,-285 463.98,-285 463.98,-285 633.73,-285 633.73,-285 639.73,-285 645.73,-291 645.73,-297 645.73,-297 645.73,-309 645.73,-309 645.73,-315 639.73,-321 633.73,-321"/>
<text text-anchor="middle" x="548.85" y="-297.75" font-family="Arial" font-size="15.00">tag_details_sliver_app_bar</text>
</g>
<!-- /details/internal_widgets/tag_detail_region.dart -->
<g id="node4" class="node">
<title>/details/internal_widgets/tag_detail_region.dart</title>
<path fill="Lavender" stroke="black" stroke-width="1.3" d="M601.85,-393C601.85,-393 495.85,-393 495.85,-393 489.85,-393 483.85,-387 483.85,-381 483.85,-381 483.85,-369 483.85,-369 483.85,-363 489.85,-357 495.85,-357 495.85,-357 601.85,-357 601.85,-357 607.85,-357 613.85,-363 613.85,-369 613.85,-369 613.85,-381 613.85,-381 613.85,-387 607.85,-393 601.85,-393"/>
<text text-anchor="middle" x="548.85" y="-369.75" font-family="Arial" font-size="15.00">tag_detail_region</text>
</g>
<!-- /details/widgets/tag_other_names.dart -->
<g id="node5" class="node">
<title>/details/widgets/tag_other_names.dart</title>
<path fill="Lavender" stroke="black" stroke-width="1.3" d="M249.94,-321C249.94,-321 140.94,-321 140.94,-321 134.94,-321 128.94,-315 128.94,-309 128.94,-309 128.94,-297 128.94,-297 128.94,-291 134.94,-285 140.94,-285 140.94,-285 249.94,-285 249.94,-285 255.94,-285 261.94,-291 261.94,-297 261.94,-297 261.94,-309 261.94,-309 261.94,-315 255.94,-321 249.94,-321"/>
<text text-anchor="middle" x="195.44" y="-297.75" font-family="Arial" font-size="15.00">tag_other_names</text>
</g>
<!-- /widgets/tag_chips_placeholder.dart -->
<g id="node28" class="node">
<title>/widgets/tag_chips_placeholder.dart</title>
<path fill="Lavender" stroke="black" stroke-width="1.3" d="M619.1,-208C619.1,-208 478.6,-208 478.6,-208 472.6,-208 466.6,-202 466.6,-196 466.6,-196 466.6,-184 466.6,-184 466.6,-178 472.6,-172 478.6,-172 478.6,-172 619.1,-172 619.1,-172 625.1,-172 631.1,-178 631.1,-184 631.1,-184 631.1,-196 631.1,-196 631.1,-202 625.1,-208 619.1,-208"/>
<text text-anchor="middle" x="548.85" y="-184.75" font-family="Arial" font-size="15.00">tag_chips_placeholder</text>
</g>
<!-- /details/widgets/tag_other_names.dart&#45;&gt;/widgets/tag_chips_placeholder.dart -->
<g id="edge2" class="edge">
<title>/details/widgets/tag_other_names.dart&#45;&gt;/widgets/tag_chips_placeholder.dart</title>
<path fill="none" stroke="black" stroke-width="1.3" d="M249.62,-284.64C288.36,-271.38 342.16,-253.2 389.69,-238 417.2,-229.2 447.51,-219.91 474.18,-211.86"/>
<polygon fill="black" stroke="black" stroke-width="1.3" points="474.92,-215.29 483.49,-209.06 472.9,-208.59 474.92,-215.29"/>
</g>
<!-- /details/widgets/tag_details_page_scaffold.dart -->
<g id="node6" class="node">
<title>/details/widgets/tag_details_page_scaffold.dart</title>
<path fill="Lavender" stroke="black" stroke-width="1.3" d="M277.69,-393C277.69,-393 113.19,-393 113.19,-393 107.19,-393 101.19,-387 101.19,-381 101.19,-381 101.19,-369 101.19,-369 101.19,-363 107.19,-357 113.19,-357 113.19,-357 277.69,-357 277.69,-357 283.69,-357 289.69,-363 289.69,-369 289.69,-369 289.69,-381 289.69,-381 289.69,-387 283.69,-393 277.69,-393"/>
<text text-anchor="middle" x="195.44" y="-369.75" font-family="Arial" font-size="15.00">tag_details_page_scaffold</text>
</g>
<!-- /details/widgets/tag_details_page_scaffold.dart&#45;&gt;/details/internal_widgets/category_toggle_switch.dart -->
<g id="edge4" class="edge">
<title>/details/widgets/tag_details_page_scaffold.dart&#45;&gt;/details/internal_widgets/category_toggle_switch.dart</title>
<path fill="none" stroke="black" stroke-width="1.3" d="M286.48,-393.45C336.87,-403.77 399.69,-416.64 451.12,-427.18"/>
<polygon fill="black" stroke="black" stroke-width="1.3" points="450.16,-430.56 460.66,-429.13 451.56,-423.7 450.16,-430.56"/>
</g>
<!-- /details/widgets/tag_details_page_scaffold.dart&#45;&gt;/details/internal_widgets/tag_title_name.dart -->
<g id="edge7" class="edge">
<title>/details/widgets/tag_details_page_scaffold.dart&#45;&gt;/details/internal_widgets/tag_title_name.dart</title>
<path fill="none" stroke="black" stroke-width="1.3" d="M223.38,-393.35C259.65,-417.27 326.91,-458.88 389.69,-483 418.46,-494.05 451.53,-502.23 479.97,-507.98"/>
<polygon fill="black" stroke="black" stroke-width="1.3" points="479.02,-511.36 489.51,-509.84 480.36,-504.49 479.02,-511.36"/>
</g>
<!-- /details/widgets/tag_details_page_scaffold.dart&#45;&gt;/details/internal_widgets/tag_details_sliver_app_bar.dart -->
<g id="edge6" class="edge">
<title>/details/widgets/tag_details_page_scaffold.dart&#45;&gt;/details/internal_widgets/tag_details_sliver_app_bar.dart</title>
<path fill="none" stroke="black" stroke-width="1.3" d="M286.48,-356.55C335.25,-346.56 395.68,-334.18 446.14,-323.84"/>
<polygon fill="black" stroke="black" stroke-width="1.3" points="446.72,-327.29 455.81,-321.86 445.32,-320.44 446.72,-327.29"/>
</g>
<!-- /details/widgets/tag_details_page_scaffold.dart&#45;&gt;/details/internal_widgets/tag_detail_region.dart -->
<g id="edge5" class="edge">
<title>/details/widgets/tag_details_page_scaffold.dart&#45;&gt;/details/internal_widgets/tag_detail_region.dart</title>
<path fill="none" stroke="black" stroke-width="1.3" d="M290.15,-375C346.96,-375 418.49,-375 471.78,-375"/>
<polygon fill="black" stroke="black" stroke-width="1.3" points="471.57,-378.5 481.57,-375 471.57,-371.5 471.57,-378.5"/>
</g>
<!-- /details/widgets/tag_details_page_scaffold.dart&#45;&gt;/tag/filter_category.dart -->
<g id="edge3" class="edge">
<title>/details/widgets/tag_details_page_scaffold.dart&#45;&gt;/tag/filter_category.dart</title>
<path fill="none" stroke="black" stroke-width="1.3" d="M258.29,-356.51C271.63,-351.57 285.41,-345.7 297.69,-339 343.03,-314.26 340.81,-284.67 389.69,-268 456.65,-245.17 646.03,-233.92 708.01,-268 774.89,-304.77 744.95,-360.15 800.01,-413 804.24,-417.06 809.01,-420.83 813.98,-424.3"/>
<polygon fill="black" stroke="black" stroke-width="1.3" points="811.74,-427.02 822.04,-429.51 815.54,-421.14 811.74,-427.02"/>
</g>
<!-- /groups/tags_notifier.dart -->
<g id="node7" class="node">
<title>/groups/tags_notifier.dart</title>
<path fill="Lavender" stroke="black" stroke-width="1.3" d="M585.73,-689C585.73,-689 511.98,-689 511.98,-689 505.98,-689 499.98,-683 499.98,-677 499.98,-677 499.98,-665 499.98,-665 499.98,-659 505.98,-653 511.98,-653 511.98,-653 585.73,-653 585.73,-653 591.73,-653 597.73,-659 597.73,-665 597.73,-665 597.73,-677 597.73,-677 597.73,-683 591.73,-689 585.73,-689"/>
<text text-anchor="middle" x="548.85" y="-665.75" font-family="Arial" font-size="15.00">tags_notifier</text>
</g>
<!-- /groups/item.dart -->
<g id="node9" class="node">
<title>/groups/item.dart</title>
<path fill="Lavender" stroke="black" stroke-width="1.3" d="M878.26,-651C878.26,-651 848.26,-651 848.26,-651 842.26,-651 836.26,-645 836.26,-639 836.26,-639 836.26,-627 836.26,-627 836.26,-621 842.26,-615 848.26,-615 848.26,-615 878.26,-615 878.26,-615 884.26,-615 890.26,-621 890.26,-627 890.26,-627 890.26,-639 890.26,-639 890.26,-645 884.26,-651 878.26,-651"/>
<text text-anchor="middle" x="863.26" y="-627.75" font-family="Arial" font-size="15.00">item</text>
</g>
<!-- /groups/tags_notifier.dart&#45;&gt;/groups/item.dart -->
<g id="edge12" class="edge">
<title>/groups/tags_notifier.dart&#45;&gt;/groups/item.dart</title>
<path fill="none" stroke="black" stroke-width="1.3" d="M597.98,-665.15C660.17,-657.58 767.19,-644.56 824.09,-637.64"/>
<polygon fill="black" stroke="black" stroke-width="1.3" points="824.31,-641.14 833.82,-636.46 823.47,-634.19 824.31,-641.14"/>
</g>
<!-- /categories/providers.dart -->
<g id="node17" class="node">
<title>/categories/providers.dart</title>
<path fill="Lavender" stroke="black" stroke-width="1.3" d="M1104.76,-759C1104.76,-759 1051.26,-759 1051.26,-759 1045.26,-759 1039.26,-753 1039.26,-747 1039.26,-747 1039.26,-735 1039.26,-735 1039.26,-729 1045.26,-723 1051.26,-723 1051.26,-723 1104.76,-723 1104.76,-723 1110.76,-723 1116.76,-729 1116.76,-735 1116.76,-735 1116.76,-747 1116.76,-747 1116.76,-753 1110.76,-759 1104.76,-759"/>
<text text-anchor="middle" x="1078.01" y="-735.75" font-family="Arial" font-size="15.00">providers</text>
</g>
<!-- /groups/tags_notifier.dart&#45;&gt;/categories/providers.dart -->
<g id="edge8" class="edge">
<title>/groups/tags_notifier.dart&#45;&gt;/categories/providers.dart</title>
<path fill="none" stroke="black" stroke-width="1.3" d="M598.03,-677.4C697.81,-690.65 926.14,-720.97 1027.25,-734.39"/>
<polygon fill="black" stroke="black" stroke-width="1.3" points="1026.61,-737.84 1036.99,-735.68 1027.53,-730.9 1026.61,-737.84"/>
</g>
<!-- /categories/store.dart -->
<g id="node19" class="node">
<title>/categories/store.dart</title>
<path fill="Lavender" stroke="black" stroke-width="1.3" d="M1283.39,-736C1283.39,-736 1253.39,-736 1253.39,-736 1247.39,-736 1241.39,-730 1241.39,-724 1241.39,-724 1241.39,-712 1241.39,-712 1241.39,-706 1247.39,-700 1253.39,-700 1253.39,-700 1283.39,-700 1283.39,-700 1289.39,-700 1295.39,-706 1295.39,-712 1295.39,-712 1295.39,-724 1295.39,-724 1295.39,-730 1289.39,-736 1283.39,-736"/>
<text text-anchor="middle" x="1268.39" y="-712.75" font-family="Arial" font-size="15.00">store</text>
</g>
<!-- /groups/tags_notifier.dart&#45;&gt;/categories/store.dart -->
<g id="edge9" class="edge">
<title>/groups/tags_notifier.dart&#45;&gt;/categories/store.dart</title>
<path fill="none" stroke="black" stroke-width="1.3" d="M598.16,-685.68C682.48,-710.46 862.45,-759.57 1018.51,-777 1067.54,-782.48 1081.18,-786.91 1129.51,-777 1165.38,-769.65 1203.45,-752.57 1230.47,-738.67"/>
<polygon fill="black" stroke="black" stroke-width="1.3" points="1232.02,-741.81 1239.24,-734.06 1228.76,-735.62 1232.02,-741.81"/>
</g>
<!-- /tag/tag.dart -->
<g id="node22" class="node">
<title>/tag/tag.dart</title>
<path fill="Lavender" stroke="black" stroke-width="1.3" d="M1449.26,-539C1449.26,-539 1419.26,-539 1419.26,-539 1413.26,-539 1407.26,-533 1407.26,-527 1407.26,-527 1407.26,-515 1407.26,-515 1407.26,-509 1413.26,-503 1419.26,-503 1419.26,-503 1449.26,-503 1449.26,-503 1455.26,-503 1461.26,-509 1461.26,-515 1461.26,-515 1461.26,-527 1461.26,-527 1461.26,-533 1455.26,-539 1449.26,-539"/>
<text text-anchor="middle" x="1434.26" y="-515.75" font-family="Arial" font-size="15.00">tag</text>
</g>
<!-- /groups/tags_notifier.dart&#45;&gt;/tag/tag.dart -->
<g id="edge11" class="edge">
<title>/groups/tags_notifier.dart&#45;&gt;/tag/tag.dart</title>
<path fill="none" stroke="black" stroke-width="1.3" d="M598.17,-683.85C629.78,-692.7 671.78,-705.3 708.01,-719 750.06,-734.9 757.08,-747.71 800.01,-761 1014.34,-827.35 1114.12,-919.48 1303.39,-799 1391.28,-743.05 1420.68,-610.32 1429.66,-550.79"/>
<polygon fill="black" stroke="black" stroke-width="1.3" points="1433.09,-551.59 1431.01,-541.2 1426.15,-550.62 1433.09,-551.59"/>
</g>
<!-- /tag/store.dart -->
<g id="node25" class="node">
<title>/tag/store.dart</title>
<path fill="Lavender" stroke="black" stroke-width="1.3" d="M1093.01,-501C1093.01,-501 1063.01,-501 1063.01,-501 1057.01,-501 1051.01,-495 1051.01,-489 1051.01,-489 1051.01,-477 1051.01,-477 1051.01,-471 1057.01,-465 1063.01,-465 1063.01,-465 1093.01,-465 1093.01,-465 1099.01,-465 1105.01,-471 1105.01,-477 1105.01,-477 1105.01,-489 1105.01,-489 1105.01,-495 1099.01,-501 1093.01,-501"/>
<text text-anchor="middle" x="1078.01" y="-477.75" font-family="Arial" font-size="15.00">store</text>
</g>
<!-- /groups/tags_notifier.dart&#45;&gt;/tag/store.dart -->
<g id="edge10" class="edge">
<title>/groups/tags_notifier.dart&#45;&gt;/tag/store.dart</title>
<path fill="none" stroke="black" stroke-width="1.3" d="M598.21,-656.94C683.91,-631.88 858.98,-579.98 918.51,-557 961.09,-540.57 1008.3,-517.93 1040.03,-502.03"/>
<polygon fill="black" stroke="black" stroke-width="1.3" points="1041.47,-505.22 1048.82,-497.59 1038.31,-498.97 1041.47,-505.22"/>
</g>
<!-- /groups/providers.dart -->
<g id="node8" class="node">
<title>/groups/providers.dart</title>
<path fill="Lavender" stroke="black" stroke-width="1.3" d="M222.19,-670C222.19,-670 168.69,-670 168.69,-670 162.69,-670 156.69,-664 156.69,-658 156.69,-658 156.69,-646 156.69,-646 156.69,-640 162.69,-634 168.69,-634 168.69,-634 222.19,-634 222.19,-634 228.19,-634 234.19,-640 234.19,-646 234.19,-646 234.19,-658 234.19,-658 234.19,-664 228.19,-670 222.19,-670"/>
<text text-anchor="middle" x="195.44" y="-646.75" font-family="Arial" font-size="15.00">providers</text>
</g>
<!-- /groups/providers.dart&#45;&gt;/groups/tags_notifier.dart -->
<g id="edge14" class="edge">
<title>/groups/providers.dart&#45;&gt;/groups/tags_notifier.dart</title>
<path fill="none" stroke="black" stroke-width="1.3" d="M234.38,-654.05C295.33,-657.35 415.52,-663.85 488.08,-667.77"/>
<polygon fill="black" stroke="black" stroke-width="1.3" points="487.6,-671.25 497.77,-668.29 487.98,-664.26 487.6,-671.25"/>
</g>
<!-- /groups/providers.dart&#45;&gt;/groups/item.dart -->
<g id="edge13" class="edge">
<title>/groups/providers.dart&#45;&gt;/groups/item.dart</title>
<path fill="none" stroke="black" stroke-width="1.3" d="M234.51,-647.71C273.44,-643.54 335.69,-637.49 389.69,-635 550.92,-627.58 743.42,-630.38 823.92,-632.08"/>
<polygon fill="black" stroke="black" stroke-width="1.3" points="823.82,-635.58 833.89,-632.3 823.97,-628.58 823.82,-635.58"/>
</g>
<!-- /categories/tag_category.dart -->
<g id="node18" class="node">
<title>/categories/tag_category.dart</title>
<path fill="Lavender" stroke="black" stroke-width="1.3" d="M1117.51,-687C1117.51,-687 1038.51,-687 1038.51,-687 1032.51,-687 1026.51,-681 1026.51,-675 1026.51,-675 1026.51,-663 1026.51,-663 1026.51,-657 1032.51,-651 1038.51,-651 1038.51,-651 1117.51,-651 1117.51,-651 1123.51,-651 1129.51,-657 1129.51,-663 1129.51,-663 1129.51,-675 1129.51,-675 1129.51,-681 1123.51,-687 1117.51,-687"/>
<text text-anchor="middle" x="1078.01" y="-663.75" font-family="Arial" font-size="15.00">tag_category</text>
</g>
<!-- /groups/item.dart&#45;&gt;/categories/tag_category.dart -->
<g id="edge15" class="edge">
<title>/groups/item.dart&#45;&gt;/categories/tag_category.dart</title>
<path fill="none" stroke="black" stroke-width="1.3" d="M890.35,-637.41C921.12,-642.62 973.31,-651.45 1014.69,-658.45"/>
<polygon fill="black" stroke="black" stroke-width="1.3" points="1013.94,-661.88 1024.38,-660.09 1015.11,-654.98 1013.94,-661.88"/>
</g>
<!-- /groups/item.dart&#45;&gt;/tag/tag.dart -->
<g id="edge17" class="edge">
<title>/groups/item.dart&#45;&gt;/tag/tag.dart</title>
<path fill="none" stroke="black" stroke-width="1.3" d="M890.68,-629.36C959.22,-619.72 1148.26,-591.84 1303.39,-557 1334.87,-549.93 1370.11,-540.03 1395.94,-532.41"/>
<polygon fill="black" stroke="black" stroke-width="1.3" points="1396.62,-535.85 1405.2,-529.64 1394.62,-529.14 1396.62,-535.85"/>
</g>
<!-- /tag/display.dart -->
<g id="node24" class="node">
<title>/tag/display.dart</title>
<path fill="Lavender" stroke="black" stroke-width="1.3" d="M1287.26,-539C1287.26,-539 1249.51,-539 1249.51,-539 1243.51,-539 1237.51,-533 1237.51,-527 1237.51,-527 1237.51,-515 1237.51,-515 1237.51,-509 1243.51,-503 1249.51,-503 1249.51,-503 1287.26,-503 1287.26,-503 1293.26,-503 1299.26,-509 1299.26,-515 1299.26,-515 1299.26,-527 1299.26,-527 1299.26,-533 1293.26,-539 1287.26,-539"/>
<text text-anchor="middle" x="1268.39" y="-515.75" font-family="Arial" font-size="15.00">display</text>
</g>
<!-- /groups/item.dart&#45;&gt;/tag/display.dart -->
<g id="edge16" class="edge">
<title>/groups/item.dart&#45;&gt;/tag/display.dart</title>
<path fill="none" stroke="black" stroke-width="1.3" d="M890.58,-619.33C920.74,-604.2 971.99,-580.1 1018.51,-566 1089.75,-544.41 1175.77,-531.68 1225.76,-525.54"/>
<polygon fill="black" stroke="black" stroke-width="1.3" points="1225.9,-529.05 1235.41,-524.39 1225.07,-522.1 1225.9,-529.05"/>
</g>
<!-- /metatag/providers.dart -->
<g id="node10" class="node">
<title>/metatag/providers.dart</title>
<path fill="Lavender" stroke="black" stroke-width="1.3" d="M222.19,-772C222.19,-772 168.69,-772 168.69,-772 162.69,-772 156.69,-766 156.69,-760 156.69,-760 156.69,-748 156.69,-748 156.69,-742 162.69,-736 168.69,-736 168.69,-736 222.19,-736 222.19,-736 228.19,-736 234.19,-742 234.19,-748 234.19,-748 234.19,-760 234.19,-760 234.19,-766 228.19,-772 222.19,-772"/>
<text text-anchor="middle" x="195.44" y="-748.75" font-family="Arial" font-size="15.00">providers</text>
</g>
<!-- /metatag/metatag.dart -->
<g id="node11" class="node">
<title>/metatag/metatag.dart</title>
<path fill="Lavender" stroke="black" stroke-width="1.3" d="M572.23,-844C572.23,-844 525.48,-844 525.48,-844 519.48,-844 513.48,-838 513.48,-832 513.48,-832 513.48,-820 513.48,-820 513.48,-814 519.48,-808 525.48,-808 525.48,-808 572.23,-808 572.23,-808 578.23,-808 584.23,-814 584.23,-820 584.23,-820 584.23,-832 584.23,-832 584.23,-838 578.23,-844 572.23,-844"/>
<text text-anchor="middle" x="548.85" y="-820.75" font-family="Arial" font-size="15.00">metatag</text>
</g>
<!-- /metatag/providers.dart&#45;&gt;/metatag/metatag.dart -->
<g id="edge19" class="edge">
<title>/metatag/providers.dart&#45;&gt;/metatag/metatag.dart</title>
<path fill="none" stroke="black" stroke-width="1.3" d="M234.38,-761.77C299.31,-775.08 431.49,-802.16 501.67,-816.54"/>
<polygon fill="black" stroke="black" stroke-width="1.3" points="500.78,-819.93 511.28,-818.51 502.18,-813.07 500.78,-819.93"/>
</g>
<!-- /configs/providers.dart -->
<g id="node15" class="node">
<title>/configs/providers.dart</title>
<path fill="Lavender" stroke="black" stroke-width="1.3" d="M222.19,-999C222.19,-999 168.69,-999 168.69,-999 162.69,-999 156.69,-993 156.69,-987 156.69,-987 156.69,-975 156.69,-975 156.69,-969 162.69,-963 168.69,-963 168.69,-963 222.19,-963 222.19,-963 228.19,-963 234.19,-969 234.19,-975 234.19,-975 234.19,-987 234.19,-987 234.19,-993 228.19,-999 222.19,-999"/>
<text text-anchor="middle" x="195.44" y="-975.75" font-family="Arial" font-size="15.00">providers</text>
</g>
<!-- /metatag/providers.dart&#45;&gt;/configs/providers.dart -->
<g id="edge18" class="edge">
<title>/metatag/providers.dart&#45;&gt;/configs/providers.dart</title>
<path fill="none" stroke="black" stroke-width="1.3" d="M156.34,-753.75C115.49,-755.87 53.25,-766.3 23.19,-808 -7.73,-850.91 -7.73,-884.09 23.19,-927 50.49,-964.87 104.33,-976.95 144.59,-980.43"/>
<polygon fill="black" stroke="black" stroke-width="1.3" points="144.16,-983.91 154.38,-981.11 144.64,-976.93 144.16,-983.91"/>
</g>
<!-- /metatag/extractor.dart -->
<g id="node12" class="node">
<title>/metatag/extractor.dart</title>
<path fill="Lavender" stroke="black" stroke-width="1.3" d="M221.07,-844C221.07,-844 169.82,-844 169.82,-844 163.82,-844 157.82,-838 157.82,-832 157.82,-832 157.82,-820 157.82,-820 157.82,-814 163.82,-808 169.82,-808 169.82,-808 221.07,-808 221.07,-808 227.07,-808 233.07,-814 233.07,-820 233.07,-820 233.07,-832 233.07,-832 233.07,-838 227.07,-844 221.07,-844"/>
<text text-anchor="middle" x="195.44" y="-820.75" font-family="Arial" font-size="15.00">extractor</text>
</g>
<!-- /metatag/extractor.dart&#45;&gt;/metatag/metatag.dart -->
<g id="edge20" class="edge">
<title>/metatag/extractor.dart&#45;&gt;/metatag/metatag.dart</title>
<path fill="none" stroke="black" stroke-width="1.3" d="M233.39,-826C297.94,-826 431.09,-826 501.64,-826"/>
<polygon fill="black" stroke="black" stroke-width="1.3" points="501.26,-829.5 511.26,-826 501.26,-822.5 501.26,-829.5"/>
</g>
<!-- /configs/tag_info.dart -->
<g id="node13" class="node">
<title>/configs/tag_info.dart</title>
<path fill="Lavender" stroke="black" stroke-width="1.3" d="M571.48,-927C571.48,-927 526.23,-927 526.23,-927 520.23,-927 514.23,-921 514.23,-915 514.23,-915 514.23,-903 514.23,-903 514.23,-897 520.23,-891 526.23,-891 526.23,-891 571.48,-891 571.48,-891 577.48,-891 583.48,-897 583.48,-903 583.48,-903 583.48,-915 583.48,-915 583.48,-921 577.48,-927 571.48,-927"/>
<text text-anchor="middle" x="548.85" y="-903.75" font-family="Arial" font-size="15.00">tag_info</text>
</g>
<!-- /configs/tag_info.dart&#45;&gt;/metatag/metatag.dart -->
<g id="edge21" class="edge">
<title>/configs/tag_info.dart&#45;&gt;/metatag/metatag.dart</title>
<path fill="none" stroke="black" stroke-width="1.3" d="M548.85,-890.6C548.85,-879.19 548.85,-867.78 548.85,-856.37"/>
<polygon fill="black" stroke="black" stroke-width="1.3" points="552.35,-856.45 548.85,-846.45 545.35,-856.45 552.35,-856.45"/>
</g>
<!-- /configs/tag_info_service.dart -->
<g id="node14" class="node">
<title>/configs/tag_info_service.dart</title>
<path fill="Lavender" stroke="black" stroke-width="1.3" d="M245.82,-927C245.82,-927 145.07,-927 145.07,-927 139.07,-927 133.07,-921 133.07,-915 133.07,-915 133.07,-903 133.07,-903 133.07,-897 139.07,-891 145.07,-891 145.07,-891 245.82,-891 245.82,-891 251.82,-891 257.82,-897 257.82,-903 257.82,-903 257.82,-915 257.82,-915 257.82,-921 251.82,-927 245.82,-927"/>
<text text-anchor="middle" x="195.44" y="-903.75" font-family="Arial" font-size="15.00">tag_info_service</text>
</g>
<!-- /configs/tag_info_service.dart&#45;&gt;/metatag/metatag.dart -->
<g id="edge22" class="edge">
<title>/configs/tag_info_service.dart&#45;&gt;/metatag/metatag.dart</title>
<path fill="none" stroke="black" stroke-width="1.3" d="M258.06,-894.45C327.59,-878.02 439.11,-851.68 501.6,-836.93"/>
<polygon fill="black" stroke="black" stroke-width="1.3" points="502.2,-840.38 511.13,-834.67 500.59,-833.57 502.2,-840.38"/>
</g>
<!-- /configs/tag_info_service.dart&#45;&gt;/configs/tag_info.dart -->
<g id="edge23" class="edge">
<title>/configs/tag_info_service.dart&#45;&gt;/configs/tag_info.dart</title>
<path fill="none" stroke="black" stroke-width="1.3" d="M258.06,-909C327.81,-909 439.84,-909 502.2,-909"/>
<polygon fill="black" stroke="black" stroke-width="1.3" points="502.02,-912.5 512.02,-909 502.02,-905.5 502.02,-912.5"/>
</g>
<!-- /configs/providers.dart&#45;&gt;/configs/tag_info.dart -->
<g id="edge24" class="edge">
<title>/configs/providers.dart&#45;&gt;/configs/tag_info.dart</title>
<path fill="none" stroke="black" stroke-width="1.3" d="M234.38,-973.23C299.56,-959.87 432.52,-932.63 502.49,-918.3"/>
<polygon fill="black" stroke="black" stroke-width="1.3" points="502.95,-921.77 512.04,-916.34 501.54,-914.92 502.95,-921.77"/>
</g>
<!-- /pages/show_tag_list_page.dart -->
<g id="node16" class="node">
<title>/pages/show_tag_list_page.dart</title>
<path fill="Lavender" stroke="black" stroke-width="1.3" d="M610.48,-1082C610.48,-1082 487.23,-1082 487.23,-1082 481.23,-1082 475.23,-1076 475.23,-1070 475.23,-1070 475.23,-1058 475.23,-1058 475.23,-1052 481.23,-1046 487.23,-1046 487.23,-1046 610.48,-1046 610.48,-1046 616.48,-1046 622.48,-1052 622.48,-1058 622.48,-1058 622.48,-1070 622.48,-1070 622.48,-1076 616.48,-1082 610.48,-1082"/>
<text text-anchor="middle" x="548.85" y="-1058.75" font-family="Arial" font-size="15.00">show_tag_list_page</text>
</g>
<!-- /pages/show_tag_list_page.dart&#45;&gt;/tag/tag.dart -->
<g id="edge27" class="edge">
<title>/pages/show_tag_list_page.dart&#45;&gt;/tag/tag.dart</title>
<path fill="none" stroke="black" stroke-width="1.3" d="M622.96,-1061.39C770.85,-1052.23 1108.02,-1011.11 1303.39,-827 1385.54,-749.59 1417.97,-611.84 1428.7,-551.15"/>
<polygon fill="black" stroke="black" stroke-width="1.3" points="1432.14,-551.79 1430.35,-541.35 1425.24,-550.64 1432.14,-551.79"/>
</g>
<!-- /tag/providers.dart -->
<g id="node23" class="node">
<title>/tag/providers.dart</title>
<path fill="Lavender" stroke="black" stroke-width="1.3" d="M890.01,-539C890.01,-539 836.51,-539 836.51,-539 830.51,-539 824.51,-533 824.51,-527 824.51,-527 824.51,-515 824.51,-515 824.51,-509 830.51,-503 836.51,-503 836.51,-503 890.01,-503 890.01,-503 896.01,-503 902.01,-509 902.01,-515 902.01,-515 902.01,-527 902.01,-527 902.01,-533 896.01,-539 890.01,-539"/>
<text text-anchor="middle" x="863.26" y="-515.75" font-family="Arial" font-size="15.00">providers</text>
</g>
<!-- /pages/show_tag_list_page.dart&#45;&gt;/tag/providers.dart -->
<g id="edge26" class="edge">
<title>/pages/show_tag_list_page.dart&#45;&gt;/tag/providers.dart</title>
<path fill="none" stroke="black" stroke-width="1.3" d="M622.68,-1069.53C652.67,-1067.87 685.57,-1060.38 708.01,-1039 853.01,-900.93 714.23,-778.91 800.01,-598 808.71,-579.65 822.64,-561.84 835.11,-547.98"/>
<polygon fill="black" stroke="black" stroke-width="1.3" points="837.44,-550.62 841.69,-540.92 832.32,-545.85 837.44,-550.62"/>
</g>
<!-- /pages/show_tag_list_page.dart&#45;&gt;/tag/display.dart -->
<g id="edge25" class="edge">
<title>/pages/show_tag_list_page.dart&#45;&gt;/tag/display.dart</title>
<path fill="none" stroke="black" stroke-width="1.3" d="M622.64,-1063.87C650.92,-1061.01 682.57,-1054.14 708.01,-1039 805.47,-981.01 929.73,-704.55 1018.51,-634 1082.76,-582.95 1173.76,-549.31 1226.07,-532.85"/>
<polygon fill="black" stroke="black" stroke-width="1.3" points="1226.83,-536.28 1235.36,-529.99 1224.77,-529.59 1226.83,-536.28"/>
</g>
<!-- /categories/providers.dart&#45;&gt;/categories/store.dart -->
<g id="edge28" class="edge">
<title>/categories/providers.dart&#45;&gt;/categories/store.dart</title>
<path fill="none" stroke="black" stroke-width="1.3" d="M1117.13,-736.35C1149.83,-732.35 1196.7,-726.63 1229.37,-722.64"/>
<polygon fill="black" stroke="black" stroke-width="1.3" points="1229.68,-726.13 1239.18,-721.44 1228.83,-719.18 1229.68,-726.13"/>
</g>
<!-- /categories/store.dart&#45;&gt;/tag/tag.dart -->
<g id="edge30" class="edge">
<title>/categories/store.dart&#45;&gt;/tag/tag.dart</title>
<path fill="none" stroke="black" stroke-width="1.3" d="M1284.51,-699.82C1313.34,-665.16 1376.31,-589.46 1410.34,-548.55"/>
<polygon fill="black" stroke="black" stroke-width="1.3" points="1412.98,-550.86 1416.68,-540.94 1407.59,-546.38 1412.98,-550.86"/>
</g>
<!-- /categories/store.dart&#45;&gt;/tag/display.dart -->
<g id="edge29" class="edge">
<title>/categories/store.dart&#45;&gt;/tag/display.dart</title>
<path fill="none" stroke="black" stroke-width="1.3" d="M1268.39,-699.52C1268.39,-650.13 1268.39,-600.74 1268.39,-551.35"/>
<polygon fill="black" stroke="black" stroke-width="1.3" points="1271.89,-551.44 1268.39,-541.44 1264.89,-551.44 1271.89,-551.44"/>
</g>
<!-- /tag/colors.dart -->
<g id="node20" class="node">
<title>/tag/colors.dart</title>
<path fill="Lavender" stroke="black" stroke-width="1.3" d="M905.93,-372.25C905.93,-372.25 905.93,-377.75 905.93,-377.75 905.93,-380.5 903.44,-384.4 900.95,-385.57 900.95,-385.57 885.92,-392.58 885.92,-392.58 883.43,-393.74 878.19,-394.9 875.44,-394.9 875.44,-394.9 851.08,-394.9 851.08,-394.9 848.34,-394.9 843.1,-393.74 840.61,-392.58 840.61,-392.58 825.57,-385.57 825.57,-385.57 823.08,-384.4 820.59,-380.5 820.59,-377.75 820.59,-377.75 820.59,-372.25 820.59,-372.25 820.59,-369.5 823.08,-365.6 825.57,-364.43 825.57,-364.43 840.61,-357.42 840.61,-357.42 843.1,-356.26 848.34,-355.1 851.08,-355.1 851.08,-355.1 875.44,-355.1 875.44,-355.1 878.19,-355.1 883.43,-356.26 885.92,-357.42 885.92,-357.42 900.95,-364.43 900.95,-364.43 903.44,-365.6 905.93,-369.5 905.93,-372.25"/>
<text text-anchor="middle" x="863.26" y="-369.75" font-family="Arial" font-size="15.00">colors</text>
</g>
<!-- /tag/tag.dart&#45;&gt;/categories/tag_category.dart -->
<g id="edge31" class="edge">
<title>/tag/tag.dart&#45;&gt;/categories/tag_category.dart</title>
<path fill="none" stroke="black" stroke-width="1.3" d="M1406.81,-535.32C1380.84,-549.11 1339.94,-570.15 1303.39,-586 1249.47,-609.38 1186.6,-632.28 1141.15,-648.08"/>
<polygon fill="black" stroke="black" stroke-width="1.3" points="1140.16,-644.72 1131.85,-651.29 1142.44,-651.33 1140.16,-644.72"/>
</g>
<!-- /tag/providers.dart&#45;&gt;/tag/store.dart -->
<g id="edge32" class="edge">
<title>/tag/providers.dart&#45;&gt;/tag/store.dart</title>
<path fill="none" stroke="black" stroke-width="1.3" d="M902.3,-514.21C940.91,-507.31 1000.35,-496.69 1038.96,-489.8"/>
<polygon fill="black" stroke="black" stroke-width="1.3" points="1039.55,-493.25 1048.78,-488.04 1038.32,-486.36 1039.55,-493.25"/>
</g>
<!-- /tag/display.dart&#45;&gt;/tag/tag.dart -->
<g id="edge33" class="edge">
<title>/tag/display.dart&#45;&gt;/tag/tag.dart</title>
<path fill="none" stroke="black" stroke-width="1.3" d="M1299.45,-521C1326.37,-521 1365.99,-521 1395.13,-521"/>
<polygon fill="black" stroke="black" stroke-width="1.3" points="1394.95,-524.5 1404.95,-521 1394.95,-517.5 1394.95,-524.5"/>
</g>
<!-- /tag/store.dart&#45;&gt;/tag/tag.dart -->
<g id="edge35" class="edge">
<title>/tag/store.dart&#45;&gt;/tag/tag.dart</title>
<path fill="none" stroke="black" stroke-width="1.3" d="M1105.43,-481.02C1147.55,-478.35 1232.41,-475.02 1303.39,-485 1335.14,-489.46 1370.1,-499.46 1395.75,-507.79"/>
<polygon fill="black" stroke="black" stroke-width="1.3" points="1394.37,-511.02 1404.96,-510.85 1396.58,-504.38 1394.37,-511.02"/>
</g>
<!-- /tag/store.dart&#45;&gt;/tag/display.dart -->
<g id="edge34" class="edge">
<title>/tag/store.dart&#45;&gt;/tag/display.dart</title>
<path fill="none" stroke="black" stroke-width="1.3" d="M1105.21,-488.28C1136.4,-494.58 1188.91,-505.17 1225.71,-512.59"/>
<polygon fill="black" stroke="black" stroke-width="1.3" points="1224.63,-515.95 1235.13,-514.49 1226.02,-509.08 1224.63,-515.95"/>
</g>
<!-- /widgets/post_tag_list.dart -->
<g id="node26" class="node">
<title>/widgets/post_tag_list.dart</title>
<path fill="Lavender" stroke="black" stroke-width="1.3" d="M586.85,-60C586.85,-60 510.85,-60 510.85,-60 504.85,-60 498.85,-54 498.85,-48 498.85,-48 498.85,-36 498.85,-36 498.85,-30 504.85,-24 510.85,-24 510.85,-24 586.85,-24 586.85,-24 592.85,-24 598.85,-30 598.85,-36 598.85,-36 598.85,-48 598.85,-48 598.85,-54 592.85,-60 586.85,-60"/>
<text text-anchor="middle" x="548.85" y="-36.75" font-family="Arial" font-size="15.00">post_tag_list</text>
</g>
<!-- /widgets/post_tag_list.dart&#45;&gt;/groups/item.dart -->
<g id="edge36" class="edge">
<title>/widgets/post_tag_list.dart&#45;&gt;/groups/item.dart</title>
<path fill="none" stroke="black" stroke-width="1.3" d="M599.18,-39.87C634.38,-41.16 680.24,-49.03 708.01,-78 864.68,-241.42 687.74,-382.41 800.01,-579 806.64,-590.6 816.72,-600.93 826.85,-609.36"/>
<polygon fill="black" stroke="black" stroke-width="1.3" points="824.48,-611.96 834.52,-615.35 828.79,-606.44 824.48,-611.96"/>
</g>
<!-- /widgets/post_tag_list.dart&#45;&gt;/tag/tag.dart -->
<g id="edge39" class="edge">
<title>/widgets/post_tag_list.dart&#45;&gt;/tag/tag.dart</title>
<path fill="none" stroke="black" stroke-width="1.3" d="M599.15,-45.79C671.98,-52.89 811.27,-72.27 918.51,-122 1131.48,-220.77 1337.58,-421.77 1407.88,-494.22"/>
<polygon fill="black" stroke="black" stroke-width="1.3" points="1405.32,-496.6 1414.78,-501.37 1410.36,-491.74 1405.32,-496.6"/>
</g>
<!-- /widgets/post_tag_list.dart&#45;&gt;/tag/providers.dart -->
<g id="edge38" class="edge">
<title>/widgets/post_tag_list.dart&#45;&gt;/tag/providers.dart</title>
<path fill="none" stroke="black" stroke-width="1.3" d="M599.2,-40.22C634.19,-41.72 679.76,-49.7 708.01,-78 839.05,-209.23 690.1,-335.63 800.01,-485 803.9,-490.28 808.81,-494.91 814.16,-498.93"/>
<polygon fill="black" stroke="black" stroke-width="1.3" points="812.22,-501.85 822.5,-504.44 816.08,-496.01 812.22,-501.85"/>
</g>
<!-- /widgets/post_tag_list.dart&#45;&gt;/tag/display.dart -->
<g id="edge37" class="edge">
<title>/widgets/post_tag_list.dart&#45;&gt;/tag/display.dart</title>
<path fill="none" stroke="black" stroke-width="1.3" d="M599.12,-47.46C631.31,-52.39 673.6,-61.51 708.01,-78 943.06,-190.62 1169.58,-417.34 1242.83,-494.55"/>
<polygon fill="black" stroke="black" stroke-width="1.3" points="1239.85,-496.49 1249.26,-501.37 1244.94,-491.69 1239.85,-496.49"/>
</g>
<!-- /widgets/general_tag_context_menu.dart -->
<g id="node27" class="node">
<title>/widgets/general_tag_context_menu.dart</title>
<path fill="Lavender" stroke="black" stroke-width="1.3" d="M700.01,-113.25C700.01,-113.25 700.01,-118.75 700.01,-118.75 700.01,-121.5 697.29,-124.6 694.57,-124.96 694.57,-124.96 616.91,-135.18 616.91,-135.18 614.19,-135.54 608.72,-135.9 605.97,-135.9 605.97,-135.9 491.74,-135.9 491.74,-135.9 488.99,-135.9 483.52,-135.54 480.79,-135.18 480.79,-135.18 403.14,-124.96 403.14,-124.96 400.42,-124.6 397.69,-121.5 397.69,-118.75 397.69,-118.75 397.69,-113.25 397.69,-113.25 397.69,-110.5 400.42,-107.4 403.14,-107.04 403.14,-107.04 480.79,-96.82 480.79,-96.82 483.52,-96.46 488.99,-96.1 491.74,-96.1 491.74,-96.1 605.97,-96.1 605.97,-96.1 608.72,-96.1 614.19,-96.46 616.91,-96.82 616.91,-96.82 694.57,-107.04 694.57,-107.04 697.29,-107.4 700.01,-110.5 700.01,-113.25"/>
<text text-anchor="middle" x="548.85" y="-110.75" font-family="Arial" font-size="15.00">general_tag_context_menu</text>
</g>
<!-- metrics -->
<g id="node29" class="node">
<title>metrics</title>
<path fill="Lavender" stroke="black" stroke-width="1.3" d="M251.44,-1340C251.44,-1340 139.44,-1340 139.44,-1340 133.44,-1340 127.44,-1334 127.44,-1328 127.44,-1328 127.44,-1164 127.44,-1164 127.44,-1158 133.44,-1152 139.44,-1152 139.44,-1152 251.44,-1152 251.44,-1152 257.44,-1152 263.44,-1158 263.44,-1164 263.44,-1164 263.44,-1328 263.44,-1328 263.44,-1334 257.44,-1340 251.44,-1340"/>
<text text-anchor="start" x="135.44" y="-1321.75" font-family="Arial" font-size="15.00"> isAcyclic: true </text>
<text text-anchor="start" x="135.44" y="-1303.75" font-family="Arial" font-size="15.00"> numNodes: 28 &#160;</text>
<text text-anchor="start" x="135.44" y="-1285.75" font-family="Arial" font-size="15.00"> numEdges: 39 &#160;</text>
<text text-anchor="start" x="135.44" y="-1267.75" font-family="Arial" font-size="15.00"> avgDegree: 1.39 </text>
<text text-anchor="start" x="135.44" y="-1249.75" font-family="Arial" font-size="15.00"> numOrphans: 2 </text>
<text text-anchor="start" x="135.44" y="-1231.75" font-family="Arial" font-size="15.00"> ccd: 90 </text>
<text text-anchor="start" x="135.44" y="-1213.75" font-family="Arial" font-size="15.00"> acd: 3.21 </text>
<text text-anchor="start" x="135.44" y="-1195.75" font-family="Arial" font-size="15.00"> nccd: 0.8 </text>
<text text-anchor="start" x="135.44" y="-1177.75" font-family="Arial" font-size="15.00"> totalSloc: 1389 </text>
<text text-anchor="start" x="135.44" y="-1159.75" font-family="Arial" font-size="15.00"> avgSloc: 49.61 </text>
</g>
</g>
</svg>
