<?xml version="1.0" encoding="UTF-8" standalone="no"?>
<!DOCTYPE svg PUBLIC "-//W3C//DTD SVG 1.1//EN"
 "http://www.w3.org/Graphics/SVG/1.1/DTD/svg11.dtd">
<!-- Generated by graphviz version 12.2.0 (20241103.1931)
 -->
<!-- Pages: 1 -->
<svg width="2531pt" height="2369pt"
 viewBox="0.00 0.00 2530.95 2368.73" xmlns="http://www.w3.org/2000/svg" xmlns:xlink="http://www.w3.org/1999/xlink">
<g id="graph0" class="graph" transform="scale(1 1) rotate(0) translate(21.6 2347.13)">
<polygon fill="white" stroke="none" points="-21.6,21.6 -21.6,-2347.13 2509.35,-2347.13 2509.35,21.6 -21.6,21.6"/>
<g id="clust1" class="cluster">
<title>cluster~</title>
<path fill="none" stroke="black" stroke-width="2.6" d="M45,-121.53C45,-121.53 2467.75,-121.53 2467.75,-121.53 2473.75,-121.53 2479.75,-127.53 2479.75,-133.53 2479.75,-133.53 2479.75,-2117.53 2479.75,-2117.53 2479.75,-2123.53 2473.75,-2129.53 2467.75,-2129.53 2467.75,-2129.53 45,-2129.53 45,-2129.53 39,-2129.53 33,-2123.53 33,-2117.53 33,-2117.53 33,-133.53 33,-133.53 33,-127.53 39,-121.53 45,-121.53"/>
<text text-anchor="middle" x="1256.38" y="-2113.18" font-family="Arial Black" font-size="13.00">downloads</text>
</g>
<g id="clust2" class="cluster">
<title>cluster~/path</title>
<path fill="none" stroke="black" stroke-width="2.6" d="M2095.62,-1172.53C2095.62,-1172.53 2204.12,-1172.53 2204.12,-1172.53 2210.12,-1172.53 2216.12,-1178.53 2216.12,-1184.53 2216.12,-1184.53 2216.12,-1307.53 2216.12,-1307.53 2216.12,-1313.53 2210.12,-1319.53 2204.12,-1319.53 2204.12,-1319.53 2095.62,-1319.53 2095.62,-1319.53 2089.62,-1319.53 2083.62,-1313.53 2083.62,-1307.53 2083.62,-1307.53 2083.62,-1184.53 2083.62,-1184.53 2083.62,-1178.53 2089.62,-1172.53 2095.62,-1172.53"/>
<text text-anchor="middle" x="2149.88" y="-1303.18" font-family="Arial Black" font-size="13.00">path</text>
</g>
<g id="clust3" class="cluster">
<title>cluster~/downloader</title>
<path fill="none" stroke="black" stroke-width="2.6" d="M865,-1554.53C865,-1554.53 2185.38,-1554.53 2185.38,-1554.53 2191.38,-1554.53 2197.38,-1560.53 2197.38,-1566.53 2197.38,-1566.53 2197.38,-1731.53 2197.38,-1731.53 2197.38,-1737.53 2191.38,-1743.53 2185.38,-1743.53 2185.38,-1743.53 865,-1743.53 865,-1743.53 859,-1743.53 853,-1737.53 853,-1731.53 853,-1731.53 853,-1566.53 853,-1566.53 853,-1560.53 859,-1554.53 865,-1554.53"/>
<text text-anchor="middle" x="1525.19" y="-1727.18" font-family="Arial Black" font-size="13.00">downloader</text>
</g>
<g id="clust4" class="cluster">
<title>cluster~/internal_widgets</title>
<path fill="none" stroke="black" stroke-width="2.6" d="M1775.5,-645.53C1775.5,-645.53 1873.5,-645.53 1873.5,-645.53 1879.5,-645.53 1885.5,-651.53 1885.5,-657.53 1885.5,-657.53 1885.5,-708.53 1885.5,-708.53 1885.5,-714.53 1879.5,-720.53 1873.5,-720.53 1873.5,-720.53 1775.5,-720.53 1775.5,-720.53 1769.5,-720.53 1763.5,-714.53 1763.5,-708.53 1763.5,-708.53 1763.5,-657.53 1763.5,-657.53 1763.5,-651.53 1769.5,-645.53 1775.5,-645.53"/>
<text text-anchor="middle" x="1824.5" y="-704.18" font-family="Arial Black" font-size="13.00">internal_widgets</text>
</g>
<g id="clust5" class="cluster">
<title>cluster~/manager</title>
<path fill="none" stroke="black" stroke-width="2.6" d="M1412.25,-235.53C1412.25,-235.53 2203.38,-235.53 2203.38,-235.53 2209.38,-235.53 2215.38,-241.53 2215.38,-247.53 2215.38,-247.53 2215.38,-412.53 2215.38,-412.53 2215.38,-418.53 2209.38,-424.53 2203.38,-424.53 2203.38,-424.53 1412.25,-424.53 1412.25,-424.53 1406.25,-424.53 1400.25,-418.53 1400.25,-412.53 1400.25,-412.53 1400.25,-247.53 1400.25,-247.53 1400.25,-241.53 1406.25,-235.53 1412.25,-235.53"/>
<text text-anchor="middle" x="1807.81" y="-408.18" font-family="Arial Black" font-size="13.00">manager</text>
</g>
<g id="clust6" class="cluster">
<title>cluster~/urls</title>
<path fill="none" stroke="black" stroke-width="2.6" d="M2102,-1751.53C2102,-1751.53 2197.75,-1751.53 2197.75,-1751.53 2203.75,-1751.53 2209.75,-1757.53 2209.75,-1763.53 2209.75,-1763.53 2209.75,-1886.53 2209.75,-1886.53 2209.75,-1892.53 2203.75,-1898.53 2197.75,-1898.53 2197.75,-1898.53 2102,-1898.53 2102,-1898.53 2096,-1898.53 2090,-1892.53 2090,-1886.53 2090,-1886.53 2090,-1763.53 2090,-1763.53 2090,-1757.53 2096,-1751.53 2102,-1751.53"/>
<text text-anchor="middle" x="2149.88" y="-1882.18" font-family="Arial Black" font-size="13.00">urls</text>
</g>
<g id="clust7" class="cluster">
<title>cluster~/filename</title>
<path fill="none" stroke="black" stroke-width="2.6" d="M1770.62,-1906.53C1770.62,-1906.53 2459.75,-1906.53 2459.75,-1906.53 2465.75,-1906.53 2471.75,-1912.53 2471.75,-1918.53 2471.75,-1918.53 2471.75,-2041.53 2471.75,-2041.53 2471.75,-2047.53 2465.75,-2053.53 2459.75,-2053.53 2459.75,-2053.53 1770.62,-2053.53 1770.62,-2053.53 1764.62,-2053.53 1758.62,-2047.53 1758.62,-2041.53 1758.62,-2041.53 1758.62,-1918.53 1758.62,-1918.53 1758.62,-1912.53 1764.62,-1906.53 1770.62,-1906.53"/>
<text text-anchor="middle" x="2115.19" y="-2037.18" font-family="Arial Black" font-size="13.00">filename</text>
</g>
<g id="clust8" class="cluster">
<title>cluster~/bulks</title>
<path fill="none" stroke="black" stroke-width="2.6" d="M248,-738.53C248,-738.53 2250.75,-738.53 2250.75,-738.53 2256.75,-738.53 2262.75,-744.53 2262.75,-750.53 2262.75,-750.53 2262.75,-1063.53 2262.75,-1063.53 2262.75,-1069.53 2256.75,-1075.53 2250.75,-1075.53 2250.75,-1075.53 248,-1075.53 248,-1075.53 242,-1075.53 236,-1069.53 236,-1063.53 236,-1063.53 236,-750.53 236,-750.53 236,-744.53 242,-738.53 248,-738.53"/>
<text text-anchor="middle" x="1249.38" y="-1059.18" font-family="Arial Black" font-size="13.00">bulks</text>
</g>
<g id="clust9" class="cluster">
<title>cluster~/bulks/notifications</title>
<path fill="none" stroke="black" stroke-width="2.6" d="M1789.75,-877.53C1789.75,-877.53 2242.75,-877.53 2242.75,-877.53 2248.75,-877.53 2254.75,-883.53 2254.75,-889.53 2254.75,-889.53 2254.75,-940.53 2254.75,-940.53 2254.75,-946.53 2248.75,-952.53 2242.75,-952.53 2242.75,-952.53 1789.75,-952.53 1789.75,-952.53 1783.75,-952.53 1777.75,-946.53 1777.75,-940.53 1777.75,-940.53 1777.75,-889.53 1777.75,-889.53 1777.75,-883.53 1783.75,-877.53 1789.75,-877.53"/>
<text text-anchor="middle" x="2016.25" y="-936.18" font-family="Arial Black" font-size="13.00">notifications</text>
</g>
<g id="clust10" class="cluster">
<title>cluster~/notifications</title>
<path fill="none" stroke="black" stroke-width="2.6" d="M1438.5,-1372.53C1438.5,-1372.53 1864.12,-1372.53 1864.12,-1372.53 1870.12,-1372.53 1876.12,-1378.53 1876.12,-1384.53 1876.12,-1384.53 1876.12,-1507.53 1876.12,-1507.53 1876.12,-1513.53 1870.12,-1519.53 1864.12,-1519.53 1864.12,-1519.53 1438.5,-1519.53 1438.5,-1519.53 1432.5,-1519.53 1426.5,-1513.53 1426.5,-1507.53 1426.5,-1507.53 1426.5,-1384.53 1426.5,-1384.53 1426.5,-1378.53 1432.5,-1372.53 1438.5,-1372.53"/>
<text text-anchor="middle" x="1651.31" y="-1503.18" font-family="Arial Black" font-size="13.00">notifications</text>
</g>
<g id="clust11" class="cluster">
<title>cluster~/widgets</title>
<path fill="none" stroke="black" stroke-width="2.6" d="M1708,-1093.53C1708,-1093.53 1941,-1093.53 1941,-1093.53 1947,-1093.53 1953,-1099.53 1953,-1105.53 1953,-1105.53 1953,-1156.53 1953,-1156.53 1953,-1162.53 1947,-1168.53 1941,-1168.53 1941,-1168.53 1708,-1168.53 1708,-1168.53 1702,-1168.53 1696,-1162.53 1696,-1156.53 1696,-1156.53 1696,-1105.53 1696,-1105.53 1696,-1099.53 1702,-1093.53 1708,-1093.53"/>
<text text-anchor="middle" x="1824.5" y="-1152.18" font-family="Arial Black" font-size="13.00">widgets</text>
</g>
<!-- /manager.dart -->
<g id="node1" class="node">
<title>/manager.dart</title>
<path fill="Lavender" stroke="black" stroke-width="1.3" d="M1217,-207.53C1217,-207.53 1165.75,-207.53 1165.75,-207.53 1159.75,-207.53 1153.75,-201.53 1153.75,-195.53 1153.75,-195.53 1153.75,-183.53 1153.75,-183.53 1153.75,-177.53 1159.75,-171.53 1165.75,-171.53 1165.75,-171.53 1217,-171.53 1217,-171.53 1223,-171.53 1229,-177.53 1229,-183.53 1229,-183.53 1229,-195.53 1229,-195.53 1229,-201.53 1223,-207.53 1217,-207.53"/>
<text text-anchor="middle" x="1191.38" y="-184.28" font-family="Arial" font-size="15.00">manager</text>
</g>
<!-- /manager/download_tasks_notifier.dart -->
<g id="node14" class="node">
<title>/manager/download_tasks_notifier.dart</title>
<path fill="Lavender" stroke="black" stroke-width="1.3" d="M1900.38,-279.53C1900.38,-279.53 1748.62,-279.53 1748.62,-279.53 1742.62,-279.53 1736.62,-273.53 1736.62,-267.53 1736.62,-267.53 1736.62,-255.53 1736.62,-255.53 1736.62,-249.53 1742.62,-243.53 1748.62,-243.53 1748.62,-243.53 1900.38,-243.53 1900.38,-243.53 1906.38,-243.53 1912.38,-249.53 1912.38,-255.53 1912.38,-255.53 1912.38,-267.53 1912.38,-267.53 1912.38,-273.53 1906.38,-279.53 1900.38,-279.53"/>
<text text-anchor="middle" x="1824.5" y="-256.28" font-family="Arial" font-size="15.00">download_tasks_notifier</text>
</g>
<!-- /manager.dart&#45;&gt;/manager/download_tasks_notifier.dart -->
<g id="edge3" class="edge">
<title>/manager.dart&#45;&gt;/manager/download_tasks_notifier.dart</title>
<path fill="none" stroke="black" stroke-width="1.3" stroke-dasharray="5,2" d="M1229.39,-193.57C1300.47,-201.35 1460.99,-219 1596,-234.53 1638.08,-239.38 1684.51,-244.86 1724.4,-249.62"/>
<polygon fill="black" stroke="black" stroke-width="1.3" points="1723.98,-253.09 1734.33,-250.8 1724.81,-246.14 1723.98,-253.09"/>
</g>
<!-- /manager/download_task.dart -->
<g id="node16" class="node">
<title>/manager/download_task.dart</title>
<path fill="Lavender" stroke="black" stroke-width="1.3" d="M2195.38,-279.53C2195.38,-279.53 2104.38,-279.53 2104.38,-279.53 2098.38,-279.53 2092.38,-273.53 2092.38,-267.53 2092.38,-267.53 2092.38,-255.53 2092.38,-255.53 2092.38,-249.53 2098.38,-243.53 2104.38,-243.53 2104.38,-243.53 2195.38,-243.53 2195.38,-243.53 2201.38,-243.53 2207.38,-249.53 2207.38,-255.53 2207.38,-255.53 2207.38,-267.53 2207.38,-267.53 2207.38,-273.53 2201.38,-279.53 2195.38,-279.53"/>
<text text-anchor="middle" x="2149.88" y="-256.28" font-family="Arial" font-size="15.00">download_task</text>
</g>
<!-- /manager.dart&#45;&gt;/manager/download_task.dart -->
<g id="edge2" class="edge">
<title>/manager.dart&#45;&gt;/manager/download_task.dart</title>
<path fill="none" stroke="black" stroke-width="1.3" stroke-dasharray="5,2" d="M1229.14,-185.87C1339.65,-175.71 1678.13,-150.82 1953,-196.53 2002.54,-204.77 2056.55,-223.48 2095.28,-238.71"/>
<polygon fill="black" stroke="black" stroke-width="1.3" points="2093.88,-241.92 2104.46,-242.38 2096.48,-235.42 2093.88,-241.92"/>
</g>
<!-- /manager/download_manager_page.dart -->
<g id="node17" class="node">
<title>/manager/download_manager_page.dart</title>
<path fill="Lavender" stroke="black" stroke-width="1.3" d="M1584,-393.53C1584,-393.53 1420.25,-393.53 1420.25,-393.53 1414.25,-393.53 1408.25,-387.53 1408.25,-381.53 1408.25,-381.53 1408.25,-369.53 1408.25,-369.53 1408.25,-363.53 1414.25,-357.53 1420.25,-357.53 1420.25,-357.53 1584,-357.53 1584,-357.53 1590,-357.53 1596,-363.53 1596,-369.53 1596,-369.53 1596,-381.53 1596,-381.53 1596,-387.53 1590,-393.53 1584,-393.53"/>
<text text-anchor="middle" x="1502.12" y="-370.28" font-family="Arial" font-size="15.00">download_manager_page</text>
</g>
<!-- /manager.dart&#45;&gt;/manager/download_manager_page.dart -->
<g id="edge1" class="edge">
<title>/manager.dart&#45;&gt;/manager/download_manager_page.dart</title>
<path fill="none" stroke="black" stroke-width="1.3" stroke-dasharray="5,2" d="M1209.63,-207.82C1241.68,-240.68 1314.13,-309.9 1397.93,-351.99"/>
<polygon fill="black" stroke="black" stroke-width="1.3" points="1396.18,-355.03 1406.7,-356.25 1399.24,-348.74 1396.18,-355.03"/>
</g>
<!-- /widgets.dart -->
<g id="node2" class="node">
<title>/widgets.dart</title>
<path fill="Lavender" stroke="black" stroke-width="1.3" d="M1523.25,-1306.53C1523.25,-1306.53 1481,-1306.53 1481,-1306.53 1475,-1306.53 1469,-1300.53 1469,-1294.53 1469,-1294.53 1469,-1282.53 1469,-1282.53 1469,-1276.53 1475,-1270.53 1481,-1270.53 1481,-1270.53 1523.25,-1270.53 1523.25,-1270.53 1529.25,-1270.53 1535.25,-1276.53 1535.25,-1282.53 1535.25,-1282.53 1535.25,-1294.53 1535.25,-1294.53 1535.25,-1300.53 1529.25,-1306.53 1523.25,-1306.53"/>
<text text-anchor="middle" x="1502.12" y="-1283.28" font-family="Arial" font-size="15.00">widgets</text>
</g>
<!-- /widgets/download_folder_selector_section.dart -->
<g id="node41" class="node">
<title>/widgets/download_folder_selector_section.dart</title>
<path fill="Lavender" stroke="black" stroke-width="1.3" d="M1933,-1137.53C1933,-1137.53 1716,-1137.53 1716,-1137.53 1710,-1137.53 1704,-1131.53 1704,-1125.53 1704,-1125.53 1704,-1113.53 1704,-1113.53 1704,-1107.53 1710,-1101.53 1716,-1101.53 1716,-1101.53 1933,-1101.53 1933,-1101.53 1939,-1101.53 1945,-1107.53 1945,-1113.53 1945,-1113.53 1945,-1125.53 1945,-1125.53 1945,-1131.53 1939,-1137.53 1933,-1137.53"/>
<text text-anchor="middle" x="1824.5" y="-1114.28" font-family="Arial" font-size="15.00">download_folder_selector_section</text>
</g>
<!-- /widgets.dart&#45;&gt;/widgets/download_folder_selector_section.dart -->
<g id="edge4" class="edge">
<title>/widgets.dart&#45;&gt;/widgets/download_folder_selector_section.dart</title>
<path fill="none" stroke="black" stroke-width="1.3" stroke-dasharray="5,2" d="M1535.6,-1276.07C1554.16,-1268.17 1577.38,-1256.92 1596,-1243.53 1644.63,-1208.58 1640.47,-1175.05 1693.45,-1143.5"/>
<polygon fill="black" stroke="black" stroke-width="1.3" points="1694.87,-1146.72 1701.91,-1138.8 1691.47,-1140.6 1694.87,-1146.72"/>
</g>
<!-- /path/validator.dart -->
<g id="node3" class="node">
<title>/path/validator.dart</title>
<path fill="Lavender" stroke="black" stroke-width="1.3" d="M2174,-1216.53C2174,-1216.53 2125.75,-1216.53 2125.75,-1216.53 2119.75,-1216.53 2113.75,-1210.53 2113.75,-1204.53 2113.75,-1204.53 2113.75,-1192.53 2113.75,-1192.53 2113.75,-1186.53 2119.75,-1180.53 2125.75,-1180.53 2125.75,-1180.53 2174,-1180.53 2174,-1180.53 2180,-1180.53 2186,-1186.53 2186,-1192.53 2186,-1192.53 2186,-1204.53 2186,-1204.53 2186,-1210.53 2180,-1216.53 2174,-1216.53"/>
<text text-anchor="middle" x="2149.88" y="-1193.28" font-family="Arial" font-size="15.00">validator</text>
</g>
<!-- /path/download_path.dart -->
<g id="node4" class="node">
<title>/path/download_path.dart</title>
<path fill="Lavender" stroke="black" stroke-width="1.3" d="M2196.12,-1288.53C2196.12,-1288.53 2103.62,-1288.53 2103.62,-1288.53 2097.62,-1288.53 2091.62,-1282.53 2091.62,-1276.53 2091.62,-1276.53 2091.62,-1264.53 2091.62,-1264.53 2091.62,-1258.53 2097.62,-1252.53 2103.62,-1252.53 2103.62,-1252.53 2196.12,-1252.53 2196.12,-1252.53 2202.12,-1252.53 2208.12,-1258.53 2208.12,-1264.53 2208.12,-1264.53 2208.12,-1276.53 2208.12,-1276.53 2208.12,-1282.53 2202.12,-1288.53 2196.12,-1288.53"/>
<text text-anchor="middle" x="2149.88" y="-1265.28" font-family="Arial" font-size="15.00">download_path</text>
</g>
<!-- /bulks.dart -->
<g id="node5" class="node">
<title>/bulks.dart</title>
<path fill="Lavender" stroke="black" stroke-width="1.3" d="M83,-925.53C83,-925.53 53,-925.53 53,-925.53 47,-925.53 41,-919.53 41,-913.53 41,-913.53 41,-901.53 41,-901.53 41,-895.53 47,-889.53 53,-889.53 53,-889.53 83,-889.53 83,-889.53 89,-889.53 95,-895.53 95,-901.53 95,-901.53 95,-913.53 95,-913.53 95,-919.53 89,-925.53 83,-925.53"/>
<text text-anchor="middle" x="68" y="-902.28" font-family="Arial" font-size="15.00">bulks</text>
</g>
<!-- /bulks/bulk_download_page.dart -->
<g id="node28" class="node">
<title>/bulks/bulk_download_page.dart</title>
<path fill="Lavender" stroke="black" stroke-width="1.3" d="M387.5,-1018.53C387.5,-1018.53 256,-1018.53 256,-1018.53 250,-1018.53 244,-1012.53 244,-1006.53 244,-1006.53 244,-994.53 244,-994.53 244,-988.53 250,-982.53 256,-982.53 256,-982.53 387.5,-982.53 387.5,-982.53 393.5,-982.53 399.5,-988.53 399.5,-994.53 399.5,-994.53 399.5,-1006.53 399.5,-1006.53 399.5,-1012.53 393.5,-1018.53 387.5,-1018.53"/>
<text text-anchor="middle" x="321.75" y="-995.28" font-family="Arial" font-size="15.00">bulk_download_page</text>
</g>
<!-- /bulks.dart&#45;&gt;/bulks/bulk_download_page.dart -->
<g id="edge7" class="edge">
<title>/bulks.dart&#45;&gt;/bulks/bulk_download_page.dart</title>
<path fill="none" stroke="black" stroke-width="1.3" stroke-dasharray="5,2" d="M95.42,-920.21C125.99,-934.56 178.31,-958.15 235.87,-978.27"/>
<polygon fill="black" stroke="black" stroke-width="1.3" points="234.6,-981.54 245.19,-981.47 236.87,-974.92 234.6,-981.54"/>
</g>
<!-- /bulks/bulk_download_notifier.dart -->
<g id="node29" class="node">
<title>/bulks/bulk_download_notifier.dart</title>
<path fill="Lavender" stroke="black" stroke-width="1.3" d="M1573.88,-968.53C1573.88,-968.53 1430.38,-968.53 1430.38,-968.53 1424.38,-968.53 1418.38,-962.53 1418.38,-956.53 1418.38,-956.53 1418.38,-944.53 1418.38,-944.53 1418.38,-938.53 1424.38,-932.53 1430.38,-932.53 1430.38,-932.53 1573.88,-932.53 1573.88,-932.53 1579.88,-932.53 1585.88,-938.53 1585.88,-944.53 1585.88,-944.53 1585.88,-956.53 1585.88,-956.53 1585.88,-962.53 1579.88,-968.53 1573.88,-968.53"/>
<text text-anchor="middle" x="1502.12" y="-945.28" font-family="Arial" font-size="15.00">bulk_download_notifier</text>
</g>
<!-- /bulks.dart&#45;&gt;/bulks/bulk_download_notifier.dart -->
<g id="edge6" class="edge">
<title>/bulks.dart&#45;&gt;/bulks/bulk_download_notifier.dart</title>
<path fill="none" stroke="black" stroke-width="1.3" stroke-dasharray="5,2" d="M95.17,-905.36C163.13,-899.83 350.83,-885.35 507.5,-880.53 616.56,-877.18 644.01,-875.45 753,-880.53 988.59,-891.53 1264.55,-921.91 1406.36,-938.81"/>
<polygon fill="black" stroke="black" stroke-width="1.3" points="1405.7,-942.25 1416.04,-939.97 1406.53,-935.3 1405.7,-942.25"/>
</g>
<!-- /bulks/create_bulk_download_notifier.dart -->
<g id="node31" class="node">
<title>/bulks/create_bulk_download_notifier.dart</title>
<path fill="Lavender" stroke="black" stroke-width="1.3" d="M1288.25,-809.53C1288.25,-809.53 1094.5,-809.53 1094.5,-809.53 1088.5,-809.53 1082.5,-803.53 1082.5,-797.53 1082.5,-797.53 1082.5,-785.53 1082.5,-785.53 1082.5,-779.53 1088.5,-773.53 1094.5,-773.53 1094.5,-773.53 1288.25,-773.53 1288.25,-773.53 1294.25,-773.53 1300.25,-779.53 1300.25,-785.53 1300.25,-785.53 1300.25,-797.53 1300.25,-797.53 1300.25,-803.53 1294.25,-809.53 1288.25,-809.53"/>
<text text-anchor="middle" x="1191.38" y="-786.28" font-family="Arial" font-size="15.00">create_bulk_download_notifier</text>
</g>
<!-- /bulks.dart&#45;&gt;/bulks/create_bulk_download_notifier.dart -->
<g id="edge9" class="edge">
<title>/bulks.dart&#45;&gt;/bulks/create_bulk_download_notifier.dart</title>
<path fill="none" stroke="black" stroke-width="1.3" stroke-dasharray="5,2" d="M95.3,-889.41C127.02,-868.66 182.75,-835.73 236,-821.53 527.54,-743.84 886.93,-761.46 1070.33,-778.13"/>
<polygon fill="black" stroke="black" stroke-width="1.3" points="1069.92,-781.61 1080.2,-779.05 1070.56,-774.64 1069.92,-781.61"/>
</g>
<!-- /bulks/providers.dart -->
<g id="node32" class="node">
<title>/bulks/providers.dart</title>
<path fill="Lavender" stroke="black" stroke-width="1.3" d="M944.5,-847.53C944.5,-847.53 891,-847.53 891,-847.53 885,-847.53 879,-841.53 879,-835.53 879,-835.53 879,-823.53 879,-823.53 879,-817.53 885,-811.53 891,-811.53 891,-811.53 944.5,-811.53 944.5,-811.53 950.5,-811.53 956.5,-817.53 956.5,-823.53 956.5,-823.53 956.5,-835.53 956.5,-835.53 956.5,-841.53 950.5,-847.53 944.5,-847.53"/>
<text text-anchor="middle" x="917.75" y="-824.28" font-family="Arial" font-size="15.00">providers</text>
</g>
<!-- /bulks.dart&#45;&gt;/bulks/providers.dart -->
<g id="edge11" class="edge">
<title>/bulks.dart&#45;&gt;/bulks/providers.dart</title>
<path fill="none" stroke="black" stroke-width="1.3" stroke-dasharray="5,2" d="M95.27,-896.06C127.65,-882.54 184.68,-860.76 236,-851.53 469,-809.63 753.91,-819.82 867.04,-826.24"/>
<polygon fill="black" stroke="black" stroke-width="1.3" points="866.56,-829.72 876.75,-826.81 866.97,-822.73 866.56,-829.72"/>
</g>
<!-- /bulks/bulk_download_task_tile.dart -->
<g id="node34" class="node">
<title>/bulks/bulk_download_task_tile.dart</title>
<path fill="Lavender" stroke="black" stroke-width="1.3" d="M706.88,-934.53C706.88,-934.53 553.62,-934.53 553.62,-934.53 547.62,-934.53 541.62,-928.53 541.62,-922.53 541.62,-922.53 541.62,-910.53 541.62,-910.53 541.62,-904.53 547.62,-898.53 553.62,-898.53 553.62,-898.53 706.88,-898.53 706.88,-898.53 712.88,-898.53 718.88,-904.53 718.88,-910.53 718.88,-910.53 718.88,-922.53 718.88,-922.53 718.88,-928.53 712.88,-934.53 706.88,-934.53"/>
<text text-anchor="middle" x="630.25" y="-911.28" font-family="Arial" font-size="15.00">bulk_download_task_tile</text>
</g>
<!-- /bulks.dart&#45;&gt;/bulks/bulk_download_task_tile.dart -->
<g id="edge8" class="edge">
<title>/bulks.dart&#45;&gt;/bulks/bulk_download_task_tile.dart</title>
<path fill="none" stroke="black" stroke-width="1.3" stroke-dasharray="5,2" d="M95.27,-907.96C171.76,-909.19 397.26,-912.81 529.49,-914.93"/>
<polygon fill="black" stroke="black" stroke-width="1.3" points="529.18,-918.43 539.23,-915.09 529.29,-911.43 529.18,-918.43"/>
</g>
<!-- /bulks/create_bulk_download_task_sheet.dart -->
<g id="node35" class="node">
<title>/bulks/create_bulk_download_task_sheet.dart</title>
<path fill="Lavender" stroke="black" stroke-width="1.3" d="M741,-1044.53C741,-1044.53 519.5,-1044.53 519.5,-1044.53 513.5,-1044.53 507.5,-1038.53 507.5,-1032.53 507.5,-1032.53 507.5,-1020.53 507.5,-1020.53 507.5,-1014.53 513.5,-1008.53 519.5,-1008.53 519.5,-1008.53 741,-1008.53 741,-1008.53 747,-1008.53 753,-1014.53 753,-1020.53 753,-1020.53 753,-1032.53 753,-1032.53 753,-1038.53 747,-1044.53 741,-1044.53"/>
<text text-anchor="middle" x="630.25" y="-1021.28" font-family="Arial" font-size="15.00">create_bulk_download_task_sheet</text>
</g>
<!-- /bulks.dart&#45;&gt;/bulks/create_bulk_download_task_sheet.dart -->
<g id="edge10" class="edge">
<title>/bulks.dart&#45;&gt;/bulks/create_bulk_download_task_sheet.dart</title>
<path fill="none" stroke="black" stroke-width="1.3" stroke-dasharray="5,2" d="M95.3,-911.22C151.47,-919.28 287.21,-939.76 399.5,-964.53 452.2,-976.16 510.94,-992.07 555.83,-1004.86"/>
<polygon fill="black" stroke="black" stroke-width="1.3" points="554.76,-1008.19 565.34,-1007.58 556.69,-1001.46 554.76,-1008.19"/>
</g>
<!-- /bulks/notifications/bulk_download_notification.dart -->
<g id="node37" class="node">
<title>/bulks/notifications/bulk_download_notification.dart</title>
<path fill="Lavender" stroke="black" stroke-width="1.3" d="M2234.75,-921.53C2234.75,-921.53 2065,-921.53 2065,-921.53 2059,-921.53 2053,-915.53 2053,-909.53 2053,-909.53 2053,-897.53 2053,-897.53 2053,-891.53 2059,-885.53 2065,-885.53 2065,-885.53 2234.75,-885.53 2234.75,-885.53 2240.75,-885.53 2246.75,-891.53 2246.75,-897.53 2246.75,-897.53 2246.75,-909.53 2246.75,-909.53 2246.75,-915.53 2240.75,-921.53 2234.75,-921.53"/>
<text text-anchor="middle" x="2149.88" y="-898.28" font-family="Arial" font-size="15.00">bulk_download_notification</text>
</g>
<!-- /bulks.dart&#45;&gt;/bulks/notifications/bulk_download_notification.dart -->
<g id="edge5" class="edge">
<title>/bulks.dart&#45;&gt;/bulks/notifications/bulk_download_notification.dart</title>
<path fill="none" stroke="black" stroke-width="1.3" stroke-dasharray="5,2" d="M81.44,-925.98C135.99,-1004.45 363.26,-1306.53 629.25,-1306.53 629.25,-1306.53 629.25,-1306.53 918.75,-1306.53 1069.3,-1306.53 1455.44,-1378.47 1596,-1324.53 1651.82,-1303.11 1642.84,-1261.91 1696,-1234.53 1800.02,-1180.97 1855.41,-1242.06 1953,-1177.53 2047.92,-1114.78 2111.71,-989.11 2136.86,-932.43"/>
<polygon fill="black" stroke="black" stroke-width="1.3" points="2139.94,-934.12 2140.71,-923.55 2133.52,-931.33 2139.94,-934.12"/>
</g>
<!-- /downloader/background_downloader.dart -->
<g id="node6" class="node">
<title>/downloader/background_downloader.dart</title>
<path fill="Lavender" stroke="black" stroke-width="1.3" d="M1579.5,-1598.53C1579.5,-1598.53 1424.75,-1598.53 1424.75,-1598.53 1418.75,-1598.53 1412.75,-1592.53 1412.75,-1586.53 1412.75,-1586.53 1412.75,-1574.53 1412.75,-1574.53 1412.75,-1568.53 1418.75,-1562.53 1424.75,-1562.53 1424.75,-1562.53 1579.5,-1562.53 1579.5,-1562.53 1585.5,-1562.53 1591.5,-1568.53 1591.5,-1574.53 1591.5,-1574.53 1591.5,-1586.53 1591.5,-1586.53 1591.5,-1592.53 1585.5,-1598.53 1579.5,-1598.53"/>
<text text-anchor="middle" x="1502.12" y="-1575.28" font-family="Arial" font-size="15.00">background_downloader</text>
</g>
<!-- /downloader/background_downloader.dart&#45;&gt;/path/download_path.dart -->
<g id="edge14" class="edge">
<title>/downloader/background_downloader.dart&#45;&gt;/path/download_path.dart</title>
<path fill="none" stroke="black" stroke-width="1.3" d="M1591.79,-1578.45C1704.96,-1574.4 1893.24,-1562.61 1953,-1528.53 2047.41,-1474.7 2110.9,-1355.12 2136.36,-1299.73"/>
<polygon fill="black" stroke="black" stroke-width="1.3" points="2139.5,-1301.29 2140.4,-1290.73 2133.11,-1298.42 2139.5,-1301.29"/>
</g>
<!-- /downloader/download_service.dart -->
<g id="node7" class="node">
<title>/downloader/download_service.dart</title>
<path fill="Lavender" stroke="black" stroke-width="1.3" d="M1879.75,-1653.53C1879.75,-1653.53 1769.25,-1653.53 1769.25,-1653.53 1763.25,-1653.53 1757.25,-1647.53 1757.25,-1641.53 1757.25,-1641.53 1757.25,-1629.53 1757.25,-1629.53 1757.25,-1623.53 1763.25,-1617.53 1769.25,-1617.53 1769.25,-1617.53 1879.75,-1617.53 1879.75,-1617.53 1885.75,-1617.53 1891.75,-1623.53 1891.75,-1629.53 1891.75,-1629.53 1891.75,-1641.53 1891.75,-1641.53 1891.75,-1647.53 1885.75,-1653.53 1879.75,-1653.53"/>
<text text-anchor="middle" x="1824.5" y="-1630.28" font-family="Arial" font-size="15.00">download_service</text>
</g>
<!-- /downloader/background_downloader.dart&#45;&gt;/downloader/download_service.dart -->
<g id="edge15" class="edge">
<title>/downloader/background_downloader.dart&#45;&gt;/downloader/download_service.dart</title>
<path fill="none" stroke="black" stroke-width="1.3" d="M1591.94,-1595.78C1640.08,-1604.05 1699.04,-1614.17 1745.41,-1622.13"/>
<polygon fill="black" stroke="black" stroke-width="1.3" points="1744.53,-1625.53 1754.97,-1623.77 1745.71,-1618.63 1744.53,-1625.53"/>
</g>
<!-- /downloader/metadata.dart -->
<g id="node9" class="node">
<title>/downloader/metadata.dart</title>
<path fill="Lavender" stroke="black" stroke-width="1.3" d="M2177.38,-1625.53C2177.38,-1625.53 2122.38,-1625.53 2122.38,-1625.53 2116.38,-1625.53 2110.38,-1619.53 2110.38,-1613.53 2110.38,-1613.53 2110.38,-1601.53 2110.38,-1601.53 2110.38,-1595.53 2116.38,-1589.53 2122.38,-1589.53 2122.38,-1589.53 2177.38,-1589.53 2177.38,-1589.53 2183.38,-1589.53 2189.38,-1595.53 2189.38,-1601.53 2189.38,-1601.53 2189.38,-1613.53 2189.38,-1613.53 2189.38,-1619.53 2183.38,-1625.53 2177.38,-1625.53"/>
<text text-anchor="middle" x="2149.88" y="-1602.28" font-family="Arial" font-size="15.00">metadata</text>
</g>
<!-- /downloader/background_downloader.dart&#45;&gt;/downloader/metadata.dart -->
<g id="edge16" class="edge">
<title>/downloader/background_downloader.dart&#45;&gt;/downloader/metadata.dart</title>
<path fill="none" stroke="black" stroke-width="1.3" d="M1591.9,-1584.25C1729.35,-1589.99 1989.2,-1600.86 2098.46,-1605.43"/>
<polygon fill="black" stroke="black" stroke-width="1.3" points="2098,-1608.91 2108.14,-1605.83 2098.29,-1601.92 2098,-1608.91"/>
</g>
<!-- /downloader/background_downloader.dart&#45;&gt;/manager/download_tasks_notifier.dart -->
<g id="edge13" class="edge">
<title>/downloader/background_downloader.dart&#45;&gt;/manager/download_tasks_notifier.dart</title>
<path fill="none" stroke="black" stroke-width="1.3" d="M1555.85,-1562.22C1571.26,-1554.26 1586.5,-1543.3 1596,-1528.53 1884.03,-1081.15 1411.44,-785.13 1696,-335.53 1710.24,-313.03 1733.97,-296.59 1757.13,-285.01"/>
<polygon fill="black" stroke="black" stroke-width="1.3" points="1758.36,-288.3 1765.91,-280.87 1755.37,-281.97 1758.36,-288.3"/>
</g>
<!-- /l10n.dart -->
<g id="node20" class="node">
<title>/l10n.dart</title>
<path fill="Lavender" stroke="black" stroke-width="1.3" d="M2164.88,-661.53C2164.88,-661.53 2134.88,-661.53 2134.88,-661.53 2128.88,-661.53 2122.88,-655.53 2122.88,-649.53 2122.88,-649.53 2122.88,-637.53 2122.88,-637.53 2122.88,-631.53 2128.88,-625.53 2134.88,-625.53 2134.88,-625.53 2164.88,-625.53 2164.88,-625.53 2170.88,-625.53 2176.88,-631.53 2176.88,-637.53 2176.88,-637.53 2176.88,-649.53 2176.88,-649.53 2176.88,-655.53 2170.88,-661.53 2164.88,-661.53"/>
<text text-anchor="middle" x="2149.88" y="-638.28" font-family="Arial" font-size="15.00">l10n</text>
</g>
<!-- /downloader/background_downloader.dart&#45;&gt;/l10n.dart -->
<g id="edge12" class="edge">
<title>/downloader/background_downloader.dart&#45;&gt;/l10n.dart</title>
<path fill="none" stroke="black" stroke-width="1.3" d="M1550.91,-1562.21C1567.09,-1554 1584.06,-1542.88 1596,-1528.53 1684.29,-1422.45 1594.06,-1327.58 1696,-1234.53 1782.78,-1155.32 1866.62,-1252.18 1953,-1172.53 2057.57,-1076.12 2002.85,-1001.64 2053,-868.53 2079.88,-797.2 2116.21,-715.25 2135.52,-672.67"/>
<polygon fill="black" stroke="black" stroke-width="1.3" points="2138.61,-674.33 2139.56,-663.78 2132.24,-671.43 2138.61,-674.33"/>
</g>
<!-- /downloader/download_service.dart&#45;&gt;/downloader/metadata.dart -->
<g id="edge17" class="edge">
<title>/downloader/download_service.dart&#45;&gt;/downloader/metadata.dart</title>
<path fill="none" stroke="black" stroke-width="1.3" d="M1892.11,-1629.77C1953.43,-1624.46 2043.05,-1616.7 2098.58,-1611.89"/>
<polygon fill="black" stroke="black" stroke-width="1.3" points="2098.6,-1615.4 2108.26,-1611.05 2098,-1608.43 2098.6,-1615.4"/>
</g>
<!-- /downloader/providers.dart -->
<g id="node8" class="node">
<title>/downloader/providers.dart</title>
<path fill="Lavender" stroke="black" stroke-width="1.3" d="M1218.12,-1598.53C1218.12,-1598.53 1164.62,-1598.53 1164.62,-1598.53 1158.62,-1598.53 1152.62,-1592.53 1152.62,-1586.53 1152.62,-1586.53 1152.62,-1574.53 1152.62,-1574.53 1152.62,-1568.53 1158.62,-1562.53 1164.62,-1562.53 1164.62,-1562.53 1218.12,-1562.53 1218.12,-1562.53 1224.12,-1562.53 1230.12,-1568.53 1230.12,-1574.53 1230.12,-1574.53 1230.12,-1586.53 1230.12,-1586.53 1230.12,-1592.53 1224.12,-1598.53 1218.12,-1598.53"/>
<text text-anchor="middle" x="1191.38" y="-1575.28" font-family="Arial" font-size="15.00">providers</text>
</g>
<!-- /downloader/providers.dart&#45;&gt;/downloader/background_downloader.dart -->
<g id="edge19" class="edge">
<title>/downloader/providers.dart&#45;&gt;/downloader/background_downloader.dart</title>
<path fill="none" stroke="black" stroke-width="1.3" d="M1230.54,-1580.53C1272.73,-1580.53 1342.4,-1580.53 1400.48,-1580.53"/>
<polygon fill="black" stroke="black" stroke-width="1.3" points="1400.34,-1584.03 1410.34,-1580.53 1400.34,-1577.03 1400.34,-1584.03"/>
</g>
<!-- /downloader/providers.dart&#45;&gt;/downloader/download_service.dart -->
<g id="edge20" class="edge">
<title>/downloader/providers.dart&#45;&gt;/downloader/download_service.dart</title>
<path fill="none" stroke="black" stroke-width="1.3" d="M1230.48,-1588.63C1272.02,-1597.1 1340.53,-1610.05 1400.25,-1616.53 1520.08,-1629.55 1659.92,-1633.69 1745.06,-1634.98"/>
<polygon fill="black" stroke="black" stroke-width="1.3" points="1744.94,-1638.48 1754.99,-1635.12 1745.04,-1631.48 1744.94,-1638.48"/>
</g>
<!-- /notifications/providers.dart -->
<g id="node39" class="node">
<title>/notifications/providers.dart</title>
<path fill="Lavender" stroke="black" stroke-width="1.3" d="M1528.88,-1488.53C1528.88,-1488.53 1475.38,-1488.53 1475.38,-1488.53 1469.38,-1488.53 1463.38,-1482.53 1463.38,-1476.53 1463.38,-1476.53 1463.38,-1464.53 1463.38,-1464.53 1463.38,-1458.53 1469.38,-1452.53 1475.38,-1452.53 1475.38,-1452.53 1528.88,-1452.53 1528.88,-1452.53 1534.88,-1452.53 1540.88,-1458.53 1540.88,-1464.53 1540.88,-1464.53 1540.88,-1476.53 1540.88,-1476.53 1540.88,-1482.53 1534.88,-1488.53 1528.88,-1488.53"/>
<text text-anchor="middle" x="1502.12" y="-1465.28" font-family="Arial" font-size="15.00">providers</text>
</g>
<!-- /downloader/providers.dart&#45;&gt;/notifications/providers.dart -->
<g id="edge18" class="edge">
<title>/downloader/providers.dart&#45;&gt;/notifications/providers.dart</title>
<path fill="none" stroke="black" stroke-width="1.3" d="M1230.57,-1574.78C1251.43,-1571.13 1277.57,-1565.73 1300.25,-1558.53 1354.94,-1541.19 1414.84,-1513.78 1454.87,-1494.16"/>
<polygon fill="black" stroke="black" stroke-width="1.3" points="1456.19,-1497.41 1463.6,-1489.84 1453.09,-1491.14 1456.19,-1497.41"/>
</g>
<!-- /downloader/download_utils.dart -->
<g id="node10" class="node">
<title>/downloader/download_utils.dart</title>
<path fill="Lavender" stroke="black" stroke-width="1.3" d="M962.5,-1653.53C962.5,-1653.53 873,-1653.53 873,-1653.53 867,-1653.53 861,-1647.53 861,-1641.53 861,-1641.53 861,-1629.53 861,-1629.53 861,-1623.53 867,-1617.53 873,-1617.53 873,-1617.53 962.5,-1617.53 962.5,-1617.53 968.5,-1617.53 974.5,-1623.53 974.5,-1629.53 974.5,-1629.53 974.5,-1641.53 974.5,-1641.53 974.5,-1647.53 968.5,-1653.53 962.5,-1653.53"/>
<text text-anchor="middle" x="917.75" y="-1630.28" font-family="Arial" font-size="15.00">download_utils</text>
</g>
<!-- /downloader/download_utils.dart&#45;&gt;/downloader/download_service.dart -->
<g id="edge23" class="edge">
<title>/downloader/download_utils.dart&#45;&gt;/downloader/download_service.dart</title>
<path fill="none" stroke="black" stroke-width="1.3" d="M974.66,-1635.53C1129.73,-1635.53 1565.58,-1635.53 1744.91,-1635.53"/>
<polygon fill="black" stroke="black" stroke-width="1.3" points="1744.89,-1639.03 1754.89,-1635.53 1744.89,-1632.03 1744.89,-1639.03"/>
</g>
<!-- /downloader/download_utils.dart&#45;&gt;/downloader/providers.dart -->
<g id="edge25" class="edge">
<title>/downloader/download_utils.dart&#45;&gt;/downloader/providers.dart</title>
<path fill="none" stroke="black" stroke-width="1.3" d="M974.7,-1624.21C1023.56,-1614.31 1093.81,-1600.09 1140.71,-1590.59"/>
<polygon fill="black" stroke="black" stroke-width="1.3" points="1141.37,-1594.03 1150.47,-1588.61 1139.98,-1587.17 1141.37,-1594.03"/>
</g>
<!-- /downloader/download_utils.dart&#45;&gt;/downloader/metadata.dart -->
<g id="edge24" class="edge">
<title>/downloader/download_utils.dart&#45;&gt;/downloader/metadata.dart</title>
<path fill="none" stroke="black" stroke-width="1.3" d="M974.99,-1645.01C1131.29,-1669.73 1583.72,-1730.33 1953,-1671.53 2004.13,-1663.39 2060.04,-1644.01 2099,-1628.69"/>
<polygon fill="black" stroke="black" stroke-width="1.3" points="2100.2,-1631.98 2108.19,-1625.01 2097.6,-1625.47 2100.2,-1631.98"/>
</g>
<!-- /urls/download_url.dart -->
<g id="node18" class="node">
<title>/urls/download_url.dart</title>
<path fill="Lavender" stroke="black" stroke-width="1.3" d="M2189.75,-1795.53C2189.75,-1795.53 2110,-1795.53 2110,-1795.53 2104,-1795.53 2098,-1789.53 2098,-1783.53 2098,-1783.53 2098,-1771.53 2098,-1771.53 2098,-1765.53 2104,-1759.53 2110,-1759.53 2110,-1759.53 2189.75,-1759.53 2189.75,-1759.53 2195.75,-1759.53 2201.75,-1765.53 2201.75,-1771.53 2201.75,-1771.53 2201.75,-1783.53 2201.75,-1783.53 2201.75,-1789.53 2195.75,-1795.53 2189.75,-1795.53"/>
<text text-anchor="middle" x="2149.88" y="-1772.28" font-family="Arial" font-size="15.00">download_url</text>
</g>
<!-- /downloader/download_utils.dart&#45;&gt;/urls/download_url.dart -->
<g id="edge22" class="edge">
<title>/downloader/download_utils.dart&#45;&gt;/urls/download_url.dart</title>
<path fill="none" stroke="black" stroke-width="1.3" d="M974.61,-1653.98C1005.99,-1663.65 1046.05,-1674.83 1082.5,-1681.53 1459.05,-1750.76 1919.98,-1770.74 2085.76,-1775.9"/>
<polygon fill="black" stroke="black" stroke-width="1.3" points="2085.57,-1779.4 2095.67,-1776.2 2085.79,-1772.4 2085.57,-1779.4"/>
</g>
<!-- /downloader/download_utils.dart&#45;&gt;/l10n.dart -->
<g id="edge21" class="edge">
<title>/downloader/download_utils.dart&#45;&gt;/l10n.dart</title>
<path fill="none" stroke="black" stroke-width="1.3" d="M969.74,-1617.16C971.4,-1616.02 972.99,-1614.81 974.5,-1613.53 1045.45,-1553.54 1016.06,-1499.48 1082.5,-1434.53 1198.88,-1320.77 1254.78,-1325.5 1400.25,-1252.53 1485.03,-1210.01 1531.91,-1237.45 1596,-1167.53 1690.69,-1064.24 1604,-974.23 1696,-868.53 1726.1,-833.95 2008.69,-705.96 2111.61,-660.06"/>
<polygon fill="black" stroke="black" stroke-width="1.3" points="2112.9,-663.32 2120.61,-656.05 2110.05,-656.92 2112.9,-663.32"/>
</g>
<!-- /internal_widgets/download_tile.dart -->
<g id="node11" class="node">
<title>/internal_widgets/download_tile.dart</title>
<path fill="Lavender" stroke="black" stroke-width="1.3" d="M1865.5,-689.53C1865.5,-689.53 1783.5,-689.53 1783.5,-689.53 1777.5,-689.53 1771.5,-683.53 1771.5,-677.53 1771.5,-677.53 1771.5,-665.53 1771.5,-665.53 1771.5,-659.53 1777.5,-653.53 1783.5,-653.53 1783.5,-653.53 1865.5,-653.53 1865.5,-653.53 1871.5,-653.53 1877.5,-659.53 1877.5,-665.53 1877.5,-665.53 1877.5,-677.53 1877.5,-677.53 1877.5,-683.53 1871.5,-689.53 1865.5,-689.53"/>
<text text-anchor="middle" x="1824.5" y="-666.28" font-family="Arial" font-size="15.00">download_tile</text>
</g>
<!-- /urls/sanitizer.dart -->
<g id="node19" class="node">
<title>/urls/sanitizer.dart</title>
<path fill="Lavender" stroke="black" stroke-width="1.3" d="M2173.62,-1867.53C2173.62,-1867.53 2126.12,-1867.53 2126.12,-1867.53 2120.12,-1867.53 2114.12,-1861.53 2114.12,-1855.53 2114.12,-1855.53 2114.12,-1843.53 2114.12,-1843.53 2114.12,-1837.53 2120.12,-1831.53 2126.12,-1831.53 2126.12,-1831.53 2173.62,-1831.53 2173.62,-1831.53 2179.62,-1831.53 2185.62,-1837.53 2185.62,-1843.53 2185.62,-1843.53 2185.62,-1855.53 2185.62,-1855.53 2185.62,-1861.53 2179.62,-1867.53 2173.62,-1867.53"/>
<text text-anchor="middle" x="2149.88" y="-1844.28" font-family="Arial" font-size="15.00">sanitizer</text>
</g>
<!-- /internal_widgets/download_tile.dart&#45;&gt;/urls/sanitizer.dart -->
<g id="edge27" class="edge">
<title>/internal_widgets/download_tile.dart&#45;&gt;/urls/sanitizer.dart</title>
<path fill="none" stroke="black" stroke-width="1.3" d="M1841.63,-689.77C1869.76,-722.78 1927.26,-795.75 1953,-868.53 2023.41,-1067.62 1923.77,-1646.52 2053,-1813.53 2064.93,-1828.95 2084.22,-1837.76 2102.38,-1842.8"/>
<polygon fill="black" stroke="black" stroke-width="1.3" points="2101.31,-1846.15 2111.85,-1845.08 2102.95,-1839.34 2101.31,-1846.15"/>
</g>
<!-- /internal_widgets/download_tile.dart&#45;&gt;/l10n.dart -->
<g id="edge26" class="edge">
<title>/internal_widgets/download_tile.dart&#45;&gt;/l10n.dart</title>
<path fill="none" stroke="black" stroke-width="1.3" d="M1877.82,-667C1943.1,-661.35 2053.16,-651.82 2110.9,-646.82"/>
<polygon fill="black" stroke="black" stroke-width="1.3" points="2111.11,-650.32 2120.77,-645.97 2110.51,-643.34 2111.11,-650.32"/>
</g>
<!-- /notifications.dart -->
<g id="node12" class="node">
<title>/notifications.dart</title>
<path fill="Lavender" stroke="black" stroke-width="1.3" d="M1226.75,-1488.53C1226.75,-1488.53 1156,-1488.53 1156,-1488.53 1150,-1488.53 1144,-1482.53 1144,-1476.53 1144,-1476.53 1144,-1464.53 1144,-1464.53 1144,-1458.53 1150,-1452.53 1156,-1452.53 1156,-1452.53 1226.75,-1452.53 1226.75,-1452.53 1232.75,-1452.53 1238.75,-1458.53 1238.75,-1464.53 1238.75,-1464.53 1238.75,-1476.53 1238.75,-1476.53 1238.75,-1482.53 1232.75,-1488.53 1226.75,-1488.53"/>
<text text-anchor="middle" x="1191.38" y="-1465.28" font-family="Arial" font-size="15.00">notifications</text>
</g>
<!-- /notifications/notification.dart -->
<g id="node38" class="node">
<title>/notifications/notification.dart</title>
<path fill="Lavender" stroke="black" stroke-width="1.3" d="M1856.12,-1488.53C1856.12,-1488.53 1792.88,-1488.53 1792.88,-1488.53 1786.88,-1488.53 1780.88,-1482.53 1780.88,-1476.53 1780.88,-1476.53 1780.88,-1464.53 1780.88,-1464.53 1780.88,-1458.53 1786.88,-1452.53 1792.88,-1452.53 1792.88,-1452.53 1856.12,-1452.53 1856.12,-1452.53 1862.12,-1452.53 1868.12,-1458.53 1868.12,-1464.53 1868.12,-1464.53 1868.12,-1476.53 1868.12,-1476.53 1868.12,-1482.53 1862.12,-1488.53 1856.12,-1488.53"/>
<text text-anchor="middle" x="1824.5" y="-1465.28" font-family="Arial" font-size="15.00">notification</text>
</g>
<!-- /notifications.dart&#45;&gt;/notifications/notification.dart -->
<g id="edge28" class="edge">
<title>/notifications.dart&#45;&gt;/notifications/notification.dart</title>
<path fill="none" stroke="black" stroke-width="1.3" stroke-dasharray="5,2" d="M1239.13,-1481C1281.07,-1489.81 1344.42,-1501.74 1400.25,-1506.53 1486.93,-1513.99 1509.27,-1513.35 1596,-1506.53 1655.59,-1501.85 1723.16,-1490.36 1769.07,-1481.61"/>
<polygon fill="black" stroke="black" stroke-width="1.3" points="1769.46,-1485.1 1778.62,-1479.77 1768.14,-1478.23 1769.46,-1485.1"/>
</g>
<!-- /notifications.dart&#45;&gt;/notifications/providers.dart -->
<g id="edge30" class="edge">
<title>/notifications.dart&#45;&gt;/notifications/providers.dart</title>
<path fill="none" stroke="black" stroke-width="1.3" stroke-dasharray="5,2" d="M1238.93,-1470.53C1296.02,-1470.53 1392.41,-1470.53 1451.06,-1470.53"/>
<polygon fill="black" stroke="black" stroke-width="1.3" points="1451,-1474.03 1461,-1470.53 1451,-1467.03 1451,-1474.03"/>
</g>
<!-- /notifications/notification_scope.dart -->
<g id="node40" class="node">
<title>/notifications/notification_scope.dart</title>
<path fill="Lavender" stroke="black" stroke-width="1.3" d="M1557.75,-1416.53C1557.75,-1416.53 1446.5,-1416.53 1446.5,-1416.53 1440.5,-1416.53 1434.5,-1410.53 1434.5,-1404.53 1434.5,-1404.53 1434.5,-1392.53 1434.5,-1392.53 1434.5,-1386.53 1440.5,-1380.53 1446.5,-1380.53 1446.5,-1380.53 1557.75,-1380.53 1557.75,-1380.53 1563.75,-1380.53 1569.75,-1386.53 1569.75,-1392.53 1569.75,-1392.53 1569.75,-1404.53 1569.75,-1404.53 1569.75,-1410.53 1563.75,-1416.53 1557.75,-1416.53"/>
<text text-anchor="middle" x="1502.12" y="-1393.28" font-family="Arial" font-size="15.00">notification_scope</text>
</g>
<!-- /notifications.dart&#45;&gt;/notifications/notification_scope.dart -->
<g id="edge29" class="edge">
<title>/notifications.dart&#45;&gt;/notifications/notification_scope.dart</title>
<path fill="none" stroke="black" stroke-width="1.3" stroke-dasharray="5,2" d="M1238.93,-1459.68C1287.58,-1448.33 1364.74,-1430.34 1422.79,-1416.8"/>
<polygon fill="black" stroke="black" stroke-width="1.3" points="1423.27,-1420.28 1432.22,-1414.6 1421.68,-1413.47 1423.27,-1420.28"/>
</g>
<!-- /urls.dart -->
<g id="node13" class="node">
<title>/urls.dart</title>
<path fill="Lavender" stroke="black" stroke-width="1.3" d="M1839.5,-1878.53C1839.5,-1878.53 1809.5,-1878.53 1809.5,-1878.53 1803.5,-1878.53 1797.5,-1872.53 1797.5,-1866.53 1797.5,-1866.53 1797.5,-1854.53 1797.5,-1854.53 1797.5,-1848.53 1803.5,-1842.53 1809.5,-1842.53 1809.5,-1842.53 1839.5,-1842.53 1839.5,-1842.53 1845.5,-1842.53 1851.5,-1848.53 1851.5,-1854.53 1851.5,-1854.53 1851.5,-1866.53 1851.5,-1866.53 1851.5,-1872.53 1845.5,-1878.53 1839.5,-1878.53"/>
<text text-anchor="middle" x="1824.5" y="-1855.28" font-family="Arial" font-size="15.00">urls</text>
</g>
<!-- /urls.dart&#45;&gt;/urls/download_url.dart -->
<g id="edge31" class="edge">
<title>/urls.dart&#45;&gt;/urls/download_url.dart</title>
<path fill="none" stroke="black" stroke-width="1.3" stroke-dasharray="5,2" d="M1851.96,-1853.74C1902.76,-1840.7 2015.18,-1811.85 2086.19,-1793.62"/>
<polygon fill="black" stroke="black" stroke-width="1.3" points="2086.92,-1797.05 2095.74,-1791.17 2085.18,-1790.27 2086.92,-1797.05"/>
</g>
<!-- /urls.dart&#45;&gt;/urls/sanitizer.dart -->
<g id="edge32" class="edge">
<title>/urls.dart&#45;&gt;/urls/sanitizer.dart</title>
<path fill="none" stroke="black" stroke-width="1.3" stroke-dasharray="5,2" d="M1851.96,-1859.63C1906.75,-1857.77 2033.21,-1853.47 2102.1,-1851.13"/>
<polygon fill="black" stroke="black" stroke-width="1.3" points="2102.01,-1854.63 2111.89,-1850.79 2101.77,-1847.64 2102.01,-1854.63"/>
</g>
<!-- /manager/download_tasks_notifier.dart&#45;&gt;/manager/download_task.dart -->
<g id="edge33" class="edge">
<title>/manager/download_tasks_notifier.dart&#45;&gt;/manager/download_task.dart</title>
<path fill="none" stroke="black" stroke-width="1.3" d="M1912.58,-261.53C1965.29,-261.53 2031.55,-261.53 2080.48,-261.53"/>
<polygon fill="black" stroke="black" stroke-width="1.3" points="2080.25,-265.03 2090.25,-261.53 2080.25,-258.03 2080.25,-265.03"/>
</g>
<!-- /manager/download_filter.dart -->
<g id="node15" class="node">
<title>/manager/download_filter.dart</title>
<path fill="Lavender" stroke="black" stroke-width="1.3" d="M1870.38,-389.53C1870.38,-389.53 1778.62,-389.53 1778.62,-389.53 1772.62,-389.53 1766.62,-383.53 1766.62,-377.53 1766.62,-377.53 1766.62,-365.53 1766.62,-365.53 1766.62,-359.53 1772.62,-353.53 1778.62,-353.53 1778.62,-353.53 1870.38,-353.53 1870.38,-353.53 1876.38,-353.53 1882.38,-359.53 1882.38,-365.53 1882.38,-365.53 1882.38,-377.53 1882.38,-377.53 1882.38,-383.53 1876.38,-389.53 1870.38,-389.53"/>
<text text-anchor="middle" x="1824.5" y="-366.28" font-family="Arial" font-size="15.00">download_filter</text>
</g>
<!-- /manager/download_manager_page.dart&#45;&gt;/downloader/metadata.dart -->
<g id="edge34" class="edge">
<title>/manager/download_manager_page.dart&#45;&gt;/downloader/metadata.dart</title>
<path fill="none" stroke="black" stroke-width="1.3" d="M1508.54,-393.82C1523.83,-445.92 1568.05,-599.72 1596,-729.53 1624.04,-859.75 1595.95,-1232.6 1696,-1320.53 1717.46,-1339.4 1927.88,-1316.91 1953,-1330.53 2054.47,-1385.59 2115.38,-1518.71 2138.36,-1578.09"/>
<polygon fill="black" stroke="black" stroke-width="1.3" points="2135.08,-1579.3 2141.88,-1587.42 2141.63,-1576.83 2135.08,-1579.3"/>
</g>
<!-- /manager/download_manager_page.dart&#45;&gt;/internal_widgets/download_tile.dart -->
<g id="edge35" class="edge">
<title>/manager/download_manager_page.dart&#45;&gt;/internal_widgets/download_tile.dart</title>
<path fill="none" stroke="black" stroke-width="1.3" d="M1510.14,-394C1530.33,-444.39 1593.75,-584.84 1696,-649.53 1714.74,-661.39 1737.98,-667.38 1759.48,-670.25"/>
<polygon fill="black" stroke="black" stroke-width="1.3" points="1758.91,-673.71 1769.24,-671.33 1759.68,-666.75 1758.91,-673.71"/>
</g>
<!-- /manager/download_manager_page.dart&#45;&gt;/manager/download_tasks_notifier.dart -->
<g id="edge39" class="edge">
<title>/manager/download_manager_page.dart&#45;&gt;/manager/download_tasks_notifier.dart</title>
<path fill="none" stroke="black" stroke-width="1.3" d="M1554.27,-357.17C1593.13,-343.23 1647.91,-323.62 1696,-306.53 1716.81,-299.14 1739.54,-291.1 1759.98,-283.9"/>
<polygon fill="black" stroke="black" stroke-width="1.3" points="1760.94,-287.27 1769.21,-280.64 1758.61,-280.66 1760.94,-287.27"/>
</g>
<!-- /manager/download_manager_page.dart&#45;&gt;/manager/download_filter.dart -->
<g id="edge37" class="edge">
<title>/manager/download_manager_page.dart&#45;&gt;/manager/download_filter.dart</title>
<path fill="none" stroke="black" stroke-width="1.3" d="M1596.22,-374.37C1646.87,-373.74 1708.44,-372.97 1754.71,-372.39"/>
<polygon fill="black" stroke="black" stroke-width="1.3" points="1754.51,-375.9 1764.46,-372.27 1754.42,-368.9 1754.51,-375.9"/>
</g>
<!-- /manager/download_manager_page.dart&#45;&gt;/manager/download_task.dart -->
<g id="edge38" class="edge">
<title>/manager/download_manager_page.dart&#45;&gt;/manager/download_task.dart</title>
<path fill="none" stroke="black" stroke-width="1.3" d="M1586.94,-357.05C1620.74,-349.89 1660.14,-341.9 1696,-335.53 1809.69,-315.36 1839.09,-316.42 1953,-297.53 1995.5,-290.49 2043.04,-281.77 2080.64,-274.68"/>
<polygon fill="black" stroke="black" stroke-width="1.3" points="2080.86,-278.2 2090.04,-272.9 2079.56,-271.32 2080.86,-278.2"/>
</g>
<!-- /manager/download_manager_page.dart&#45;&gt;/l10n.dart -->
<g id="edge36" class="edge">
<title>/manager/download_manager_page.dart&#45;&gt;/l10n.dart</title>
<path fill="none" stroke="black" stroke-width="1.3" d="M1569.08,-393.93C1658.14,-419.74 1820.88,-470.34 1953,-530.53 2011.05,-556.98 2074.31,-595.38 2112.79,-619.9"/>
<polygon fill="black" stroke="black" stroke-width="1.3" points="2110.53,-622.61 2120.84,-625.06 2114.31,-616.72 2110.53,-622.61"/>
</g>
<!-- /filename/builtin_format.dart -->
<g id="node21" class="node">
<title>/filename/builtin_format.dart</title>
<path fill="Lavender" stroke="black" stroke-width="1.3" d="M1865.5,-1950.53C1865.5,-1950.53 1783.5,-1950.53 1783.5,-1950.53 1777.5,-1950.53 1771.5,-1944.53 1771.5,-1938.53 1771.5,-1938.53 1771.5,-1926.53 1771.5,-1926.53 1771.5,-1920.53 1777.5,-1914.53 1783.5,-1914.53 1783.5,-1914.53 1865.5,-1914.53 1865.5,-1914.53 1871.5,-1914.53 1877.5,-1920.53 1877.5,-1926.53 1877.5,-1926.53 1877.5,-1938.53 1877.5,-1938.53 1877.5,-1944.53 1871.5,-1950.53 1865.5,-1950.53"/>
<text text-anchor="middle" x="1824.5" y="-1927.28" font-family="Arial" font-size="15.00">builtin_format</text>
</g>
<!-- /filename/token_options.dart -->
<g id="node22" class="node">
<title>/filename/token_options.dart</title>
<path fill="Lavender" stroke="black" stroke-width="1.3" d="M2451.75,-2022.53C2451.75,-2022.53 2366.75,-2022.53 2366.75,-2022.53 2360.75,-2022.53 2354.75,-2016.53 2354.75,-2010.53 2354.75,-2010.53 2354.75,-1998.53 2354.75,-1998.53 2354.75,-1992.53 2360.75,-1986.53 2366.75,-1986.53 2366.75,-1986.53 2451.75,-1986.53 2451.75,-1986.53 2457.75,-1986.53 2463.75,-1992.53 2463.75,-1998.53 2463.75,-1998.53 2463.75,-2010.53 2463.75,-2010.53 2463.75,-2016.53 2457.75,-2022.53 2451.75,-2022.53"/>
<text text-anchor="middle" x="2409.25" y="-1999.28" font-family="Arial" font-size="15.00">token_options</text>
</g>
<!-- /filename/generator_impl.dart -->
<g id="node23" class="node">
<title>/filename/generator_impl.dart</title>
<path fill="Lavender" stroke="black" stroke-width="1.3" d="M1870.38,-2022.53C1870.38,-2022.53 1778.62,-2022.53 1778.62,-2022.53 1772.62,-2022.53 1766.62,-2016.53 1766.62,-2010.53 1766.62,-2010.53 1766.62,-1998.53 1766.62,-1998.53 1766.62,-1992.53 1772.62,-1986.53 1778.62,-1986.53 1778.62,-1986.53 1870.38,-1986.53 1870.38,-1986.53 1876.38,-1986.53 1882.38,-1992.53 1882.38,-1998.53 1882.38,-1998.53 1882.38,-2010.53 1882.38,-2010.53 1882.38,-2016.53 1876.38,-2022.53 1870.38,-2022.53"/>
<text text-anchor="middle" x="1824.5" y="-1999.28" font-family="Arial" font-size="15.00">generator_impl</text>
</g>
<!-- /filename/generator_impl.dart&#45;&gt;/urls/sanitizer.dart -->
<g id="edge40" class="edge">
<title>/filename/generator_impl.dart&#45;&gt;/urls/sanitizer.dart</title>
<path fill="none" stroke="black" stroke-width="1.3" d="M1882.87,-1992.78C1905.37,-1987.04 1931.01,-1979.06 1953,-1968.53 2002.17,-1945.01 2006.27,-1925.6 2053,-1897.53 2069.1,-1887.87 2087.4,-1878.36 2103.67,-1870.4"/>
<polygon fill="black" stroke="black" stroke-width="1.3" points="2104.77,-1873.75 2112.25,-1866.25 2101.73,-1867.45 2104.77,-1873.75"/>
</g>
<!-- /filename/generator_impl.dart&#45;&gt;/filename/token_options.dart -->
<g id="edge42" class="edge">
<title>/filename/generator_impl.dart&#45;&gt;/filename/token_options.dart</title>
<path fill="none" stroke="black" stroke-width="1.3" d="M1882.59,-1992.45C1966.22,-1976.42 2126.84,-1951.97 2262.75,-1968.53 2289.4,-1971.78 2318.2,-1978.26 2343.09,-1984.83"/>
<polygon fill="black" stroke="black" stroke-width="1.3" points="2342.13,-1988.2 2352.69,-1987.44 2343.96,-1981.44 2342.13,-1988.2"/>
</g>
<!-- /filename/generator.dart -->
<g id="node24" class="node">
<title>/filename/generator.dart</title>
<path fill="Lavender" stroke="black" stroke-width="1.3" d="M2178.12,-2022.53C2178.12,-2022.53 2121.62,-2022.53 2121.62,-2022.53 2115.62,-2022.53 2109.62,-2016.53 2109.62,-2010.53 2109.62,-2010.53 2109.62,-1998.53 2109.62,-1998.53 2109.62,-1992.53 2115.62,-1986.53 2121.62,-1986.53 2121.62,-1986.53 2178.12,-1986.53 2178.12,-1986.53 2184.12,-1986.53 2190.12,-1992.53 2190.12,-1998.53 2190.12,-1998.53 2190.12,-2010.53 2190.12,-2010.53 2190.12,-2016.53 2184.12,-2022.53 2178.12,-2022.53"/>
<text text-anchor="middle" x="2149.88" y="-1999.28" font-family="Arial" font-size="15.00">generator</text>
</g>
<!-- /filename/generator_impl.dart&#45;&gt;/filename/generator.dart -->
<g id="edge41" class="edge">
<title>/filename/generator_impl.dart&#45;&gt;/filename/generator.dart</title>
<path fill="none" stroke="black" stroke-width="1.3" d="M1882.57,-2004.53C1943.34,-2004.53 2038.66,-2004.53 2097.26,-2004.53"/>
<polygon fill="black" stroke="black" stroke-width="1.3" points="2097.22,-2008.03 2107.22,-2004.53 2097.22,-2001.03 2097.22,-2008.03"/>
</g>
<!-- /filename/generator.dart&#45;&gt;/filename/token_options.dart -->
<g id="edge43" class="edge">
<title>/filename/generator.dart&#45;&gt;/filename/token_options.dart</title>
<path fill="none" stroke="black" stroke-width="1.3" d="M2190.53,-2004.53C2231.08,-2004.53 2294.78,-2004.53 2342.82,-2004.53"/>
<polygon fill="black" stroke="black" stroke-width="1.3" points="2342.71,-2008.03 2352.71,-2004.53 2342.71,-2001.03 2342.71,-2008.03"/>
</g>
<!-- /path.dart -->
<g id="node25" class="node">
<title>/path.dart</title>
<path fill="Lavender" stroke="black" stroke-width="1.3" d="M1839.5,-1288.53C1839.5,-1288.53 1809.5,-1288.53 1809.5,-1288.53 1803.5,-1288.53 1797.5,-1282.53 1797.5,-1276.53 1797.5,-1276.53 1797.5,-1264.53 1797.5,-1264.53 1797.5,-1258.53 1803.5,-1252.53 1809.5,-1252.53 1809.5,-1252.53 1839.5,-1252.53 1839.5,-1252.53 1845.5,-1252.53 1851.5,-1258.53 1851.5,-1264.53 1851.5,-1264.53 1851.5,-1276.53 1851.5,-1276.53 1851.5,-1282.53 1845.5,-1288.53 1839.5,-1288.53"/>
<text text-anchor="middle" x="1824.5" y="-1265.28" font-family="Arial" font-size="15.00">path</text>
</g>
<!-- /path.dart&#45;&gt;/path/validator.dart -->
<g id="edge45" class="edge">
<title>/path.dart&#45;&gt;/path/validator.dart</title>
<path fill="none" stroke="black" stroke-width="1.3" stroke-dasharray="5,2" d="M1851.96,-1264.64C1906.72,-1252.45 2033.08,-1224.32 2101.99,-1208.97"/>
<polygon fill="black" stroke="black" stroke-width="1.3" points="2102.42,-1212.46 2111.42,-1206.87 2100.9,-1205.63 2102.42,-1212.46"/>
</g>
<!-- /path.dart&#45;&gt;/path/download_path.dart -->
<g id="edge44" class="edge">
<title>/path.dart&#45;&gt;/path/download_path.dart</title>
<path fill="none" stroke="black" stroke-width="1.3" stroke-dasharray="5,2" d="M1851.96,-1270.53C1901.26,-1270.53 2008.59,-1270.53 2079.79,-1270.53"/>
<polygon fill="black" stroke="black" stroke-width="1.3" points="2079.36,-1274.03 2089.36,-1270.53 2079.36,-1267.03 2079.36,-1274.03"/>
</g>
<!-- /downloader.dart -->
<g id="node26" class="node">
<title>/downloader.dart</title>
<path fill="Lavender" stroke="black" stroke-width="1.3" d="M664.5,-1767.53C664.5,-1767.53 596,-1767.53 596,-1767.53 590,-1767.53 584,-1761.53 584,-1755.53 584,-1755.53 584,-1743.53 584,-1743.53 584,-1737.53 590,-1731.53 596,-1731.53 596,-1731.53 664.5,-1731.53 664.5,-1731.53 670.5,-1731.53 676.5,-1737.53 676.5,-1743.53 676.5,-1743.53 676.5,-1755.53 676.5,-1755.53 676.5,-1761.53 670.5,-1767.53 664.5,-1767.53"/>
<text text-anchor="middle" x="630.25" y="-1744.28" font-family="Arial" font-size="15.00">downloader</text>
</g>
<!-- /downloader.dart&#45;&gt;/downloader/background_downloader.dart -->
<g id="edge46" class="edge">
<title>/downloader.dart&#45;&gt;/downloader/background_downloader.dart</title>
<path fill="none" stroke="black" stroke-width="1.3" stroke-dasharray="5,2" d="M676.98,-1744.25C742.96,-1736.35 868.57,-1720.25 974.5,-1700.53 1165.39,-1665.01 1210.78,-1645 1400.25,-1602.53 1401.7,-1602.21 1403.16,-1601.88 1404.64,-1601.55"/>
<polygon fill="black" stroke="black" stroke-width="1.3" points="1405.15,-1605.02 1414.16,-1599.44 1403.64,-1598.19 1405.15,-1605.02"/>
</g>
<!-- /downloader.dart&#45;&gt;/downloader/download_service.dart -->
<g id="edge47" class="edge">
<title>/downloader.dart&#45;&gt;/downloader/download_service.dart</title>
<path fill="none" stroke="black" stroke-width="1.3" stroke-dasharray="5,2" d="M676.8,-1745.91C742.56,-1740.63 867.9,-1730.37 974.5,-1720.53 1258.5,-1694.32 1595.54,-1659.46 1745.2,-1643.78"/>
<polygon fill="black" stroke="black" stroke-width="1.3" points="1745.4,-1647.28 1754.98,-1642.76 1744.67,-1640.32 1745.4,-1647.28"/>
</g>
<!-- /downloader.dart&#45;&gt;/downloader/providers.dart -->
<g id="edge50" class="edge">
<title>/downloader.dart&#45;&gt;/downloader/providers.dart</title>
<path fill="none" stroke="black" stroke-width="1.3" stroke-dasharray="5,2" d="M676.93,-1744.25C744.19,-1735.35 872.87,-1714.02 974.5,-1671.53 1027.05,-1649.56 1029.71,-1623.92 1082.5,-1602.53 1100.83,-1595.11 1121.95,-1590.1 1140.63,-1586.75"/>
<polygon fill="black" stroke="black" stroke-width="1.3" points="1140.96,-1590.25 1150.25,-1585.16 1139.81,-1583.34 1140.96,-1590.25"/>
</g>
<!-- /downloader.dart&#45;&gt;/downloader/metadata.dart -->
<g id="edge49" class="edge">
<title>/downloader.dart&#45;&gt;/downloader/metadata.dart</title>
<path fill="none" stroke="black" stroke-width="1.3" stroke-dasharray="5,2" d="M676.78,-1747.71C742.52,-1745.07 867.83,-1740 974.5,-1735.53 1409.41,-1717.33 1529.01,-1792.05 1953,-1693.53 2008.55,-1680.63 2067.94,-1652.26 2106.57,-1631.62"/>
<polygon fill="black" stroke="black" stroke-width="1.3" points="2108.04,-1634.81 2115.17,-1626.97 2104.71,-1628.65 2108.04,-1634.81"/>
</g>
<!-- /downloader.dart&#45;&gt;/downloader/download_utils.dart -->
<g id="edge48" class="edge">
<title>/downloader.dart&#45;&gt;/downloader/download_utils.dart</title>
<path fill="none" stroke="black" stroke-width="1.3" stroke-dasharray="5,2" d="M673.45,-1731.12C715.59,-1712.95 782.63,-1684.56 851.37,-1658.24"/>
<polygon fill="black" stroke="black" stroke-width="1.3" points="852.48,-1661.56 860.58,-1654.73 849.98,-1655.02 852.48,-1661.56"/>
</g>
<!-- /filename.dart -->
<g id="node27" class="node">
<title>/filename.dart</title>
<path fill="Lavender" stroke="black" stroke-width="1.3" d="M1526.25,-2049.53C1526.25,-2049.53 1478,-2049.53 1478,-2049.53 1472,-2049.53 1466,-2043.53 1466,-2037.53 1466,-2037.53 1466,-2025.53 1466,-2025.53 1466,-2019.53 1472,-2013.53 1478,-2013.53 1478,-2013.53 1526.25,-2013.53 1526.25,-2013.53 1532.25,-2013.53 1538.25,-2019.53 1538.25,-2025.53 1538.25,-2025.53 1538.25,-2037.53 1538.25,-2037.53 1538.25,-2043.53 1532.25,-2049.53 1526.25,-2049.53"/>
<text text-anchor="middle" x="1502.12" y="-2026.28" font-family="Arial" font-size="15.00">filename</text>
</g>
<!-- /filename.dart&#45;&gt;/filename/builtin_format.dart -->
<g id="edge51" class="edge">
<title>/filename.dart&#45;&gt;/filename/builtin_format.dart</title>
<path fill="none" stroke="black" stroke-width="1.3" stroke-dasharray="5,2" d="M1538.54,-2019.49C1577.12,-2006.48 1640.73,-1985.36 1696,-1968.53 1716.7,-1962.24 1739.4,-1955.7 1759.84,-1949.96"/>
<polygon fill="black" stroke="black" stroke-width="1.3" points="1760.67,-1953.37 1769.36,-1947.3 1758.78,-1946.62 1760.67,-1953.37"/>
</g>
<!-- /filename.dart&#45;&gt;/filename/token_options.dart -->
<g id="edge54" class="edge">
<title>/filename.dart&#45;&gt;/filename/token_options.dart</title>
<path fill="none" stroke="black" stroke-width="1.3" stroke-dasharray="5,2" d="M1538.57,-2036.8C1577.18,-2042.25 1640.82,-2050.4 1696,-2053.53 1947.55,-2067.83 2013.34,-2076.25 2262.75,-2040.53 2289.32,-2036.73 2318.11,-2030.14 2343.01,-2023.64"/>
<polygon fill="black" stroke="black" stroke-width="1.3" points="2343.86,-2027.03 2352.62,-2021.07 2342.05,-2020.27 2343.86,-2027.03"/>
</g>
<!-- /filename.dart&#45;&gt;/filename/generator_impl.dart -->
<g id="edge53" class="edge">
<title>/filename.dart&#45;&gt;/filename/generator_impl.dart</title>
<path fill="none" stroke="black" stroke-width="1.3" stroke-dasharray="5,2" d="M1538.63,-2028.54C1590.58,-2024.16 1688.31,-2015.93 1754.65,-2010.34"/>
<polygon fill="black" stroke="black" stroke-width="1.3" points="1754.61,-2013.85 1764.28,-2009.53 1754.02,-2006.88 1754.61,-2013.85"/>
</g>
<!-- /filename.dart&#45;&gt;/filename/generator.dart -->
<g id="edge52" class="edge">
<title>/filename.dart&#45;&gt;/filename/generator.dart</title>
<path fill="none" stroke="black" stroke-width="1.3" stroke-dasharray="5,2" d="M1538.51,-2034.9C1614.55,-2041.54 1799.16,-2054.55 1953,-2040.53 2002.62,-2036.01 2058.43,-2025.18 2097.75,-2016.57"/>
<polygon fill="black" stroke="black" stroke-width="1.3" points="2098.48,-2019.99 2107.48,-2014.4 2096.96,-2013.16 2098.48,-2019.99"/>
</g>
<!-- /bulks/bulk_download_page.dart&#45;&gt;/l10n.dart -->
<g id="edge55" class="edge">
<title>/bulks/bulk_download_page.dart&#45;&gt;/l10n.dart</title>
<path fill="none" stroke="black" stroke-width="1.3" d="M388.17,-1018.92C392.01,-1020.12 395.81,-1021.33 399.5,-1022.53 448.14,-1038.49 457.48,-1051.67 507.5,-1062.53 743.9,-1113.86 1414.04,-1236.94 1596,-1077.53 1747.17,-945.1 1538.96,-761.95 1696,-636.53 1759.27,-586.01 2013.82,-621.3 2110.96,-637.04"/>
<polygon fill="black" stroke="black" stroke-width="1.3" points="2110.15,-640.46 2120.59,-638.62 2111.29,-633.55 2110.15,-640.46"/>
</g>
<!-- /bulks/bulk_download_page.dart&#45;&gt;/bulks/bulk_download_notifier.dart -->
<g id="edge56" class="edge">
<title>/bulks/bulk_download_page.dart&#45;&gt;/bulks/bulk_download_notifier.dart</title>
<path fill="none" stroke="black" stroke-width="1.3" d="M399.59,-996.14C432.78,-994.3 472.05,-992.21 507.5,-990.53 837.49,-974.96 1229.32,-960.32 1406.17,-953.92"/>
<polygon fill="black" stroke="black" stroke-width="1.3" points="1406.18,-957.42 1416.05,-953.56 1405.93,-950.43 1406.18,-957.42"/>
</g>
<!-- /bulks/bulk_download_page.dart&#45;&gt;/bulks/bulk_download_task_tile.dart -->
<g id="edge57" class="edge">
<title>/bulks/bulk_download_page.dart&#45;&gt;/bulks/bulk_download_task_tile.dart</title>
<path fill="none" stroke="black" stroke-width="1.3" d="M390.01,-982.1C437.34,-969.13 500.85,-951.73 550.53,-938.11"/>
<polygon fill="black" stroke="black" stroke-width="1.3" points="551.26,-941.54 559.98,-935.52 549.41,-934.79 551.26,-941.54"/>
</g>
<!-- /bulks/bulk_download_page.dart&#45;&gt;/bulks/create_bulk_download_task_sheet.dart -->
<g id="edge58" class="edge">
<title>/bulks/bulk_download_page.dart&#45;&gt;/bulks/create_bulk_download_task_sheet.dart</title>
<path fill="none" stroke="black" stroke-width="1.3" d="M399.7,-1007.06C428.8,-1009.53 462.84,-1012.42 495.66,-1015.2"/>
<polygon fill="black" stroke="black" stroke-width="1.3" points="494.98,-1018.66 505.24,-1016.02 495.58,-1011.68 494.98,-1018.66"/>
</g>
<!-- /bulks/bulk_download_notifier.dart&#45;&gt;/downloader/providers.dart -->
<g id="edge60" class="edge">
<title>/bulks/bulk_download_notifier.dart&#45;&gt;/downloader/providers.dart</title>
<path fill="none" stroke="black" stroke-width="1.3" d="M1417.93,-959.78C1411.36,-963.04 1405.33,-967.22 1400.25,-972.53 1217.74,-1163.58 1484.05,-1368.73 1300.25,-1558.53 1285.36,-1573.92 1262.84,-1580.05 1242.23,-1582.08"/>
<polygon fill="black" stroke="black" stroke-width="1.3" points="1242.1,-1578.58 1232.35,-1582.72 1242.55,-1585.57 1242.1,-1578.58"/>
</g>
<!-- /bulks/bulk_download_notifier.dart&#45;&gt;/downloader/metadata.dart -->
<g id="edge59" class="edge">
<title>/bulks/bulk_download_notifier.dart&#45;&gt;/downloader/metadata.dart</title>
<path fill="none" stroke="black" stroke-width="1.3" d="M1586.23,-964.92C1589.73,-967.14 1593.02,-969.66 1596,-972.53 1716.45,-1088.7 1569.62,-1225.84 1696,-1335.53 1782.97,-1411.02 1852.27,-1312.72 1953,-1368.53 2042.62,-1418.19 2107.54,-1526.78 2134.73,-1578.73"/>
<polygon fill="black" stroke="black" stroke-width="1.3" points="2131.53,-1580.15 2139.21,-1587.45 2137.76,-1576.96 2131.53,-1580.15"/>
</g>
<!-- /bulks/bulk_download_notifier.dart&#45;&gt;/manager/download_tasks_notifier.dart -->
<g id="edge62" class="edge">
<title>/bulks/bulk_download_notifier.dart&#45;&gt;/manager/download_tasks_notifier.dart</title>
<path fill="none" stroke="black" stroke-width="1.3" d="M1517.37,-932.24C1537.85,-905.05 1575.39,-851.67 1596,-800.53 1675.02,-604.47 1571.74,-506.55 1696,-335.53 1712.11,-313.36 1737.06,-296.79 1760.63,-285.01"/>
<polygon fill="black" stroke="black" stroke-width="1.3" points="1762.01,-288.23 1769.54,-280.78 1759.01,-281.9 1762.01,-288.23"/>
</g>
<!-- /bulks/bulk_download_notifier.dart&#45;&gt;/manager/download_task.dart -->
<g id="edge61" class="edge">
<title>/bulks/bulk_download_notifier.dart&#45;&gt;/manager/download_task.dart</title>
<path fill="none" stroke="black" stroke-width="1.3" d="M1516.36,-932.41C1535.91,-904.99 1572.68,-850.83 1596,-800.53 1656.54,-669.96 1594.51,-594.58 1696,-492.53 1780.84,-407.23 1854.1,-476.04 1953,-407.53 2011.2,-367.22 1992.97,-321.07 2053,-283.53 2061.38,-278.3 2070.87,-274.3 2080.53,-271.26"/>
<polygon fill="black" stroke="black" stroke-width="1.3" points="2081.32,-274.67 2090.02,-268.63 2079.44,-267.93 2081.32,-274.67"/>
</g>
<!-- /bulks/bulk_download_task.dart -->
<g id="node33" class="node">
<title>/bulks/bulk_download_task.dart</title>
<path fill="Lavender" stroke="black" stroke-width="1.3" d="M1887.62,-1023.53C1887.62,-1023.53 1761.38,-1023.53 1761.38,-1023.53 1755.38,-1023.53 1749.38,-1017.53 1749.38,-1011.53 1749.38,-1011.53 1749.38,-999.53 1749.38,-999.53 1749.38,-993.53 1755.38,-987.53 1761.38,-987.53 1761.38,-987.53 1887.62,-987.53 1887.62,-987.53 1893.62,-987.53 1899.62,-993.53 1899.62,-999.53 1899.62,-999.53 1899.62,-1011.53 1899.62,-1011.53 1899.62,-1017.53 1893.62,-1023.53 1887.62,-1023.53"/>
<text text-anchor="middle" x="1824.5" y="-1000.28" font-family="Arial" font-size="15.00">bulk_download_task</text>
</g>
<!-- /bulks/bulk_download_notifier.dart&#45;&gt;/bulks/bulk_download_task.dart -->
<g id="edge63" class="edge">
<title>/bulks/bulk_download_notifier.dart&#45;&gt;/bulks/bulk_download_task.dart</title>
<path fill="none" stroke="black" stroke-width="1.3" d="M1586.05,-964.77C1632.54,-972.75 1690.44,-982.69 1737.43,-990.76"/>
<polygon fill="black" stroke="black" stroke-width="1.3" points="1736.74,-994.19 1747.19,-992.43 1737.93,-987.29 1736.74,-994.19"/>
</g>
<!-- /bulks/notifications/providers.dart -->
<g id="node36" class="node">
<title>/bulks/notifications/providers.dart</title>
<path fill="Lavender" stroke="black" stroke-width="1.3" d="M1851.25,-921.53C1851.25,-921.53 1797.75,-921.53 1797.75,-921.53 1791.75,-921.53 1785.75,-915.53 1785.75,-909.53 1785.75,-909.53 1785.75,-897.53 1785.75,-897.53 1785.75,-891.53 1791.75,-885.53 1797.75,-885.53 1797.75,-885.53 1851.25,-885.53 1851.25,-885.53 1857.25,-885.53 1863.25,-891.53 1863.25,-897.53 1863.25,-897.53 1863.25,-909.53 1863.25,-909.53 1863.25,-915.53 1857.25,-921.53 1851.25,-921.53"/>
<text text-anchor="middle" x="1824.5" y="-898.28" font-family="Arial" font-size="15.00">providers</text>
</g>
<!-- /bulks/bulk_download_notifier.dart&#45;&gt;/bulks/notifications/providers.dart -->
<g id="edge64" class="edge">
<title>/bulks/bulk_download_notifier.dart&#45;&gt;/bulks/notifications/providers.dart</title>
<path fill="none" stroke="black" stroke-width="1.3" d="M1586.05,-938.37C1645.48,-929.65 1723.57,-918.19 1773.66,-910.85"/>
<polygon fill="black" stroke="black" stroke-width="1.3" points="1774.12,-914.32 1783.51,-909.4 1773.11,-907.39 1774.12,-914.32"/>
</g>
<!-- /bulks/notifications.dart -->
<g id="node30" class="node">
<title>/bulks/notifications.dart</title>
<path fill="Lavender" stroke="black" stroke-width="1.3" d="M1537.5,-782.53C1537.5,-782.53 1466.75,-782.53 1466.75,-782.53 1460.75,-782.53 1454.75,-776.53 1454.75,-770.53 1454.75,-770.53 1454.75,-758.53 1454.75,-758.53 1454.75,-752.53 1460.75,-746.53 1466.75,-746.53 1466.75,-746.53 1537.5,-746.53 1537.5,-746.53 1543.5,-746.53 1549.5,-752.53 1549.5,-758.53 1549.5,-758.53 1549.5,-770.53 1549.5,-770.53 1549.5,-776.53 1543.5,-782.53 1537.5,-782.53"/>
<text text-anchor="middle" x="1502.12" y="-759.28" font-family="Arial" font-size="15.00">notifications</text>
</g>
<!-- /bulks/notifications.dart&#45;&gt;/bulks/notifications/providers.dart -->
<g id="edge66" class="edge">
<title>/bulks/notifications.dart&#45;&gt;/bulks/notifications/providers.dart</title>
<path fill="none" stroke="black" stroke-width="1.3" stroke-dasharray="5,2" d="M1545.08,-782.98C1561.31,-790.6 1579.84,-799.9 1596,-809.53 1643.04,-837.58 1645.5,-860.34 1696,-881.53 1720.45,-891.8 1749.47,-897.27 1773.63,-900.2"/>
<polygon fill="black" stroke="black" stroke-width="1.3" points="1773.15,-903.66 1783.47,-901.26 1773.9,-896.7 1773.15,-903.66"/>
</g>
<!-- /bulks/notifications.dart&#45;&gt;/bulks/notifications/bulk_download_notification.dart -->
<g id="edge65" class="edge">
<title>/bulks/notifications.dart&#45;&gt;/bulks/notifications/bulk_download_notification.dart</title>
<path fill="none" stroke="black" stroke-width="1.3" stroke-dasharray="5,2" d="M1549.83,-774.59C1654.65,-797.15 1910.49,-852.22 2051.56,-882.59"/>
<polygon fill="black" stroke="black" stroke-width="1.3" points="2050.74,-885.99 2061.25,-884.67 2052.21,-879.15 2050.74,-885.99"/>
</g>
<!-- /bulks/create_bulk_download_notifier.dart&#45;&gt;/manager/download_tasks_notifier.dart -->
<g id="edge68" class="edge">
<title>/bulks/create_bulk_download_notifier.dart&#45;&gt;/manager/download_tasks_notifier.dart</title>
<path fill="none" stroke="black" stroke-width="1.3" d="M1194.79,-773.22C1204.96,-703.89 1250.93,-455.66 1400.25,-339.53 1425.59,-319.83 1607.63,-291.43 1724.58,-274.89"/>
<polygon fill="black" stroke="black" stroke-width="1.3" points="1725.02,-278.36 1734.44,-273.5 1724.05,-271.43 1725.02,-278.36"/>
</g>
<!-- /bulks/create_bulk_download_notifier.dart&#45;&gt;/manager/download_task.dart -->
<g id="edge67" class="edge">
<title>/bulks/create_bulk_download_notifier.dart&#45;&gt;/manager/download_task.dart</title>
<path fill="none" stroke="black" stroke-width="1.3" d="M1296.02,-773.37C1297.48,-772.16 1298.9,-770.88 1300.25,-769.53 1455.22,-615.09 1234.14,-429.92 1400.25,-287.53 1416.79,-273.36 1574.98,-283.24 1596,-277.53 1644.34,-264.4 1647.34,-237.43 1696,-225.53 1806.95,-198.41 1839.25,-215.17 1953,-225.53 1995.91,-229.44 2043.45,-238.08 2080.95,-245.91"/>
<polygon fill="black" stroke="black" stroke-width="1.3" points="2079.82,-249.25 2090.33,-247.9 2081.27,-242.4 2079.82,-249.25"/>
</g>
<!-- /bulks/create_bulk_download_notifier.dart&#45;&gt;/bulks/bulk_download_notifier.dart -->
<g id="edge69" class="edge">
<title>/bulks/create_bulk_download_notifier.dart&#45;&gt;/bulks/bulk_download_notifier.dart</title>
<path fill="none" stroke="black" stroke-width="1.3" d="M1228.09,-809.93C1284.21,-838.83 1393.02,-894.86 1454.99,-926.77"/>
<polygon fill="black" stroke="black" stroke-width="1.3" points="1453.01,-929.69 1463.5,-931.16 1456.21,-923.47 1453.01,-929.69"/>
</g>
<!-- /bulks/create_bulk_download_notifier.dart&#45;&gt;/bulks/bulk_download_task.dart -->
<g id="edge70" class="edge">
<title>/bulks/create_bulk_download_notifier.dart&#45;&gt;/bulks/bulk_download_task.dart</title>
<path fill="none" stroke="black" stroke-width="1.3" d="M1270.33,-810.02C1309.34,-819.24 1357.28,-830.53 1400.25,-840.53 1487.19,-860.78 1515.15,-847.68 1596,-885.53 1646.56,-909.21 1646.77,-935.21 1696,-961.53 1711.67,-969.91 1729.25,-977.19 1746.23,-983.28"/>
<polygon fill="black" stroke="black" stroke-width="1.3" points="1744.83,-986.5 1755.42,-986.47 1747.12,-979.89 1744.83,-986.5"/>
</g>
<!-- /bulks/create_bulk_download_notifier.dart&#45;&gt;/bulks/notifications/providers.dart -->
<g id="edge71" class="edge">
<title>/bulks/create_bulk_download_notifier.dart&#45;&gt;/bulks/notifications/providers.dart</title>
<path fill="none" stroke="black" stroke-width="1.3" d="M1300.48,-800.9C1382.36,-809.35 1497.22,-824.11 1596,-847.53 1641.68,-858.36 1650.51,-869.95 1696,-881.53 1721.42,-888.01 1750.18,-893.15 1773.94,-896.83"/>
<polygon fill="black" stroke="black" stroke-width="1.3" points="1773.16,-900.26 1783.57,-898.28 1774.2,-893.33 1773.16,-900.26"/>
</g>
<!-- /bulks/providers.dart&#45;&gt;/manager/download_tasks_notifier.dart -->
<g id="edge73" class="edge">
<title>/bulks/providers.dart&#45;&gt;/manager/download_tasks_notifier.dart</title>
<path fill="none" stroke="black" stroke-width="1.3" d="M927.95,-811.18C969.33,-730.94 1147.23,-409.44 1400.25,-286.53 1502.43,-236.9 1635.22,-238.02 1724.59,-246.74"/>
<polygon fill="black" stroke="black" stroke-width="1.3" points="1724.09,-250.21 1734.4,-247.76 1724.81,-243.25 1724.09,-250.21"/>
</g>
<!-- /bulks/providers.dart&#45;&gt;/manager/download_task.dart -->
<g id="edge72" class="edge">
<title>/bulks/providers.dart&#45;&gt;/manager/download_task.dart</title>
<path fill="none" stroke="black" stroke-width="1.3" d="M920.1,-811.27C927.93,-710.48 971.24,-223.6 1082.5,-135.53 1385.86,104.58 1581.81,-26.46 1953,-135.53 2019.24,-155 2084.25,-204.55 2120.21,-235.39"/>
<polygon fill="black" stroke="black" stroke-width="1.3" points="2117.81,-237.95 2127.65,-241.89 2122.42,-232.68 2117.81,-237.95"/>
</g>
<!-- /bulks/providers.dart&#45;&gt;/bulks/create_bulk_download_notifier.dart -->
<g id="edge75" class="edge">
<title>/bulks/providers.dart&#45;&gt;/bulks/create_bulk_download_notifier.dart</title>
<path fill="none" stroke="black" stroke-width="1.3" d="M956.8,-824.21C986.5,-820.06 1029.47,-814.05 1070.47,-808.31"/>
<polygon fill="black" stroke="black" stroke-width="1.3" points="1070.89,-811.79 1080.31,-806.93 1069.92,-804.85 1070.89,-811.79"/>
</g>
<!-- /bulks/providers.dart&#45;&gt;/bulks/bulk_download_task.dart -->
<g id="edge74" class="edge">
<title>/bulks/providers.dart&#45;&gt;/bulks/bulk_download_task.dart</title>
<path fill="none" stroke="black" stroke-width="1.3" d="M956.75,-832.72C1080.95,-843.39 1473.93,-879.15 1596,-914.53 1643.17,-928.21 1650.5,-943.05 1696,-961.53 1714.86,-969.2 1735.62,-976.73 1754.8,-983.34"/>
<polygon fill="black" stroke="black" stroke-width="1.3" points="1753.44,-986.57 1764.03,-986.48 1755.69,-979.94 1753.44,-986.57"/>
</g>
<!-- /bulks/bulk_download_task.dart&#45;&gt;/path/validator.dart -->
<g id="edge76" class="edge">
<title>/bulks/bulk_download_task.dart&#45;&gt;/path/validator.dart</title>
<path fill="none" stroke="black" stroke-width="1.3" d="M1856.21,-1023.87C1914.73,-1058.79 2042.19,-1134.86 2107.9,-1174.08"/>
<polygon fill="black" stroke="black" stroke-width="1.3" points="2105.82,-1176.92 2116.2,-1179.04 2109.41,-1170.91 2105.82,-1176.92"/>
</g>
<!-- /bulks/bulk_download_task_tile.dart&#45;&gt;/l10n.dart -->
<g id="edge77" class="edge">
<title>/bulks/bulk_download_task_tile.dart&#45;&gt;/l10n.dart</title>
<path fill="none" stroke="black" stroke-width="1.3" d="M668.27,-935C807.65,-1001.64 1307.6,-1214.07 1596,-986.53 1745.96,-868.22 1546.04,-686.85 1696,-568.53 1821.57,-469.46 2028.61,-571.83 2112.19,-620.68"/>
<polygon fill="black" stroke="black" stroke-width="1.3" points="2110.37,-623.67 2120.76,-625.77 2113.95,-617.65 2110.37,-623.67"/>
</g>
<!-- /bulks/bulk_download_task_tile.dart&#45;&gt;/bulks/bulk_download_notifier.dart -->
<g id="edge78" class="edge">
<title>/bulks/bulk_download_task_tile.dart&#45;&gt;/bulks/bulk_download_notifier.dart</title>
<path fill="none" stroke="black" stroke-width="1.3" d="M719.16,-910.46C847.28,-902.87 1092.67,-893.07 1300.25,-912.53 1336.76,-915.96 1376.52,-922.81 1410.96,-929.76"/>
<polygon fill="black" stroke="black" stroke-width="1.3" points="1410,-933.14 1420.5,-931.72 1411.41,-926.28 1410,-933.14"/>
</g>
<!-- /bulks/bulk_download_task_tile.dart&#45;&gt;/bulks/providers.dart -->
<g id="edge80" class="edge">
<title>/bulks/bulk_download_task_tile.dart&#45;&gt;/bulks/providers.dart</title>
<path fill="none" stroke="black" stroke-width="1.3" d="M719.18,-902.8C730.64,-900.39 742.16,-897.63 753,-894.53 792.59,-883.22 835.83,-865.83 867.93,-851.88"/>
<polygon fill="black" stroke="black" stroke-width="1.3" points="869.24,-855.13 876.99,-847.9 866.43,-848.72 869.24,-855.13"/>
</g>
<!-- /bulks/bulk_download_task_tile.dart&#45;&gt;/bulks/bulk_download_task.dart -->
<g id="edge79" class="edge">
<title>/bulks/bulk_download_task_tile.dart&#45;&gt;/bulks/bulk_download_task.dart</title>
<path fill="none" stroke="black" stroke-width="1.3" d="M719.37,-925.88C862.19,-940.73 1153.15,-969.75 1400.25,-986.53 1516.77,-994.45 1651.58,-999.86 1737.16,-1002.82"/>
<polygon fill="black" stroke="black" stroke-width="1.3" points="1736.82,-1006.31 1746.93,-1003.15 1737.06,-999.31 1736.82,-1006.31"/>
</g>
<!-- /bulks/create_bulk_download_task_sheet.dart&#45;&gt;/downloader/download_utils.dart -->
<g id="edge81" class="edge">
<title>/bulks/create_bulk_download_task_sheet.dart&#45;&gt;/downloader/download_utils.dart</title>
<path fill="none" stroke="black" stroke-width="1.3" d="M748.82,-1045.02C750.26,-1046.13 751.65,-1047.31 753,-1048.53 838.21,-1126.14 896.99,-1496.83 912.61,-1605.52"/>
<polygon fill="black" stroke="black" stroke-width="1.3" points="909.11,-1605.8 913.98,-1615.21 916.04,-1604.82 909.11,-1605.8"/>
</g>
<!-- /bulks/create_bulk_download_task_sheet.dart&#45;&gt;/l10n.dart -->
<g id="edge82" class="edge">
<title>/bulks/create_bulk_download_task_sheet.dart&#45;&gt;/l10n.dart</title>
<path fill="none" stroke="black" stroke-width="1.3" d="M746.34,-1045.03C857.86,-1062.6 1019.14,-1087 1082.5,-1091.53 1179.03,-1098.45 1203.84,-1099.95 1300.25,-1091.53 1433.21,-1079.94 1499.17,-1131.38 1596,-1039.53 1739.31,-903.62 1541.42,-729.48 1696,-606.53 1819.81,-508.06 2027.54,-586.57 2111.74,-625.21"/>
<polygon fill="black" stroke="black" stroke-width="1.3" points="2110.23,-628.36 2120.77,-629.43 2113.19,-622.02 2110.23,-628.36"/>
</g>
<!-- /bulks/create_bulk_download_task_sheet.dart&#45;&gt;/bulks/create_bulk_download_notifier.dart -->
<g id="edge85" class="edge">
<title>/bulks/create_bulk_download_task_sheet.dart&#45;&gt;/bulks/create_bulk_download_notifier.dart</title>
<path fill="none" stroke="black" stroke-width="1.3" d="M675.12,-1008.09C776.17,-965.62 1025.12,-860.99 1135.8,-814.47"/>
<polygon fill="black" stroke="black" stroke-width="1.3" points="1137.03,-817.75 1144.89,-810.65 1134.32,-811.3 1137.03,-817.75"/>
</g>
<!-- /bulks/create_bulk_download_task_sheet.dart&#45;&gt;/bulks/providers.dart -->
<g id="edge86" class="edge">
<title>/bulks/create_bulk_download_task_sheet.dart&#45;&gt;/bulks/providers.dart</title>
<path fill="none" stroke="black" stroke-width="1.3" d="M663.58,-1008.05C688.43,-993.57 723.4,-972.57 753,-952.53 800.03,-920.69 852.12,-880.7 884.65,-855.13"/>
<polygon fill="black" stroke="black" stroke-width="1.3" points="886.46,-858.16 892.14,-849.21 882.12,-852.66 886.46,-858.16"/>
</g>
<!-- /bulks/create_bulk_download_task_sheet.dart&#45;&gt;/bulks/bulk_download_task.dart -->
<g id="edge84" class="edge">
<title>/bulks/create_bulk_download_task_sheet.dart&#45;&gt;/bulks/bulk_download_task.dart</title>
<path fill="none" stroke="black" stroke-width="1.3" d="M753.49,-1026.41C936.64,-1025.94 1293.15,-1023.92 1596,-1015.53 1642.69,-1014.24 1694.74,-1012.01 1737.25,-1009.99"/>
<polygon fill="black" stroke="black" stroke-width="1.3" points="1737.2,-1013.49 1747.02,-1009.52 1736.86,-1006.5 1737.2,-1013.49"/>
</g>
<!-- /bulks/create_bulk_download_task_sheet.dart&#45;&gt;/widgets/download_folder_selector_section.dart -->
<g id="edge83" class="edge">
<title>/bulks/create_bulk_download_task_sheet.dart&#45;&gt;/widgets/download_folder_selector_section.dart</title>
<path fill="none" stroke="black" stroke-width="1.3" d="M746.83,-1044.99C748.93,-1046.11 750.99,-1047.29 753,-1048.53 816.42,-1087.94 786.69,-1149.2 853,-1183.53 875.07,-1194.96 1275.8,-1189.1 1300.25,-1193.53 1346.58,-1201.94 1353.83,-1220.65 1400.25,-1228.53 1443.14,-1235.82 1555.26,-1243.78 1596,-1228.53 1647.83,-1209.14 1643.57,-1171.71 1693.69,-1143.35"/>
<polygon fill="black" stroke="black" stroke-width="1.3" points="1695.05,-1146.58 1702.33,-1138.89 1691.84,-1140.36 1695.05,-1146.58"/>
</g>
<!-- /bulks/notifications/providers.dart&#45;&gt;/bulks/notifications/bulk_download_notification.dart -->
<g id="edge87" class="edge">
<title>/bulks/notifications/providers.dart&#45;&gt;/bulks/notifications/bulk_download_notification.dart</title>
<path fill="none" stroke="black" stroke-width="1.3" d="M1863.55,-903.53C1906.91,-903.53 1979.72,-903.53 2040.93,-903.53"/>
<polygon fill="black" stroke="black" stroke-width="1.3" points="2040.64,-907.03 2050.64,-903.53 2040.64,-900.03 2040.64,-907.03"/>
</g>
<!-- /notifications/providers.dart&#45;&gt;/notifications/notification.dart -->
<g id="edge88" class="edge">
<title>/notifications/providers.dart&#45;&gt;/notifications/notification.dart</title>
<path fill="none" stroke="black" stroke-width="1.3" d="M1541.13,-1470.53C1597.62,-1470.53 1704.01,-1470.53 1768.84,-1470.53"/>
<polygon fill="black" stroke="black" stroke-width="1.3" points="1768.48,-1474.03 1778.48,-1470.53 1768.48,-1467.03 1768.48,-1474.03"/>
</g>
<!-- /notifications/notification_scope.dart&#45;&gt;/manager/download_tasks_notifier.dart -->
<g id="edge93" class="edge">
<title>/notifications/notification_scope.dart&#45;&gt;/manager/download_tasks_notifier.dart</title>
<path fill="none" stroke="black" stroke-width="1.3" d="M1570.2,-1393.29C1580.03,-1389.73 1589.14,-1384.4 1596,-1376.53 1748.71,-1201.36 1570.52,-531.15 1696,-335.53 1710.44,-313.02 1734.33,-296.56 1757.56,-284.96"/>
<polygon fill="black" stroke="black" stroke-width="1.3" points="1758.82,-288.24 1766.37,-280.8 1755.83,-281.9 1758.82,-288.24"/>
</g>
<!-- /notifications/notification_scope.dart&#45;&gt;/manager/download_task.dart -->
<g id="edge91" class="edge">
<title>/notifications/notification_scope.dart&#45;&gt;/manager/download_task.dart</title>
<path fill="none" stroke="black" stroke-width="1.3" d="M1569.94,-1393.07C1579.81,-1389.53 1588.99,-1384.27 1596,-1376.53 1818.86,-1130.62 1521.87,-919.07 1696,-636.53 1768.63,-518.68 1859.42,-562.55 1953,-460.53 2014.08,-393.95 1980.58,-337.57 2053,-283.53 2061.2,-277.41 2070.82,-272.95 2080.74,-269.71"/>
<polygon fill="black" stroke="black" stroke-width="1.3" points="2081.44,-273.15 2090.12,-267.07 2079.55,-266.41 2081.44,-273.15"/>
</g>
<!-- /notifications/notification_scope.dart&#45;&gt;/bulks/bulk_download_notifier.dart -->
<g id="edge90" class="edge">
<title>/notifications/notification_scope.dart&#45;&gt;/bulks/bulk_download_notifier.dart</title>
<path fill="none" stroke="black" stroke-width="1.3" d="M1434.22,-1399.24C1403.04,-1395.59 1368.91,-1385.08 1350.25,-1358.53 1303.23,-1291.63 1303.23,-1057.44 1350.25,-990.53 1363.4,-971.82 1384.24,-961.08 1406.31,-955.09"/>
<polygon fill="black" stroke="black" stroke-width="1.3" points="1407.08,-958.51 1416.02,-952.82 1405.49,-951.69 1407.08,-958.51"/>
</g>
<!-- /notifications/notification_scope.dart&#45;&gt;/bulks/bulk_download_task.dart -->
<g id="edge89" class="edge">
<title>/notifications/notification_scope.dart&#45;&gt;/bulks/bulk_download_task.dart</title>
<path fill="none" stroke="black" stroke-width="1.3" d="M1570.14,-1391.34C1579.62,-1387.97 1588.64,-1383.21 1596,-1376.53 1697.6,-1284.37 1610.49,-1191.8 1696,-1084.53 1714.89,-1060.84 1742.95,-1042.36 1767.95,-1029.25"/>
<polygon fill="black" stroke="black" stroke-width="1.3" points="1769.32,-1032.48 1776.68,-1024.85 1766.17,-1026.23 1769.32,-1032.48"/>
</g>
<!-- /notifications/notification_scope.dart&#45;&gt;/bulks/notifications/providers.dart -->
<g id="edge92" class="edge">
<title>/notifications/notification_scope.dart&#45;&gt;/bulks/notifications/providers.dart</title>
<path fill="none" stroke="black" stroke-width="1.3" d="M1569.87,-1392.39C1579.62,-1388.91 1588.79,-1383.85 1596,-1376.53 1740.13,-1230.32 1547.43,-1067.24 1696,-925.53 1716.37,-906.11 1747.35,-900.43 1773.67,-899.69"/>
<polygon fill="black" stroke="black" stroke-width="1.3" points="1773.41,-903.19 1783.41,-899.67 1773.4,-896.19 1773.41,-903.19"/>
</g>
<!-- /widgets/download_folder_selector_section.dart&#45;&gt;/path/validator.dart -->
<g id="edge95" class="edge">
<title>/widgets/download_folder_selector_section.dart&#45;&gt;/path/validator.dart</title>
<path fill="none" stroke="black" stroke-width="1.3" d="M1936.91,-1138C1942.36,-1139.14 1947.75,-1140.32 1953,-1141.53 2004.55,-1153.44 2062.65,-1170.87 2102.09,-1183.31"/>
<polygon fill="black" stroke="black" stroke-width="1.3" points="2100.98,-1186.63 2111.57,-1186.32 2103.1,-1179.96 2100.98,-1186.63"/>
</g>
<!-- /widgets/download_folder_selector_section.dart&#45;&gt;/l10n.dart -->
<g id="edge94" class="edge">
<title>/widgets/download_folder_selector_section.dart&#45;&gt;/l10n.dart</title>
<path fill="none" stroke="black" stroke-width="1.3" d="M1926.61,-1101.13C1936.15,-1096.72 1945.17,-1091.27 1953,-1084.53 1961.55,-1077.18 2094.5,-769.73 2136.36,-672.62"/>
<polygon fill="black" stroke="black" stroke-width="1.3" points="2139.47,-674.22 2140.22,-663.66 2133.04,-671.45 2139.47,-674.22"/>
</g>
<!-- metrics -->
<g id="node42" class="node">
<title>metrics</title>
<path fill="Lavender" stroke="black" stroke-width="1.3" d="M124,-2325.53C124,-2325.53 12,-2325.53 12,-2325.53 6,-2325.53 0,-2319.53 0,-2313.53 0,-2313.53 0,-2149.53 0,-2149.53 0,-2143.53 6,-2137.53 12,-2137.53 12,-2137.53 124,-2137.53 124,-2137.53 130,-2137.53 136,-2143.53 136,-2149.53 136,-2149.53 136,-2313.53 136,-2313.53 136,-2319.53 130,-2325.53 124,-2325.53"/>
<text text-anchor="start" x="8" y="-2307.28" font-family="Arial" font-size="15.00"> isAcyclic: true </text>
<text text-anchor="start" x="8" y="-2289.28" font-family="Arial" font-size="15.00"> numNodes: 41 &#160;</text>
<text text-anchor="start" x="8" y="-2271.28" font-family="Arial" font-size="15.00"> numEdges: 95 &#160;</text>
<text text-anchor="start" x="8" y="-2253.28" font-family="Arial" font-size="15.00"> avgDegree: 2.32 </text>
<text text-anchor="start" x="8" y="-2235.28" font-family="Arial" font-size="15.00"> numOrphans: 0 </text>
<text text-anchor="start" x="8" y="-2217.28" font-family="Arial" font-size="15.00"> ccd: 279 </text>
<text text-anchor="start" x="8" y="-2199.28" font-family="Arial" font-size="15.00"> acd: 6.8 </text>
<text text-anchor="start" x="8" y="-2181.28" font-family="Arial" font-size="15.00"> nccd: 1.5 </text>
<text text-anchor="start" x="8" y="-2163.28" font-family="Arial" font-size="15.00"> totalSloc: 3901 </text>
<text text-anchor="start" x="8" y="-2145.28" font-family="Arial" font-size="15.00"> avgSloc: 95.15 </text>
</g>
</g>
</svg>
