<?xml version="1.0" encoding="UTF-8" standalone="no"?>
<!DOCTYPE svg PUBLIC "-//W3C//DTD SVG 1.1//EN"
 "http://www.w3.org/Graphics/SVG/1.1/DTD/svg11.dtd">
<!-- Generated by graphviz version 12.2.0 (20241103.1931)
 -->
<!-- Pages: 1 -->
<svg width="1296pt" height="779pt"
 viewBox="0.00 0.00 1296.00 779.07" xmlns="http://www.w3.org/2000/svg" xmlns:xlink="http://www.w3.org/1999/xlink">
<g id="graph0" class="graph" transform="scale(1.07163 1.07163) rotate(0) translate(36 691)">
<polygon fill="white" stroke="none" points="-36,36 -36,-691 1173.38,-691 1173.38,36 -36,36"/>
<g id="clust1" class="cluster">
<title>cluster~</title>
<path fill="none" stroke="black" stroke-width="2.6" d="M20,-8C20,-8 1117.38,-8 1117.38,-8 1123.38,-8 1129.38,-14 1129.38,-20 1129.38,-20 1129.38,-447 1129.38,-447 1129.38,-453 1123.38,-459 1117.38,-459 1117.38,-459 20,-459 20,-459 14,-459 8,-453 8,-447 8,-447 8,-20 8,-20 8,-14 14,-8 20,-8"/>
<text text-anchor="middle" x="568.69" y="-442.65" font-family="Arial Black" font-size="13.00">blacklist</text>
</g>
<g id="clust2" class="cluster">
<title>cluster~/src</title>
<path fill="none" stroke="black" stroke-width="2.6" d="M217.88,-140C217.88,-140 1109.38,-140 1109.38,-140 1115.38,-140 1121.38,-146 1121.38,-152 1121.38,-152 1121.38,-292 1121.38,-292 1121.38,-298 1115.38,-304 1109.38,-304 1109.38,-304 217.88,-304 217.88,-304 211.88,-304 205.88,-298 205.88,-292 205.88,-292 205.88,-152 205.88,-152 205.88,-146 211.88,-140 217.88,-140"/>
<text text-anchor="middle" x="663.62" y="-287.65" font-family="Arial Black" font-size="13.00">src</text>
</g>
<!-- /widgets.dart -->
<g id="node1" class="node">
<title>/widgets.dart</title>
<path fill="Lavender" stroke="black" stroke-width="1.3" d="M317.62,-132C317.62,-132 225.88,-132 225.88,-132 219.88,-132 213.88,-126 213.88,-120 213.88,-120 213.88,-28 213.88,-28 213.88,-22 219.88,-16 225.88,-16 225.88,-16 317.62,-16 317.62,-16 323.62,-16 329.62,-22 329.62,-28 329.62,-28 329.62,-120 329.62,-120 329.62,-126 323.62,-132 317.62,-132"/>
<text text-anchor="middle" x="271.75" y="-113.75" font-family="Arial" font-size="15.00">widgets </text>
<text text-anchor="middle" x="271.75" y="-95.75" font-family="Arial" font-size="15.00"> cd: 4 </text>
<text text-anchor="middle" x="271.75" y="-77.75" font-family="Arial" font-size="15.00"> inDegree: 0 </text>
<text text-anchor="middle" x="271.75" y="-59.75" font-family="Arial" font-size="15.00"> outDegree: 1 </text>
<text text-anchor="middle" x="271.75" y="-41.75" font-family="Arial" font-size="15.00"> instability: 1.0 </text>
<text text-anchor="middle" x="271.75" y="-23.75" font-family="Arial" font-size="15.00"> sloc: 2</text>
</g>
<!-- /src/blacklisted_tags_page.dart -->
<g id="node6" class="node">
<title>/src/blacklisted_tags_page.dart</title>
<path fill="Lavender" stroke="black" stroke-width="1.3" d="M557.12,-264C557.12,-264 413.62,-264 413.62,-264 407.62,-264 401.62,-258 401.62,-252 401.62,-252 401.62,-160 401.62,-160 401.62,-154 407.62,-148 413.62,-148 413.62,-148 557.12,-148 557.12,-148 563.12,-148 569.12,-154 569.12,-160 569.12,-160 569.12,-252 569.12,-252 569.12,-258 563.12,-264 557.12,-264"/>
<text text-anchor="middle" x="485.38" y="-245.75" font-family="Arial" font-size="15.00">blacklisted_tags_page </text>
<text text-anchor="middle" x="485.38" y="-227.75" font-family="Arial" font-size="15.00"> cd: 3 </text>
<text text-anchor="middle" x="485.38" y="-209.75" font-family="Arial" font-size="15.00"> inDegree: 2 </text>
<text text-anchor="middle" x="485.38" y="-191.75" font-family="Arial" font-size="15.00"> outDegree: 2 </text>
<text text-anchor="middle" x="485.38" y="-173.75" font-family="Arial" font-size="15.00"> instability: 0.5 </text>
<text text-anchor="middle" x="485.38" y="-155.75" font-family="Arial" font-size="15.00"> sloc: 67</text>
</g>
<!-- /widgets.dart&#45;&gt;/src/blacklisted_tags_page.dart -->
<g id="edge1" class="edge">
<title>/widgets.dart&#45;&gt;/src/blacklisted_tags_page.dart</title>
<path fill="none" stroke="black" stroke-width="1.3" stroke-dasharray="5,2" d="M330.02,-109.72C348.85,-121.47 370.3,-134.84 391.09,-147.81"/>
<polygon fill="black" stroke="black" stroke-width="1.3" points="389.23,-150.78 399.56,-153.1 392.93,-144.84 389.23,-150.78"/>
</g>
<!-- /routes.dart -->
<g id="node2" class="node">
<title>/routes.dart</title>
<path fill="Lavender" stroke="black" stroke-width="1.3" d="M119.75,-264C119.75,-264 28,-264 28,-264 22,-264 16,-258 16,-252 16,-252 16,-160 16,-160 16,-154 22,-148 28,-148 28,-148 119.75,-148 119.75,-148 125.75,-148 131.75,-154 131.75,-160 131.75,-160 131.75,-252 131.75,-252 131.75,-258 125.75,-264 119.75,-264"/>
<text text-anchor="middle" x="73.88" y="-245.75" font-family="Arial" font-size="15.00">routes </text>
<text text-anchor="middle" x="73.88" y="-227.75" font-family="Arial" font-size="15.00"> cd: 5 </text>
<text text-anchor="middle" x="73.88" y="-209.75" font-family="Arial" font-size="15.00"> inDegree: 0 </text>
<text text-anchor="middle" x="73.88" y="-191.75" font-family="Arial" font-size="15.00"> outDegree: 1 </text>
<text text-anchor="middle" x="73.88" y="-173.75" font-family="Arial" font-size="15.00"> instability: 1.0 </text>
<text text-anchor="middle" x="73.88" y="-155.75" font-family="Arial" font-size="15.00"> sloc: 2</text>
</g>
<!-- /src/routes.dart -->
<g id="node5" class="node">
<title>/src/routes.dart</title>
<path fill="Lavender" stroke="black" stroke-width="1.3" d="M317.62,-264C317.62,-264 225.88,-264 225.88,-264 219.88,-264 213.88,-258 213.88,-252 213.88,-252 213.88,-160 213.88,-160 213.88,-154 219.88,-148 225.88,-148 225.88,-148 317.62,-148 317.62,-148 323.62,-148 329.62,-154 329.62,-160 329.62,-160 329.62,-252 329.62,-252 329.62,-258 323.62,-264 317.62,-264"/>
<text text-anchor="middle" x="271.75" y="-245.75" font-family="Arial" font-size="15.00">routes </text>
<text text-anchor="middle" x="271.75" y="-227.75" font-family="Arial" font-size="15.00"> cd: 4 </text>
<text text-anchor="middle" x="271.75" y="-209.75" font-family="Arial" font-size="15.00"> inDegree: 1 </text>
<text text-anchor="middle" x="271.75" y="-191.75" font-family="Arial" font-size="15.00"> outDegree: 1 </text>
<text text-anchor="middle" x="271.75" y="-173.75" font-family="Arial" font-size="15.00"> instability: 0.5 </text>
<text text-anchor="middle" x="271.75" y="-155.75" font-family="Arial" font-size="15.00"> sloc: 11</text>
</g>
<!-- /routes.dart&#45;&gt;/src/routes.dart -->
<g id="edge2" class="edge">
<title>/routes.dart&#45;&gt;/src/routes.dart</title>
<path fill="none" stroke="black" stroke-width="1.3" stroke-dasharray="5,2" d="M132.06,-206C153.88,-206 179,-206 201.81,-206"/>
<polygon fill="black" stroke="black" stroke-width="1.3" points="201.53,-209.5 211.53,-206 201.53,-202.5 201.53,-209.5"/>
</g>
<!-- /providers.dart -->
<g id="node3" class="node">
<title>/providers.dart</title>
<path fill="Lavender" stroke="black" stroke-width="1.3" d="M531.25,-428C531.25,-428 439.5,-428 439.5,-428 433.5,-428 427.5,-422 427.5,-416 427.5,-416 427.5,-324 427.5,-324 427.5,-318 433.5,-312 439.5,-312 439.5,-312 531.25,-312 531.25,-312 537.25,-312 543.25,-318 543.25,-324 543.25,-324 543.25,-416 543.25,-416 543.25,-422 537.25,-428 531.25,-428"/>
<text text-anchor="middle" x="485.38" y="-409.75" font-family="Arial" font-size="15.00">providers </text>
<text text-anchor="middle" x="485.38" y="-391.75" font-family="Arial" font-size="15.00"> cd: 3 </text>
<text text-anchor="middle" x="485.38" y="-373.75" font-family="Arial" font-size="15.00"> inDegree: 0 </text>
<text text-anchor="middle" x="485.38" y="-355.75" font-family="Arial" font-size="15.00"> outDegree: 2 </text>
<text text-anchor="middle" x="485.38" y="-337.75" font-family="Arial" font-size="15.00"> instability: 1.0 </text>
<text text-anchor="middle" x="485.38" y="-319.75" font-family="Arial" font-size="15.00"> sloc: 3</text>
</g>
<!-- /src/blacklisted_tags_notifier.dart -->
<g id="node4" class="node">
<title>/src/blacklisted_tags_notifier.dart</title>
<path fill="Lavender" stroke="black" stroke-width="1.3" d="M1101.38,-273C1101.38,-273 945.88,-273 945.88,-273 939.88,-273 933.88,-267 933.88,-261 933.88,-261 933.88,-169 933.88,-169 933.88,-163 939.88,-157 945.88,-157 945.88,-157 1101.38,-157 1101.38,-157 1107.38,-157 1113.38,-163 1113.38,-169 1113.38,-169 1113.38,-261 1113.38,-261 1113.38,-267 1107.38,-273 1101.38,-273"/>
<text text-anchor="middle" x="1023.62" y="-254.75" font-family="Arial" font-size="15.00">blacklisted_tags_notifier </text>
<text text-anchor="middle" x="1023.62" y="-236.75" font-family="Arial" font-size="15.00"> cd: 1 </text>
<text text-anchor="middle" x="1023.62" y="-218.75" font-family="Arial" font-size="15.00"> inDegree: 3 </text>
<text text-anchor="middle" x="1023.62" y="-200.75" font-family="Arial" font-size="15.00"> outDegree: 0 </text>
<text text-anchor="middle" x="1023.62" y="-182.75" font-family="Arial" font-size="15.00"> instability: 0.0 </text>
<text text-anchor="middle" x="1023.62" y="-164.75" font-family="Arial" font-size="15.00"> sloc: 124</text>
</g>
<!-- /providers.dart&#45;&gt;/src/blacklisted_tags_notifier.dart -->
<g id="edge3" class="edge">
<title>/providers.dart&#45;&gt;/src/blacklisted_tags_notifier.dart</title>
<path fill="none" stroke="black" stroke-width="1.3" stroke-dasharray="5,2" d="M543.61,-358.17C617.77,-342.3 750.74,-312.04 861.88,-277 881.73,-270.74 902.68,-263.3 922.65,-255.78"/>
<polygon fill="black" stroke="black" stroke-width="1.3" points="923.69,-259.13 931.79,-252.31 921.2,-252.59 923.69,-259.13"/>
</g>
<!-- /src/blacklisted_tags_notifier_toast.dart -->
<g id="node7" class="node">
<title>/src/blacklisted_tags_notifier_toast.dart</title>
<path fill="Lavender" stroke="black" stroke-width="1.3" d="M849.88,-273C849.88,-273 653.12,-273 653.12,-273 647.12,-273 641.12,-267 641.12,-261 641.12,-261 641.12,-169 641.12,-169 641.12,-163 647.12,-157 653.12,-157 653.12,-157 849.88,-157 849.88,-157 855.88,-157 861.88,-163 861.88,-169 861.88,-169 861.88,-261 861.88,-261 861.88,-267 855.88,-273 849.88,-273"/>
<text text-anchor="middle" x="751.5" y="-254.75" font-family="Arial" font-size="15.00">blacklisted_tags_notifier_toast </text>
<text text-anchor="middle" x="751.5" y="-236.75" font-family="Arial" font-size="15.00"> cd: 2 </text>
<text text-anchor="middle" x="751.5" y="-218.75" font-family="Arial" font-size="15.00"> inDegree: 2 </text>
<text text-anchor="middle" x="751.5" y="-200.75" font-family="Arial" font-size="15.00"> outDegree: 1 </text>
<text text-anchor="middle" x="751.5" y="-182.75" font-family="Arial" font-size="15.00"> instability: 0.33 </text>
<text text-anchor="middle" x="751.5" y="-164.75" font-family="Arial" font-size="15.00"> sloc: 59</text>
</g>
<!-- /providers.dart&#45;&gt;/src/blacklisted_tags_notifier_toast.dart -->
<g id="edge4" class="edge">
<title>/providers.dart&#45;&gt;/src/blacklisted_tags_notifier_toast.dart</title>
<path fill="none" stroke="black" stroke-width="1.3" stroke-dasharray="5,2" d="M543.49,-335.2C570.11,-319.1 602.5,-299.65 637.48,-279.15"/>
<polygon fill="black" stroke="black" stroke-width="1.3" points="638.85,-282.4 645.71,-274.33 635.31,-276.36 638.85,-282.4"/>
</g>
<!-- /src/routes.dart&#45;&gt;/src/blacklisted_tags_page.dart -->
<g id="edge5" class="edge">
<title>/src/routes.dart&#45;&gt;/src/blacklisted_tags_page.dart</title>
<path fill="none" stroke="black" stroke-width="1.3" d="M330.02,-206C348.34,-206 369.13,-206 389.39,-206"/>
<polygon fill="black" stroke="black" stroke-width="1.3" points="389.26,-209.5 399.26,-206 389.26,-202.5 389.26,-209.5"/>
</g>
<!-- /src/blacklisted_tags_page.dart&#45;&gt;/src/blacklisted_tags_notifier.dart -->
<g id="edge7" class="edge">
<title>/src/blacklisted_tags_page.dart&#45;&gt;/src/blacklisted_tags_notifier.dart</title>
<path fill="none" stroke="black" stroke-width="1.3" d="M569.45,-172.6C592.3,-164.93 617.35,-157.89 641.12,-154 737.95,-138.17 765.37,-136.31 861.88,-154 881.97,-157.68 902.81,-163.76 922.56,-170.68"/>
<polygon fill="black" stroke="black" stroke-width="1.3" points="921.29,-173.94 931.88,-174.06 923.67,-167.36 921.29,-173.94"/>
</g>
<!-- /src/blacklisted_tags_page.dart&#45;&gt;/src/blacklisted_tags_notifier_toast.dart -->
<g id="edge6" class="edge">
<title>/src/blacklisted_tags_page.dart&#45;&gt;/src/blacklisted_tags_notifier_toast.dart</title>
<path fill="none" stroke="black" stroke-width="1.3" d="M569.58,-208.84C588.54,-209.48 609.07,-210.18 629.25,-210.87"/>
<polygon fill="black" stroke="black" stroke-width="1.3" points="629,-214.36 639.12,-211.2 629.24,-207.37 629,-214.36"/>
</g>
<!-- /src/blacklisted_tags_notifier_toast.dart&#45;&gt;/src/blacklisted_tags_notifier.dart -->
<g id="edge8" class="edge">
<title>/src/blacklisted_tags_notifier_toast.dart&#45;&gt;/src/blacklisted_tags_notifier.dart</title>
<path fill="none" stroke="black" stroke-width="1.3" d="M862.37,-215C881.97,-215 902.29,-215 921.63,-215"/>
<polygon fill="black" stroke="black" stroke-width="1.3" points="921.55,-218.5 931.55,-215 921.55,-211.5 921.55,-218.5"/>
</g>
<!-- metrics -->
<g id="node8" class="node">
<title>metrics</title>
<path fill="Lavender" stroke="black" stroke-width="1.3" d="M129.88,-655C129.88,-655 17.88,-655 17.88,-655 11.87,-655 5.88,-649 5.88,-643 5.88,-643 5.88,-479 5.88,-479 5.88,-473 11.88,-467 17.88,-467 17.88,-467 129.88,-467 129.88,-467 135.88,-467 141.88,-473 141.88,-479 141.88,-479 141.88,-643 141.88,-643 141.88,-649 135.88,-655 129.88,-655"/>
<text text-anchor="start" x="13.88" y="-636.75" font-family="Arial" font-size="15.00"> isAcyclic: true </text>
<text text-anchor="start" x="13.88" y="-618.75" font-family="Arial" font-size="15.00"> numNodes: 7 &#160;</text>
<text text-anchor="start" x="13.88" y="-600.75" font-family="Arial" font-size="15.00"> numEdges: 8 &#160;</text>
<text text-anchor="start" x="13.88" y="-582.75" font-family="Arial" font-size="15.00"> avgDegree: 1.14 </text>
<text text-anchor="start" x="13.88" y="-564.75" font-family="Arial" font-size="15.00"> numOrphans: 0 </text>
<text text-anchor="start" x="13.88" y="-546.75" font-family="Arial" font-size="15.00"> ccd: 22 </text>
<text text-anchor="start" x="13.88" y="-528.75" font-family="Arial" font-size="15.00"> acd: 3.14 </text>
<text text-anchor="start" x="13.88" y="-510.75" font-family="Arial" font-size="15.00"> nccd: 1.29 </text>
<text text-anchor="start" x="13.88" y="-492.75" font-family="Arial" font-size="15.00"> totalSloc: 268 </text>
<text text-anchor="start" x="13.88" y="-474.75" font-family="Arial" font-size="15.00"> avgSloc: 38.29 </text>
</g>
</g>
</svg>
