<?xml version="1.0" encoding="UTF-8" standalone="no"?>
<!DOCTYPE svg PUBLIC "-//W3C//DTD SVG 1.1//EN"
 "http://www.w3.org/Graphics/SVG/1.1/DTD/svg11.dtd">
<!-- Generated by graphviz version 12.2.0 (20241103.1931)
 -->
<!-- Pages: 1 -->
<svg width="1296pt" height="1332pt"
 viewBox="0.00 0.00 1296.00 1332.35" xmlns="http://www.w3.org/2000/svg" xmlns:xlink="http://www.w3.org/1999/xlink">
<g id="graph0" class="graph" transform="scale(0.995774 0.995774) rotate(0) translate(36 1302)">
<polygon fill="white" stroke="none" points="-36,36 -36,-1302 1265.5,-1302 1265.5,36 -36,36"/>
<g id="clust1" class="cluster">
<title>cluster~</title>
<path fill="none" stroke="black" stroke-width="2.6" d="M20,-8C20,-8 1209.5,-8 1209.5,-8 1215.5,-8 1221.5,-14 1221.5,-20 1221.5,-20 1221.5,-1058 1221.5,-1058 1221.5,-1064 1215.5,-1070 1209.5,-1070 1209.5,-1070 20,-1070 20,-1070 14,-1070 8,-1064 8,-1058 8,-1058 8,-20 8,-20 8,-14 14,-8 20,-8"/>
<text text-anchor="middle" x="614.75" y="-1053.65" font-family="Arial Black" font-size="13.00">boorus</text>
</g>
<g id="clust2" class="cluster">
<title>cluster~/booru</title>
<path fill="none" stroke="black" stroke-width="2.6" d="M262.38,-16C262.38,-16 1201.5,-16 1201.5,-16 1207.5,-16 1213.5,-22 1213.5,-28 1213.5,-28 1213.5,-445 1213.5,-445 1213.5,-451 1207.5,-457 1201.5,-457 1201.5,-457 262.37,-457 262.37,-457 256.38,-457 250.38,-451 250.38,-445 250.38,-445 250.38,-28 250.38,-28 250.38,-22 256.38,-16 262.38,-16"/>
<text text-anchor="middle" x="731.94" y="-440.65" font-family="Arial Black" font-size="13.00">booru</text>
</g>
<g id="clust3" class="cluster">
<title>cluster~/booru/src</title>
<path fill="none" stroke="black" stroke-width="2.6" d="M474.5,-24C474.5,-24 1193.5,-24 1193.5,-24 1199.5,-24 1205.5,-30 1205.5,-36 1205.5,-36 1205.5,-290 1205.5,-290 1205.5,-296 1199.5,-302 1193.5,-302 1193.5,-302 474.5,-302 474.5,-302 468.5,-302 462.5,-296 462.5,-290 462.5,-290 462.5,-36 462.5,-36 462.5,-30 468.5,-24 474.5,-24"/>
<text text-anchor="middle" x="834" y="-285.65" font-family="Arial Black" font-size="13.00">src</text>
</g>
<g id="clust4" class="cluster">
<title>cluster~/engine</title>
<path fill="none" stroke="black" stroke-width="2.6" d="M28,-465C28,-465 826,-465 826,-465 832,-465 838,-471 838,-477 838,-477 838,-1027 838,-1027 838,-1033 832,-1039 826,-1039 826,-1039 28,-1039 28,-1039 22,-1039 16,-1033 16,-1027 16,-1027 16,-477 16,-477 16,-471 22,-465 28,-465"/>
<text text-anchor="middle" x="427" y="-1022.65" font-family="Arial Black" font-size="13.00">engine</text>
</g>
<g id="clust5" class="cluster">
<title>cluster~/engine/src</title>
<path fill="none" stroke="black" stroke-width="2.6" d="M36,-597C36,-597 818,-597 818,-597 824,-597 830,-603 830,-609 830,-609 830,-872 830,-872 830,-878 824,-884 818,-884 818,-884 36,-884 36,-884 30,-884 24,-878 24,-872 24,-872 24,-609 24,-609 24,-603 30,-597 36,-597"/>
<text text-anchor="middle" x="427" y="-867.65" font-family="Arial Black" font-size="13.00">src</text>
</g>
<!-- /booru/booru.dart -->
<g id="node1" class="node">
<title>/booru/booru.dart</title>
<path fill="Lavender" stroke="black" stroke-width="1.3" d="M582.5,-426C582.5,-426 482.5,-426 482.5,-426 476.5,-426 470.5,-420 470.5,-414 470.5,-414 470.5,-322 470.5,-322 470.5,-316 476.5,-310 482.5,-310 482.5,-310 582.5,-310 582.5,-310 588.5,-310 594.5,-316 594.5,-322 594.5,-322 594.5,-414 594.5,-414 594.5,-420 588.5,-426 582.5,-426"/>
<text text-anchor="middle" x="532.5" y="-407.75" font-family="Arial" font-size="15.00">booru </text>
<text text-anchor="middle" x="532.5" y="-389.75" font-family="Arial" font-size="15.00"> cd: 4 </text>
<text text-anchor="middle" x="532.5" y="-371.75" font-family="Arial" font-size="15.00"> inDegree: 1 </text>
<text text-anchor="middle" x="532.5" y="-353.75" font-family="Arial" font-size="15.00"> outDegree: 3 </text>
<text text-anchor="middle" x="532.5" y="-335.75" font-family="Arial" font-size="15.00"> instability: 0.75 </text>
<text text-anchor="middle" x="532.5" y="-317.75" font-family="Arial" font-size="15.00"> sloc: 3</text>
</g>
<!-- /booru/src/booru.dart -->
<g id="node3" class="node">
<title>/booru/src/booru.dart</title>
<path fill="Lavender" stroke="black" stroke-width="1.3" d="M997.75,-271C997.75,-271 906,-271 906,-271 900,-271 894,-265 894,-259 894,-259 894,-167 894,-167 894,-161 900,-155 906,-155 906,-155 997.75,-155 997.75,-155 1003.75,-155 1009.75,-161 1009.75,-167 1009.75,-167 1009.75,-259 1009.75,-259 1009.75,-265 1003.75,-271 997.75,-271"/>
<text text-anchor="middle" x="951.88" y="-252.75" font-family="Arial" font-size="15.00">booru </text>
<text text-anchor="middle" x="951.88" y="-234.75" font-family="Arial" font-size="15.00"> cd: 2 </text>
<text text-anchor="middle" x="951.88" y="-216.75" font-family="Arial" font-size="15.00"> inDegree: 4 </text>
<text text-anchor="middle" x="951.88" y="-198.75" font-family="Arial" font-size="15.00"> outDegree: 1 </text>
<text text-anchor="middle" x="951.88" y="-180.75" font-family="Arial" font-size="15.00"> instability: 0.2 </text>
<text text-anchor="middle" x="951.88" y="-162.75" font-family="Arial" font-size="15.00"> sloc: 371</text>
</g>
<!-- /booru/booru.dart&#45;&gt;/booru/src/booru.dart -->
<g id="edge1" class="edge">
<title>/booru/booru.dart&#45;&gt;/booru/src/booru.dart</title>
<path fill="none" stroke="black" stroke-width="1.3" stroke-dasharray="5,2" d="M594.64,-345.3C671.41,-316.79 802.72,-268.02 882.67,-238.33"/>
<polygon fill="black" stroke="black" stroke-width="1.3" points="883.6,-241.72 891.76,-234.95 881.17,-235.15 883.6,-241.72"/>
</g>
<!-- /booru/src/booru_factory.dart -->
<g id="node4" class="node">
<title>/booru/src/booru_factory.dart</title>
<path fill="Lavender" stroke="black" stroke-width="1.3" d="M790.12,-214C790.12,-214 698.38,-214 698.38,-214 692.38,-214 686.38,-208 686.38,-202 686.38,-202 686.38,-110 686.38,-110 686.38,-104 692.38,-98 698.38,-98 698.38,-98 790.12,-98 790.12,-98 796.12,-98 802.12,-104 802.12,-110 802.12,-110 802.12,-202 802.12,-202 802.12,-208 796.12,-214 790.12,-214"/>
<text text-anchor="middle" x="744.25" y="-195.75" font-family="Arial" font-size="15.00">booru_factory </text>
<text text-anchor="middle" x="744.25" y="-177.75" font-family="Arial" font-size="15.00"> cd: 3 </text>
<text text-anchor="middle" x="744.25" y="-159.75" font-family="Arial" font-size="15.00"> inDegree: 3 </text>
<text text-anchor="middle" x="744.25" y="-141.75" font-family="Arial" font-size="15.00"> outDegree: 2 </text>
<text text-anchor="middle" x="744.25" y="-123.75" font-family="Arial" font-size="15.00"> instability: 0.4 </text>
<text text-anchor="middle" x="744.25" y="-105.75" font-family="Arial" font-size="15.00"> sloc: 61</text>
</g>
<!-- /booru/booru.dart&#45;&gt;/booru/src/booru_factory.dart -->
<g id="edge2" class="edge">
<title>/booru/booru.dart&#45;&gt;/booru/src/booru_factory.dart</title>
<path fill="none" stroke="black" stroke-width="1.3" stroke-dasharray="5,2" d="M588.51,-309.66C590.54,-307.42 592.54,-305.19 594.5,-303 627.45,-266.05 631.09,-252.6 666.5,-218 669.95,-214.63 673.56,-211.26 677.27,-207.92"/>
<polygon fill="black" stroke="black" stroke-width="1.3" points="679.36,-210.73 684.56,-201.5 674.74,-205.48 679.36,-210.73"/>
</g>
<!-- /booru/src/booru_type.dart -->
<g id="node5" class="node">
<title>/booru/src/booru_type.dart</title>
<path fill="Lavender" stroke="black" stroke-width="1.3" d="M1185.5,-271C1185.5,-271 1093.75,-271 1093.75,-271 1087.75,-271 1081.75,-265 1081.75,-259 1081.75,-259 1081.75,-167 1081.75,-167 1081.75,-161 1087.75,-155 1093.75,-155 1093.75,-155 1185.5,-155 1185.5,-155 1191.5,-155 1197.5,-161 1197.5,-167 1197.5,-167 1197.5,-259 1197.5,-259 1197.5,-265 1191.5,-271 1185.5,-271"/>
<text text-anchor="middle" x="1139.62" y="-252.75" font-family="Arial" font-size="15.00">booru_type </text>
<text text-anchor="middle" x="1139.62" y="-234.75" font-family="Arial" font-size="15.00"> cd: 1 </text>
<text text-anchor="middle" x="1139.62" y="-216.75" font-family="Arial" font-size="15.00"> inDegree: 3 </text>
<text text-anchor="middle" x="1139.62" y="-198.75" font-family="Arial" font-size="15.00"> outDegree: 0 </text>
<text text-anchor="middle" x="1139.62" y="-180.75" font-family="Arial" font-size="15.00"> instability: 0.0 </text>
<text text-anchor="middle" x="1139.62" y="-162.75" font-family="Arial" font-size="15.00"> sloc: 117</text>
</g>
<!-- /booru/booru.dart&#45;&gt;/booru/src/booru_type.dart -->
<g id="edge3" class="edge">
<title>/booru/booru.dart&#45;&gt;/booru/src/booru_type.dart</title>
<path fill="none" stroke="black" stroke-width="1.3" stroke-dasharray="5,2" d="M594.92,-361.1C686.88,-349.65 865.04,-323.06 1009.75,-275 1030.23,-268.2 1051.65,-258.87 1071.03,-249.51"/>
<polygon fill="black" stroke="black" stroke-width="1.3" points="1072.37,-252.76 1079.79,-245.2 1069.27,-246.48 1072.37,-252.76"/>
</g>
<!-- /booru/providers.dart -->
<g id="node2" class="node">
<title>/booru/providers.dart</title>
<path fill="Lavender" stroke="black" stroke-width="1.3" d="M362.12,-209C362.12,-209 270.38,-209 270.38,-209 264.38,-209 258.38,-203 258.38,-197 258.38,-197 258.38,-105 258.38,-105 258.38,-99 264.38,-93 270.38,-93 270.38,-93 362.12,-93 362.12,-93 368.12,-93 374.12,-99 374.12,-105 374.12,-105 374.12,-197 374.12,-197 374.12,-203 368.12,-209 362.12,-209"/>
<text text-anchor="middle" x="316.25" y="-190.75" font-family="Arial" font-size="15.00">providers </text>
<text text-anchor="middle" x="316.25" y="-172.75" font-family="Arial" font-size="15.00"> cd: 6 </text>
<text text-anchor="middle" x="316.25" y="-154.75" font-family="Arial" font-size="15.00"> inDegree: 0 </text>
<text text-anchor="middle" x="316.25" y="-136.75" font-family="Arial" font-size="15.00"> outDegree: 2 </text>
<text text-anchor="middle" x="316.25" y="-118.75" font-family="Arial" font-size="15.00"> instability: 1.0 </text>
<text text-anchor="middle" x="316.25" y="-100.75" font-family="Arial" font-size="15.00"> sloc: 2</text>
</g>
<!-- /booru/src/providers.dart -->
<g id="node6" class="node">
<title>/booru/src/providers.dart</title>
<path fill="Lavender" stroke="black" stroke-width="1.3" d="M582.5,-148C582.5,-148 482.5,-148 482.5,-148 476.5,-148 470.5,-142 470.5,-136 470.5,-136 470.5,-44 470.5,-44 470.5,-38 476.5,-32 482.5,-32 482.5,-32 582.5,-32 582.5,-32 588.5,-32 594.5,-38 594.5,-44 594.5,-44 594.5,-136 594.5,-136 594.5,-142 588.5,-148 582.5,-148"/>
<text text-anchor="middle" x="532.5" y="-129.75" font-family="Arial" font-size="15.00">providers </text>
<text text-anchor="middle" x="532.5" y="-111.75" font-family="Arial" font-size="15.00"> cd: 4 </text>
<text text-anchor="middle" x="532.5" y="-93.75" font-family="Arial" font-size="15.00"> inDegree: 1 </text>
<text text-anchor="middle" x="532.5" y="-75.75" font-family="Arial" font-size="15.00"> outDegree: 2 </text>
<text text-anchor="middle" x="532.5" y="-57.75" font-family="Arial" font-size="15.00"> instability: 0.67 </text>
<text text-anchor="middle" x="532.5" y="-39.75" font-family="Arial" font-size="15.00"> sloc: 11</text>
</g>
<!-- /booru/providers.dart&#45;&gt;/booru/src/providers.dart -->
<g id="edge4" class="edge">
<title>/booru/providers.dart&#45;&gt;/booru/src/providers.dart</title>
<path fill="none" stroke="black" stroke-width="1.3" stroke-dasharray="5,2" d="M374.38,-134.73C400.31,-127.35 431.28,-118.53 458.84,-110.69"/>
<polygon fill="black" stroke="black" stroke-width="1.3" points="459.47,-114.15 468.13,-108.04 457.55,-107.42 459.47,-114.15"/>
</g>
<!-- /booru/src/loaders.dart -->
<g id="node7" class="node">
<title>/booru/src/loaders.dart</title>
<path fill="Lavender" stroke="black" stroke-width="1.3" d="M582.5,-271C582.5,-271 482.5,-271 482.5,-271 476.5,-271 470.5,-265 470.5,-259 470.5,-259 470.5,-167 470.5,-167 470.5,-161 476.5,-155 482.5,-155 482.5,-155 582.5,-155 582.5,-155 588.5,-155 594.5,-161 594.5,-167 594.5,-167 594.5,-259 594.5,-259 594.5,-265 588.5,-271 582.5,-271"/>
<text text-anchor="middle" x="532.5" y="-252.75" font-family="Arial" font-size="15.00">loaders </text>
<text text-anchor="middle" x="532.5" y="-234.75" font-family="Arial" font-size="15.00"> cd: 4 </text>
<text text-anchor="middle" x="532.5" y="-216.75" font-family="Arial" font-size="15.00"> inDegree: 1 </text>
<text text-anchor="middle" x="532.5" y="-198.75" font-family="Arial" font-size="15.00"> outDegree: 2 </text>
<text text-anchor="middle" x="532.5" y="-180.75" font-family="Arial" font-size="15.00"> instability: 0.67 </text>
<text text-anchor="middle" x="532.5" y="-162.75" font-family="Arial" font-size="15.00"> sloc: 47</text>
</g>
<!-- /booru/providers.dart&#45;&gt;/booru/src/loaders.dart -->
<g id="edge5" class="edge">
<title>/booru/providers.dart&#45;&gt;/booru/src/loaders.dart</title>
<path fill="none" stroke="black" stroke-width="1.3" stroke-dasharray="5,2" d="M374.38,-167.53C400.31,-175.04 431.28,-184 458.84,-191.97"/>
<polygon fill="black" stroke="black" stroke-width="1.3" points="457.55,-195.24 468.13,-194.66 459.5,-188.52 457.55,-195.24"/>
</g>
<!-- /booru/src/booru.dart&#45;&gt;/booru/src/booru_type.dart -->
<g id="edge6" class="edge">
<title>/booru/src/booru.dart&#45;&gt;/booru/src/booru_type.dart</title>
<path fill="none" stroke="black" stroke-width="1.3" d="M1010.12,-213C1028.92,-213 1050.02,-213 1069.61,-213"/>
<polygon fill="black" stroke="black" stroke-width="1.3" points="1069.6,-216.5 1079.6,-213 1069.6,-209.5 1069.6,-216.5"/>
</g>
<!-- /booru/src/booru_factory.dart&#45;&gt;/booru/src/booru.dart -->
<g id="edge7" class="edge">
<title>/booru/src/booru_factory.dart&#45;&gt;/booru/src/booru.dart</title>
<path fill="none" stroke="black" stroke-width="1.3" d="M802.53,-171.88C827.27,-178.74 856.42,-186.82 882.3,-193.99"/>
<polygon fill="black" stroke="black" stroke-width="1.3" points="881.08,-197.28 891.65,-196.58 882.95,-190.54 881.08,-197.28"/>
</g>
<!-- /booru/src/booru_factory.dart&#45;&gt;/booru/src/booru_type.dart -->
<g id="edge8" class="edge">
<title>/booru/src/booru_factory.dart&#45;&gt;/booru/src/booru_type.dart</title>
<path fill="none" stroke="black" stroke-width="1.3" d="M802.54,-147.49C856.66,-141.23 939.74,-136.27 1009.75,-152 1030.44,-156.65 1051.71,-165.02 1070.86,-174.09"/>
<polygon fill="black" stroke="black" stroke-width="1.3" points="1069.28,-177.22 1079.8,-178.48 1072.36,-170.93 1069.28,-177.22"/>
</g>
<!-- /booru/src/providers.dart&#45;&gt;/booru/src/booru.dart -->
<g id="edge9" class="edge">
<title>/booru/src/providers.dart&#45;&gt;/booru/src/booru.dart</title>
<path fill="none" stroke="black" stroke-width="1.3" d="M594.77,-77.65C658.43,-67.81 759.52,-60.7 838,-95 863.23,-106.03 885.56,-125.67 903.57,-145.81"/>
<polygon fill="black" stroke="black" stroke-width="1.3" points="900.81,-147.97 909.99,-153.26 906.11,-143.4 900.81,-147.97"/>
</g>
<!-- /booru/src/providers.dart&#45;&gt;/booru/src/booru_factory.dart -->
<g id="edge10" class="edge">
<title>/booru/src/providers.dart&#45;&gt;/booru/src/booru_factory.dart</title>
<path fill="none" stroke="black" stroke-width="1.3" d="M594.73,-109.27C619.8,-117.16 648.92,-126.32 674.7,-134.43"/>
<polygon fill="black" stroke="black" stroke-width="1.3" points="673.43,-137.7 684.02,-137.36 675.53,-131.02 673.43,-137.7"/>
</g>
<!-- /booru/src/loaders.dart&#45;&gt;/booru/src/booru.dart -->
<g id="edge11" class="edge">
<title>/booru/src/loaders.dart&#45;&gt;/booru/src/booru.dart</title>
<path fill="none" stroke="black" stroke-width="1.3" d="M594.74,-215.23C617.29,-215.95 643.06,-216.65 666.5,-217 742.71,-218.15 761.79,-218.35 838,-217 852.17,-216.75 867.33,-216.32 881.8,-215.84"/>
<polygon fill="black" stroke="black" stroke-width="1.3" points="881.91,-219.33 891.79,-215.49 881.67,-212.34 881.91,-219.33"/>
</g>
<!-- /booru/src/loaders.dart&#45;&gt;/booru/src/booru_factory.dart -->
<g id="edge12" class="edge">
<title>/booru/src/loaders.dart&#45;&gt;/booru/src/booru_factory.dart</title>
<path fill="none" stroke="black" stroke-width="1.3" d="M594.73,-196.36C619.69,-189.58 648.66,-181.71 674.35,-174.72"/>
<polygon fill="black" stroke="black" stroke-width="1.3" points="675.27,-178.1 684,-172.1 673.43,-171.35 675.27,-178.1"/>
</g>
<!-- /engine/providers.dart -->
<g id="node8" class="node">
<title>/engine/providers.dart</title>
<path fill="Lavender" stroke="black" stroke-width="1.3" d="M578.38,-589C578.38,-589 486.62,-589 486.62,-589 480.62,-589 474.62,-583 474.62,-577 474.62,-577 474.62,-485 474.62,-485 474.62,-479 480.62,-473 486.62,-473 486.62,-473 578.38,-473 578.38,-473 584.38,-473 590.38,-479 590.38,-485 590.38,-485 590.38,-577 590.38,-577 590.38,-583 584.38,-589 578.38,-589"/>
<text text-anchor="middle" x="532.5" y="-570.75" font-family="Arial" font-size="15.00">providers </text>
<text text-anchor="middle" x="532.5" y="-552.75" font-family="Arial" font-size="15.00"> cd: 9 </text>
<text text-anchor="middle" x="532.5" y="-534.75" font-family="Arial" font-size="15.00"> inDegree: 1 </text>
<text text-anchor="middle" x="532.5" y="-516.75" font-family="Arial" font-size="15.00"> outDegree: 1 </text>
<text text-anchor="middle" x="532.5" y="-498.75" font-family="Arial" font-size="15.00"> instability: 0.5 </text>
<text text-anchor="middle" x="532.5" y="-480.75" font-family="Arial" font-size="15.00"> sloc: 1</text>
</g>
<!-- /engine/src/providers.dart -->
<g id="node12" class="node">
<title>/engine/src/providers.dart</title>
<path fill="Lavender" stroke="black" stroke-width="1.3" d="M144,-721C144,-721 44,-721 44,-721 38,-721 32,-715 32,-709 32,-709 32,-617 32,-617 32,-611 38,-605 44,-605 44,-605 144,-605 144,-605 150,-605 156,-611 156,-617 156,-617 156,-709 156,-709 156,-715 150,-721 144,-721"/>
<text text-anchor="middle" x="94" y="-702.75" font-family="Arial" font-size="15.00">providers </text>
<text text-anchor="middle" x="94" y="-684.75" font-family="Arial" font-size="15.00"> cd: 8 </text>
<text text-anchor="middle" x="94" y="-666.75" font-family="Arial" font-size="15.00"> inDegree: 1 </text>
<text text-anchor="middle" x="94" y="-648.75" font-family="Arial" font-size="15.00"> outDegree: 2 </text>
<text text-anchor="middle" x="94" y="-630.75" font-family="Arial" font-size="15.00"> instability: 0.67 </text>
<text text-anchor="middle" x="94" y="-612.75" font-family="Arial" font-size="15.00"> sloc: 38</text>
</g>
<!-- /engine/providers.dart&#45;&gt;/engine/src/providers.dart -->
<g id="edge13" class="edge">
<title>/engine/providers.dart&#45;&gt;/engine/src/providers.dart</title>
<path fill="none" stroke="black" stroke-width="1.3" stroke-dasharray="5,2" d="M474.17,-541.5C413.62,-553.33 315.8,-574.54 234,-602 211.87,-609.43 188.42,-619.02 167.21,-628.38"/>
<polygon fill="black" stroke="black" stroke-width="1.3" points="165.83,-625.16 158.13,-632.44 168.69,-631.55 165.83,-625.16"/>
</g>
<!-- /engine/engine.dart -->
<g id="node9" class="node">
<title>/engine/engine.dart</title>
<path fill="Lavender" stroke="black" stroke-width="1.3" d="M139.88,-1008C139.88,-1008 48.12,-1008 48.12,-1008 42.12,-1008 36.12,-1002 36.12,-996 36.12,-996 36.12,-904 36.12,-904 36.12,-898 42.12,-892 48.12,-892 48.12,-892 139.88,-892 139.88,-892 145.88,-892 151.88,-898 151.88,-904 151.88,-904 151.88,-996 151.88,-996 151.88,-1002 145.88,-1008 139.88,-1008"/>
<text text-anchor="middle" x="94" y="-989.75" font-family="Arial" font-size="15.00">engine </text>
<text text-anchor="middle" x="94" y="-971.75" font-family="Arial" font-size="15.00"> cd: 11 </text>
<text text-anchor="middle" x="94" y="-953.75" font-family="Arial" font-size="15.00"> inDegree: 0 </text>
<text text-anchor="middle" x="94" y="-935.75" font-family="Arial" font-size="15.00"> outDegree: 4 </text>
<text text-anchor="middle" x="94" y="-917.75" font-family="Arial" font-size="15.00"> instability: 1.0 </text>
<text text-anchor="middle" x="94" y="-899.75" font-family="Arial" font-size="15.00"> sloc: 4</text>
</g>
<!-- /engine/src/booru_builder.dart -->
<g id="node10" class="node">
<title>/engine/src/booru_builder.dart</title>
<path fill="Lavender" stroke="black" stroke-width="1.3" d="M578.38,-787C578.38,-787 486.62,-787 486.62,-787 480.62,-787 474.62,-781 474.62,-775 474.62,-775 474.62,-683 474.62,-683 474.62,-677 480.62,-671 486.62,-671 486.62,-671 578.38,-671 578.38,-671 584.38,-671 590.38,-677 590.38,-683 590.38,-683 590.38,-775 590.38,-775 590.38,-781 584.38,-787 578.38,-787"/>
<text text-anchor="middle" x="532.5" y="-768.75" font-family="Arial" font-size="15.00">booru_builder </text>
<text text-anchor="middle" x="532.5" y="-750.75" font-family="Arial" font-size="15.00"> cd: 2 </text>
<text text-anchor="middle" x="532.5" y="-732.75" font-family="Arial" font-size="15.00"> inDegree: 4 </text>
<text text-anchor="middle" x="532.5" y="-714.75" font-family="Arial" font-size="15.00"> outDegree: 1 </text>
<text text-anchor="middle" x="532.5" y="-696.75" font-family="Arial" font-size="15.00"> instability: 0.2 </text>
<text text-anchor="middle" x="532.5" y="-678.75" font-family="Arial" font-size="15.00"> sloc: 29</text>
</g>
<!-- /engine/engine.dart&#45;&gt;/engine/src/booru_builder.dart -->
<g id="edge14" class="edge">
<title>/engine/engine.dart&#45;&gt;/engine/src/booru_builder.dart</title>
<path fill="none" stroke="black" stroke-width="1.3" stroke-dasharray="5,2" d="M152.22,-941.3C216.02,-929.67 320.47,-904.74 398.5,-857 433.35,-835.68 433.06,-819.34 462.5,-791 463.58,-789.96 464.67,-788.92 465.77,-787.87"/>
<polygon fill="black" stroke="black" stroke-width="1.3" points="468.04,-790.54 472.93,-781.13 463.25,-785.44 468.04,-790.54"/>
</g>
<!-- /engine/src/booru_engine.dart -->
<g id="node11" class="node">
<title>/engine/src/booru_engine.dart</title>
<path fill="Lavender" stroke="black" stroke-width="1.3" d="M362.12,-721C362.12,-721 270.38,-721 270.38,-721 264.38,-721 258.38,-715 258.38,-709 258.38,-709 258.38,-617 258.38,-617 258.38,-611 264.38,-605 270.38,-605 270.38,-605 362.12,-605 362.12,-605 368.12,-605 374.12,-611 374.12,-617 374.12,-617 374.12,-709 374.12,-709 374.12,-715 368.12,-721 362.12,-721"/>
<text text-anchor="middle" x="316.25" y="-702.75" font-family="Arial" font-size="15.00">booru_engine </text>
<text text-anchor="middle" x="316.25" y="-684.75" font-family="Arial" font-size="15.00"> cd: 7 </text>
<text text-anchor="middle" x="316.25" y="-666.75" font-family="Arial" font-size="15.00"> inDegree: 2 </text>
<text text-anchor="middle" x="316.25" y="-648.75" font-family="Arial" font-size="15.00"> outDegree: 2 </text>
<text text-anchor="middle" x="316.25" y="-630.75" font-family="Arial" font-size="15.00"> instability: 0.5 </text>
<text text-anchor="middle" x="316.25" y="-612.75" font-family="Arial" font-size="15.00"> sloc: 42</text>
</g>
<!-- /engine/engine.dart&#45;&gt;/engine/src/booru_engine.dart -->
<g id="edge17" class="edge">
<title>/engine/engine.dart&#45;&gt;/engine/src/booru_engine.dart</title>
<path fill="none" stroke="black" stroke-width="1.3" stroke-dasharray="5,2" d="M152.17,-897.47C155.66,-893.39 158.98,-889.21 162,-885 205.37,-824.61 189.08,-793.24 234,-734 238.71,-727.78 244.05,-721.71 249.67,-715.9"/>
<polygon fill="black" stroke="black" stroke-width="1.3" points="252.03,-718.48 256.68,-708.96 247.11,-713.51 252.03,-718.48"/>
</g>
<!-- /engine/src/booru_builder_types.dart -->
<g id="node13" class="node">
<title>/engine/src/booru_builder_types.dart</title>
<path fill="Lavender" stroke="black" stroke-width="1.3" d="M810,-853C810,-853 678.5,-853 678.5,-853 672.5,-853 666.5,-847 666.5,-841 666.5,-841 666.5,-749 666.5,-749 666.5,-743 672.5,-737 678.5,-737 678.5,-737 810,-737 810,-737 816,-737 822,-743 822,-749 822,-749 822,-841 822,-841 822,-847 816,-853 810,-853"/>
<text text-anchor="middle" x="744.25" y="-834.75" font-family="Arial" font-size="15.00">booru_builder_types </text>
<text text-anchor="middle" x="744.25" y="-816.75" font-family="Arial" font-size="15.00"> cd: 1 </text>
<text text-anchor="middle" x="744.25" y="-798.75" font-family="Arial" font-size="15.00"> inDegree: 3 </text>
<text text-anchor="middle" x="744.25" y="-780.75" font-family="Arial" font-size="15.00"> outDegree: 0 </text>
<text text-anchor="middle" x="744.25" y="-762.75" font-family="Arial" font-size="15.00"> instability: 0.0 </text>
<text text-anchor="middle" x="744.25" y="-744.75" font-family="Arial" font-size="15.00"> sloc: 132</text>
</g>
<!-- /engine/engine.dart&#45;&gt;/engine/src/booru_builder_types.dart -->
<g id="edge15" class="edge">
<title>/engine/engine.dart&#45;&gt;/engine/src/booru_builder_types.dart</title>
<path fill="none" stroke="black" stroke-width="1.3" stroke-dasharray="5,2" d="M152.35,-940.26C213.59,-929.52 313.35,-911.1 398.5,-891 486.28,-870.28 585.37,-842.19 654.71,-821.75"/>
<polygon fill="black" stroke="black" stroke-width="1.3" points="655.52,-825.16 664.12,-818.97 653.53,-818.45 655.52,-825.16"/>
</g>
<!-- /engine/src/booru_builder_default.dart -->
<g id="node14" class="node">
<title>/engine/src/booru_builder_default.dart</title>
<path fill="Lavender" stroke="black" stroke-width="1.3" d="M386.5,-853C386.5,-853 246,-853 246,-853 240,-853 234,-847 234,-841 234,-841 234,-749 234,-749 234,-743 240,-737 246,-737 246,-737 386.5,-737 386.5,-737 392.5,-737 398.5,-743 398.5,-749 398.5,-749 398.5,-841 398.5,-841 398.5,-847 392.5,-853 386.5,-853"/>
<text text-anchor="middle" x="316.25" y="-834.75" font-family="Arial" font-size="15.00">booru_builder_default </text>
<text text-anchor="middle" x="316.25" y="-816.75" font-family="Arial" font-size="15.00"> cd: 10 </text>
<text text-anchor="middle" x="316.25" y="-798.75" font-family="Arial" font-size="15.00"> inDegree: 1 </text>
<text text-anchor="middle" x="316.25" y="-780.75" font-family="Arial" font-size="15.00"> outDegree: 3 </text>
<text text-anchor="middle" x="316.25" y="-762.75" font-family="Arial" font-size="15.00"> instability: 0.75 </text>
<text text-anchor="middle" x="316.25" y="-744.75" font-family="Arial" font-size="15.00"> sloc: 325</text>
</g>
<!-- /engine/engine.dart&#45;&gt;/engine/src/booru_builder_default.dart -->
<g id="edge16" class="edge">
<title>/engine/engine.dart&#45;&gt;/engine/src/booru_builder_default.dart</title>
<path fill="none" stroke="black" stroke-width="1.3" stroke-dasharray="5,2" d="M152.29,-909.68C174.24,-894.24 199.84,-876.22 224.17,-859.09"/>
<polygon fill="black" stroke="black" stroke-width="1.3" points="226.01,-862.08 232.17,-853.46 221.98,-856.36 226.01,-862.08"/>
</g>
<!-- /engine/src/booru_builder.dart&#45;&gt;/engine/src/booru_builder_types.dart -->
<g id="edge18" class="edge">
<title>/engine/src/booru_builder.dart&#45;&gt;/engine/src/booru_builder_types.dart</title>
<path fill="none" stroke="black" stroke-width="1.3" d="M590.82,-747.03C610.65,-753.28 633.36,-760.42 655.09,-767.26"/>
<polygon fill="black" stroke="black" stroke-width="1.3" points="653.87,-770.55 664.46,-770.21 655.97,-763.87 653.87,-770.55"/>
</g>
<!-- /engine/src/booru_engine.dart&#45;&gt;/booru/booru.dart -->
<g id="edge19" class="edge">
<title>/engine/src/booru_engine.dart&#45;&gt;/booru/booru.dart</title>
<path fill="none" stroke="black" stroke-width="1.3" d="M359.58,-604.72C394.81,-556.21 445.01,-487.08 482.08,-436.05"/>
<polygon fill="black" stroke="black" stroke-width="1.3" points="484.88,-438.15 487.92,-428.01 479.21,-434.04 484.88,-438.15"/>
</g>
<!-- /engine/src/booru_engine.dart&#45;&gt;/engine/src/booru_builder.dart -->
<g id="edge20" class="edge">
<title>/engine/src/booru_engine.dart&#45;&gt;/engine/src/booru_builder.dart</title>
<path fill="none" stroke="black" stroke-width="1.3" d="M374.38,-680.6C401.63,-688.99 434.45,-699.1 463.02,-707.9"/>
<polygon fill="black" stroke="black" stroke-width="1.3" points="461.69,-711.16 472.27,-710.76 463.75,-704.47 461.69,-711.16"/>
</g>
<!-- /engine/src/providers.dart&#45;&gt;/engine/src/booru_builder.dart -->
<g id="edge21" class="edge">
<title>/engine/src/providers.dart&#45;&gt;/engine/src/booru_builder.dart</title>
<path fill="none" stroke="black" stroke-width="1.3" d="M156.19,-696.11C179.8,-707.2 207.48,-718.2 234,-724 275.91,-733.16 388.7,-732.54 462.73,-730.97"/>
<polygon fill="black" stroke="black" stroke-width="1.3" points="462.37,-734.48 472.29,-730.76 462.22,-727.48 462.37,-734.48"/>
</g>
<!-- /engine/src/providers.dart&#45;&gt;/engine/src/booru_engine.dart -->
<g id="edge22" class="edge">
<title>/engine/src/providers.dart&#45;&gt;/engine/src/booru_engine.dart</title>
<path fill="none" stroke="black" stroke-width="1.3" d="M156.35,-663C184.32,-663 217.55,-663 246.37,-663"/>
<polygon fill="black" stroke="black" stroke-width="1.3" points="246.04,-666.5 256.04,-663 246.04,-659.5 246.04,-666.5"/>
</g>
<!-- /engine/src/booru_builder_default.dart&#45;&gt;/engine/providers.dart -->
<g id="edge23" class="edge">
<title>/engine/src/booru_builder_default.dart&#45;&gt;/engine/providers.dart</title>
<path fill="none" stroke="black" stroke-width="1.3" d="M388.58,-736.7C392.08,-732.88 395.42,-728.97 398.5,-725 437.75,-674.44 424.39,-647.42 462.5,-596 463.86,-594.17 465.27,-592.34 466.74,-590.52"/>
<polygon fill="black" stroke="black" stroke-width="1.3" points="469.26,-592.95 473.09,-583.08 463.94,-588.41 469.26,-592.95"/>
</g>
<!-- /engine/src/booru_builder_default.dart&#45;&gt;/engine/src/booru_builder.dart -->
<g id="edge24" class="edge">
<title>/engine/src/booru_builder_default.dart&#45;&gt;/engine/src/booru_builder.dart</title>
<path fill="none" stroke="black" stroke-width="1.3" d="M398.86,-769.86C420.01,-763.34 442.58,-756.39 462.98,-750.11"/>
<polygon fill="black" stroke="black" stroke-width="1.3" points="463.99,-753.46 472.52,-747.17 461.93,-746.77 463.99,-753.46"/>
</g>
<!-- /engine/src/booru_builder_default.dart&#45;&gt;/engine/src/booru_builder_types.dart -->
<g id="edge25" class="edge">
<title>/engine/src/booru_builder_default.dart&#45;&gt;/engine/src/booru_builder_types.dart</title>
<path fill="none" stroke="black" stroke-width="1.3" d="M398.88,-795C472.04,-795 579.11,-795 654.4,-795"/>
<polygon fill="black" stroke="black" stroke-width="1.3" points="654.23,-798.5 664.23,-795 654.23,-791.5 654.23,-798.5"/>
</g>
<!-- metrics -->
<g id="node15" class="node">
<title>metrics</title>
<path fill="Lavender" stroke="black" stroke-width="1.3" d="M150,-1266C150,-1266 38,-1266 38,-1266 32,-1266 26,-1260 26,-1254 26,-1254 26,-1090 26,-1090 26,-1084 32,-1078 38,-1078 38,-1078 150,-1078 150,-1078 156,-1078 162,-1084 162,-1090 162,-1090 162,-1254 162,-1254 162,-1260 156,-1266 150,-1266"/>
<text text-anchor="start" x="34" y="-1247.75" font-family="Arial" font-size="15.00"> isAcyclic: true </text>
<text text-anchor="start" x="34" y="-1229.75" font-family="Arial" font-size="15.00"> numNodes: 14 &#160;</text>
<text text-anchor="start" x="34" y="-1211.75" font-family="Arial" font-size="15.00"> numEdges: 25 &#160;</text>
<text text-anchor="start" x="34" y="-1193.75" font-family="Arial" font-size="15.00"> avgDegree: 1.79 </text>
<text text-anchor="start" x="34" y="-1175.75" font-family="Arial" font-size="15.00"> numOrphans: 0 </text>
<text text-anchor="start" x="34" y="-1157.75" font-family="Arial" font-size="15.00"> ccd: 72 </text>
<text text-anchor="start" x="34" y="-1139.75" font-family="Arial" font-size="15.00"> acd: 5.14 </text>
<text text-anchor="start" x="34" y="-1121.75" font-family="Arial" font-size="15.00"> nccd: 1.61 </text>
<text text-anchor="start" x="34" y="-1103.75" font-family="Arial" font-size="15.00"> totalSloc: 1183 </text>
<text text-anchor="start" x="34" y="-1085.75" font-family="Arial" font-size="15.00"> avgSloc: 84.5 </text>
</g>
</g>
</svg>
