<?xml version="1.0" encoding="UTF-8" standalone="no"?>
<!DOCTYPE svg PUBLIC "-//W3C//DTD SVG 1.1//EN"
 "http://www.w3.org/Graphics/SVG/1.1/DTD/svg11.dtd">
<!-- Generated by graphviz version 12.2.0 (20241103.1931)
 -->
<!-- Pages: 1 -->
<svg width="2463pt" height="1361pt"
 viewBox="0.00 0.00 2463.00 1361.00" xmlns="http://www.w3.org/2000/svg" xmlns:xlink="http://www.w3.org/1999/xlink">
<g id="graph0" class="graph" transform="scale(1 1) rotate(0) translate(0 1361)">
<polygon fill="white" stroke="none" points="0,0 0,-1361 2463,-1361 2463,0 0,0"/>
<g id="clust1" class="cluster">
<title>cluster~</title>
<path fill="none" stroke="black" stroke-width="2.6" d="M43,-8C43,-8 2443,-8 2443,-8 2449,-8 2455,-14 2455,-20 2455,-20 2455,-1153 2455,-1153 2455,-1159 2449,-1165 2443,-1165 2443,-1165 43,-1165 43,-1165 37,-1165 31,-1159 31,-1153 31,-1153 31,-20 31,-20 31,-14 37,-8 43,-8"/>
<text text-anchor="middle" x="1243" y="-1148.65" font-family="Arial Black" font-size="13.00">configs</text>
</g>
<g id="clust2" class="cluster">
<title>cluster~/validator</title>
<path fill="none" stroke="black" stroke-width="2.6" d="M587.5,-16C587.5,-16 1165.25,-16 1165.25,-16 1171.25,-16 1177.25,-22 1177.25,-28 1177.25,-28 1177.25,-79 1177.25,-79 1177.25,-85 1171.25,-91 1165.25,-91 1165.25,-91 587.5,-91 587.5,-91 581.5,-91 575.5,-85 575.5,-79 575.5,-79 575.5,-28 575.5,-28 575.5,-22 581.5,-16 587.5,-16"/>
<text text-anchor="middle" x="876.38" y="-74.65" font-family="Arial Black" font-size="13.00">validator</text>
</g>
<g id="clust3" class="cluster">
<title>cluster~/manage</title>
<path fill="none" stroke="black" stroke-width="2.6" d="M1214.5,-273C1214.5,-273 1806.5,-273 1806.5,-273 1812.5,-273 1818.5,-279 1818.5,-285 1818.5,-285 1818.5,-518 1818.5,-518 1818.5,-524 1812.5,-530 1806.5,-530 1806.5,-530 1214.5,-530 1214.5,-530 1208.5,-530 1202.5,-524 1202.5,-518 1202.5,-518 1202.5,-285 1202.5,-285 1202.5,-279 1208.5,-273 1214.5,-273"/>
<text text-anchor="middle" x="1510.5" y="-513.65" font-family="Arial Black" font-size="13.00">manage</text>
</g>
<g id="clust4" class="cluster">
<title>cluster~/export_import</title>
<path fill="none" stroke="black" stroke-width="2.6" d="M1850.5,-489C1850.5,-489 2435,-489 2435,-489 2441,-489 2447,-495 2447,-501 2447,-501 2447,-590 2447,-590 2447,-596 2441,-602 2435,-602 2435,-602 1850.5,-602 1850.5,-602 1844.5,-602 1838.5,-596 1838.5,-590 1838.5,-590 1838.5,-501 1838.5,-501 1838.5,-495 1844.5,-489 1850.5,-489"/>
<text text-anchor="middle" x="2142.75" y="-585.65" font-family="Arial Black" font-size="13.00">export_import</text>
</g>
<g id="clust5" class="cluster">
<title>cluster~/create</title>
<path fill="none" stroke="black" stroke-width="2.6" d="M176,-380C176,-380 1170.5,-380 1170.5,-380 1176.5,-380 1182.5,-386 1182.5,-392 1182.5,-392 1182.5,-959 1182.5,-959 1182.5,-965 1176.5,-971 1170.5,-971 1170.5,-971 176,-971 176,-971 170,-971 164,-965 164,-959 164,-959 164,-392 164,-392 164,-386 170,-380 176,-380"/>
<text text-anchor="middle" x="673.25" y="-954.65" font-family="Arial Black" font-size="13.00">create</text>
</g>
<!-- /booru_config_auth_failsafe.dart -->
<g id="node1" class="node">
<title>/booru_config_auth_failsafe.dart</title>
<path fill="Lavender" stroke="black" stroke-width="1.3" d="M740.88,-280C740.88,-280 569.62,-280 569.62,-280 563.62,-280 557.62,-274 557.62,-268 557.62,-268 557.62,-256 557.62,-256 557.62,-250 563.62,-244 569.62,-244 569.62,-244 740.88,-244 740.88,-244 746.88,-244 752.88,-250 752.88,-256 752.88,-256 752.88,-268 752.88,-268 752.88,-274 746.88,-280 740.88,-280"/>
<text text-anchor="middle" x="655.25" y="-256.75" font-family="Arial" font-size="15.00">booru_config_auth_failsafe</text>
</g>
<!-- /providers.dart -->
<g id="node12" class="node">
<title>/providers.dart</title>
<path fill="Lavender" stroke="black" stroke-width="1.3" d="M978.12,-310C978.12,-310 924.62,-310 924.62,-310 918.62,-310 912.62,-304 912.62,-298 912.62,-298 912.62,-286 912.62,-286 912.62,-280 918.62,-274 924.62,-274 924.62,-274 978.12,-274 978.12,-274 984.12,-274 990.12,-280 990.12,-286 990.12,-286 990.12,-298 990.12,-298 990.12,-304 984.12,-310 978.12,-310"/>
<text text-anchor="middle" x="951.38" y="-286.75" font-family="Arial" font-size="15.00">providers</text>
</g>
<!-- /booru_config_auth_failsafe.dart&#45;&gt;/providers.dart -->
<g id="edge1" class="edge">
<title>/booru_config_auth_failsafe.dart&#45;&gt;/providers.dart</title>
<path fill="none" stroke="black" stroke-width="1.3" d="M753.37,-271.91C802.5,-276.92 860.07,-282.79 900.25,-286.89"/>
<polygon fill="black" stroke="black" stroke-width="1.3" points="899.86,-290.37 910.17,-287.9 900.58,-283.4 899.86,-290.37"/>
</g>
<!-- /validator/booru_url_validator.dart -->
<g id="node2" class="node">
<title>/validator/booru_url_validator.dart</title>
<path fill="Lavender" stroke="black" stroke-width="1.3" d="M715,-60C715,-60 595.5,-60 595.5,-60 589.5,-60 583.5,-54 583.5,-48 583.5,-48 583.5,-36 583.5,-36 583.5,-30 589.5,-24 595.5,-24 595.5,-24 715,-24 715,-24 721,-24 727,-30 727,-36 727,-36 727,-48 727,-48 727,-54 721,-60 715,-60"/>
<text text-anchor="middle" x="655.25" y="-36.75" font-family="Arial" font-size="15.00">booru_url_validator</text>
</g>
<!-- /validator/booru_url_error.dart -->
<g id="node3" class="node">
<title>/validator/booru_url_error.dart</title>
<path fill="Lavender" stroke="black" stroke-width="1.3" d="M999.12,-60C999.12,-60 903.62,-60 903.62,-60 897.62,-60 891.62,-54 891.62,-48 891.62,-48 891.62,-36 891.62,-36 891.62,-30 897.62,-24 903.62,-24 903.62,-24 999.12,-24 999.12,-24 1005.12,-24 1011.12,-30 1011.12,-36 1011.12,-36 1011.12,-48 1011.12,-48 1011.12,-54 1005.12,-60 999.12,-60"/>
<text text-anchor="middle" x="951.38" y="-36.75" font-family="Arial" font-size="15.00">booru_url_error</text>
</g>
<!-- /validator/booru_url_validator.dart&#45;&gt;/validator/booru_url_error.dart -->
<g id="edge2" class="edge">
<title>/validator/booru_url_validator.dart&#45;&gt;/validator/booru_url_error.dart</title>
<path fill="none" stroke="black" stroke-width="1.3" d="M727.45,-42C773.59,-42 833.44,-42 879.51,-42"/>
<polygon fill="black" stroke="black" stroke-width="1.3" points="879.25,-45.5 889.25,-42 879.25,-38.5 879.25,-45.5"/>
</g>
<!-- /validator/uri_utils.dart -->
<g id="node4" class="node">
<title>/validator/uri_utils.dart</title>
<path fill="Lavender" stroke="black" stroke-width="1.3" d="M1157.25,-60C1157.25,-60 1114.25,-60 1114.25,-60 1108.25,-60 1102.25,-54 1102.25,-48 1102.25,-48 1102.25,-36 1102.25,-36 1102.25,-30 1108.25,-24 1114.25,-24 1114.25,-24 1157.25,-24 1157.25,-24 1163.25,-24 1169.25,-30 1169.25,-36 1169.25,-36 1169.25,-48 1169.25,-48 1169.25,-54 1163.25,-60 1157.25,-60"/>
<text text-anchor="middle" x="1135.75" y="-36.75" font-family="Arial" font-size="15.00">uri_utils</text>
</g>
<!-- /validator/booru_url_error.dart&#45;&gt;/validator/uri_utils.dart -->
<g id="edge3" class="edge">
<title>/validator/booru_url_error.dart&#45;&gt;/validator/uri_utils.dart</title>
<path fill="none" stroke="black" stroke-width="1.3" d="M1011.59,-42C1037.1,-42 1066.43,-42 1090.06,-42"/>
<polygon fill="black" stroke="black" stroke-width="1.3" points="1089.89,-45.5 1099.89,-42 1089.89,-38.5 1089.89,-45.5"/>
</g>
<!-- /create.dart -->
<g id="node5" class="node">
<title>/create.dart</title>
<path fill="Lavender" stroke="black" stroke-width="1.3" d="M85,-885C85,-885 51,-885 51,-885 45,-885 39,-879 39,-873 39,-873 39,-861 39,-861 39,-855 45,-849 51,-849 51,-849 85,-849 85,-849 91,-849 97,-855 97,-861 97,-861 97,-873 97,-873 97,-879 91,-885 85,-885"/>
<text text-anchor="middle" x="68" y="-861.75" font-family="Arial" font-size="15.00">create</text>
</g>
<!-- /create/scaffold.dart -->
<g id="node25" class="node">
<title>/create/scaffold.dart</title>
<path fill="Lavender" stroke="black" stroke-width="1.3" d="M454.12,-661C454.12,-661 411.12,-661 411.12,-661 405.12,-661 399.12,-655 399.12,-649 399.12,-649 399.12,-637 399.12,-637 399.12,-631 405.12,-625 411.12,-625 411.12,-625 454.12,-625 454.12,-625 460.12,-625 466.12,-631 466.12,-637 466.12,-637 466.12,-649 466.12,-649 466.12,-655 460.12,-661 454.12,-661"/>
<text text-anchor="middle" x="432.62" y="-637.75" font-family="Arial" font-size="15.00">scaffold</text>
</g>
<!-- /create.dart&#45;&gt;/create/scaffold.dart -->
<g id="edge14" class="edge">
<title>/create.dart&#45;&gt;/create/scaffold.dart</title>
<path fill="none" stroke="black" stroke-width="1.3" stroke-dasharray="5,2" d="M76.83,-848.6C90.25,-819.3 120.49,-762.29 164,-732 238.14,-680.38 276.25,-712.6 360.5,-680 370.02,-676.32 379.92,-671.71 389.2,-667.01"/>
<polygon fill="black" stroke="black" stroke-width="1.3" points="390.76,-670.14 398.01,-662.41 387.52,-663.94 390.76,-670.14"/>
</g>
<!-- /create/auth.dart -->
<g id="node26" class="node">
<title>/create/auth.dart</title>
<path fill="Lavender" stroke="black" stroke-width="1.3" d="M670.25,-716C670.25,-716 640.25,-716 640.25,-716 634.25,-716 628.25,-710 628.25,-704 628.25,-704 628.25,-692 628.25,-692 628.25,-686 634.25,-680 640.25,-680 640.25,-680 670.25,-680 670.25,-680 676.25,-680 682.25,-686 682.25,-692 682.25,-692 682.25,-704 682.25,-704 682.25,-710 676.25,-716 670.25,-716"/>
<text text-anchor="middle" x="655.25" y="-692.75" font-family="Arial" font-size="15.00">auth</text>
</g>
<!-- /create.dart&#45;&gt;/create/auth.dart -->
<g id="edge6" class="edge">
<title>/create.dart&#45;&gt;/create/auth.dart</title>
<path fill="none" stroke="black" stroke-width="1.3" stroke-dasharray="5,2" d="M97.41,-863.15C183.73,-851.27 438.84,-814.57 468.75,-792 497.31,-770.45 475.77,-740.98 504.75,-720 536.97,-696.67 583.47,-693.26 616.03,-694.36"/>
<polygon fill="black" stroke="black" stroke-width="1.3" points="615.64,-697.84 625.8,-694.86 616,-690.85 615.64,-697.84"/>
</g>
<!-- /create/create_anon_config_page.dart -->
<g id="node27" class="node">
<title>/create/create_anon_config_page.dart</title>
<path fill="Lavender" stroke="black" stroke-width="1.3" d="M348.5,-662C348.5,-662 184,-662 184,-662 178,-662 172,-656 172,-650 172,-650 172,-638 172,-638 172,-632 178,-626 184,-626 184,-626 348.5,-626 348.5,-626 354.5,-626 360.5,-632 360.5,-638 360.5,-638 360.5,-650 360.5,-650 360.5,-656 354.5,-662 348.5,-662"/>
<text text-anchor="middle" x="266.25" y="-638.75" font-family="Arial" font-size="15.00">create_anon_config_page</text>
</g>
<!-- /create.dart&#45;&gt;/create/create_anon_config_page.dart -->
<g id="edge8" class="edge">
<title>/create.dart&#45;&gt;/create/create_anon_config_page.dart</title>
<path fill="none" stroke="black" stroke-width="1.3" stroke-dasharray="5,2" d="M72.09,-848.65C79.47,-810.53 101.75,-722.21 162.68,-668.14"/>
<polygon fill="black" stroke="black" stroke-width="1.3" points="164.6,-671.1 170.03,-662.01 160.11,-665.73 164.6,-671.1"/>
</g>
<!-- /create/add_unknown_booru_page.dart -->
<g id="node28" class="node">
<title>/create/add_unknown_booru_page.dart</title>
<path fill="Lavender" stroke="black" stroke-width="1.3" d="M741.25,-424C741.25,-424 569.25,-424 569.25,-424 563.25,-424 557.25,-418 557.25,-412 557.25,-412 557.25,-400 557.25,-400 557.25,-394 563.25,-388 569.25,-388 569.25,-388 741.25,-388 741.25,-388 747.25,-388 753.25,-394 753.25,-400 753.25,-400 753.25,-412 753.25,-412 753.25,-418 747.25,-424 741.25,-424"/>
<text text-anchor="middle" x="655.25" y="-400.75" font-family="Arial" font-size="15.00">add_unknown_booru_page</text>
</g>
<!-- /create.dart&#45;&gt;/create/add_unknown_booru_page.dart -->
<g id="edge5" class="edge">
<title>/create.dart&#45;&gt;/create/add_unknown_booru_page.dart</title>
<path fill="none" stroke="black" stroke-width="1.3" stroke-dasharray="5,2" d="M71.25,-848.61C79.81,-781.74 112.47,-552.85 164,-504 265.8,-407.49 434.45,-393.78 544.97,-396.78"/>
<polygon fill="black" stroke="black" stroke-width="1.3" points="544.74,-400.28 554.85,-397.11 544.97,-393.28 544.74,-400.28"/>
</g>
<!-- /create/widgets.dart -->
<g id="node29" class="node">
<title>/create/widgets.dart</title>
<path fill="Lavender" stroke="black" stroke-width="1.3" d="M1156.88,-603C1156.88,-603 1114.62,-603 1114.62,-603 1108.62,-603 1102.62,-597 1102.62,-591 1102.62,-591 1102.62,-579 1102.62,-579 1102.62,-573 1108.62,-567 1114.62,-567 1114.62,-567 1156.88,-567 1156.88,-567 1162.88,-567 1168.88,-573 1168.88,-579 1168.88,-579 1168.88,-591 1168.88,-591 1168.88,-597 1162.88,-603 1156.88,-603"/>
<text text-anchor="middle" x="1135.75" y="-579.75" font-family="Arial" font-size="15.00">widgets</text>
</g>
<!-- /create.dart&#45;&gt;/create/widgets.dart -->
<g id="edge18" class="edge">
<title>/create.dart&#45;&gt;/create/widgets.dart</title>
<path fill="none" stroke="black" stroke-width="1.3" stroke-dasharray="5,2" d="M71.69,-885.45C78.67,-925.99 101.4,-1022.7 164,-1067 212.81,-1101.54 371.83,-1095 431.62,-1095 431.62,-1095 431.62,-1095 656.25,-1095 701.33,-1095 1028.94,-1098.69 1061,-1067 1131.71,-997.09 1054.21,-710.76 1097,-621 1098.46,-617.93 1100.3,-614.99 1102.39,-612.21"/>
<polygon fill="black" stroke="black" stroke-width="1.3" points="1104.88,-614.67 1108.87,-604.85 1099.64,-610.04 1104.88,-614.67"/>
</g>
<!-- /create/gestures.dart -->
<g id="node30" class="node">
<title>/create/gestures.dart</title>
<path fill="Lavender" stroke="black" stroke-width="1.3" d="M976.25,-940C976.25,-940 926.5,-940 926.5,-940 920.5,-940 914.5,-934 914.5,-928 914.5,-928 914.5,-916 914.5,-916 914.5,-910 920.5,-904 926.5,-904 926.5,-904 976.25,-904 976.25,-904 982.25,-904 988.25,-910 988.25,-916 988.25,-916 988.25,-928 988.25,-928 988.25,-934 982.25,-940 976.25,-940"/>
<text text-anchor="middle" x="951.38" y="-916.75" font-family="Arial" font-size="15.00">gestures</text>
</g>
<!-- /create.dart&#45;&gt;/create/gestures.dart -->
<g id="edge10" class="edge">
<title>/create.dart&#45;&gt;/create/gestures.dart</title>
<path fill="none" stroke="black" stroke-width="1.3" stroke-dasharray="5,2" d="M78.06,-885.11C92.33,-911.5 122.73,-959.79 164,-982 255.52,-1031.25 292.72,-1001.44 396.5,-1007 537.03,-1014.53 792.58,-993.63 805.75,-987 828.01,-975.79 820.33,-956.75 841.75,-944 859.98,-933.15 882.65,-927.57 902.56,-924.72"/>
<polygon fill="black" stroke="black" stroke-width="1.3" points="902.76,-928.23 912.27,-923.55 901.92,-921.28 902.76,-928.23"/>
</g>
<!-- /create/listing.dart -->
<g id="node31" class="node">
<title>/create/listing.dart</title>
<path fill="Lavender" stroke="black" stroke-width="1.3" d="M966.38,-796C966.38,-796 936.38,-796 936.38,-796 930.38,-796 924.38,-790 924.38,-784 924.38,-784 924.38,-772 924.38,-772 924.38,-766 930.38,-760 936.38,-760 936.38,-760 966.38,-760 966.38,-760 972.38,-760 978.38,-766 978.38,-772 978.38,-772 978.38,-784 978.38,-784 978.38,-790 972.38,-796 966.38,-796"/>
<text text-anchor="middle" x="951.38" y="-772.75" font-family="Arial" font-size="15.00">listing</text>
</g>
<!-- /create.dart&#45;&gt;/create/listing.dart -->
<g id="edge11" class="edge">
<title>/create.dart&#45;&gt;/create/listing.dart</title>
<path fill="none" stroke="black" stroke-width="1.3" stroke-dasharray="5,2" d="M96.75,-885.4C115.01,-896.38 139.91,-909.26 164,-915 233.36,-931.53 747.48,-956.09 805.75,-915 844.7,-887.54 807.68,-847.32 841.75,-814 860.74,-795.43 889.52,-786.44 912.69,-782.08"/>
<polygon fill="black" stroke="black" stroke-width="1.3" points="912.96,-785.59 922.27,-780.52 911.83,-778.68 912.96,-785.59"/>
</g>
<!-- /create/providers.dart -->
<g id="node32" class="node">
<title>/create/providers.dart</title>
<path fill="Lavender" stroke="black" stroke-width="1.3" d="M1162.5,-675C1162.5,-675 1109,-675 1109,-675 1103,-675 1097,-669 1097,-663 1097,-663 1097,-651 1097,-651 1097,-645 1103,-639 1109,-639 1109,-639 1162.5,-639 1162.5,-639 1168.5,-639 1174.5,-645 1174.5,-651 1174.5,-651 1174.5,-663 1174.5,-663 1174.5,-669 1168.5,-675 1162.5,-675"/>
<text text-anchor="middle" x="1135.75" y="-651.75" font-family="Arial" font-size="15.00">providers</text>
</g>
<!-- /create.dart&#45;&gt;/create/providers.dart -->
<g id="edge12" class="edge">
<title>/create.dart&#45;&gt;/create/providers.dart</title>
<path fill="none" stroke="black" stroke-width="1.3" stroke-dasharray="5,2" d="M70.18,-885.36C74.18,-931.04 91.44,-1050.11 164,-1105 259.38,-1177.15 312.03,-1133 431.62,-1133 431.62,-1133 431.62,-1133 656.25,-1133 836.57,-1133 927.64,-1226.37 1061,-1105 1122.74,-1048.81 1132.8,-778.92 1134.44,-687.41"/>
<polygon fill="black" stroke="black" stroke-width="1.3" points="1137.93,-687.51 1134.59,-677.46 1130.93,-687.4 1137.93,-687.51"/>
</g>
<!-- /create/viewer.dart -->
<g id="node33" class="node">
<title>/create/viewer.dart</title>
<path fill="Lavender" stroke="black" stroke-width="1.3" d="M672.62,-534C672.62,-534 637.88,-534 637.88,-534 631.88,-534 625.88,-528 625.88,-522 625.88,-522 625.88,-510 625.88,-510 625.88,-504 631.88,-498 637.88,-498 637.88,-498 672.62,-498 672.62,-498 678.62,-498 684.62,-504 684.62,-510 684.62,-510 684.62,-522 684.62,-522 684.62,-528 678.62,-534 672.62,-534"/>
<text text-anchor="middle" x="655.25" y="-510.75" font-family="Arial" font-size="15.00">viewer</text>
</g>
<!-- /create.dart&#45;&gt;/create/viewer.dart -->
<g id="edge17" class="edge">
<title>/create.dart&#45;&gt;/create/viewer.dart</title>
<path fill="none" stroke="black" stroke-width="1.3" stroke-dasharray="5,2" d="M83.9,-848.52C101.17,-828.24 131.45,-796.06 164,-777 286.78,-705.11 370.85,-782.24 468.75,-679 509.12,-636.43 462.45,-592.65 504.75,-552 533.72,-524.16 580.31,-516.61 613.78,-515.12"/>
<polygon fill="black" stroke="black" stroke-width="1.3" points="613.59,-518.63 623.49,-514.87 613.4,-511.63 613.59,-518.63"/>
</g>
<!-- /create/types.dart -->
<g id="node34" class="node">
<title>/create/types.dart</title>
<path fill="Lavender" stroke="black" stroke-width="1.3" d="M1150.75,-531C1150.75,-531 1120.75,-531 1120.75,-531 1114.75,-531 1108.75,-525 1108.75,-519 1108.75,-519 1108.75,-507 1108.75,-507 1108.75,-501 1114.75,-495 1120.75,-495 1120.75,-495 1150.75,-495 1150.75,-495 1156.75,-495 1162.75,-501 1162.75,-507 1162.75,-507 1162.75,-519 1162.75,-519 1162.75,-525 1156.75,-531 1150.75,-531"/>
<text text-anchor="middle" x="1135.75" y="-507.75" font-family="Arial" font-size="15.00">types</text>
</g>
<!-- /create.dart&#45;&gt;/create/types.dart -->
<g id="edge16" class="edge">
<title>/create.dart&#45;&gt;/create/types.dart</title>
<path fill="none" stroke="black" stroke-width="1.3" stroke-dasharray="5,2" d="M76.02,-885.32C88.66,-915.69 118.27,-976.06 164,-1006 265.3,-1072.34 310.54,-1057 431.62,-1057 431.62,-1057 431.62,-1057 656.25,-1057 748.85,-1057 1000.69,-1028.26 1061,-958 1120.43,-888.77 1057.44,-631.22 1097,-549 1098.47,-545.94 1100.32,-543 1102.41,-540.22"/>
<polygon fill="black" stroke="black" stroke-width="1.3" points="1104.91,-542.68 1108.91,-532.87 1099.66,-538.04 1104.91,-542.68"/>
</g>
<!-- /create/download.dart -->
<g id="node35" class="node">
<title>/create/download.dart</title>
<path fill="Lavender" stroke="black" stroke-width="1.3" d="M978.88,-868C978.88,-868 923.88,-868 923.88,-868 917.88,-868 911.88,-862 911.88,-856 911.88,-856 911.88,-844 911.88,-844 911.88,-838 917.88,-832 923.88,-832 923.88,-832 978.88,-832 978.88,-832 984.88,-832 990.88,-838 990.88,-844 990.88,-844 990.88,-856 990.88,-856 990.88,-862 984.88,-868 978.88,-868"/>
<text text-anchor="middle" x="951.38" y="-844.75" font-family="Arial" font-size="15.00">download</text>
</g>
<!-- /create.dart&#45;&gt;/create/download.dart -->
<g id="edge9" class="edge">
<title>/create.dart&#45;&gt;/create/download.dart</title>
<path fill="none" stroke="black" stroke-width="1.3" stroke-dasharray="5,2" d="M82.3,-885.36C98.75,-906.33 128.92,-939.48 164,-953 297.07,-1004.29 683.35,-1026.18 805.75,-953 834.76,-935.65 815.87,-907.75 841.75,-886 858.21,-872.16 880.18,-863.59 900.05,-858.31"/>
<polygon fill="black" stroke="black" stroke-width="1.3" points="900.63,-861.77 909.53,-856.02 898.99,-854.96 900.63,-861.77"/>
</g>
<!-- /create/riverpod_widgets.dart -->
<g id="node36" class="node">
<title>/create/riverpod_widgets.dart</title>
<path fill="Lavender" stroke="black" stroke-width="1.3" d="M1003.62,-538C1003.62,-538 899.12,-538 899.12,-538 893.12,-538 887.12,-532 887.12,-526 887.12,-526 887.12,-514 887.12,-514 887.12,-508 893.12,-502 899.12,-502 899.12,-502 1003.62,-502 1003.62,-502 1009.62,-502 1015.62,-508 1015.62,-514 1015.62,-514 1015.62,-526 1015.62,-526 1015.62,-532 1009.62,-538 1003.62,-538"/>
<text text-anchor="middle" x="951.38" y="-514.75" font-family="Arial" font-size="15.00">riverpod_widgets</text>
</g>
<!-- /create.dart&#45;&gt;/create/riverpod_widgets.dart -->
<g id="edge13" class="edge">
<title>/create.dart&#45;&gt;/create/riverpod_widgets.dart</title>
<path fill="none" stroke="black" stroke-width="1.3" stroke-dasharray="5,2" d="M97.33,-866.74C149.65,-865.9 264.83,-862.29 360.5,-847 562.1,-814.77 643.65,-858.12 805.75,-734 831.66,-714.16 824.15,-697.48 841.75,-670 869.95,-625.97 906.15,-577.35 928.81,-547.74"/>
<polygon fill="black" stroke="black" stroke-width="1.3" points="931.43,-550.08 934.75,-540.02 925.88,-545.81 931.43,-550.08"/>
</g>
<!-- /create/add_booru_page.dart -->
<g id="node37" class="node">
<title>/create/add_booru_page.dart</title>
<path fill="Lavender" stroke="black" stroke-width="1.3" d="M318.5,-558C318.5,-558 214,-558 214,-558 208,-558 202,-552 202,-546 202,-546 202,-534 202,-534 202,-528 208,-522 214,-522 214,-522 318.5,-522 318.5,-522 324.5,-522 330.5,-528 330.5,-534 330.5,-534 330.5,-546 330.5,-546 330.5,-552 324.5,-558 318.5,-558"/>
<text text-anchor="middle" x="266.25" y="-534.75" font-family="Arial" font-size="15.00">add_booru_page</text>
</g>
<!-- /create.dart&#45;&gt;/create/add_booru_page.dart -->
<g id="edge4" class="edge">
<title>/create.dart&#45;&gt;/create/add_booru_page.dart</title>
<path fill="none" stroke="black" stroke-width="1.3" stroke-dasharray="5,2" d="M71.7,-848.8C79.17,-803.69 103.67,-684.86 164,-608 178.01,-590.15 198.03,-575.33 216.58,-564.13"/>
<polygon fill="black" stroke="black" stroke-width="1.3" points="218.07,-567.31 224.98,-559.27 214.57,-561.25 218.07,-567.31"/>
</g>
<!-- /create/search.dart -->
<g id="node38" class="node">
<title>/create/search.dart</title>
<path fill="Lavender" stroke="black" stroke-width="1.3" d="M673.75,-606C673.75,-606 636.75,-606 636.75,-606 630.75,-606 624.75,-600 624.75,-594 624.75,-594 624.75,-582 624.75,-582 624.75,-576 630.75,-570 636.75,-570 636.75,-570 673.75,-570 673.75,-570 679.75,-570 685.75,-576 685.75,-582 685.75,-582 685.75,-594 685.75,-594 685.75,-600 679.75,-606 673.75,-606"/>
<text text-anchor="middle" x="655.25" y="-582.75" font-family="Arial" font-size="15.00">search</text>
</g>
<!-- /create.dart&#45;&gt;/create/search.dart -->
<g id="edge15" class="edge">
<title>/create.dart&#45;&gt;/create/search.dart</title>
<path fill="none" stroke="black" stroke-width="1.3" stroke-dasharray="5,2" d="M95.71,-848.73C114.15,-836.91 139.65,-822.09 164,-813 228.71,-788.85 415.66,-796.17 468.75,-752 501.87,-724.45 475.52,-693.64 504.75,-662 534.11,-630.22 580.11,-610.33 613.34,-599.28"/>
<polygon fill="black" stroke="black" stroke-width="1.3" points="614.16,-602.69 622.63,-596.33 612.04,-596.02 614.16,-602.69"/>
</g>
<!-- /create/cookie_access_webview_page.dart -->
<g id="node39" class="node">
<title>/create/cookie_access_webview_page.dart</title>
<path fill="Lavender" stroke="black" stroke-width="1.3" d="M1049,-724C1049,-724 853.75,-724 853.75,-724 847.75,-724 841.75,-718 841.75,-712 841.75,-712 841.75,-700 841.75,-700 841.75,-694 847.75,-688 853.75,-688 853.75,-688 1049,-688 1049,-688 1055,-688 1061,-694 1061,-700 1061,-700 1061,-712 1061,-712 1061,-718 1055,-724 1049,-724"/>
<text text-anchor="middle" x="951.38" y="-700.75" font-family="Arial" font-size="15.00">cookie_access_webview_page</text>
</g>
<!-- /create.dart&#45;&gt;/create/cookie_access_webview_page.dart -->
<g id="edge7" class="edge">
<title>/create.dart&#45;&gt;/create/cookie_access_webview_page.dart</title>
<path fill="none" stroke="black" stroke-width="1.3" stroke-dasharray="5,2" d="M97.21,-870.75C116.07,-873.07 141.48,-875.82 164,-877 235.21,-880.74 749.21,-920.44 805.75,-877 854.99,-839.17 799.16,-787.19 841.75,-742 845.9,-737.59 850.6,-733.73 855.67,-730.33"/>
<polygon fill="black" stroke="black" stroke-width="1.3" points="857.26,-733.46 864.1,-725.37 853.71,-727.43 857.26,-733.46"/>
</g>
<!-- /booru_config_repository_hive.dart -->
<g id="node6" class="node">
<title>/booru_config_repository_hive.dart</title>
<path fill="Lavender" stroke="black" stroke-width="1.3" d="M1583,-859C1583,-859 1395.25,-859 1395.25,-859 1389.25,-859 1383.25,-853 1383.25,-847 1383.25,-847 1383.25,-835 1383.25,-835 1383.25,-829 1389.25,-823 1395.25,-823 1395.25,-823 1583,-823 1583,-823 1589,-823 1595,-829 1595,-835 1595,-835 1595,-847 1595,-847 1595,-853 1589,-859 1583,-859"/>
<text text-anchor="middle" x="1489.12" y="-835.75" font-family="Arial" font-size="15.00">booru_config_repository_hive</text>
</g>
<!-- /booru_config.dart -->
<g id="node10" class="node">
<title>/booru_config.dart</title>
<path fill="Lavender" stroke="black" stroke-width="1.3" d="M1986.25,-684C1986.25,-684 1908,-684 1908,-684 1902,-684 1896,-678 1896,-672 1896,-672 1896,-660 1896,-660 1896,-654 1902,-648 1908,-648 1908,-648 1986.25,-648 1986.25,-648 1992.25,-648 1998.25,-654 1998.25,-660 1998.25,-660 1998.25,-672 1998.25,-672 1998.25,-678 1992.25,-684 1986.25,-684"/>
<text text-anchor="middle" x="1947.12" y="-660.75" font-family="Arial" font-size="15.00">booru_config</text>
</g>
<!-- /booru_config_repository_hive.dart&#45;&gt;/booru_config.dart -->
<g id="edge19" class="edge">
<title>/booru_config_repository_hive.dart&#45;&gt;/booru_config.dart</title>
<path fill="none" stroke="black" stroke-width="1.3" d="M1526.49,-822.62C1554.52,-808.97 1594.54,-790.61 1631,-778 1712.19,-749.91 1743.75,-773.35 1818.5,-731 1829.44,-724.8 1828.06,-718 1838.5,-711 1852.65,-701.51 1869.11,-693.41 1884.85,-686.79"/>
<polygon fill="black" stroke="black" stroke-width="1.3" points="1885.8,-690.18 1893.76,-683.19 1883.18,-683.69 1885.8,-690.18"/>
</g>
<!-- /types.dart -->
<g id="node13" class="node">
<title>/types.dart</title>
<path fill="Lavender" stroke="black" stroke-width="1.3" d="M2364.25,-840C2364.25,-840 2334.25,-840 2334.25,-840 2328.25,-840 2322.25,-834 2322.25,-828 2322.25,-828 2322.25,-816 2322.25,-816 2322.25,-810 2328.25,-804 2334.25,-804 2334.25,-804 2364.25,-804 2364.25,-804 2370.25,-804 2376.25,-810 2376.25,-816 2376.25,-816 2376.25,-828 2376.25,-828 2376.25,-834 2370.25,-840 2364.25,-840"/>
<text text-anchor="middle" x="2349.25" y="-816.75" font-family="Arial" font-size="15.00">types</text>
</g>
<!-- /booru_config_repository_hive.dart&#45;&gt;/types.dart -->
<g id="edge22" class="edge">
<title>/booru_config_repository_hive.dart&#45;&gt;/types.dart</title>
<path fill="none" stroke="black" stroke-width="1.3" d="M1595.32,-858.42C1607.33,-859.89 1619.41,-861.14 1631,-862 1893.76,-881.48 1961.44,-869.39 2223.5,-842 2252.8,-838.94 2285.69,-833.58 2310.35,-829.19"/>
<polygon fill="black" stroke="black" stroke-width="1.3" points="2310.93,-832.64 2320.14,-827.41 2309.68,-825.75 2310.93,-832.64"/>
</g>
<!-- /booru_config_data.dart -->
<g id="node14" class="node">
<title>/booru_config_data.dart</title>
<path fill="Lavender" stroke="black" stroke-width="1.3" d="M2211.5,-813C2211.5,-813 2095.75,-813 2095.75,-813 2089.75,-813 2083.75,-807 2083.75,-801 2083.75,-801 2083.75,-789 2083.75,-789 2083.75,-783 2089.75,-777 2095.75,-777 2095.75,-777 2211.5,-777 2211.5,-777 2217.5,-777 2223.5,-783 2223.5,-789 2223.5,-789 2223.5,-801 2223.5,-801 2223.5,-807 2217.5,-813 2211.5,-813"/>
<text text-anchor="middle" x="2153.62" y="-789.75" font-family="Arial" font-size="15.00">booru_config_data</text>
</g>
<!-- /booru_config_repository_hive.dart&#45;&gt;/booru_config_data.dart -->
<g id="edge21" class="edge">
<title>/booru_config_repository_hive.dart&#45;&gt;/booru_config_data.dart</title>
<path fill="none" stroke="black" stroke-width="1.3" d="M1595.48,-848.47C1607.45,-849.1 1619.49,-849.63 1631,-850 1714.29,-852.66 1735.42,-856.48 1818.5,-850 1921.32,-841.98 1946.06,-831.19 2047.75,-814 2055.47,-812.69 2063.51,-811.3 2071.54,-809.88"/>
<polygon fill="black" stroke="black" stroke-width="1.3" points="2072.11,-813.34 2081.34,-808.14 2070.88,-806.45 2072.11,-813.34"/>
</g>
<!-- /booru_config_converter.dart -->
<g id="node41" class="node">
<title>/booru_config_converter.dart</title>
<path fill="Lavender" stroke="black" stroke-width="1.3" d="M1795.5,-832C1795.5,-832 1646,-832 1646,-832 1640,-832 1634,-826 1634,-820 1634,-820 1634,-808 1634,-808 1634,-802 1640,-796 1646,-796 1646,-796 1795.5,-796 1795.5,-796 1801.5,-796 1807.5,-802 1807.5,-808 1807.5,-808 1807.5,-820 1807.5,-820 1807.5,-826 1801.5,-832 1795.5,-832"/>
<text text-anchor="middle" x="1720.75" y="-808.75" font-family="Arial" font-size="15.00">booru_config_converter</text>
</g>
<!-- /booru_config_repository_hive.dart&#45;&gt;/booru_config_converter.dart -->
<g id="edge20" class="edge">
<title>/booru_config_repository_hive.dart&#45;&gt;/booru_config_converter.dart</title>
<path fill="none" stroke="black" stroke-width="1.3" d="M1595.19,-828.65C1604.14,-827.59 1613.17,-826.53 1622.06,-825.49"/>
<polygon fill="black" stroke="black" stroke-width="1.3" points="1622.17,-829 1631.7,-824.35 1621.36,-822.05 1622.17,-829"/>
</g>
<!-- /manage.dart -->
<g id="node7" class="node">
<title>/manage.dart</title>
<path fill="Lavender" stroke="black" stroke-width="1.3" d="M1158.75,-370C1158.75,-370 1112.75,-370 1112.75,-370 1106.75,-370 1100.75,-364 1100.75,-358 1100.75,-358 1100.75,-346 1100.75,-346 1100.75,-340 1106.75,-334 1112.75,-334 1112.75,-334 1158.75,-334 1158.75,-334 1164.75,-334 1170.75,-340 1170.75,-346 1170.75,-346 1170.75,-358 1170.75,-358 1170.75,-364 1164.75,-370 1158.75,-370"/>
<text text-anchor="middle" x="1135.75" y="-346.75" font-family="Arial" font-size="15.00">manage</text>
</g>
<!-- /manage/booru_config_provider.dart -->
<g id="node15" class="node">
<title>/manage/booru_config_provider.dart</title>
<path fill="Lavender" stroke="black" stroke-width="1.3" d="M1559.38,-427C1559.38,-427 1418.88,-427 1418.88,-427 1412.88,-427 1406.88,-421 1406.88,-415 1406.88,-415 1406.88,-403 1406.88,-403 1406.88,-397 1412.88,-391 1418.88,-391 1418.88,-391 1559.38,-391 1559.38,-391 1565.38,-391 1571.38,-397 1571.38,-403 1571.38,-403 1571.38,-415 1571.38,-415 1571.38,-421 1565.38,-427 1559.38,-427"/>
<text text-anchor="middle" x="1489.12" y="-403.75" font-family="Arial" font-size="15.00">booru_config_provider</text>
</g>
<!-- /manage.dart&#45;&gt;/manage/booru_config_provider.dart -->
<g id="edge23" class="edge">
<title>/manage.dart&#45;&gt;/manage/booru_config_provider.dart</title>
<path fill="none" stroke="black" stroke-width="1.3" stroke-dasharray="5,2" d="M1170.96,-351.6C1212.87,-351.68 1285.86,-353.69 1347.25,-365 1374.35,-369.99 1403.53,-378.55 1428.28,-386.81"/>
<polygon fill="black" stroke="black" stroke-width="1.3" points="1426.85,-390.02 1437.45,-389.93 1429.11,-383.39 1426.85,-390.02"/>
</g>
<!-- /manage/booru_selector_item.dart -->
<g id="node16" class="node">
<title>/manage/booru_selector_item.dart</title>
<path fill="Lavender" stroke="black" stroke-width="1.3" d="M1553,-317C1553,-317 1425.25,-317 1425.25,-317 1419.25,-317 1413.25,-311 1413.25,-305 1413.25,-305 1413.25,-293 1413.25,-293 1413.25,-287 1419.25,-281 1425.25,-281 1425.25,-281 1553,-281 1553,-281 1559,-281 1565,-287 1565,-293 1565,-293 1565,-305 1565,-305 1565,-311 1559,-317 1553,-317"/>
<text text-anchor="middle" x="1489.12" y="-293.75" font-family="Arial" font-size="15.00">booru_selector_item</text>
</g>
<!-- /manage.dart&#45;&gt;/manage/booru_selector_item.dart -->
<g id="edge25" class="edge">
<title>/manage.dart&#45;&gt;/manage/booru_selector_item.dart</title>
<path fill="none" stroke="black" stroke-width="1.3" stroke-dasharray="5,2" d="M1171.06,-342.9C1181.14,-340.43 1192.22,-337.91 1202.5,-336 1268.7,-323.7 1344.3,-314.1 1401.08,-307.76"/>
<polygon fill="black" stroke="black" stroke-width="1.3" points="1401.39,-311.25 1410.94,-306.68 1400.62,-304.29 1401.39,-311.25"/>
</g>
<!-- /manage/current_booru_tile.dart -->
<g id="node17" class="node">
<title>/manage/current_booru_tile.dart</title>
<path fill="Lavender" stroke="black" stroke-width="1.3" d="M1335.25,-491C1335.25,-491 1222.5,-491 1222.5,-491 1216.5,-491 1210.5,-485 1210.5,-479 1210.5,-479 1210.5,-467 1210.5,-467 1210.5,-461 1216.5,-455 1222.5,-455 1222.5,-455 1335.25,-455 1335.25,-455 1341.25,-455 1347.25,-461 1347.25,-467 1347.25,-467 1347.25,-479 1347.25,-479 1347.25,-485 1341.25,-491 1335.25,-491"/>
<text text-anchor="middle" x="1278.88" y="-467.75" font-family="Arial" font-size="15.00">current_booru_tile</text>
</g>
<!-- /manage.dart&#45;&gt;/manage/current_booru_tile.dart -->
<g id="edge27" class="edge">
<title>/manage.dart&#45;&gt;/manage/current_booru_tile.dart</title>
<path fill="none" stroke="black" stroke-width="1.3" stroke-dasharray="5,2" d="M1170.97,-364.48C1175.25,-367.12 1179.26,-370.27 1182.5,-374 1201.76,-396.18 1183.21,-414.84 1202.5,-437 1206.17,-441.22 1210.45,-444.99 1215.07,-448.34"/>
<polygon fill="black" stroke="black" stroke-width="1.3" points="1212.98,-451.16 1223.29,-453.6 1216.75,-445.26 1212.98,-451.16"/>
</g>
<!-- /manage/remove_booru_alert_dialog.dart -->
<g id="node18" class="node">
<title>/manage/remove_booru_alert_dialog.dart</title>
<path fill="Lavender" stroke="black" stroke-width="1.3" d="M1575.88,-499C1575.88,-499 1402.38,-499 1402.38,-499 1396.38,-499 1390.38,-493 1390.38,-487 1390.38,-487 1390.38,-475 1390.38,-475 1390.38,-469 1396.38,-463 1402.38,-463 1402.38,-463 1575.88,-463 1575.88,-463 1581.88,-463 1587.88,-469 1587.88,-475 1587.88,-475 1587.88,-487 1587.88,-487 1587.88,-493 1581.88,-499 1575.88,-499"/>
<text text-anchor="middle" x="1489.12" y="-475.75" font-family="Arial" font-size="15.00">remove_booru_alert_dialog</text>
</g>
<!-- /manage.dart&#45;&gt;/manage/remove_booru_alert_dialog.dart -->
<g id="edge28" class="edge">
<title>/manage.dart&#45;&gt;/manage/remove_booru_alert_dialog.dart</title>
<path fill="none" stroke="black" stroke-width="1.3" stroke-dasharray="5,2" d="M1171.08,-363.74C1175.46,-366.5 1179.47,-369.88 1182.5,-374 1218.47,-422.84 1156.58,-469.38 1202.5,-509 1251.21,-551.03 1283.23,-515.3 1347.25,-509 1352.23,-508.51 1367.93,-505.58 1387.14,-501.78"/>
<polygon fill="black" stroke="black" stroke-width="1.3" points="1387.75,-505.23 1396.87,-499.84 1386.38,-498.36 1387.75,-505.23"/>
</g>
<!-- /manage/booru_selector.dart -->
<g id="node19" class="node">
<title>/manage/booru_selector.dart</title>
<path fill="Lavender" stroke="black" stroke-width="1.3" d="M1324.38,-419C1324.38,-419 1233.38,-419 1233.38,-419 1227.38,-419 1221.38,-413 1221.38,-407 1221.38,-407 1221.38,-395 1221.38,-395 1221.38,-389 1227.38,-383 1233.38,-383 1233.38,-383 1324.38,-383 1324.38,-383 1330.38,-383 1336.38,-389 1336.38,-395 1336.38,-395 1336.38,-407 1336.38,-407 1336.38,-413 1330.38,-419 1324.38,-419"/>
<text text-anchor="middle" x="1278.88" y="-395.75" font-family="Arial" font-size="15.00">booru_selector</text>
</g>
<!-- /manage.dart&#45;&gt;/manage/booru_selector.dart -->
<g id="edge24" class="edge">
<title>/manage.dart&#45;&gt;/manage/booru_selector.dart</title>
<path fill="none" stroke="black" stroke-width="1.3" stroke-dasharray="5,2" d="M1170.95,-366.85C1181.03,-371 1192.13,-375.37 1202.5,-379 1204.96,-379.86 1207.47,-380.71 1210.01,-381.56"/>
<polygon fill="black" stroke="black" stroke-width="1.3" points="1208.82,-384.85 1219.41,-384.58 1210.96,-378.19 1208.82,-384.85"/>
</g>
<!-- /manage/current_booru_providers.dart -->
<g id="node20" class="node">
<title>/manage/current_booru_providers.dart</title>
<path fill="Lavender" stroke="black" stroke-width="1.3" d="M1798.5,-344C1798.5,-344 1643,-344 1643,-344 1637,-344 1631,-338 1631,-332 1631,-332 1631,-320 1631,-320 1631,-314 1637,-308 1643,-308 1643,-308 1798.5,-308 1798.5,-308 1804.5,-308 1810.5,-314 1810.5,-320 1810.5,-320 1810.5,-332 1810.5,-332 1810.5,-338 1804.5,-344 1798.5,-344"/>
<text text-anchor="middle" x="1720.75" y="-320.75" font-family="Arial" font-size="15.00">current_booru_providers</text>
</g>
<!-- /manage.dart&#45;&gt;/manage/current_booru_providers.dart -->
<g id="edge26" class="edge">
<title>/manage.dart&#45;&gt;/manage/current_booru_providers.dart</title>
<path fill="none" stroke="black" stroke-width="1.3" stroke-dasharray="5,2" d="M1158.6,-333.57C1170.82,-324.09 1186.74,-313.08 1202.5,-306 1277.83,-272.18 1301.24,-272.62 1383.25,-263 1476.72,-252.03 1509.27,-224.19 1595,-263 1613.98,-271.59 1611.63,-286.39 1627.73,-300.61"/>
<polygon fill="black" stroke="black" stroke-width="1.3" points="1625.54,-303.34 1635.69,-306.36 1629.63,-297.66 1625.54,-303.34"/>
</g>
<!-- /rating_parser.dart -->
<g id="node8" class="node">
<title>/rating_parser.dart</title>
<path fill="Lavender" stroke="black" stroke-width="1.3" d="M2389.5,-720C2389.5,-720 2309,-720 2309,-720 2303,-720 2297,-714 2297,-708 2297,-708 2297,-696 2297,-696 2297,-690 2303,-684 2309,-684 2309,-684 2389.5,-684 2389.5,-684 2395.5,-684 2401.5,-690 2401.5,-696 2401.5,-696 2401.5,-708 2401.5,-708 2401.5,-714 2395.5,-720 2389.5,-720"/>
<text text-anchor="middle" x="2349.25" y="-696.75" font-family="Arial" font-size="15.00">rating_parser</text>
</g>
<!-- /booru_config_more_settings_redirect_card.dart -->
<g id="node9" class="node">
<title>/booru_config_more_settings_redirect_card.dart</title>
<path fill="Lavender" stroke="black" stroke-width="1.3" d="M793.75,-352C793.75,-352 516.75,-352 516.75,-352 510.75,-352 504.75,-346 504.75,-340 504.75,-340 504.75,-328 504.75,-328 504.75,-322 510.75,-316 516.75,-316 516.75,-316 793.75,-316 793.75,-316 799.75,-316 805.75,-322 805.75,-328 805.75,-328 805.75,-340 805.75,-340 805.75,-346 799.75,-352 793.75,-352"/>
<text text-anchor="middle" x="655.25" y="-328.75" font-family="Arial" font-size="15.00">booru_config_more_settings_redirect_card</text>
</g>
<!-- /booru_config_more_settings_redirect_card.dart&#45;&gt;/providers.dart -->
<g id="edge29" class="edge">
<title>/booru_config_more_settings_redirect_card.dart&#45;&gt;/providers.dart</title>
<path fill="none" stroke="black" stroke-width="1.3" d="M785.69,-315.52C826.41,-309.7 868.97,-303.62 900.61,-299.11"/>
<polygon fill="black" stroke="black" stroke-width="1.3" points="900.83,-302.61 910.24,-297.73 899.84,-295.68 900.83,-302.61"/>
</g>
<!-- /booru_config.dart&#45;&gt;/rating_parser.dart -->
<g id="edge31" class="edge">
<title>/booru_config.dart&#45;&gt;/rating_parser.dart</title>
<path fill="none" stroke="black" stroke-width="1.3" d="M1998.4,-670.52C2071.07,-677.06 2205.43,-689.15 2284.83,-696.29"/>
<polygon fill="black" stroke="black" stroke-width="1.3" points="2284.37,-699.77 2294.64,-697.18 2285,-692.79 2284.37,-699.77"/>
</g>
<!-- /booru_config.dart&#45;&gt;/types.dart -->
<g id="edge32" class="edge">
<title>/booru_config.dart&#45;&gt;/types.dart</title>
<path fill="none" stroke="black" stroke-width="1.3" d="M1998.66,-680.71C2054.51,-697.5 2146.7,-726.83 2223.5,-759 2253.91,-771.74 2287.19,-788.7 2311.72,-801.82"/>
<polygon fill="black" stroke="black" stroke-width="1.3" points="2309.8,-804.76 2320.26,-806.43 2313.13,-798.6 2309.8,-804.76"/>
</g>
<!-- /booru_config.dart&#45;&gt;/booru_config_data.dart -->
<g id="edge30" class="edge">
<title>/booru_config.dart&#45;&gt;/booru_config_data.dart</title>
<path fill="none" stroke="black" stroke-width="1.3" d="M1977.42,-684.48C2013.11,-706.99 2073.53,-745.11 2113.26,-770.17"/>
<polygon fill="black" stroke="black" stroke-width="1.3" points="2111.39,-773.13 2121.72,-775.5 2115.12,-767.21 2111.39,-773.13"/>
</g>
<!-- /validator.dart -->
<g id="node11" class="node">
<title>/validator.dart</title>
<path fill="Lavender" stroke="black" stroke-width="1.3" d="M456.75,-134C456.75,-134 408.5,-134 408.5,-134 402.5,-134 396.5,-128 396.5,-122 396.5,-122 396.5,-110 396.5,-110 396.5,-104 402.5,-98 408.5,-98 408.5,-98 456.75,-98 456.75,-98 462.75,-98 468.75,-104 468.75,-110 468.75,-110 468.75,-122 468.75,-122 468.75,-128 462.75,-134 456.75,-134"/>
<text text-anchor="middle" x="432.62" y="-110.75" font-family="Arial" font-size="15.00">validator</text>
</g>
<!-- /validator.dart&#45;&gt;/validator/booru_url_validator.dart -->
<g id="edge34" class="edge">
<title>/validator.dart&#45;&gt;/validator/booru_url_validator.dart</title>
<path fill="none" stroke="black" stroke-width="1.3" stroke-dasharray="5,2" d="M453.17,-97.63C466.63,-86.07 485.5,-71.88 504.75,-64 525.53,-55.49 549.14,-50.21 571.35,-46.95"/>
<polygon fill="black" stroke="black" stroke-width="1.3" points="571.76,-50.43 581.22,-45.64 570.84,-43.49 571.76,-50.43"/>
</g>
<!-- /validator.dart&#45;&gt;/validator/booru_url_error.dart -->
<g id="edge33" class="edge">
<title>/validator.dart&#45;&gt;/validator/booru_url_error.dart</title>
<path fill="none" stroke="black" stroke-width="1.3" stroke-dasharray="5,2" d="M469.04,-115.54C535.82,-113.97 684.53,-107.19 805.75,-78 822.44,-73.98 825.28,-68.83 841.75,-64 853.91,-60.43 867,-57.25 879.73,-54.48"/>
<polygon fill="black" stroke="black" stroke-width="1.3" points="880.3,-57.94 889.37,-52.46 878.87,-51.09 880.3,-57.94"/>
</g>
<!-- /validator.dart&#45;&gt;/validator/uri_utils.dart -->
<g id="edge35" class="edge">
<title>/validator.dart&#45;&gt;/validator/uri_utils.dart</title>
<path fill="none" stroke="black" stroke-width="1.3" stroke-dasharray="5,2" d="M469.23,-119.2C566.41,-126.81 843.5,-140.94 1061,-78 1071.55,-74.95 1082.44,-70.47 1092.5,-65.7"/>
<polygon fill="black" stroke="black" stroke-width="1.3" points="1093.88,-68.92 1101.28,-61.33 1090.77,-62.65 1093.88,-68.92"/>
</g>
<!-- /providers.dart&#45;&gt;/manage.dart -->
<g id="edge36" class="edge">
<title>/providers.dart&#45;&gt;/manage.dart</title>
<path fill="none" stroke="black" stroke-width="1.3" d="M990.61,-304.58C1019.32,-314.02 1058.75,-327 1089.11,-336.99"/>
<polygon fill="black" stroke="black" stroke-width="1.3" points="1087.8,-340.24 1098.4,-340.04 1089.99,-333.59 1087.8,-340.24"/>
</g>
<!-- /booru_config_data.dart&#45;&gt;/rating_parser.dart -->
<g id="edge37" class="edge">
<title>/booru_config_data.dart&#45;&gt;/rating_parser.dart</title>
<path fill="none" stroke="black" stroke-width="1.3" d="M2192.88,-776.63C2223.28,-762.03 2266.01,-741.5 2298.97,-725.67"/>
<polygon fill="black" stroke="black" stroke-width="1.3" points="2300.47,-728.83 2307.97,-721.35 2297.44,-722.52 2300.47,-728.83"/>
</g>
<!-- /booru_config_data.dart&#45;&gt;/types.dart -->
<g id="edge38" class="edge">
<title>/booru_config_data.dart&#45;&gt;/types.dart</title>
<path fill="none" stroke="black" stroke-width="1.3" d="M2223.98,-804.67C2253.13,-808.74 2285.9,-813.31 2310.46,-816.73"/>
<polygon fill="black" stroke="black" stroke-width="1.3" points="2309.82,-820.18 2320.21,-818.09 2310.79,-813.24 2309.82,-820.18"/>
</g>
<!-- /manage/booru_config_provider.dart&#45;&gt;/booru_config.dart -->
<g id="edge39" class="edge">
<title>/manage/booru_config_provider.dart&#45;&gt;/booru_config.dart</title>
<path fill="none" stroke="black" stroke-width="1.3" d="M1571.64,-426.44C1580.52,-431.21 1588.63,-437.28 1595,-445 1668.39,-533.98 1543.97,-626.31 1631,-702 1662.44,-729.34 1777.23,-707.71 1818.5,-702 1840.34,-698.98 1863.7,-693.18 1884.38,-687.1"/>
<polygon fill="black" stroke="black" stroke-width="1.3" points="1885.14,-690.53 1893.69,-684.29 1883.11,-683.83 1885.14,-690.53"/>
</g>
<!-- /manage/booru_config_provider.dart&#45;&gt;/booru_config_data.dart -->
<g id="edge41" class="edge">
<title>/manage/booru_config_provider.dart&#45;&gt;/booru_config_data.dart</title>
<path fill="none" stroke="black" stroke-width="1.3" d="M1571.69,-427.47C1580.39,-432.08 1588.44,-437.82 1595,-445 1640.36,-494.67 1580.02,-548.12 1631,-592 1701.48,-652.67 1968.36,-581.57 2047.75,-630 2098.58,-661.01 2129,-727.01 2143.11,-765.47"/>
<polygon fill="black" stroke="black" stroke-width="1.3" points="2139.78,-766.56 2146.39,-774.83 2146.38,-764.24 2139.78,-766.56"/>
</g>
<!-- /manage/booru_config_provider.dart&#45;&gt;/manage/current_booru_providers.dart -->
<g id="edge45" class="edge">
<title>/manage/booru_config_provider.dart&#45;&gt;/manage/current_booru_providers.dart</title>
<path fill="none" stroke="black" stroke-width="1.3" d="M1533.55,-390.52C1552.45,-382.43 1574.85,-372.8 1595,-364 1608.6,-358.06 1613.11,-354.78 1631,-348.27"/>
<polygon fill="black" stroke="black" stroke-width="1.3" points="1631.92,-351.65 1640.21,-345.06 1629.62,-345.04 1631.92,-351.65"/>
</g>
<!-- /edit_booru_config_id.dart -->
<g id="node24" class="node">
<title>/edit_booru_config_id.dart</title>
<path fill="Lavender" stroke="black" stroke-width="1.3" d="M1785.75,-684C1785.75,-684 1655.75,-684 1655.75,-684 1649.75,-684 1643.75,-678 1643.75,-672 1643.75,-672 1643.75,-660 1643.75,-660 1643.75,-654 1649.75,-648 1655.75,-648 1655.75,-648 1785.75,-648 1785.75,-648 1791.75,-648 1797.75,-654 1797.75,-660 1797.75,-660 1797.75,-672 1797.75,-672 1797.75,-678 1791.75,-684 1785.75,-684"/>
<text text-anchor="middle" x="1720.75" y="-660.75" font-family="Arial" font-size="15.00">edit_booru_config_id</text>
</g>
<!-- /manage/booru_config_provider.dart&#45;&gt;/edit_booru_config_id.dart -->
<g id="edge43" class="edge">
<title>/manage/booru_config_provider.dart&#45;&gt;/edit_booru_config_id.dart</title>
<path fill="none" stroke="black" stroke-width="1.3" d="M1571.7,-427.1C1580.46,-431.76 1588.52,-437.63 1595,-445 1647.7,-504.98 1582.58,-557.52 1631,-621 1637.24,-629.18 1645.39,-635.99 1654.21,-641.63"/>
<polygon fill="black" stroke="black" stroke-width="1.3" points="1652.28,-644.56 1662.69,-646.52 1655.77,-638.49 1652.28,-644.56"/>
</g>
<!-- /manage/booru_config_provider.dart&#45;&gt;/create/providers.dart -->
<g id="edge42" class="edge">
<title>/manage/booru_config_provider.dart&#45;&gt;/create/providers.dart</title>
<path fill="none" stroke="black" stroke-width="1.3" d="M1412.36,-427.47C1401.9,-432.1 1391.83,-437.85 1383.25,-445 1358.17,-465.89 1369.14,-484.79 1347.25,-509 1299.02,-562.33 1228.22,-607.11 1182.3,-633"/>
<polygon fill="black" stroke="black" stroke-width="1.3" points="1180.8,-629.83 1173.77,-637.75 1184.21,-635.95 1180.8,-629.83"/>
</g>
<!-- /export_import.dart -->
<g id="node40" class="node">
<title>/export_import.dart</title>
<path fill="Lavender" stroke="black" stroke-width="1.3" d="M1762.88,-574C1762.88,-574 1678.62,-574 1678.62,-574 1672.62,-574 1666.62,-568 1666.62,-562 1666.62,-562 1666.62,-550 1666.62,-550 1666.62,-544 1672.62,-538 1678.62,-538 1678.62,-538 1762.88,-538 1762.88,-538 1768.88,-538 1774.88,-544 1774.88,-550 1774.88,-550 1774.88,-562 1774.88,-562 1774.88,-568 1768.88,-574 1762.88,-574"/>
<text text-anchor="middle" x="1720.75" y="-550.75" font-family="Arial" font-size="15.00">export_import</text>
</g>
<!-- /manage/booru_config_provider.dart&#45;&gt;/export_import.dart -->
<g id="edge44" class="edge">
<title>/manage/booru_config_provider.dart&#45;&gt;/export_import.dart</title>
<path fill="none" stroke="black" stroke-width="1.3" d="M1568.61,-427.39C1578.26,-432.01 1587.38,-437.78 1595,-445 1625.97,-474.35 1598.77,-506.03 1631,-534 1638,-540.07 1646.42,-544.52 1655.25,-547.77"/>
<polygon fill="black" stroke="black" stroke-width="1.3" points="1654.1,-551.08 1664.69,-550.69 1656.17,-544.39 1654.1,-551.08"/>
</g>
<!-- /manage/booru_config_provider.dart&#45;&gt;/booru_config_converter.dart -->
<g id="edge40" class="edge">
<title>/manage/booru_config_provider.dart&#45;&gt;/booru_config_converter.dart</title>
<path fill="none" stroke="black" stroke-width="1.3" d="M1571.75,-426.35C1580.61,-431.14 1588.68,-437.23 1595,-445 1675.82,-544.4 1572.75,-616.9 1631,-731 1642.76,-754.04 1663.62,-774.05 1682.16,-788.65"/>
<polygon fill="black" stroke="black" stroke-width="1.3" points="1679.93,-791.35 1690.01,-794.59 1684.15,-785.77 1679.93,-791.35"/>
</g>
<!-- /manage/booru_selector.dart&#45;&gt;/manage/booru_config_provider.dart -->
<g id="edge46" class="edge">
<title>/manage/booru_selector.dart&#45;&gt;/manage/booru_config_provider.dart</title>
<path fill="none" stroke="black" stroke-width="1.3" d="M1336.78,-403.19C1354.72,-403.88 1375.02,-404.66 1394.8,-405.42"/>
<polygon fill="black" stroke="black" stroke-width="1.3" points="1394.6,-408.91 1404.73,-405.8 1394.87,-401.91 1394.6,-408.91"/>
</g>
<!-- /manage/booru_selector.dart&#45;&gt;/manage/booru_selector_item.dart -->
<g id="edge47" class="edge">
<title>/manage/booru_selector.dart&#45;&gt;/manage/booru_selector_item.dart</title>
<path fill="none" stroke="black" stroke-width="1.3" d="M1336.61,-384.62C1340.3,-382.91 1343.88,-381.04 1347.25,-379 1366.35,-367.46 1364.69,-356.38 1383.25,-344 1395.86,-335.59 1410.3,-328.19 1424.34,-321.94"/>
<polygon fill="black" stroke="black" stroke-width="1.3" points="1425.35,-325.32 1433.17,-318.17 1422.6,-318.88 1425.35,-325.32"/>
</g>
<!-- /manage/booru_selector.dart&#45;&gt;/manage/remove_booru_alert_dialog.dart -->
<g id="edge49" class="edge">
<title>/manage/booru_selector.dart&#45;&gt;/manage/remove_booru_alert_dialog.dart</title>
<path fill="none" stroke="black" stroke-width="1.3" d="M1321.35,-419.46C1340.12,-427.6 1362.67,-437.1 1383.25,-445 1395.41,-449.67 1408.47,-454.39 1421.11,-458.8"/>
<polygon fill="black" stroke="black" stroke-width="1.3" points="1419.61,-461.98 1430.21,-461.94 1421.9,-455.37 1419.61,-461.98"/>
</g>
<!-- /manage/booru_selector.dart&#45;&gt;/manage/current_booru_providers.dart -->
<g id="edge48" class="edge">
<title>/manage/booru_selector.dart&#45;&gt;/manage/current_booru_providers.dart</title>
<path fill="none" stroke="black" stroke-width="1.3" d="M1336.71,-384.23C1351.75,-380.17 1368.04,-376.11 1383.25,-373 1461.76,-356.95 1551.7,-344.7 1618.83,-336.74"/>
<polygon fill="black" stroke="black" stroke-width="1.3" points="1619.19,-340.22 1628.72,-335.58 1618.38,-333.27 1619.19,-340.22"/>
</g>
<!-- /export_import/booru_config_io_handler.dart -->
<g id="node21" class="node">
<title>/export_import/booru_config_io_handler.dart</title>
<path fill="Lavender" stroke="black" stroke-width="1.3" d="M2427,-533C2427,-533 2271.5,-533 2271.5,-533 2265.5,-533 2259.5,-527 2259.5,-521 2259.5,-521 2259.5,-509 2259.5,-509 2259.5,-503 2265.5,-497 2271.5,-497 2271.5,-497 2427,-497 2427,-497 2433,-497 2439,-503 2439,-509 2439,-509 2439,-521 2439,-521 2439,-527 2433,-533 2427,-533"/>
<text text-anchor="middle" x="2349.25" y="-509.75" font-family="Arial" font-size="15.00">booru_config_io_handler</text>
</g>
<!-- /export_import/providers.dart -->
<g id="node22" class="node">
<title>/export_import/providers.dart</title>
<path fill="Lavender" stroke="black" stroke-width="1.3" d="M2180.38,-533C2180.38,-533 2126.88,-533 2126.88,-533 2120.88,-533 2114.88,-527 2114.88,-521 2114.88,-521 2114.88,-509 2114.88,-509 2114.88,-503 2120.88,-497 2126.88,-497 2126.88,-497 2180.38,-497 2180.38,-497 2186.38,-497 2192.38,-503 2192.38,-509 2192.38,-509 2192.38,-521 2192.38,-521 2192.38,-527 2186.38,-533 2180.38,-533"/>
<text text-anchor="middle" x="2153.62" y="-509.75" font-family="Arial" font-size="15.00">providers</text>
</g>
<!-- /export_import/providers.dart&#45;&gt;/export_import/booru_config_io_handler.dart -->
<g id="edge50" class="edge">
<title>/export_import/providers.dart&#45;&gt;/export_import/booru_config_io_handler.dart</title>
<path fill="none" stroke="black" stroke-width="1.3" d="M2192.42,-515C2208.35,-515 2227.73,-515 2247.34,-515"/>
<polygon fill="black" stroke="black" stroke-width="1.3" points="2247.25,-518.5 2257.25,-515 2247.25,-511.5 2247.25,-518.5"/>
</g>
<!-- /export_import/export_import_notifer_mixin.dart -->
<g id="node23" class="node">
<title>/export_import/export_import_notifer_mixin.dart</title>
<path fill="Lavender" stroke="black" stroke-width="1.3" d="M2035.75,-571C2035.75,-571 1858.5,-571 1858.5,-571 1852.5,-571 1846.5,-565 1846.5,-559 1846.5,-559 1846.5,-547 1846.5,-547 1846.5,-541 1852.5,-535 1858.5,-535 1858.5,-535 2035.75,-535 2035.75,-535 2041.75,-535 2047.75,-541 2047.75,-547 2047.75,-547 2047.75,-559 2047.75,-559 2047.75,-565 2041.75,-571 2035.75,-571"/>
<text text-anchor="middle" x="1947.12" y="-547.75" font-family="Arial" font-size="15.00">export_import_notifer_mixin</text>
</g>
<!-- /export_import/export_import_notifer_mixin.dart&#45;&gt;/export_import/booru_config_io_handler.dart -->
<g id="edge51" class="edge">
<title>/export_import/export_import_notifer_mixin.dart&#45;&gt;/export_import/booru_config_io_handler.dart</title>
<path fill="none" stroke="black" stroke-width="1.3" d="M2048.07,-560.93C2100.72,-562.93 2166.09,-561.99 2223.5,-551 2240.36,-547.77 2243.14,-542.19 2259.5,-537 2259.62,-536.96 2259.74,-536.93 2259.85,-536.89"/>
<polygon fill="black" stroke="black" stroke-width="1.3" points="2260.67,-540.3 2269.23,-534.05 2258.65,-533.6 2260.67,-540.3"/>
</g>
<!-- /export_import/export_import_notifer_mixin.dart&#45;&gt;/export_import/providers.dart -->
<g id="edge52" class="edge">
<title>/export_import/export_import_notifer_mixin.dart&#45;&gt;/export_import/providers.dart</title>
<path fill="none" stroke="black" stroke-width="1.3" d="M2047.68,-534.5C2066.81,-530.95 2086.06,-527.37 2102.76,-524.27"/>
<polygon fill="black" stroke="black" stroke-width="1.3" points="2103.3,-527.73 2112.49,-522.46 2102.02,-520.84 2103.3,-527.73"/>
</g>
<!-- /edit_booru_config_id.dart&#45;&gt;/booru_config.dart -->
<g id="edge53" class="edge">
<title>/edit_booru_config_id.dart&#45;&gt;/booru_config.dart</title>
<path fill="none" stroke="black" stroke-width="1.3" d="M1798.03,-666C1826.01,-666 1857.33,-666 1883.93,-666"/>
<polygon fill="black" stroke="black" stroke-width="1.3" points="1883.82,-669.5 1893.82,-666 1883.82,-662.5 1883.82,-669.5"/>
</g>
<!-- /create/scaffold.dart&#45;&gt;/create/gestures.dart -->
<g id="edge55" class="edge">
<title>/create/scaffold.dart&#45;&gt;/create/gestures.dart</title>
<path fill="none" stroke="black" stroke-width="1.3" d="M465.67,-661.34C466.78,-662.5 467.81,-663.72 468.75,-665 506.26,-716.1 456.64,-761.73 504.75,-803 555.78,-846.79 747.87,-799.78 805.75,-834 829.95,-848.31 819.25,-869.15 841.75,-886 859.5,-899.29 882.42,-907.83 902.62,-913.24"/>
<polygon fill="black" stroke="black" stroke-width="1.3" points="901.69,-916.62 912.24,-915.61 903.36,-909.82 901.69,-916.62"/>
</g>
<!-- /create/scaffold.dart&#45;&gt;/create/listing.dart -->
<g id="edge56" class="edge">
<title>/create/scaffold.dart&#45;&gt;/create/listing.dart</title>
<path fill="none" stroke="black" stroke-width="1.3" d="M464.99,-661.33C466.32,-662.51 467.58,-663.73 468.75,-665 492.23,-690.4 476.09,-714.64 504.75,-734 570.72,-778.57 816.35,-779.99 911.95,-778.77"/>
<polygon fill="black" stroke="black" stroke-width="1.3" points="911.98,-782.27 921.93,-778.62 911.87,-775.27 911.98,-782.27"/>
</g>
<!-- /create/scaffold.dart&#45;&gt;/create/providers.dart -->
<g id="edge57" class="edge">
<title>/create/scaffold.dart&#45;&gt;/create/providers.dart</title>
<path fill="none" stroke="black" stroke-width="1.3" d="M466.32,-642.18C559.4,-640.09 833.74,-635.62 1061,-649 1068.68,-649.45 1076.8,-650.13 1084.73,-650.9"/>
<polygon fill="black" stroke="black" stroke-width="1.3" points="1084.27,-654.37 1094.58,-651.93 1084.99,-647.41 1084.27,-654.37"/>
</g>
<!-- /create/scaffold.dart&#45;&gt;/create/viewer.dart -->
<g id="edge60" class="edge">
<title>/create/scaffold.dart&#45;&gt;/create/viewer.dart</title>
<path fill="none" stroke="black" stroke-width="1.3" d="M443.02,-624.6C454.64,-603.72 476.42,-570.23 504.75,-552 537.79,-530.73 582.26,-522.02 614.1,-518.46"/>
<polygon fill="black" stroke="black" stroke-width="1.3" points="614.06,-521.98 623.67,-517.52 613.38,-515.01 614.06,-521.98"/>
</g>
<!-- /create/scaffold.dart&#45;&gt;/create/download.dart -->
<g id="edge54" class="edge">
<title>/create/scaffold.dart&#45;&gt;/create/download.dart</title>
<path fill="none" stroke="black" stroke-width="1.3" d="M465.53,-661.45C466.68,-662.58 467.76,-663.77 468.75,-665 498.6,-702.15 468.34,-735.25 504.75,-766 608.53,-853.65 672.43,-792.98 805.75,-819 837.18,-825.13 872.3,-832.65 900.06,-838.74"/>
<polygon fill="black" stroke="black" stroke-width="1.3" points="899.04,-842.1 909.56,-840.83 900.54,-835.26 899.04,-842.1"/>
</g>
<!-- /create/scaffold.dart&#45;&gt;/create/riverpod_widgets.dart -->
<g id="edge58" class="edge">
<title>/create/scaffold.dart&#45;&gt;/create/riverpod_widgets.dart</title>
<path fill="none" stroke="black" stroke-width="1.3" d="M438.9,-624.56C450.47,-585.54 479.11,-496.79 504.75,-480 616.67,-406.72 673.19,-462.01 805.75,-480 832.38,-483.61 861.03,-490.81 885.76,-498.12"/>
<polygon fill="black" stroke="black" stroke-width="1.3" points="884.71,-501.46 895.3,-501.01 886.74,-494.76 884.71,-501.46"/>
</g>
<!-- /create/scaffold.dart&#45;&gt;/create/search.dart -->
<g id="edge59" class="edge">
<title>/create/scaffold.dart&#45;&gt;/create/search.dart</title>
<path fill="none" stroke="black" stroke-width="1.3" d="M466.18,-634.88C505.1,-625.18 570.3,-608.93 612.79,-598.34"/>
<polygon fill="black" stroke="black" stroke-width="1.3" points="613.63,-601.73 622.49,-595.92 611.94,-594.94 613.63,-601.73"/>
</g>
<!-- /create/auth.dart&#45;&gt;/create/providers.dart -->
<g id="edge62" class="edge">
<title>/create/auth.dart&#45;&gt;/create/providers.dart</title>
<path fill="none" stroke="black" stroke-width="1.3" d="M682.56,-693.13C718.41,-686.71 784.7,-675.56 841.75,-670 926.91,-661.71 1026.52,-658.7 1084.92,-657.61"/>
<polygon fill="black" stroke="black" stroke-width="1.3" points="1084.83,-661.11 1094.76,-657.44 1084.71,-654.12 1084.83,-661.11"/>
</g>
<!-- /create/auth.dart&#45;&gt;/create/riverpod_widgets.dart -->
<g id="edge63" class="edge">
<title>/create/auth.dart&#45;&gt;/create/riverpod_widgets.dart</title>
<path fill="none" stroke="black" stroke-width="1.3" d="M682.59,-686.55C713.01,-672.97 764.18,-649 805.75,-624 846.23,-599.65 889.89,-567.34 918.52,-545.23"/>
<polygon fill="black" stroke="black" stroke-width="1.3" points="920.33,-548.26 926.08,-539.36 916.03,-542.73 920.33,-548.26"/>
</g>
<!-- /create/auth.dart&#45;&gt;/create/cookie_access_webview_page.dart -->
<g id="edge61" class="edge">
<title>/create/auth.dart&#45;&gt;/create/cookie_access_webview_page.dart</title>
<path fill="none" stroke="black" stroke-width="1.3" d="M682.61,-698.72C715.85,-699.62 775.23,-701.24 829.64,-702.72"/>
<polygon fill="black" stroke="black" stroke-width="1.3" points="829.47,-706.21 839.56,-702.99 829.66,-699.22 829.47,-706.21"/>
</g>
<!-- /create/create_anon_config_page.dart&#45;&gt;/create/scaffold.dart -->
<g id="edge64" class="edge">
<title>/create/create_anon_config_page.dart&#45;&gt;/create/scaffold.dart</title>
<path fill="none" stroke="black" stroke-width="1.3" d="M360.96,-643.43C369.96,-643.38 378.77,-643.32 386.96,-643.27"/>
<polygon fill="black" stroke="black" stroke-width="1.3" points="386.88,-646.77 396.86,-643.21 386.84,-639.77 386.88,-646.77"/>
</g>
<!-- /create/add_unknown_booru_page.dart&#45;&gt;/manage.dart -->
<g id="edge65" class="edge">
<title>/create/add_unknown_booru_page.dart&#45;&gt;/manage.dart</title>
<path fill="none" stroke="black" stroke-width="1.3" d="M753.6,-391.61C793.41,-385.76 832.38,-380.11 841.75,-379 928.89,-368.65 1031.01,-360.03 1088.78,-355.48"/>
<polygon fill="black" stroke="black" stroke-width="1.3" points="1088.75,-359 1098.44,-354.73 1088.2,-352.02 1088.75,-359"/>
</g>
<!-- /create/add_unknown_booru_page.dart&#45;&gt;/create/widgets.dart -->
<g id="edge69" class="edge">
<title>/create/add_unknown_booru_page.dart&#45;&gt;/create/widgets.dart</title>
<path fill="none" stroke="black" stroke-width="1.3" d="M753.58,-412.53C865.58,-420.86 1037.22,-436.44 1061,-455 1096.27,-482.53 1072.21,-511.76 1097,-549 1099.11,-552.17 1101.54,-555.26 1104.13,-558.23"/>
<polygon fill="black" stroke="black" stroke-width="1.3" points="1101.42,-560.45 1110.87,-565.24 1106.47,-555.6 1101.42,-560.45"/>
</g>
<!-- /create/add_unknown_booru_page.dart&#45;&gt;/create/providers.dart -->
<g id="edge66" class="edge">
<title>/create/add_unknown_booru_page.dart&#45;&gt;/create/providers.dart</title>
<path fill="none" stroke="black" stroke-width="1.3" d="M753.37,-421.47C770.94,-425.04 788.99,-429.22 805.75,-434 822.26,-438.71 825.19,-443.47 841.75,-448 937.01,-474.04 987.96,-417.54 1061,-484 1107.56,-526.37 1065.01,-566.78 1097,-621 1098.83,-624.1 1101,-627.1 1103.36,-629.96"/>
<polygon fill="black" stroke="black" stroke-width="1.3" points="1100.66,-632.2 1110.03,-637.14 1105.78,-627.43 1100.66,-632.2"/>
</g>
<!-- /create/add_unknown_booru_page.dart&#45;&gt;/create/types.dart -->
<g id="edge68" class="edge">
<title>/create/add_unknown_booru_page.dart&#45;&gt;/create/types.dart</title>
<path fill="none" stroke="black" stroke-width="1.3" d="M753.44,-397.37C856.8,-390.13 1012.04,-385.44 1061,-417 1091.74,-436.82 1072.12,-464.19 1097,-491 1097.72,-491.78 1098.48,-492.54 1099.26,-493.28"/>
<polygon fill="black" stroke="black" stroke-width="1.3" points="1096.88,-495.86 1106.92,-499.23 1101.18,-490.33 1096.88,-495.86"/>
</g>
<!-- /create/add_unknown_booru_page.dart&#45;&gt;/create/riverpod_widgets.dart -->
<g id="edge67" class="edge">
<title>/create/add_unknown_booru_page.dart&#45;&gt;/create/riverpod_widgets.dart</title>
<path fill="none" stroke="black" stroke-width="1.3" d="M733.16,-424.43C756.98,-431.38 782.95,-440.26 805.75,-451 823.15,-459.19 824.79,-465.94 841.75,-475 856.82,-483.05 873.65,-490.64 889.47,-497.22"/>
<polygon fill="black" stroke="black" stroke-width="1.3" points="887.82,-500.33 898.41,-500.86 890.47,-493.85 887.82,-500.33"/>
</g>
<!-- /create/gestures.dart&#45;&gt;/create/providers.dart -->
<g id="edge70" class="edge">
<title>/create/gestures.dart&#45;&gt;/create/providers.dart</title>
<path fill="none" stroke="black" stroke-width="1.3" d="M988.55,-918.42C1012.07,-914.28 1041.84,-905.33 1061,-886 1115.53,-831 1129.76,-735.53 1133.46,-687.07"/>
<polygon fill="black" stroke="black" stroke-width="1.3" points="1136.94,-687.44 1134.09,-677.24 1129.96,-686.99 1136.94,-687.44"/>
</g>
<!-- /create/listing.dart&#45;&gt;/create/providers.dart -->
<g id="edge71" class="edge">
<title>/create/listing.dart&#45;&gt;/create/providers.dart</title>
<path fill="none" stroke="black" stroke-width="1.3" d="M978.7,-773.4C1001.85,-768.43 1035.71,-758.86 1061,-742 1083.49,-727 1103.22,-703.38 1116.59,-684.85"/>
<polygon fill="black" stroke="black" stroke-width="1.3" points="1119.38,-686.97 1122.22,-676.77 1113.63,-682.97 1119.38,-686.97"/>
</g>
<!-- /create/providers.dart&#45;&gt;/manage.dart -->
<g id="edge72" class="edge">
<title>/create/providers.dart&#45;&gt;/manage.dart</title>
<path fill="none" stroke="black" stroke-width="1.3" d="M1107.92,-638.57C1096.63,-629.38 1084.88,-617.2 1079,-603 1061.06,-559.68 1061.06,-435.32 1079,-392 1081.66,-385.58 1086,-380.02 1091.13,-375.26"/>
<polygon fill="black" stroke="black" stroke-width="1.3" points="1093.11,-378.16 1098.8,-369.22 1088.78,-372.66 1093.11,-378.16"/>
</g>
<!-- /create/viewer.dart&#45;&gt;/create/riverpod_widgets.dart -->
<g id="edge73" class="edge">
<title>/create/viewer.dart&#45;&gt;/create/riverpod_widgets.dart</title>
<path fill="none" stroke="black" stroke-width="1.3" d="M684.99,-516.39C728.65,-516.98 813.15,-518.13 875.11,-518.98"/>
<polygon fill="black" stroke="black" stroke-width="1.3" points="874.78,-522.47 884.83,-519.11 874.88,-515.47 874.78,-522.47"/>
</g>
<!-- /create/types.dart&#45;&gt;/booru_config_data.dart -->
<g id="edge74" class="edge">
<title>/create/types.dart&#45;&gt;/booru_config_data.dart</title>
<path fill="none" stroke="black" stroke-width="1.3" d="M1162.84,-530.95C1169.67,-536.31 1176.73,-542.5 1182.5,-549 1296.05,-676.74 1234.15,-793.45 1383.25,-877 1625.21,-1012.59 1977.38,-876.11 2104.56,-818.24"/>
<polygon fill="black" stroke="black" stroke-width="1.3" points="2105.69,-821.57 2113.31,-814.21 2102.77,-815.21 2105.69,-821.57"/>
</g>
<!-- /create/download.dart&#45;&gt;/create/providers.dart -->
<g id="edge75" class="edge">
<title>/create/download.dart&#45;&gt;/create/providers.dart</title>
<path fill="none" stroke="black" stroke-width="1.3" d="M991.12,-844.93C1013.76,-840.23 1041.61,-831.21 1061,-814 1099.28,-780.03 1119.24,-721.96 1128.33,-686.77"/>
<polygon fill="black" stroke="black" stroke-width="1.3" points="1131.68,-687.81 1130.64,-677.26 1124.88,-686.15 1131.68,-687.81"/>
</g>
<!-- /create/riverpod_widgets.dart&#45;&gt;/manage.dart -->
<g id="edge76" class="edge">
<title>/create/riverpod_widgets.dart&#45;&gt;/manage.dart</title>
<path fill="none" stroke="black" stroke-width="1.3" d="M1016.07,-518.66C1032.38,-515.44 1048.75,-509.27 1061,-498 1100.42,-461.72 1066.83,-424.53 1093.67,-379.89"/>
<polygon fill="black" stroke="black" stroke-width="1.3" points="1096.41,-382.07 1099.24,-371.86 1090.66,-378.08 1096.41,-382.07"/>
</g>
<!-- /create/riverpod_widgets.dart&#45;&gt;/create/widgets.dart -->
<g id="edge79" class="edge">
<title>/create/riverpod_widgets.dart&#45;&gt;/create/widgets.dart</title>
<path fill="none" stroke="black" stroke-width="1.3" d="M1004.15,-538.45C1031.67,-548.26 1065.12,-560.18 1091.28,-569.51"/>
<polygon fill="black" stroke="black" stroke-width="1.3" points="1089.92,-572.74 1100.51,-572.8 1092.27,-566.14 1089.92,-572.74"/>
</g>
<!-- /create/riverpod_widgets.dart&#45;&gt;/create/providers.dart -->
<g id="edge77" class="edge">
<title>/create/riverpod_widgets.dart&#45;&gt;/create/providers.dart</title>
<path fill="none" stroke="black" stroke-width="1.3" d="M1014.92,-538.4C1031.04,-545.07 1047.61,-553.81 1061,-565 1083.7,-583.97 1078.16,-598.18 1097,-621 1099.62,-624.17 1102.49,-627.35 1105.45,-630.43"/>
<polygon fill="black" stroke="black" stroke-width="1.3" points="1102.91,-632.84 1112.47,-637.39 1107.84,-627.86 1102.91,-632.84"/>
</g>
<!-- /create/riverpod_widgets.dart&#45;&gt;/create/types.dart -->
<g id="edge78" class="edge">
<title>/create/riverpod_widgets.dart&#45;&gt;/create/types.dart</title>
<path fill="none" stroke="black" stroke-width="1.3" d="M1015.9,-517.56C1042.74,-516.53 1073.11,-515.37 1096.43,-514.47"/>
<polygon fill="black" stroke="black" stroke-width="1.3" points="1096.44,-517.97 1106.3,-514.09 1096.17,-510.98 1096.44,-517.97"/>
</g>
<!-- /create/add_booru_page.dart&#45;&gt;/validator.dart -->
<g id="edge80" class="edge">
<title>/create/add_booru_page.dart&#45;&gt;/validator.dart</title>
<path fill="none" stroke="black" stroke-width="1.3" d="M274.42,-521.51C300.25,-454.88 388.68,-226.77 420.28,-145.25"/>
<polygon fill="black" stroke="black" stroke-width="1.3" points="423.54,-146.54 423.89,-135.95 417.01,-144.01 423.54,-146.54"/>
</g>
<!-- /create/add_booru_page.dart&#45;&gt;/create/scaffold.dart -->
<g id="edge82" class="edge">
<title>/create/add_booru_page.dart&#45;&gt;/create/scaffold.dart</title>
<path fill="none" stroke="black" stroke-width="1.3" d="M296.64,-558.41C323.32,-575.13 362.87,-599.92 392.28,-618.34"/>
<polygon fill="black" stroke="black" stroke-width="1.3" points="390.22,-621.18 400.55,-623.53 393.93,-615.25 390.22,-621.18"/>
</g>
<!-- /create/add_booru_page.dart&#45;&gt;/create/add_unknown_booru_page.dart -->
<g id="edge81" class="edge">
<title>/create/add_booru_page.dart&#45;&gt;/create/add_unknown_booru_page.dart</title>
<path fill="none" stroke="black" stroke-width="1.3" d="M330.87,-548.68C373.81,-551.06 429.58,-547 468.75,-518 501.39,-493.83 473.05,-459.4 504.75,-434 516.66,-424.46 530.8,-417.8 545.57,-413.21"/>
<polygon fill="black" stroke="black" stroke-width="1.3" points="546.34,-416.62 555.06,-410.6 544.49,-409.87 546.34,-416.62"/>
</g>
<!-- /create/search.dart&#45;&gt;/create/providers.dart -->
<g id="edge83" class="edge">
<title>/create/search.dart&#45;&gt;/create/providers.dart</title>
<path fill="none" stroke="black" stroke-width="1.3" d="M686.04,-583.32C754.55,-573.77 927.66,-556.65 1061,-603 1078.01,-608.91 1094.43,-620.19 1107.44,-630.92"/>
<polygon fill="black" stroke="black" stroke-width="1.3" points="1104.92,-633.37 1114.78,-637.26 1109.5,-628.07 1104.92,-633.37"/>
</g>
<!-- /create/search.dart&#45;&gt;/create/riverpod_widgets.dart -->
<g id="edge84" class="edge">
<title>/create/search.dart&#45;&gt;/create/riverpod_widgets.dart</title>
<path fill="none" stroke="black" stroke-width="1.3" d="M686.07,-581.11C730.04,-570.94 813.7,-551.6 875.16,-537.39"/>
<polygon fill="black" stroke="black" stroke-width="1.3" points="875.88,-540.81 884.84,-535.15 874.31,-533.99 875.88,-540.81"/>
</g>
<!-- /export_import.dart&#45;&gt;/export_import/booru_config_io_handler.dart -->
<g id="edge85" class="edge">
<title>/export_import.dart&#45;&gt;/export_import/booru_config_io_handler.dart</title>
<path fill="none" stroke="black" stroke-width="1.3" stroke-dasharray="5,2" d="M1775.32,-553C1790.64,-549.86 1806.44,-544.15 1818.5,-534 1836.18,-519.12 1819.46,-499.09 1838.5,-486 1979.53,-389.05 2054.05,-455.04 2223.5,-479 2243.93,-481.89 2265.7,-487.31 2285.24,-493.09"/>
<polygon fill="black" stroke="black" stroke-width="1.3" points="2283.99,-496.37 2294.58,-495.95 2286.03,-489.68 2283.99,-496.37"/>
</g>
<!-- /export_import.dart&#45;&gt;/export_import/providers.dart -->
<g id="edge87" class="edge">
<title>/export_import.dart&#45;&gt;/export_import/providers.dart</title>
<path fill="none" stroke="black" stroke-width="1.3" stroke-dasharray="5,2" d="M1775.3,-548.61C1789.81,-545.34 1805.18,-540.67 1818.5,-534 1828.93,-528.78 1827.56,-521.06 1838.5,-517 1926.88,-484.19 2039.13,-494.78 2102.71,-505.12"/>
<polygon fill="black" stroke="black" stroke-width="1.3" points="2102,-508.54 2112.44,-506.77 2103.17,-501.64 2102,-508.54"/>
</g>
<!-- /export_import.dart&#45;&gt;/export_import/export_import_notifer_mixin.dart -->
<g id="edge86" class="edge">
<title>/export_import.dart&#45;&gt;/export_import/export_import_notifer_mixin.dart</title>
<path fill="none" stroke="black" stroke-width="1.3" stroke-dasharray="5,2" d="M1775.21,-555.29C1793.06,-555.05 1813.68,-554.77 1834.28,-554.5"/>
<polygon fill="black" stroke="black" stroke-width="1.3" points="1834.12,-558 1844.08,-554.36 1834.03,-551 1834.12,-558"/>
</g>
<!-- /booru_config_converter.dart&#45;&gt;/rating_parser.dart -->
<g id="edge90" class="edge">
<title>/booru_config_converter.dart&#45;&gt;/rating_parser.dart</title>
<path fill="none" stroke="black" stroke-width="1.3" d="M1807.78,-796.83C1818.13,-794.83 1828.55,-792.85 1838.5,-791 1999.18,-761.15 2188.9,-728.78 2285.25,-712.55"/>
<polygon fill="black" stroke="black" stroke-width="1.3" points="2285.59,-716.04 2294.87,-710.93 2284.43,-709.14 2285.59,-716.04"/>
</g>
<!-- /booru_config_converter.dart&#45;&gt;/booru_config.dart -->
<g id="edge88" class="edge">
<title>/booru_config_converter.dart&#45;&gt;/booru_config.dart</title>
<path fill="none" stroke="black" stroke-width="1.3" d="M1780.98,-795.53C1794.75,-788.95 1808.33,-780.28 1818.5,-769 1836.76,-748.75 1819.85,-730.89 1838.5,-711 1850.95,-697.73 1867.91,-688.23 1884.68,-681.5"/>
<polygon fill="black" stroke="black" stroke-width="1.3" points="1885.62,-684.88 1893.79,-678.13 1883.19,-678.31 1885.62,-684.88"/>
</g>
<!-- /booru_config_converter.dart&#45;&gt;/types.dart -->
<g id="edge91" class="edge">
<title>/booru_config_converter.dart&#45;&gt;/types.dart</title>
<path fill="none" stroke="black" stroke-width="1.3" d="M1807.87,-820.57C1907.82,-827.36 2077.6,-836.26 2223.5,-831 2252.65,-829.95 2285.55,-827.52 2310.24,-825.46"/>
<polygon fill="black" stroke="black" stroke-width="1.3" points="2310.37,-828.96 2320.04,-824.61 2309.77,-821.98 2310.37,-828.96"/>
</g>
<!-- /booru_config_converter.dart&#45;&gt;/booru_config_data.dart -->
<g id="edge89" class="edge">
<title>/booru_config_converter.dart&#45;&gt;/booru_config_data.dart</title>
<path fill="none" stroke="black" stroke-width="1.3" d="M1807.91,-810.2C1884.72,-806.81 1996.32,-801.89 2071.55,-798.58"/>
<polygon fill="black" stroke="black" stroke-width="1.3" points="2071.5,-802.08 2081.33,-798.14 2071.19,-795.09 2071.5,-802.08"/>
</g>
<!-- /booru_config_deeplink_resolver.dart -->
<g id="node42" class="node">
<title>/booru_config_deeplink_resolver.dart</title>
<path fill="Lavender" stroke="black" stroke-width="1.3" d="M756.62,-208C756.62,-208 553.88,-208 553.88,-208 547.88,-208 541.88,-202 541.88,-196 541.88,-196 541.88,-184 541.88,-184 541.88,-178 547.88,-172 553.88,-172 553.88,-172 756.62,-172 756.62,-172 762.62,-172 768.62,-178 768.62,-184 768.62,-184 768.62,-196 768.62,-196 768.62,-202 762.62,-208 756.62,-208"/>
<text text-anchor="middle" x="655.25" y="-184.75" font-family="Arial" font-size="15.00">booru_config_deeplink_resolver</text>
</g>
<!-- /booru_config_deeplink_resolver.dart&#45;&gt;/booru_config.dart -->
<g id="edge92" class="edge">
<title>/booru_config_deeplink_resolver.dart&#45;&gt;/booru_config.dart</title>
<path fill="none" stroke="black" stroke-width="1.3" d="M768.72,-177.48C865.59,-167.79 1009.2,-156 1134.75,-156 1134.75,-156 1134.75,-156 1490.12,-156 1643.76,-156 1728.65,-139.38 1818.5,-264 1863.67,-326.65 1796.3,-546.31 1838.5,-611 1849.37,-627.67 1866.96,-639.54 1884.8,-647.87"/>
<polygon fill="black" stroke="black" stroke-width="1.3" points="1883.2,-651 1893.77,-651.72 1885.96,-644.56 1883.2,-651"/>
</g>
<!-- /booru_config_deeplink_resolver.dart&#45;&gt;/providers.dart -->
<g id="edge95" class="edge">
<title>/booru_config_deeplink_resolver.dart&#45;&gt;/providers.dart</title>
<path fill="none" stroke="black" stroke-width="1.3" d="M745.2,-208.45C765.33,-213.44 786.44,-219.34 805.75,-226 810.75,-227.73 861.71,-251.09 901.74,-269.54"/>
<polygon fill="black" stroke="black" stroke-width="1.3" points="900.1,-272.63 910.64,-273.64 903.03,-266.28 900.1,-272.63"/>
</g>
<!-- /booru_config_deeplink_resolver.dart&#45;&gt;/manage/booru_config_provider.dart -->
<g id="edge93" class="edge">
<title>/booru_config_deeplink_resolver.dart&#45;&gt;/manage/booru_config_provider.dart</title>
<path fill="none" stroke="black" stroke-width="1.3" d="M768.7,-204.23C850.36,-215.56 963.22,-233.28 1061,-256 1190.52,-286.1 1223.12,-295.34 1347.25,-343 1379.64,-355.44 1414.99,-372.01 1442.18,-385.43"/>
<polygon fill="black" stroke="black" stroke-width="1.3" points="1440.28,-388.4 1450.79,-389.72 1443.4,-382.13 1440.28,-388.4"/>
</g>
<!-- /booru_config_deeplink_resolver.dart&#45;&gt;/manage/current_booru_providers.dart -->
<g id="edge94" class="edge">
<title>/booru_config_deeplink_resolver.dart&#45;&gt;/manage/current_booru_providers.dart</title>
<path fill="none" stroke="black" stroke-width="1.3" d="M768.88,-191.47C865.85,-192.61 1009.51,-194 1134.75,-194 1134.75,-194 1134.75,-194 1279.88,-194 1421.05,-194 1479.37,-153 1595,-234 1620.63,-251.95 1607.26,-276.43 1627.4,-299.53"/>
<polygon fill="black" stroke="black" stroke-width="1.3" points="1624.91,-301.99 1634.6,-306.28 1629.7,-296.89 1624.91,-301.99"/>
</g>
<!-- metrics -->
<g id="node43" class="node">
<title>metrics</title>
<path fill="Lavender" stroke="black" stroke-width="1.3" d="M124,-1361C124,-1361 12,-1361 12,-1361 6,-1361 0,-1355 0,-1349 0,-1349 0,-1185 0,-1185 0,-1179 6,-1173 12,-1173 12,-1173 124,-1173 124,-1173 130,-1173 136,-1179 136,-1185 136,-1185 136,-1349 136,-1349 136,-1355 130,-1361 124,-1361"/>
<text text-anchor="start" x="8" y="-1342.75" font-family="Arial" font-size="15.00"> isAcyclic: false </text>
<text text-anchor="start" x="8" y="-1324.75" font-family="Arial" font-size="15.00"> numNodes: 42 &#160;</text>
<text text-anchor="start" x="8" y="-1306.75" font-family="Arial" font-size="15.00"> numEdges: 95 &#160;</text>
<text text-anchor="start" x="8" y="-1288.75" font-family="Arial" font-size="15.00"> avgDegree: 2.26 </text>
<text text-anchor="start" x="8" y="-1270.75" font-family="Arial" font-size="15.00"> numOrphans: 0 </text>
<text text-anchor="start" x="8" y="-1252.75" font-family="Arial" font-size="15.00"> ccd: 498 </text>
<text text-anchor="start" x="8" y="-1234.75" font-family="Arial" font-size="15.00"> acd: 11.86 </text>
<text text-anchor="start" x="8" y="-1216.75" font-family="Arial" font-size="15.00"> nccd: 2.6 </text>
<text text-anchor="start" x="8" y="-1198.75" font-family="Arial" font-size="15.00"> totalSloc: 5236 </text>
<text text-anchor="start" x="8" y="-1180.75" font-family="Arial" font-size="15.00"> avgSloc: 124.67 </text>
</g>
</g>
</svg>
